<?xml version="1.0" encoding="utf-8"?>
<svg xmlns="http://www.w3.org/2000/svg" xmlns:xlink="http://www.w3.org/1999/xlink" width="600" height="400" viewBox="0 0 2400 1600">
<defs>
  <clipPath id="clip210">
    <rect x="0" y="0" width="2400" height="1600"/>
  </clipPath>
</defs>
<path clip-path="url(#clip210)" d="
M0 1600 L2400 1600 L2400 0 L0 0  Z
  " fill="#000000" fill-rule="evenodd" fill-opacity="0"/>
<defs>
  <clipPath id="clip211">
    <rect x="480" y="0" width="1681" height="1600"/>
  </clipPath>
</defs>
<path clip-path="url(#clip210)" d="
M15.748 1552.76 L2384.25 1552.76 L2384.25 47.2441 L15.748 47.2441  Z
  " fill="#000000" fill-rule="evenodd" fill-opacity="0"/>
<defs>
  <clipPath id="clip212">
    <rect x="15" y="47" width="2370" height="1507"/>
  </clipPath>
</defs>
<polyline clip-path="url(#clip212)" style="stroke:#cd3333; stroke-linecap:butt; stroke-linejoin:round; stroke-width:20; stroke-opacity:1; fill:none" points="
  82.7812,800 401.986,800 721.192,800 2317.22,800 
  "/>
<polyline clip-path="url(#clip212)" style="stroke:#228b22; stroke-linecap:butt; stroke-linejoin:round; stroke-width:20; stroke-opacity:1; fill:none" points="
  82.7812,587.196 416.237,587.196 708.647,600.283 2317.22,812.881 
  "/>
<polyline clip-path="url(#clip212)" style="stroke:#228b22; stroke-linecap:butt; stroke-linejoin:round; stroke-width:20; stroke-opacity:1; fill:none" points="
  82.7812,1012.8 416.237,1012.8 708.647,999.717 2317.22,787.119 
  "/>
<polyline clip-path="url(#clip212)" style="stroke:#4169e1; stroke-linecap:butt; stroke-linejoin:round; stroke-width:20; stroke-opacity:1; fill:none" points="
  82.7812,374.393 459.78,374.393 668.554,393.487 2317.22,868.719 
  "/>
<polyline clip-path="url(#clip212)" style="stroke:#4169e1; stroke-linecap:butt; stroke-linejoin:round; stroke-width:20; stroke-opacity:1; fill:none" points="
  82.7812,1225.61 459.78,1225.61 668.554,1206.51 2317.22,731.281 
  "/>
<polyline clip-path="url(#clip212)" style="stroke:#b452cd; stroke-linecap:butt; stroke-linejoin:round; stroke-width:20; stroke-opacity:1; fill:none" points="
  82.7812,161.589 535.23,161.589 591.417,169.598 2317.22,1090.6 
  "/>
<polyline clip-path="url(#clip212)" style="stroke:#b452cd; stroke-linecap:butt; stroke-linejoin:round; stroke-width:20; stroke-opacity:1; fill:none" points="
  82.7812,1438.41 535.23,1438.41 591.417,1430.4 2317.22,509.395 
  "/>
<polyline clip-path="url(#clip212)" style="stroke:#ffffff; stroke-linecap:butt; stroke-linejoin:round; stroke-width:20; stroke-opacity:1; fill:none" points="
  549.581,1470.33 548.108,1467.14 546.643,1463.95 545.187,1460.76 543.74,1457.56 542.3,1454.37 540.87,1451.18 539.447,1447.99 538.033,1444.79 536.628,1441.6 
  535.231,1438.41 533.842,1435.22 532.461,1432.03 531.088,1428.83 529.724,1425.64 528.368,1422.45 527.02,1419.26 525.681,1416.07 524.349,1412.87 523.026,1409.68 
  521.71,1406.49 520.403,1403.3 519.104,1400.11 517.812,1396.91 516.529,1393.72 515.254,1390.53 513.986,1387.34 512.727,1384.15 511.476,1380.95 510.232,1377.76 
  508.996,1374.57 507.769,1371.38 506.549,1368.19 505.337,1364.99 504.132,1361.8 502.936,1358.61 501.747,1355.42 500.566,1352.23 499.393,1349.03 498.227,1345.84 
  497.069,1342.65 495.919,1339.46 494.776,1336.27 493.641,1333.07 492.514,1329.88 491.394,1326.69 490.282,1323.5 489.178,1320.3 488.081,1317.11 486.991,1313.92 
  485.91,1310.73 484.835,1307.54 483.768,1304.34 482.709,1301.15 481.657,1297.96 480.612,1294.77 479.575,1291.58 478.546,1288.38 477.523,1285.19 476.508,1282 
  475.501,1278.81 474.501,1275.62 473.508,1272.42 472.522,1269.23 471.544,1266.04 470.573,1262.85 469.61,1259.66 468.653,1256.46 467.704,1253.27 466.762,1250.08 
  465.828,1246.89 464.9,1243.7 463.98,1240.5 463.067,1237.31 462.161,1234.12 461.262,1230.93 460.371,1227.74 459.487,1224.54 458.609,1221.35 457.739,1218.16 
  456.876,1214.97 456.02,1211.77 455.171,1208.58 454.329,1205.39 453.495,1202.2 452.667,1199.01 451.846,1195.81 451.033,1192.62 450.226,1189.43 449.426,1186.24 
  448.634,1183.05 447.848,1179.85 447.069,1176.66 446.298,1173.47 445.533,1170.28 444.775,1167.09 444.024,1163.89 443.28,1160.7 442.543,1157.51 441.813,1154.32 
  441.089,1151.13 440.373,1147.93 439.663,1144.74 438.961,1141.55 438.265,1138.36 437.576,1135.17 436.894,1131.97 436.218,1128.78 435.55,1125.59 434.888,1122.4 
  434.233,1119.21 433.585,1116.01 432.943,1112.82 432.309,1109.63 431.681,1106.44 431.06,1103.25 430.445,1100.05 429.838,1096.86 429.237,1093.67 428.643,1090.48 
  428.055,1087.28 427.474,1084.09 426.9,1080.9 426.333,1077.71 425.772,1074.52 425.218,1071.32 424.671,1068.13 424.13,1064.94 423.596,1061.75 423.069,1058.56 
  422.548,1055.36 422.034,1052.17 421.527,1048.98 421.026,1045.79 420.532,1042.6 420.044,1039.4 419.563,1036.21 419.089,1033.02 418.621,1029.83 418.16,1026.64 
  417.705,1023.44 417.257,1020.25 416.815,1017.06 416.381,1013.87 415.952,1010.68 415.53,1007.48 415.115,1004.29 414.706,1001.1 414.304,997.907 413.909,994.715 
  413.52,991.523 413.137,988.331 412.761,985.139 412.391,981.947 412.028,978.755 411.672,975.563 411.322,972.371 410.978,969.179 410.641,965.987 410.311,962.795 
  409.987,959.603 409.669,956.411 409.358,953.219 409.053,950.027 408.755,946.834 408.464,943.642 408.178,940.45 407.9,937.258 407.627,934.066 407.361,930.874 
  407.102,927.682 406.849,924.49 406.603,921.298 406.362,918.106 406.129,914.914 405.902,911.722 405.681,908.53 405.466,905.338 405.259,902.146 405.057,898.954 
  404.862,895.762 404.673,892.57 404.491,889.378 404.315,886.185 404.146,882.993 403.983,879.801 403.826,876.609 403.676,873.417 403.532,870.225 403.395,867.033 
  403.264,863.841 403.139,860.649 403.021,857.457 402.909,854.265 402.804,851.073 402.705,847.881 402.612,844.689 402.526,841.497 402.446,838.305 402.373,835.113 
  402.306,831.921 402.245,828.728 402.191,825.536 402.143,822.344 402.101,819.152 402.066,815.96 402.038,812.768 402.015,809.576 401.999,806.384 401.99,803.192 
  401.987,800 401.99,796.808 401.999,793.616 402.015,790.424 402.038,787.232 402.066,784.04 402.101,780.848 402.143,777.656 402.191,774.464 402.245,771.272 
  402.306,768.079 402.373,764.887 402.446,761.695 402.526,758.503 402.612,755.311 402.705,752.119 402.804,748.927 402.909,745.735 403.021,742.543 403.139,739.351 
  403.264,736.159 403.395,732.967 403.532,729.775 403.676,726.583 403.826,723.391 403.983,720.199 404.146,717.007 404.315,713.815 404.491,710.622 404.673,707.43 
  404.862,704.238 405.057,701.046 405.259,697.854 405.466,694.662 405.681,691.47 405.902,688.278 406.129,685.086 406.362,681.894 406.603,678.702 406.849,675.51 
  407.102,672.318 407.361,669.126 407.627,665.934 407.9,662.742 408.178,659.55 408.464,656.358 408.755,653.166 409.053,649.973 409.358,646.781 409.669,643.589 
  409.987,640.397 410.311,637.205 410.641,634.013 410.978,630.821 411.322,627.629 411.672,624.437 412.028,621.245 412.391,618.053 412.761,614.861 413.137,611.669 
  413.52,608.477 413.909,605.285 414.304,602.093 414.706,598.901 415.115,595.709 415.53,592.517 415.952,589.324 416.381,586.132 416.815,582.94 417.257,579.748 
  417.705,576.556 418.16,573.364 418.621,570.172 419.089,566.98 419.563,563.788 420.044,560.596 420.532,557.404 421.026,554.212 421.527,551.02 422.034,547.828 
  422.548,544.636 423.069,541.444 423.596,538.252 424.13,535.06 424.671,531.867 425.218,528.675 425.772,525.483 426.333,522.291 426.9,519.099 427.474,515.907 
  428.055,512.715 428.643,509.523 429.237,506.331 429.838,503.139 430.445,499.947 431.06,496.755 431.681,493.563 432.309,490.371 432.943,487.179 433.585,483.987 
  434.233,480.795 434.888,477.603 435.55,474.411 436.218,471.218 436.894,468.026 437.576,464.834 438.265,461.642 438.961,458.45 439.663,455.258 440.373,452.066 
  441.089,448.874 441.813,445.682 442.543,442.49 443.28,439.298 444.024,436.106 444.775,432.914 445.533,429.722 446.298,426.53 447.069,423.338 447.848,420.146 
  448.634,416.954 449.426,413.761 450.226,410.569 451.033,407.377 451.846,404.185 452.667,400.993 453.495,397.801 454.329,394.609 455.171,391.417 456.02,388.225 
  456.876,385.033 457.739,381.841 458.609,378.649 459.487,375.457 460.371,372.265 461.262,369.073 462.161,365.881 463.067,362.689 463.98,359.497 464.9,356.305 
  465.828,353.112 466.762,349.92 467.704,346.728 468.653,343.536 469.61,340.344 470.573,337.152 471.544,333.96 472.522,330.768 473.508,327.576 474.501,324.384 
  475.501,321.192 476.508,318 477.523,314.808 478.546,311.616 479.575,308.424 480.612,305.232 481.657,302.04 482.709,298.848 483.768,295.655 484.835,292.463 
  485.91,289.271 486.991,286.079 488.081,282.887 489.178,279.695 490.282,276.503 491.394,273.311 492.514,270.119 493.641,266.927 494.776,263.735 495.919,260.543 
  497.069,257.351 498.227,254.159 499.393,250.967 500.566,247.775 501.747,244.583 502.936,241.391 504.132,238.199 505.337,235.006 506.549,231.814 507.769,228.622 
  508.996,225.43 510.232,222.238 511.476,219.046 512.727,215.854 513.986,212.662 515.254,209.47 516.529,206.278 517.812,203.086 519.104,199.894 520.403,196.702 
  521.71,193.51 523.026,190.318 524.349,187.126 525.681,183.934 527.02,180.742 528.368,177.55 529.724,174.357 531.088,171.165 532.461,167.973 533.842,164.781 
  535.231,161.589 536.628,158.397 538.033,155.205 539.447,152.013 540.87,148.821 542.3,145.629 543.74,142.437 545.187,139.245 546.643,136.053 548.108,132.861 
  549.581,129.669 
  "/>
<polyline clip-path="url(#clip212)" style="stroke:#ffffff; stroke-linecap:butt; stroke-linejoin:round; stroke-width:20; stroke-opacity:1; fill:none" points="
  573.598,1470.33 575.071,1467.14 576.535,1463.95 577.991,1460.76 579.439,1457.56 580.878,1454.37 582.309,1451.18 583.731,1447.99 585.145,1444.79 586.551,1441.6 
  587.948,1438.41 589.337,1435.22 590.718,1432.03 592.09,1428.83 593.454,1425.64 594.81,1422.45 596.158,1419.26 597.498,1416.07 598.829,1412.87 600.153,1409.68 
  601.468,1406.49 602.776,1403.3 604.075,1400.11 605.366,1396.91 606.649,1393.72 607.925,1390.53 609.192,1387.34 610.451,1384.15 611.703,1380.95 612.946,1377.76 
  614.182,1374.57 615.41,1371.38 616.63,1368.19 617.842,1364.99 619.046,1361.8 620.243,1358.61 621.432,1355.42 622.613,1352.23 623.786,1349.03 624.951,1345.84 
  626.109,1342.65 627.26,1339.46 628.402,1336.27 629.537,1333.07 630.664,1329.88 631.784,1326.69 632.896,1323.5 634.001,1320.3 635.098,1317.11 636.187,1313.92 
  637.269,1310.73 638.343,1307.54 639.41,1304.34 640.47,1301.15 641.522,1297.96 642.566,1294.77 643.603,1291.58 644.633,1288.38 645.655,1285.19 646.67,1282 
  647.678,1278.81 648.678,1275.62 649.671,1272.42 650.656,1269.23 651.634,1266.04 652.605,1262.85 653.569,1259.66 654.525,1256.46 655.474,1253.27 656.416,1250.08 
  657.351,1246.89 658.278,1243.7 659.198,1240.5 660.111,1237.31 661.017,1234.12 661.916,1230.93 662.808,1227.74 663.692,1224.54 664.569,1221.35 665.439,1218.16 
  666.302,1214.97 667.158,1211.77 668.007,1208.58 668.849,1205.39 669.684,1202.2 670.511,1199.01 671.332,1195.81 672.146,1192.62 672.952,1189.43 673.752,1186.24 
  674.545,1183.05 675.33,1179.85 676.109,1176.66 676.881,1173.47 677.646,1170.28 678.403,1167.09 679.154,1163.89 679.898,1160.7 680.636,1157.51 681.366,1154.32 
  682.089,1151.13 682.806,1147.93 683.515,1144.74 684.218,1141.55 684.914,1138.36 685.603,1135.17 686.285,1131.97 686.96,1128.78 687.629,1125.59 688.291,1122.4 
  688.946,1119.21 689.594,1116.01 690.235,1112.82 690.87,1109.63 691.498,1106.44 692.119,1103.25 692.733,1100.05 693.341,1096.86 693.942,1093.67 694.536,1090.48 
  695.123,1087.28 695.704,1084.09 696.278,1080.9 696.846,1077.71 697.406,1074.52 697.96,1071.32 698.508,1068.13 699.048,1064.94 699.582,1061.75 700.11,1058.56 
  700.63,1055.36 701.144,1052.17 701.652,1048.98 702.153,1045.79 702.647,1042.6 703.134,1039.4 703.615,1036.21 704.09,1033.02 704.558,1029.83 705.019,1026.64 
  705.473,1023.44 705.922,1020.25 706.363,1017.06 706.798,1013.87 707.226,1010.68 707.648,1007.48 708.063,1004.29 708.472,1001.1 708.874,997.907 709.27,994.715 
  709.659,991.523 710.041,988.331 710.417,985.139 710.787,981.947 711.15,978.755 711.507,975.563 711.857,972.371 712.2,969.179 712.537,965.987 712.868,962.795 
  713.192,959.603 713.509,956.411 713.82,953.219 714.125,950.027 714.423,946.834 714.715,943.642 715,940.45 715.279,937.258 715.551,934.066 715.817,930.874 
  716.076,927.682 716.329,924.49 716.576,921.298 716.816,918.106 717.05,914.914 717.277,911.722 717.498,908.53 717.712,905.338 717.92,902.146 718.121,898.954 
  718.316,895.762 718.505,892.57 718.687,889.378 718.863,886.185 719.033,882.993 719.196,879.801 719.352,876.609 719.502,873.417 719.646,870.225 719.784,867.033 
  719.915,863.841 720.039,860.649 720.157,857.457 720.269,854.265 720.375,851.073 720.474,847.881 720.566,844.689 720.652,841.497 720.732,838.305 720.806,835.113 
  720.873,831.921 720.933,828.728 720.988,825.536 721.036,822.344 721.077,819.152 721.112,815.96 721.141,812.768 721.163,809.576 721.179,806.384 721.189,803.192 
  721.192,800 721.189,796.808 721.179,793.616 721.163,790.424 721.141,787.232 721.112,784.04 721.077,780.848 721.036,777.656 720.988,774.464 720.933,771.272 
  720.873,768.079 720.806,764.887 720.732,761.695 720.652,758.503 720.566,755.311 720.474,752.119 720.375,748.927 720.269,745.735 720.157,742.543 720.039,739.351 
  719.915,736.159 719.784,732.967 719.646,729.775 719.502,726.583 719.352,723.391 719.196,720.199 719.033,717.007 718.863,713.815 718.687,710.622 718.505,707.43 
  718.316,704.238 718.121,701.046 717.92,697.854 717.712,694.662 717.498,691.47 717.277,688.278 717.05,685.086 716.816,681.894 716.576,678.702 716.329,675.51 
  716.076,672.318 715.817,669.126 715.551,665.934 715.279,662.742 715,659.55 714.715,656.358 714.423,653.166 714.125,649.973 713.82,646.781 713.509,643.589 
  713.192,640.397 712.868,637.205 712.537,634.013 712.2,630.821 711.857,627.629 711.507,624.437 711.15,621.245 710.787,618.053 710.417,614.861 710.041,611.669 
  709.659,608.477 709.27,605.285 708.874,602.093 708.472,598.901 708.063,595.709 707.648,592.517 707.226,589.324 706.798,586.132 706.363,582.94 705.922,579.748 
  705.473,576.556 705.019,573.364 704.558,570.172 704.09,566.98 703.615,563.788 703.134,560.596 702.647,557.404 702.153,554.212 701.652,551.02 701.144,547.828 
  700.63,544.636 700.11,541.444 699.582,538.252 699.048,535.06 698.508,531.867 697.96,528.675 697.406,525.483 696.846,522.291 696.278,519.099 695.704,515.907 
  695.123,512.715 694.536,509.523 693.942,506.331 693.341,503.139 692.733,499.947 692.119,496.755 691.498,493.563 690.87,490.371 690.235,487.179 689.594,483.987 
  688.946,480.795 688.291,477.603 687.629,474.411 686.96,471.218 686.285,468.026 685.603,464.834 684.914,461.642 684.218,458.45 683.515,455.258 682.806,452.066 
  682.089,448.874 681.366,445.682 680.636,442.49 679.898,439.298 679.154,436.106 678.403,432.914 677.646,429.722 676.881,426.53 676.109,423.338 675.33,420.146 
  674.545,416.954 673.752,413.761 672.952,410.569 672.146,407.377 671.332,404.185 670.511,400.993 669.684,397.801 668.849,394.609 668.007,391.417 667.158,388.225 
  666.302,385.033 665.439,381.841 664.569,378.649 663.692,375.457 662.808,372.265 661.916,369.073 661.017,365.881 660.111,362.689 659.198,359.497 658.278,356.305 
  657.351,353.112 656.416,349.92 655.474,346.728 654.525,343.536 653.569,340.344 652.605,337.152 651.634,333.96 650.656,330.768 649.671,327.576 648.678,324.384 
  647.678,321.192 646.67,318 645.655,314.808 644.633,311.616 643.603,308.424 642.566,305.232 641.522,302.04 640.47,298.848 639.41,295.655 638.343,292.463 
  637.269,289.271 636.187,286.079 635.098,282.887 634.001,279.695 632.896,276.503 631.784,273.311 630.664,270.119 629.537,266.927 628.402,263.735 627.26,260.543 
  626.109,257.351 624.951,254.159 623.786,250.967 622.613,247.775 621.432,244.583 620.243,241.391 619.046,238.199 617.842,235.006 616.63,231.814 615.41,228.622 
  614.182,225.43 612.946,222.238 611.703,219.046 610.451,215.854 609.192,212.662 607.925,209.47 606.649,206.278 605.366,203.086 604.075,199.894 602.776,196.702 
  601.468,193.51 600.153,190.318 598.829,187.126 597.498,183.934 596.158,180.742 594.81,177.55 593.454,174.357 592.09,171.165 590.718,167.973 589.337,164.781 
  587.948,161.589 586.551,158.397 585.145,155.205 583.731,152.013 582.309,148.821 580.878,145.629 579.439,142.437 577.991,139.245 576.535,136.053 575.071,132.861 
  573.598,129.669 
  "/>
<polyline clip-path="url(#clip212)" style="stroke:#ffffff; stroke-linecap:butt; stroke-linejoin:round; stroke-width:20; stroke-opacity:1; fill:none" points="
  2317.22,1470.33 2317.22,1467.14 2317.22,1463.95 2317.22,1460.76 2317.22,1457.56 2317.22,1454.37 2317.22,1451.18 2317.22,1447.99 2317.22,1444.79 2317.22,1441.6 
  2317.22,1438.41 2317.22,1435.22 2317.22,1432.03 2317.22,1428.83 2317.22,1425.64 2317.22,1422.45 2317.22,1419.26 2317.22,1416.07 2317.22,1412.87 2317.22,1409.68 
  2317.22,1406.49 2317.22,1403.3 2317.22,1400.11 2317.22,1396.91 2317.22,1393.72 2317.22,1390.53 2317.22,1387.34 2317.22,1384.15 2317.22,1380.95 2317.22,1377.76 
  2317.22,1374.57 2317.22,1371.38 2317.22,1368.19 2317.22,1364.99 2317.22,1361.8 2317.22,1358.61 2317.22,1355.42 2317.22,1352.23 2317.22,1349.03 2317.22,1345.84 
  2317.22,1342.65 2317.22,1339.46 2317.22,1336.27 2317.22,1333.07 2317.22,1329.88 2317.22,1326.69 2317.22,1323.5 2317.22,1320.3 2317.22,1317.11 2317.22,1313.92 
  2317.22,1310.73 2317.22,1307.54 2317.22,1304.34 2317.22,1301.15 2317.22,1297.96 2317.22,1294.77 2317.22,1291.58 2317.22,1288.38 2317.22,1285.19 2317.22,1282 
  2317.22,1278.81 2317.22,1275.62 2317.22,1272.42 2317.22,1269.23 2317.22,1266.04 2317.22,1262.85 2317.22,1259.66 2317.22,1256.46 2317.22,1253.27 2317.22,1250.08 
  2317.22,1246.89 2317.22,1243.7 2317.22,1240.5 2317.22,1237.31 2317.22,1234.12 2317.22,1230.93 2317.22,1227.74 2317.22,1224.54 2317.22,1221.35 2317.22,1218.16 
  2317.22,1214.97 2317.22,1211.77 2317.22,1208.58 2317.22,1205.39 2317.22,1202.2 2317.22,1199.01 2317.22,1195.81 2317.22,1192.62 2317.22,1189.43 2317.22,1186.24 
  2317.22,1183.05 2317.22,1179.85 2317.22,1176.66 2317.22,1173.47 2317.22,1170.28 2317.22,1167.09 2317.22,1163.89 2317.22,1160.7 2317.22,1157.51 2317.22,1154.32 
  2317.22,1151.13 2317.22,1147.93 2317.22,1144.74 2317.22,1141.55 2317.22,1138.36 2317.22,1135.17 2317.22,1131.97 2317.22,1128.78 2317.22,1125.59 2317.22,1122.4 
  2317.22,1119.21 2317.22,1116.01 2317.22,1112.82 2317.22,1109.63 2317.22,1106.44 2317.22,1103.25 2317.22,1100.05 2317.22,1096.86 2317.22,1093.67 2317.22,1090.48 
  2317.22,1087.28 2317.22,1084.09 2317.22,1080.9 2317.22,1077.71 2317.22,1074.52 2317.22,1071.32 2317.22,1068.13 2317.22,1064.94 2317.22,1061.75 2317.22,1058.56 
  2317.22,1055.36 2317.22,1052.17 2317.22,1048.98 2317.22,1045.79 2317.22,1042.6 2317.22,1039.4 2317.22,1036.21 2317.22,1033.02 2317.22,1029.83 2317.22,1026.64 
  2317.22,1023.44 2317.22,1020.25 2317.22,1017.06 2317.22,1013.87 2317.22,1010.68 2317.22,1007.48 2317.22,1004.29 2317.22,1001.1 2317.22,997.907 2317.22,994.715 
  2317.22,991.523 2317.22,988.331 2317.22,985.139 2317.22,981.947 2317.22,978.755 2317.22,975.563 2317.22,972.371 2317.22,969.179 2317.22,965.987 2317.22,962.795 
  2317.22,959.603 2317.22,956.411 2317.22,953.219 2317.22,950.027 2317.22,946.834 2317.22,943.642 2317.22,940.45 2317.22,937.258 2317.22,934.066 2317.22,930.874 
  2317.22,927.682 2317.22,924.49 2317.22,921.298 2317.22,918.106 2317.22,914.914 2317.22,911.722 2317.22,908.53 2317.22,905.338 2317.22,902.146 2317.22,898.954 
  2317.22,895.762 2317.22,892.57 2317.22,889.378 2317.22,886.185 2317.22,882.993 2317.22,879.801 2317.22,876.609 2317.22,873.417 2317.22,870.225 2317.22,867.033 
  2317.22,863.841 2317.22,860.649 2317.22,857.457 2317.22,854.265 2317.22,851.073 2317.22,847.881 2317.22,844.689 2317.22,841.497 2317.22,838.305 2317.22,835.113 
  2317.22,831.921 2317.22,828.728 2317.22,825.536 2317.22,822.344 2317.22,819.152 2317.22,815.96 2317.22,812.768 2317.22,809.576 2317.22,806.384 2317.22,803.192 
  2317.22,800 2317.22,796.808 2317.22,793.616 2317.22,790.424 2317.22,787.232 2317.22,784.04 2317.22,780.848 2317.22,777.656 2317.22,774.464 2317.22,771.272 
  2317.22,768.079 2317.22,764.887 2317.22,761.695 2317.22,758.503 2317.22,755.311 2317.22,752.119 2317.22,748.927 2317.22,745.735 2317.22,742.543 2317.22,739.351 
  2317.22,736.159 2317.22,732.967 2317.22,729.775 2317.22,726.583 2317.22,723.391 2317.22,720.199 2317.22,717.007 2317.22,713.815 2317.22,710.622 2317.22,707.43 
  2317.22,704.238 2317.22,701.046 2317.22,697.854 2317.22,694.662 2317.22,691.47 2317.22,688.278 2317.22,685.086 2317.22,681.894 2317.22,678.702 2317.22,675.51 
  2317.22,672.318 2317.22,669.126 2317.22,665.934 2317.22,662.742 2317.22,659.55 2317.22,656.358 2317.22,653.166 2317.22,649.973 2317.22,646.781 2317.22,643.589 
  2317.22,640.397 2317.22,637.205 2317.22,634.013 2317.22,630.821 2317.22,627.629 2317.22,624.437 2317.22,621.245 2317.22,618.053 2317.22,614.861 2317.22,611.669 
  2317.22,608.477 2317.22,605.285 2317.22,602.093 2317.22,598.901 2317.22,595.709 2317.22,592.517 2317.22,589.324 2317.22,586.132 2317.22,582.94 2317.22,579.748 
  2317.22,576.556 2317.22,573.364 2317.22,570.172 2317.22,566.98 2317.22,563.788 2317.22,560.596 2317.22,557.404 2317.22,554.212 2317.22,551.02 2317.22,547.828 
  2317.22,544.636 2317.22,541.444 2317.22,538.252 2317.22,535.06 2317.22,531.867 2317.22,528.675 2317.22,525.483 2317.22,522.291 2317.22,519.099 2317.22,515.907 
  2317.22,512.715 2317.22,509.523 2317.22,506.331 2317.22,503.139 2317.22,499.947 2317.22,496.755 2317.22,493.563 2317.22,490.371 2317.22,487.179 2317.22,483.987 
  2317.22,480.795 2317.22,477.603 2317.22,474.411 2317.22,471.218 2317.22,468.026 2317.22,464.834 2317.22,461.642 2317.22,458.45 2317.22,455.258 2317.22,452.066 
  2317.22,448.874 2317.22,445.682 2317.22,442.49 2317.22,439.298 2317.22,436.106 2317.22,432.914 2317.22,429.722 2317.22,426.53 2317.22,423.338 2317.22,420.146 
  2317.22,416.954 2317.22,413.761 2317.22,410.569 2317.22,407.377 2317.22,404.185 2317.22,400.993 2317.22,397.801 2317.22,394.609 2317.22,391.417 2317.22,388.225 
  2317.22,385.033 2317.22,381.841 2317.22,378.649 2317.22,375.457 2317.22,372.265 2317.22,369.073 2317.22,365.881 2317.22,362.689 2317.22,359.497 2317.22,356.305 
  2317.22,353.112 2317.22,349.92 2317.22,346.728 2317.22,343.536 2317.22,340.344 2317.22,337.152 2317.22,333.96 2317.22,330.768 2317.22,327.576 2317.22,324.384 
  2317.22,321.192 2317.22,318 2317.22,314.808 2317.22,311.616 2317.22,308.424 2317.22,305.232 2317.22,302.04 2317.22,298.848 2317.22,295.655 2317.22,292.463 
  2317.22,289.271 2317.22,286.079 2317.22,282.887 2317.22,279.695 2317.22,276.503 2317.22,273.311 2317.22,270.119 2317.22,266.927 2317.22,263.735 2317.22,260.543 
  2317.22,257.351 2317.22,254.159 2317.22,250.967 2317.22,247.775 2317.22,244.583 2317.22,241.391 2317.22,238.199 2317.22,235.006 2317.22,231.814 2317.22,228.622 
  2317.22,225.43 2317.22,222.238 2317.22,219.046 2317.22,215.854 2317.22,212.662 2317.22,209.47 2317.22,206.278 2317.22,203.086 2317.22,199.894 2317.22,196.702 
  2317.22,193.51 2317.22,190.318 2317.22,187.126 2317.22,183.934 2317.22,180.742 2317.22,177.55 2317.22,174.357 2317.22,171.165 2317.22,167.973 2317.22,164.781 
  2317.22,161.589 2317.22,158.397 2317.22,155.205 2317.22,152.013 2317.22,148.821 2317.22,145.629 2317.22,142.437 2317.22,139.245 2317.22,136.053 2317.22,132.861 
  2317.22,129.669 
  "/>
</svg>
