<?xml version="1.0" encoding="utf-8"?>
<svg xmlns="http://www.w3.org/2000/svg" xmlns:xlink="http://www.w3.org/1999/xlink" width="600" height="400" viewBox="0 0 2400 1600">
<defs>
  <clipPath id="clip580">
    <rect x="0" y="0" width="2400" height="1600"/>
  </clipPath>
</defs>
<path clip-path="url(#clip580)" d="M0 1600 L2400 1600 L2400 0 L0 0  Z" fill="#ffffff" fill-rule="evenodd" fill-opacity="1"/>
<defs>
  <clipPath id="clip581">
    <rect x="480" y="0" width="1681" height="1600"/>
  </clipPath>
</defs>
<path clip-path="url(#clip580)" d="M210.746 1423.18 L2352.76 1423.18 L2352.76 47.2441 L210.746 47.2441  Z" fill="#ffffff" fill-rule="evenodd" fill-opacity="1"/>
<defs>
  <clipPath id="clip582">
    <rect x="210" y="47" width="2143" height="1377"/>
  </clipPath>
</defs>
<polyline clip-path="url(#clip582)" style="stroke:#000000; stroke-linecap:round; stroke-linejoin:round; stroke-width:2; stroke-opacity:0.1; fill:none" points="271.369,1423.18 271.369,47.2441 "/>
<polyline clip-path="url(#clip582)" style="stroke:#000000; stroke-linecap:round; stroke-linejoin:round; stroke-width:2; stroke-opacity:0.1; fill:none" points="776.56,1423.18 776.56,47.2441 "/>
<polyline clip-path="url(#clip582)" style="stroke:#000000; stroke-linecap:round; stroke-linejoin:round; stroke-width:2; stroke-opacity:0.1; fill:none" points="1281.75,1423.18 1281.75,47.2441 "/>
<polyline clip-path="url(#clip582)" style="stroke:#000000; stroke-linecap:round; stroke-linejoin:round; stroke-width:2; stroke-opacity:0.1; fill:none" points="1786.94,1423.18 1786.94,47.2441 "/>
<polyline clip-path="url(#clip582)" style="stroke:#000000; stroke-linecap:round; stroke-linejoin:round; stroke-width:2; stroke-opacity:0.1; fill:none" points="2292.13,1423.18 2292.13,47.2441 "/>
<polyline clip-path="url(#clip582)" style="stroke:#000000; stroke-linecap:round; stroke-linejoin:round; stroke-width:2; stroke-opacity:0.1; fill:none" points="210.746,1240.4 2352.76,1240.4 "/>
<polyline clip-path="url(#clip582)" style="stroke:#000000; stroke-linecap:round; stroke-linejoin:round; stroke-width:2; stroke-opacity:0.1; fill:none" points="210.746,987.807 2352.76,987.807 "/>
<polyline clip-path="url(#clip582)" style="stroke:#000000; stroke-linecap:round; stroke-linejoin:round; stroke-width:2; stroke-opacity:0.1; fill:none" points="210.746,735.212 2352.76,735.212 "/>
<polyline clip-path="url(#clip582)" style="stroke:#000000; stroke-linecap:round; stroke-linejoin:round; stroke-width:2; stroke-opacity:0.1; fill:none" points="210.746,482.616 2352.76,482.616 "/>
<polyline clip-path="url(#clip582)" style="stroke:#000000; stroke-linecap:round; stroke-linejoin:round; stroke-width:2; stroke-opacity:0.1; fill:none" points="210.746,230.021 2352.76,230.021 "/>
<polyline clip-path="url(#clip580)" style="stroke:#000000; stroke-linecap:round; stroke-linejoin:round; stroke-width:4; stroke-opacity:1; fill:none" points="210.746,1423.18 2352.76,1423.18 "/>
<polyline clip-path="url(#clip580)" style="stroke:#000000; stroke-linecap:round; stroke-linejoin:round; stroke-width:4; stroke-opacity:1; fill:none" points="271.369,1423.18 271.369,1404.28 "/>
<polyline clip-path="url(#clip580)" style="stroke:#000000; stroke-linecap:round; stroke-linejoin:round; stroke-width:4; stroke-opacity:1; fill:none" points="776.56,1423.18 776.56,1404.28 "/>
<polyline clip-path="url(#clip580)" style="stroke:#000000; stroke-linecap:round; stroke-linejoin:round; stroke-width:4; stroke-opacity:1; fill:none" points="1281.75,1423.18 1281.75,1404.28 "/>
<polyline clip-path="url(#clip580)" style="stroke:#000000; stroke-linecap:round; stroke-linejoin:round; stroke-width:4; stroke-opacity:1; fill:none" points="1786.94,1423.18 1786.94,1404.28 "/>
<polyline clip-path="url(#clip580)" style="stroke:#000000; stroke-linecap:round; stroke-linejoin:round; stroke-width:4; stroke-opacity:1; fill:none" points="2292.13,1423.18 2292.13,1404.28 "/>
<path clip-path="url(#clip580)" d="M271.369 1454.1 Q267.758 1454.1 265.929 1457.66 Q264.124 1461.2 264.124 1468.33 Q264.124 1475.44 265.929 1479.01 Q267.758 1482.55 271.369 1482.55 Q275.003 1482.55 276.809 1479.01 Q278.637 1475.44 278.637 1468.33 Q278.637 1461.2 276.809 1457.66 Q275.003 1454.1 271.369 1454.1 M271.369 1450.39 Q277.179 1450.39 280.235 1455 Q283.313 1459.58 283.313 1468.33 Q283.313 1477.06 280.235 1481.67 Q277.179 1486.25 271.369 1486.25 Q265.559 1486.25 262.48 1481.67 Q259.424 1477.06 259.424 1468.33 Q259.424 1459.58 262.48 1455 Q265.559 1450.39 271.369 1450.39 Z" fill="#000000" fill-rule="nonzero" fill-opacity="1" /><path clip-path="url(#clip580)" d="M771.213 1481.64 L787.532 1481.64 L787.532 1485.58 L765.588 1485.58 L765.588 1481.64 Q768.25 1478.89 772.833 1474.26 Q777.44 1469.61 778.62 1468.27 Q780.865 1465.74 781.745 1464.01 Q782.648 1462.25 782.648 1460.56 Q782.648 1457.8 780.703 1456.07 Q778.782 1454.33 775.68 1454.33 Q773.481 1454.33 771.028 1455.09 Q768.597 1455.86 765.819 1457.41 L765.819 1452.69 Q768.643 1451.55 771.097 1450.97 Q773.551 1450.39 775.588 1450.39 Q780.958 1450.39 784.152 1453.08 Q787.347 1455.77 787.347 1460.26 Q787.347 1462.39 786.537 1464.31 Q785.75 1466.2 783.643 1468.8 Q783.064 1469.47 779.963 1472.69 Q776.861 1475.88 771.213 1481.64 Z" fill="#000000" fill-rule="nonzero" fill-opacity="1" /><path clip-path="url(#clip580)" d="M1284.76 1455.09 L1272.95 1473.54 L1284.76 1473.54 L1284.76 1455.09 M1283.53 1451.02 L1289.41 1451.02 L1289.41 1473.54 L1294.34 1473.54 L1294.34 1477.43 L1289.41 1477.43 L1289.41 1485.58 L1284.76 1485.58 L1284.76 1477.43 L1269.16 1477.43 L1269.16 1472.92 L1283.53 1451.02 Z" fill="#000000" fill-rule="nonzero" fill-opacity="1" /><path clip-path="url(#clip580)" d="M1787.35 1466.44 Q1784.2 1466.44 1782.35 1468.59 Q1780.52 1470.74 1780.52 1474.49 Q1780.52 1478.22 1782.35 1480.39 Q1784.2 1482.55 1787.35 1482.55 Q1790.5 1482.55 1792.32 1480.39 Q1794.18 1478.22 1794.18 1474.49 Q1794.18 1470.74 1792.32 1468.59 Q1790.5 1466.44 1787.35 1466.44 M1796.63 1451.78 L1796.63 1456.04 Q1794.87 1455.21 1793.06 1454.77 Q1791.28 1454.33 1789.52 1454.33 Q1784.89 1454.33 1782.44 1457.45 Q1780.01 1460.58 1779.66 1466.9 Q1781.03 1464.89 1783.09 1463.82 Q1785.15 1462.73 1787.62 1462.73 Q1792.83 1462.73 1795.84 1465.9 Q1798.87 1469.05 1798.87 1474.49 Q1798.87 1479.82 1795.73 1483.03 Q1792.58 1486.25 1787.35 1486.25 Q1781.35 1486.25 1778.18 1481.67 Q1775.01 1477.06 1775.01 1468.33 Q1775.01 1460.14 1778.9 1455.28 Q1782.79 1450.39 1789.34 1450.39 Q1791.1 1450.39 1792.88 1450.74 Q1794.68 1451.09 1796.63 1451.78 Z" fill="#000000" fill-rule="nonzero" fill-opacity="1" /><path clip-path="url(#clip580)" d="M2292.13 1469.17 Q2288.8 1469.17 2286.88 1470.95 Q2284.98 1472.73 2284.98 1475.86 Q2284.98 1478.98 2286.88 1480.77 Q2288.8 1482.55 2292.13 1482.55 Q2295.47 1482.55 2297.39 1480.77 Q2299.31 1478.96 2299.31 1475.86 Q2299.31 1472.73 2297.39 1470.95 Q2295.49 1469.17 2292.13 1469.17 M2287.46 1467.18 Q2284.45 1466.44 2282.76 1464.38 Q2281.09 1462.32 2281.09 1459.35 Q2281.09 1455.21 2284.03 1452.8 Q2286.99 1450.39 2292.13 1450.39 Q2297.29 1450.39 2300.23 1452.8 Q2303.17 1455.21 2303.17 1459.35 Q2303.17 1462.32 2301.48 1464.38 Q2299.82 1466.44 2296.83 1467.18 Q2300.21 1467.96 2302.09 1470.26 Q2303.98 1472.55 2303.98 1475.86 Q2303.98 1480.88 2300.91 1483.57 Q2297.85 1486.25 2292.13 1486.25 Q2286.42 1486.25 2283.34 1483.57 Q2280.28 1480.88 2280.28 1475.86 Q2280.28 1472.55 2282.18 1470.26 Q2284.08 1467.96 2287.46 1467.18 M2285.74 1459.79 Q2285.74 1462.48 2287.41 1463.98 Q2289.1 1465.49 2292.13 1465.49 Q2295.14 1465.49 2296.83 1463.98 Q2298.54 1462.48 2298.54 1459.79 Q2298.54 1457.11 2296.83 1455.6 Q2295.14 1454.1 2292.13 1454.1 Q2289.1 1454.1 2287.41 1455.6 Q2285.74 1457.11 2285.74 1459.79 Z" fill="#000000" fill-rule="nonzero" fill-opacity="1" /><path clip-path="url(#clip580)" d="M1268.24 1532.4 L1296.06 1532.4 L1296.06 1537.74 L1274.03 1563.37 L1296.06 1563.37 L1296.06 1568.04 L1267.44 1568.04 L1267.44 1562.7 L1289.47 1537.07 L1268.24 1537.07 L1268.24 1532.4 Z" fill="#000000" fill-rule="nonzero" fill-opacity="1" /><polyline clip-path="url(#clip580)" style="stroke:#000000; stroke-linecap:round; stroke-linejoin:round; stroke-width:4; stroke-opacity:1; fill:none" points="210.746,1423.18 210.746,47.2441 "/>
<polyline clip-path="url(#clip580)" style="stroke:#000000; stroke-linecap:round; stroke-linejoin:round; stroke-width:4; stroke-opacity:1; fill:none" points="210.746,1240.4 229.644,1240.4 "/>
<polyline clip-path="url(#clip580)" style="stroke:#000000; stroke-linecap:round; stroke-linejoin:round; stroke-width:4; stroke-opacity:1; fill:none" points="210.746,987.807 229.644,987.807 "/>
<polyline clip-path="url(#clip580)" style="stroke:#000000; stroke-linecap:round; stroke-linejoin:round; stroke-width:4; stroke-opacity:1; fill:none" points="210.746,735.212 229.644,735.212 "/>
<polyline clip-path="url(#clip580)" style="stroke:#000000; stroke-linecap:round; stroke-linejoin:round; stroke-width:4; stroke-opacity:1; fill:none" points="210.746,482.616 229.644,482.616 "/>
<polyline clip-path="url(#clip580)" style="stroke:#000000; stroke-linecap:round; stroke-linejoin:round; stroke-width:4; stroke-opacity:1; fill:none" points="210.746,230.021 229.644,230.021 "/>
<path clip-path="url(#clip580)" d="M114.631 1240.85 L144.306 1240.85 L144.306 1244.79 L114.631 1244.79 L114.631 1240.85 Z" fill="#000000" fill-rule="nonzero" fill-opacity="1" /><path clip-path="url(#clip580)" d="M158.427 1253.75 L174.746 1253.75 L174.746 1257.68 L152.802 1257.68 L152.802 1253.75 Q155.464 1250.99 160.047 1246.36 Q164.653 1241.71 165.834 1240.37 Q168.079 1237.85 168.959 1236.11 Q169.862 1234.35 169.862 1232.66 Q169.862 1229.91 167.917 1228.17 Q165.996 1226.43 162.894 1226.43 Q160.695 1226.43 158.241 1227.2 Q155.811 1227.96 153.033 1229.51 L153.033 1224.79 Q155.857 1223.66 158.311 1223.08 Q160.765 1222.5 162.802 1222.5 Q168.172 1222.5 171.366 1225.18 Q174.561 1227.87 174.561 1232.36 Q174.561 1234.49 173.751 1236.41 Q172.964 1238.31 170.857 1240.9 Q170.278 1241.57 167.177 1244.79 Q164.075 1247.98 158.427 1253.75 Z" fill="#000000" fill-rule="nonzero" fill-opacity="1" /><path clip-path="url(#clip580)" d="M114.26 988.259 L143.936 988.259 L143.936 992.194 L114.26 992.194 L114.26 988.259 Z" fill="#000000" fill-rule="nonzero" fill-opacity="1" /><path clip-path="url(#clip580)" d="M154.839 1001.15 L162.477 1001.15 L162.477 974.787 L154.167 976.453 L154.167 972.194 L162.431 970.527 L167.107 970.527 L167.107 1001.15 L174.746 1001.15 L174.746 1005.09 L154.839 1005.09 L154.839 1001.15 Z" fill="#000000" fill-rule="nonzero" fill-opacity="1" /><path clip-path="url(#clip580)" d="M162.802 721.011 Q159.19 721.011 157.362 724.575 Q155.556 728.117 155.556 735.247 Q155.556 742.353 157.362 745.918 Q159.19 749.46 162.802 749.46 Q166.436 749.46 168.241 745.918 Q170.07 742.353 170.07 735.247 Q170.07 728.117 168.241 724.575 Q166.436 721.011 162.802 721.011 M162.802 717.307 Q168.612 717.307 171.667 721.913 Q174.746 726.497 174.746 735.247 Q174.746 743.973 171.667 748.58 Q168.612 753.163 162.802 753.163 Q156.991 753.163 153.913 748.58 Q150.857 743.973 150.857 735.247 Q150.857 726.497 153.913 721.913 Q156.991 717.307 162.802 717.307 Z" fill="#000000" fill-rule="nonzero" fill-opacity="1" /><path clip-path="url(#clip580)" d="M154.839 495.961 L162.477 495.961 L162.477 469.596 L154.167 471.262 L154.167 467.003 L162.431 465.336 L167.107 465.336 L167.107 495.961 L174.746 495.961 L174.746 499.896 L154.839 499.896 L154.839 495.961 Z" fill="#000000" fill-rule="nonzero" fill-opacity="1" /><path clip-path="url(#clip580)" d="M158.427 243.366 L174.746 243.366 L174.746 247.301 L152.802 247.301 L152.802 243.366 Q155.464 240.611 160.047 235.982 Q164.653 231.329 165.834 229.986 Q168.079 227.463 168.959 225.727 Q169.862 223.968 169.862 222.278 Q169.862 219.523 167.917 217.787 Q165.996 216.051 162.894 216.051 Q160.695 216.051 158.241 216.815 Q155.811 217.579 153.033 219.13 L153.033 214.408 Q155.857 213.273 158.311 212.695 Q160.765 212.116 162.802 212.116 Q168.172 212.116 171.366 214.801 Q174.561 217.486 174.561 221.977 Q174.561 224.107 173.751 226.028 Q172.964 227.926 170.857 230.519 Q170.278 231.19 167.177 234.407 Q164.075 237.602 158.427 243.366 Z" fill="#000000" fill-rule="nonzero" fill-opacity="1" /><path clip-path="url(#clip580)" d="M67.3143 733.525 Q73.68 736.008 75.6216 738.363 Q77.5631 740.718 77.5631 744.665 L77.5631 749.344 L72.6615 749.344 L72.6615 745.906 Q72.6615 743.487 71.5157 742.151 Q70.3699 740.814 66.1048 739.191 L63.4312 738.14 L28.3562 752.559 L28.3562 746.352 L56.238 735.212 L28.3562 724.072 L28.3562 717.865 L67.3143 733.525 Z" fill="#000000" fill-rule="nonzero" fill-opacity="1" /><polyline clip-path="url(#clip582)" style="stroke:#000000; stroke-linecap:round; stroke-linejoin:round; stroke-width:4; stroke-opacity:1; fill:none" points="545.162,987.807 540.91,961.218 537.141,934.629 533.851,908.04 531.036,881.451 528.695,854.862 526.824,828.273 525.423,801.684 524.489,775.095 524.023,748.506 524.023,721.917 524.489,695.328 525.423,668.739 526.824,642.15 528.695,615.561 531.036,588.972 533.851,562.383 537.141,535.794 540.91,509.205 545.162,482.616 "/>
<polyline clip-path="url(#clip582)" style="stroke:#000000; stroke-linecap:round; stroke-linejoin:round; stroke-width:4; stroke-opacity:1; fill:none" points="755.362,987.807 759.614,961.218 763.383,934.629 766.673,908.04 769.488,881.451 771.829,854.862 773.7,828.273 775.101,801.684 776.035,775.095 776.502,748.506 776.502,721.917 776.035,695.328 775.101,668.739 773.7,642.15 771.829,615.561 769.488,588.972 766.673,562.383 763.383,535.794 759.614,509.205 755.362,482.616 "/>
<polyline clip-path="url(#clip582)" style="stroke:#000000; stroke-linecap:round; stroke-linejoin:round; stroke-width:4; stroke-opacity:1; fill:none" points="2292.13,987.807 2292.13,961.218 2292.13,934.629 2292.13,908.04 2292.13,881.451 2292.13,854.862 2292.13,828.273 2292.13,801.684 2292.13,775.095 2292.13,748.506 2292.13,721.917 2292.13,695.328 2292.13,668.739 2292.13,642.15 2292.13,615.561 2292.13,588.972 2292.13,562.383 2292.13,535.794 2292.13,509.205 2292.13,482.616 "/>
<polyline clip-path="url(#clip582)" style="stroke:#ff0000; stroke-linecap:round; stroke-linejoin:round; stroke-width:4; stroke-opacity:1; fill:none" points="271.369,987.807 545.162,987.807 757.327,975.891 2292.13,716.886 "/>
<polyline clip-path="url(#clip582)" style="stroke:#ff0000; stroke-linecap:round; stroke-linejoin:round; stroke-width:4; stroke-opacity:1; fill:none" points="271.369,937.288 537.496,937.288 764.359,927.135 2292.13,723.973 "/>
<polyline clip-path="url(#clip582)" style="stroke:#ff0000; stroke-linecap:round; stroke-linejoin:round; stroke-width:4; stroke-opacity:1; fill:none" points="271.369,886.769 531.561,886.769 769.743,878.799 2292.13,728.68 "/>
<polyline clip-path="url(#clip582)" style="stroke:#ff0000; stroke-linecap:round; stroke-linejoin:round; stroke-width:4; stroke-opacity:1; fill:none" points="271.369,836.25 527.336,836.25 773.544,830.769 2292.13,731.728 "/>
<polyline clip-path="url(#clip582)" style="stroke:#ff0000; stroke-linecap:round; stroke-linejoin:round; stroke-width:4; stroke-opacity:1; fill:none" points="271.369,785.731 524.806,785.731 775.808,782.941 2292.13,733.725 "/>
<polyline clip-path="url(#clip582)" style="stroke:#ff0000; stroke-linecap:round; stroke-linejoin:round; stroke-width:4; stroke-opacity:1; fill:none" points="271.369,735.212 523.964,735.212 776.56,735.212 2292.13,735.212 "/>
<polyline clip-path="url(#clip582)" style="stroke:#ff0000; stroke-linecap:round; stroke-linejoin:round; stroke-width:4; stroke-opacity:1; fill:none" points="271.369,684.693 524.806,684.693 775.808,687.483 2292.13,736.699 "/>
<polyline clip-path="url(#clip582)" style="stroke:#ff0000; stroke-linecap:round; stroke-linejoin:round; stroke-width:4; stroke-opacity:1; fill:none" points="271.369,634.174 527.336,634.174 773.544,639.655 2292.13,738.696 "/>
<polyline clip-path="url(#clip582)" style="stroke:#ff0000; stroke-linecap:round; stroke-linejoin:round; stroke-width:4; stroke-opacity:1; fill:none" points="271.369,583.655 531.561,583.655 769.743,591.625 2292.13,741.744 "/>
<polyline clip-path="url(#clip582)" style="stroke:#ff0000; stroke-linecap:round; stroke-linejoin:round; stroke-width:4; stroke-opacity:1; fill:none" points="271.369,533.136 537.496,533.136 764.359,543.289 2292.13,746.451 "/>
<polyline clip-path="url(#clip582)" style="stroke:#ff0000; stroke-linecap:round; stroke-linejoin:round; stroke-width:4; stroke-opacity:1; fill:none" points="271.369,482.616 545.162,482.616 757.327,494.533 2292.13,753.538 "/>
</svg>
