<?xml version="1.0" encoding="utf-8"?>
<svg xmlns="http://www.w3.org/2000/svg" xmlns:xlink="http://www.w3.org/1999/xlink" width="600" height="400" viewBox="0 0 2400 1600">
<defs>
  <clipPath id="clip490">
    <rect x="0" y="0" width="2400" height="1600"/>
  </clipPath>
</defs>
<path clip-path="url(#clip490)" d="M0 1600 L2400 1600 L2400 0 L0 0  Z" fill="#ffffff" fill-rule="evenodd" fill-opacity="1"/>
<defs>
  <clipPath id="clip491">
    <rect x="480" y="0" width="1681" height="1600"/>
  </clipPath>
</defs>
<path clip-path="url(#clip490)" d="M287.852 1423.18 L2352.76 1423.18 L2352.76 47.2441 L287.852 47.2441  Z" fill="#ffffff" fill-rule="evenodd" fill-opacity="1"/>
<defs>
  <clipPath id="clip492">
    <rect x="287" y="47" width="2066" height="1377"/>
  </clipPath>
</defs>
<polyline clip-path="url(#clip492)" style="stroke:#000000; stroke-linecap:round; stroke-linejoin:round; stroke-width:2; stroke-opacity:0.1; fill:none" points="346.293,1423.18 346.293,47.2441 "/>
<polyline clip-path="url(#clip492)" style="stroke:#000000; stroke-linecap:round; stroke-linejoin:round; stroke-width:2; stroke-opacity:0.1; fill:none" points="833.298,1423.18 833.298,47.2441 "/>
<polyline clip-path="url(#clip492)" style="stroke:#000000; stroke-linecap:round; stroke-linejoin:round; stroke-width:2; stroke-opacity:0.1; fill:none" points="1320.3,1423.18 1320.3,47.2441 "/>
<polyline clip-path="url(#clip492)" style="stroke:#000000; stroke-linecap:round; stroke-linejoin:round; stroke-width:2; stroke-opacity:0.1; fill:none" points="1807.31,1423.18 1807.31,47.2441 "/>
<polyline clip-path="url(#clip492)" style="stroke:#000000; stroke-linecap:round; stroke-linejoin:round; stroke-width:2; stroke-opacity:0.1; fill:none" points="2294.32,1423.18 2294.32,47.2441 "/>
<polyline clip-path="url(#clip492)" style="stroke:#000000; stroke-linecap:round; stroke-linejoin:round; stroke-width:2; stroke-opacity:0.1; fill:none" points="287.852,1271.95 2352.76,1271.95 "/>
<polyline clip-path="url(#clip492)" style="stroke:#000000; stroke-linecap:round; stroke-linejoin:round; stroke-width:2; stroke-opacity:0.1; fill:none" points="287.852,1093.04 2352.76,1093.04 "/>
<polyline clip-path="url(#clip492)" style="stroke:#000000; stroke-linecap:round; stroke-linejoin:round; stroke-width:2; stroke-opacity:0.1; fill:none" points="287.852,914.124 2352.76,914.124 "/>
<polyline clip-path="url(#clip492)" style="stroke:#000000; stroke-linecap:round; stroke-linejoin:round; stroke-width:2; stroke-opacity:0.1; fill:none" points="287.852,735.212 2352.76,735.212 "/>
<polyline clip-path="url(#clip492)" style="stroke:#000000; stroke-linecap:round; stroke-linejoin:round; stroke-width:2; stroke-opacity:0.1; fill:none" points="287.852,556.3 2352.76,556.3 "/>
<polyline clip-path="url(#clip492)" style="stroke:#000000; stroke-linecap:round; stroke-linejoin:round; stroke-width:2; stroke-opacity:0.1; fill:none" points="287.852,377.388 2352.76,377.388 "/>
<polyline clip-path="url(#clip492)" style="stroke:#000000; stroke-linecap:round; stroke-linejoin:round; stroke-width:2; stroke-opacity:0.1; fill:none" points="287.852,198.476 2352.76,198.476 "/>
<polyline clip-path="url(#clip490)" style="stroke:#000000; stroke-linecap:round; stroke-linejoin:round; stroke-width:4; stroke-opacity:1; fill:none" points="287.852,1423.18 2352.76,1423.18 "/>
<polyline clip-path="url(#clip490)" style="stroke:#000000; stroke-linecap:round; stroke-linejoin:round; stroke-width:4; stroke-opacity:1; fill:none" points="346.293,1423.18 346.293,1404.28 "/>
<polyline clip-path="url(#clip490)" style="stroke:#000000; stroke-linecap:round; stroke-linejoin:round; stroke-width:4; stroke-opacity:1; fill:none" points="833.298,1423.18 833.298,1404.28 "/>
<polyline clip-path="url(#clip490)" style="stroke:#000000; stroke-linecap:round; stroke-linejoin:round; stroke-width:4; stroke-opacity:1; fill:none" points="1320.3,1423.18 1320.3,1404.28 "/>
<polyline clip-path="url(#clip490)" style="stroke:#000000; stroke-linecap:round; stroke-linejoin:round; stroke-width:4; stroke-opacity:1; fill:none" points="1807.31,1423.18 1807.31,1404.28 "/>
<polyline clip-path="url(#clip490)" style="stroke:#000000; stroke-linecap:round; stroke-linejoin:round; stroke-width:4; stroke-opacity:1; fill:none" points="2294.32,1423.18 2294.32,1404.28 "/>
<path clip-path="url(#clip490)" d="M292.821 1468.75 L322.497 1468.75 L322.497 1472.69 L292.821 1472.69 L292.821 1468.75 Z" fill="#000000" fill-rule="nonzero" fill-opacity="1" /><path clip-path="url(#clip490)" d="M333.399 1481.64 L341.038 1481.64 L341.038 1455.28 L332.728 1456.95 L332.728 1452.69 L340.992 1451.02 L345.668 1451.02 L345.668 1481.64 L353.307 1481.64 L353.307 1485.58 L333.399 1485.58 L333.399 1481.64 Z" fill="#000000" fill-rule="nonzero" fill-opacity="1" /><path clip-path="url(#clip490)" d="M362.751 1479.7 L367.635 1479.7 L367.635 1485.58 L362.751 1485.58 L362.751 1479.7 Z" fill="#000000" fill-rule="nonzero" fill-opacity="1" /><path clip-path="url(#clip490)" d="M387.82 1454.1 Q384.209 1454.1 382.38 1457.66 Q380.575 1461.2 380.575 1468.33 Q380.575 1475.44 382.38 1479.01 Q384.209 1482.55 387.82 1482.55 Q391.454 1482.55 393.26 1479.01 Q395.089 1475.44 395.089 1468.33 Q395.089 1461.2 393.26 1457.66 Q391.454 1454.1 387.82 1454.1 M387.82 1450.39 Q393.63 1450.39 396.686 1455 Q399.765 1459.58 399.765 1468.33 Q399.765 1477.06 396.686 1481.67 Q393.63 1486.25 387.82 1486.25 Q382.01 1486.25 378.931 1481.67 Q375.876 1477.06 375.876 1468.33 Q375.876 1459.58 378.931 1455 Q382.01 1450.39 387.82 1450.39 Z" fill="#000000" fill-rule="nonzero" fill-opacity="1" /><path clip-path="url(#clip490)" d="M780.324 1468.75 L810 1468.75 L810 1472.69 L780.324 1472.69 L780.324 1468.75 Z" fill="#000000" fill-rule="nonzero" fill-opacity="1" /><path clip-path="url(#clip490)" d="M830.092 1454.1 Q826.481 1454.1 824.653 1457.66 Q822.847 1461.2 822.847 1468.33 Q822.847 1475.44 824.653 1479.01 Q826.481 1482.55 830.092 1482.55 Q833.727 1482.55 835.532 1479.01 Q837.361 1475.44 837.361 1468.33 Q837.361 1461.2 835.532 1457.66 Q833.727 1454.1 830.092 1454.1 M830.092 1450.39 Q835.902 1450.39 838.958 1455 Q842.037 1459.58 842.037 1468.33 Q842.037 1477.06 838.958 1481.67 Q835.902 1486.25 830.092 1486.25 Q824.282 1486.25 821.203 1481.67 Q818.148 1477.06 818.148 1468.33 Q818.148 1459.58 821.203 1455 Q824.282 1450.39 830.092 1450.39 Z" fill="#000000" fill-rule="nonzero" fill-opacity="1" /><path clip-path="url(#clip490)" d="M850.254 1479.7 L855.138 1479.7 L855.138 1485.58 L850.254 1485.58 L850.254 1479.7 Z" fill="#000000" fill-rule="nonzero" fill-opacity="1" /><path clip-path="url(#clip490)" d="M865.37 1451.02 L883.726 1451.02 L883.726 1454.96 L869.652 1454.96 L869.652 1463.43 Q870.671 1463.08 871.689 1462.92 Q872.708 1462.73 873.726 1462.73 Q879.513 1462.73 882.893 1465.9 Q886.273 1469.08 886.273 1474.49 Q886.273 1480.07 882.8 1483.17 Q879.328 1486.25 873.009 1486.25 Q870.833 1486.25 868.564 1485.88 Q866.319 1485.51 863.912 1484.77 L863.912 1480.07 Q865.995 1481.2 868.217 1481.76 Q870.439 1482.32 872.916 1482.32 Q876.921 1482.32 879.259 1480.21 Q881.597 1478.1 881.597 1474.49 Q881.597 1470.88 879.259 1468.77 Q876.921 1466.67 872.916 1466.67 Q871.041 1466.67 869.166 1467.08 Q867.314 1467.5 865.37 1468.38 L865.37 1451.02 Z" fill="#000000" fill-rule="nonzero" fill-opacity="1" /><path clip-path="url(#clip490)" d="M1297.69 1454.1 Q1294.08 1454.1 1292.25 1457.66 Q1290.44 1461.2 1290.44 1468.33 Q1290.44 1475.44 1292.25 1479.01 Q1294.08 1482.55 1297.69 1482.55 Q1301.32 1482.55 1303.13 1479.01 Q1304.96 1475.44 1304.96 1468.33 Q1304.96 1461.2 1303.13 1457.66 Q1301.32 1454.1 1297.69 1454.1 M1297.69 1450.39 Q1303.5 1450.39 1306.55 1455 Q1309.63 1459.58 1309.63 1468.33 Q1309.63 1477.06 1306.55 1481.67 Q1303.5 1486.25 1297.69 1486.25 Q1291.88 1486.25 1288.8 1481.67 Q1285.74 1477.06 1285.74 1468.33 Q1285.74 1459.58 1288.8 1455 Q1291.88 1450.39 1297.69 1450.39 Z" fill="#000000" fill-rule="nonzero" fill-opacity="1" /><path clip-path="url(#clip490)" d="M1317.85 1479.7 L1322.73 1479.7 L1322.73 1485.58 L1317.85 1485.58 L1317.85 1479.7 Z" fill="#000000" fill-rule="nonzero" fill-opacity="1" /><path clip-path="url(#clip490)" d="M1342.92 1454.1 Q1339.31 1454.1 1337.48 1457.66 Q1335.67 1461.2 1335.67 1468.33 Q1335.67 1475.44 1337.48 1479.01 Q1339.31 1482.55 1342.92 1482.55 Q1346.55 1482.55 1348.36 1479.01 Q1350.19 1475.44 1350.19 1468.33 Q1350.19 1461.2 1348.36 1457.66 Q1346.55 1454.1 1342.92 1454.1 M1342.92 1450.39 Q1348.73 1450.39 1351.79 1455 Q1354.86 1459.58 1354.86 1468.33 Q1354.86 1477.06 1351.79 1481.67 Q1348.73 1486.25 1342.92 1486.25 Q1337.11 1486.25 1334.03 1481.67 Q1330.98 1477.06 1330.98 1468.33 Q1330.98 1459.58 1334.03 1455 Q1337.11 1450.39 1342.92 1450.39 Z" fill="#000000" fill-rule="nonzero" fill-opacity="1" /><path clip-path="url(#clip490)" d="M1785.19 1454.1 Q1781.58 1454.1 1779.75 1457.66 Q1777.95 1461.2 1777.95 1468.33 Q1777.95 1475.44 1779.75 1479.01 Q1781.58 1482.55 1785.19 1482.55 Q1788.83 1482.55 1790.63 1479.01 Q1792.46 1475.44 1792.46 1468.33 Q1792.46 1461.2 1790.63 1457.66 Q1788.83 1454.1 1785.19 1454.1 M1785.19 1450.39 Q1791 1450.39 1794.06 1455 Q1797.14 1459.58 1797.14 1468.33 Q1797.14 1477.06 1794.06 1481.67 Q1791 1486.25 1785.19 1486.25 Q1779.38 1486.25 1776.3 1481.67 Q1773.25 1477.06 1773.25 1468.33 Q1773.25 1459.58 1776.3 1455 Q1779.38 1450.39 1785.19 1450.39 Z" fill="#000000" fill-rule="nonzero" fill-opacity="1" /><path clip-path="url(#clip490)" d="M1805.35 1479.7 L1810.24 1479.7 L1810.24 1485.58 L1805.35 1485.58 L1805.35 1479.7 Z" fill="#000000" fill-rule="nonzero" fill-opacity="1" /><path clip-path="url(#clip490)" d="M1820.47 1451.02 L1838.83 1451.02 L1838.83 1454.96 L1824.75 1454.96 L1824.75 1463.43 Q1825.77 1463.08 1826.79 1462.92 Q1827.81 1462.73 1828.83 1462.73 Q1834.61 1462.73 1837.99 1465.9 Q1841.37 1469.08 1841.37 1474.49 Q1841.37 1480.07 1837.9 1483.17 Q1834.43 1486.25 1828.11 1486.25 Q1825.93 1486.25 1823.66 1485.88 Q1821.42 1485.51 1819.01 1484.77 L1819.01 1480.07 Q1821.09 1481.2 1823.32 1481.76 Q1825.54 1482.32 1828.02 1482.32 Q1832.02 1482.32 1834.36 1480.21 Q1836.7 1478.1 1836.7 1474.49 Q1836.7 1470.88 1834.36 1468.77 Q1832.02 1466.67 1828.02 1466.67 Q1826.14 1466.67 1824.27 1467.08 Q1822.41 1467.5 1820.47 1468.38 L1820.47 1451.02 Z" fill="#000000" fill-rule="nonzero" fill-opacity="1" /><path clip-path="url(#clip490)" d="M2261.47 1481.64 L2269.11 1481.64 L2269.11 1455.28 L2260.8 1456.95 L2260.8 1452.69 L2269.06 1451.02 L2273.74 1451.02 L2273.74 1481.64 L2281.38 1481.64 L2281.38 1485.58 L2261.47 1485.58 L2261.47 1481.64 Z" fill="#000000" fill-rule="nonzero" fill-opacity="1" /><path clip-path="url(#clip490)" d="M2290.82 1479.7 L2295.7 1479.7 L2295.7 1485.58 L2290.82 1485.58 L2290.82 1479.7 Z" fill="#000000" fill-rule="nonzero" fill-opacity="1" /><path clip-path="url(#clip490)" d="M2315.89 1454.1 Q2312.28 1454.1 2310.45 1457.66 Q2308.64 1461.2 2308.64 1468.33 Q2308.64 1475.44 2310.45 1479.01 Q2312.28 1482.55 2315.89 1482.55 Q2319.52 1482.55 2321.33 1479.01 Q2323.16 1475.44 2323.16 1468.33 Q2323.16 1461.2 2321.33 1457.66 Q2319.52 1454.1 2315.89 1454.1 M2315.89 1450.39 Q2321.7 1450.39 2324.75 1455 Q2327.83 1459.58 2327.83 1468.33 Q2327.83 1477.06 2324.75 1481.67 Q2321.7 1486.25 2315.89 1486.25 Q2310.08 1486.25 2307 1481.67 Q2303.94 1477.06 2303.94 1468.33 Q2303.94 1459.58 2307 1455 Q2310.08 1450.39 2315.89 1450.39 Z" fill="#000000" fill-rule="nonzero" fill-opacity="1" /><path clip-path="url(#clip490)" d="M1214.6 1571.35 Q1212.12 1577.72 1209.76 1579.66 Q1207.41 1581.6 1203.46 1581.6 L1198.78 1581.6 L1198.78 1576.7 L1202.22 1576.7 Q1204.64 1576.7 1205.98 1575.56 Q1207.31 1574.41 1208.94 1570.14 L1209.99 1567.47 L1195.57 1532.4 L1201.77 1532.4 L1212.91 1560.28 L1224.05 1532.4 L1230.26 1532.4 L1214.6 1571.35 Z" fill="#000000" fill-rule="nonzero" fill-opacity="1" /><path clip-path="url(#clip490)" d="M1264.73 1562.7 L1264.73 1581.6 L1258.84 1581.6 L1258.84 1532.4 L1264.73 1532.4 L1264.73 1537.81 Q1266.58 1534.62 1269.38 1533.1 Q1272.21 1531.54 1276.13 1531.54 Q1282.62 1531.54 1286.66 1536.69 Q1290.74 1541.85 1290.74 1550.25 Q1290.74 1558.65 1286.66 1563.81 Q1282.62 1568.97 1276.13 1568.97 Q1272.21 1568.97 1269.38 1567.44 Q1266.58 1565.88 1264.73 1562.7 M1284.66 1550.25 Q1284.66 1543.79 1281.98 1540.13 Q1279.34 1536.44 1274.69 1536.44 Q1270.05 1536.44 1267.37 1540.13 Q1264.73 1543.79 1264.73 1550.25 Q1264.73 1556.71 1267.37 1560.4 Q1270.05 1564.07 1274.69 1564.07 Q1279.34 1564.07 1281.98 1560.4 Q1284.66 1556.71 1284.66 1550.25 Z" fill="#000000" fill-rule="nonzero" fill-opacity="1" /><path clip-path="url(#clip490)" d="M1314.26 1536.5 Q1309.55 1536.5 1306.81 1540.19 Q1304.07 1543.85 1304.07 1550.25 Q1304.07 1556.65 1306.78 1560.34 Q1309.51 1564 1314.26 1564 Q1318.94 1564 1321.67 1560.31 Q1324.41 1556.62 1324.41 1550.25 Q1324.41 1543.92 1321.67 1540.23 Q1318.94 1536.5 1314.26 1536.5 M1314.26 1531.54 Q1321.9 1531.54 1326.26 1536.5 Q1330.62 1541.47 1330.62 1550.25 Q1330.62 1559 1326.26 1564 Q1321.9 1568.97 1314.26 1568.97 Q1306.59 1568.97 1302.23 1564 Q1297.9 1559 1297.9 1550.25 Q1297.9 1541.47 1302.23 1536.5 Q1306.59 1531.54 1314.26 1531.54 Z" fill="#000000" fill-rule="nonzero" fill-opacity="1" /><path clip-path="url(#clip490)" d="M1363.05 1533.45 L1363.05 1538.98 Q1360.57 1537.71 1357.89 1537.07 Q1355.22 1536.44 1352.36 1536.44 Q1347.99 1536.44 1345.8 1537.77 Q1343.63 1539.11 1343.63 1541.79 Q1343.63 1543.82 1345.19 1545 Q1346.75 1546.15 1351.46 1547.2 L1353.47 1547.64 Q1359.71 1548.98 1362.32 1551.43 Q1364.96 1553.85 1364.96 1558.21 Q1364.96 1563.17 1361.01 1566.07 Q1357.1 1568.97 1350.22 1568.97 Q1347.36 1568.97 1344.24 1568.39 Q1341.15 1567.85 1337.71 1566.74 L1337.71 1560.69 Q1340.96 1562.38 1344.11 1563.24 Q1347.26 1564.07 1350.35 1564.07 Q1354.49 1564.07 1356.72 1562.66 Q1358.94 1561.23 1358.94 1558.65 Q1358.94 1556.27 1357.32 1554.99 Q1355.73 1553.72 1350.29 1552.54 L1348.25 1552.07 Q1342.81 1550.92 1340.39 1548.56 Q1337.97 1546.18 1337.97 1542.04 Q1337.97 1537.01 1341.53 1534.27 Q1345.1 1531.54 1351.66 1531.54 Q1354.9 1531.54 1357.77 1532.01 Q1360.63 1532.49 1363.05 1533.45 Z" fill="#000000" fill-rule="nonzero" fill-opacity="1" /><path clip-path="url(#clip490)" d="M1375.11 1559.96 L1381.83 1559.96 L1381.83 1568.04 L1375.11 1568.04 L1375.11 1559.96 Z" fill="#000000" fill-rule="nonzero" fill-opacity="1" /><path clip-path="url(#clip490)" d="M1417.67 1562.63 L1428.17 1562.63 L1428.17 1526.38 L1416.74 1528.67 L1416.74 1522.82 L1428.11 1520.52 L1434.54 1520.52 L1434.54 1562.63 L1445.04 1562.63 L1445.04 1568.04 L1417.67 1568.04 L1417.67 1562.63 Z" fill="#000000" fill-rule="nonzero" fill-opacity="1" /><polyline clip-path="url(#clip490)" style="stroke:#000000; stroke-linecap:round; stroke-linejoin:round; stroke-width:4; stroke-opacity:1; fill:none" points="287.852,1423.18 287.852,47.2441 "/>
<polyline clip-path="url(#clip490)" style="stroke:#000000; stroke-linecap:round; stroke-linejoin:round; stroke-width:4; stroke-opacity:1; fill:none" points="287.852,1271.95 306.75,1271.95 "/>
<polyline clip-path="url(#clip490)" style="stroke:#000000; stroke-linecap:round; stroke-linejoin:round; stroke-width:4; stroke-opacity:1; fill:none" points="287.852,1093.04 306.75,1093.04 "/>
<polyline clip-path="url(#clip490)" style="stroke:#000000; stroke-linecap:round; stroke-linejoin:round; stroke-width:4; stroke-opacity:1; fill:none" points="287.852,914.124 306.75,914.124 "/>
<polyline clip-path="url(#clip490)" style="stroke:#000000; stroke-linecap:round; stroke-linejoin:round; stroke-width:4; stroke-opacity:1; fill:none" points="287.852,735.212 306.75,735.212 "/>
<polyline clip-path="url(#clip490)" style="stroke:#000000; stroke-linecap:round; stroke-linejoin:round; stroke-width:4; stroke-opacity:1; fill:none" points="287.852,556.3 306.75,556.3 "/>
<polyline clip-path="url(#clip490)" style="stroke:#000000; stroke-linecap:round; stroke-linejoin:round; stroke-width:4; stroke-opacity:1; fill:none" points="287.852,377.388 306.75,377.388 "/>
<polyline clip-path="url(#clip490)" style="stroke:#000000; stroke-linecap:round; stroke-linejoin:round; stroke-width:4; stroke-opacity:1; fill:none" points="287.852,198.476 306.75,198.476 "/>
<path clip-path="url(#clip490)" d="M114.584 1272.4 L144.26 1272.4 L144.26 1276.33 L114.584 1276.33 L114.584 1272.4 Z" fill="#000000" fill-rule="nonzero" fill-opacity="1" /><path clip-path="url(#clip490)" d="M164.352 1257.75 Q160.741 1257.75 158.913 1261.31 Q157.107 1264.85 157.107 1271.98 Q157.107 1279.09 158.913 1282.65 Q160.741 1286.2 164.352 1286.2 Q167.987 1286.2 169.792 1282.65 Q171.621 1279.09 171.621 1271.98 Q171.621 1264.85 169.792 1261.31 Q167.987 1257.75 164.352 1257.75 M164.352 1254.04 Q170.163 1254.04 173.218 1258.65 Q176.297 1263.23 176.297 1271.98 Q176.297 1280.71 173.218 1285.32 Q170.163 1289.9 164.352 1289.9 Q158.542 1289.9 155.464 1285.32 Q152.408 1280.71 152.408 1271.98 Q152.408 1263.23 155.464 1258.65 Q158.542 1254.04 164.352 1254.04 Z" fill="#000000" fill-rule="nonzero" fill-opacity="1" /><path clip-path="url(#clip490)" d="M184.514 1283.35 L189.399 1283.35 L189.399 1289.23 L184.514 1289.23 L184.514 1283.35 Z" fill="#000000" fill-rule="nonzero" fill-opacity="1" /><path clip-path="url(#clip490)" d="M209.584 1257.75 Q205.973 1257.75 204.144 1261.31 Q202.338 1264.85 202.338 1271.98 Q202.338 1279.09 204.144 1282.65 Q205.973 1286.2 209.584 1286.2 Q213.218 1286.2 215.024 1282.65 Q216.852 1279.09 216.852 1271.98 Q216.852 1264.85 215.024 1261.31 Q213.218 1257.75 209.584 1257.75 M209.584 1254.04 Q215.394 1254.04 218.449 1258.65 Q221.528 1263.23 221.528 1271.98 Q221.528 1280.71 218.449 1285.32 Q215.394 1289.9 209.584 1289.9 Q203.774 1289.9 200.695 1285.32 Q197.639 1280.71 197.639 1271.98 Q197.639 1263.23 200.695 1258.65 Q203.774 1254.04 209.584 1254.04 Z" fill="#000000" fill-rule="nonzero" fill-opacity="1" /><path clip-path="url(#clip490)" d="M240.324 1270.08 Q237.176 1270.08 235.324 1272.24 Q233.496 1274.39 233.496 1278.14 Q233.496 1281.87 235.324 1284.04 Q237.176 1286.2 240.324 1286.2 Q243.472 1286.2 245.301 1284.04 Q247.153 1281.87 247.153 1278.14 Q247.153 1274.39 245.301 1272.24 Q243.472 1270.08 240.324 1270.08 M249.607 1255.43 L249.607 1259.69 Q247.847 1258.86 246.042 1258.42 Q244.259 1257.98 242.5 1257.98 Q237.871 1257.98 235.417 1261.1 Q232.986 1264.23 232.639 1270.55 Q234.005 1268.53 236.065 1267.47 Q238.125 1266.38 240.602 1266.38 Q245.81 1266.38 248.82 1269.55 Q251.852 1272.7 251.852 1278.14 Q251.852 1283.46 248.704 1286.68 Q245.556 1289.9 240.324 1289.9 Q234.329 1289.9 231.158 1285.32 Q227.986 1280.71 227.986 1271.98 Q227.986 1263.79 231.875 1258.93 Q235.764 1254.04 242.315 1254.04 Q244.074 1254.04 245.857 1254.39 Q247.662 1254.74 249.607 1255.43 Z" fill="#000000" fill-rule="nonzero" fill-opacity="1" /><path clip-path="url(#clip490)" d="M114.26 1093.49 L143.936 1093.49 L143.936 1097.42 L114.26 1097.42 L114.26 1093.49 Z" fill="#000000" fill-rule="nonzero" fill-opacity="1" /><path clip-path="url(#clip490)" d="M164.028 1078.83 Q160.417 1078.83 158.589 1082.4 Q156.783 1085.94 156.783 1093.07 Q156.783 1100.18 158.589 1103.74 Q160.417 1107.28 164.028 1107.28 Q167.663 1107.28 169.468 1103.74 Q171.297 1100.18 171.297 1093.07 Q171.297 1085.94 169.468 1082.4 Q167.663 1078.83 164.028 1078.83 M164.028 1075.13 Q169.839 1075.13 172.894 1079.74 Q175.973 1084.32 175.973 1093.07 Q175.973 1101.8 172.894 1106.4 Q169.839 1110.99 164.028 1110.99 Q158.218 1110.99 155.14 1106.4 Q152.084 1101.8 152.084 1093.07 Q152.084 1084.32 155.14 1079.74 Q158.218 1075.13 164.028 1075.13 Z" fill="#000000" fill-rule="nonzero" fill-opacity="1" /><path clip-path="url(#clip490)" d="M184.19 1104.44 L189.075 1104.44 L189.075 1110.32 L184.19 1110.32 L184.19 1104.44 Z" fill="#000000" fill-rule="nonzero" fill-opacity="1" /><path clip-path="url(#clip490)" d="M209.26 1078.83 Q205.649 1078.83 203.82 1082.4 Q202.014 1085.94 202.014 1093.07 Q202.014 1100.18 203.82 1103.74 Q205.649 1107.28 209.26 1107.28 Q212.894 1107.28 214.699 1103.74 Q216.528 1100.18 216.528 1093.07 Q216.528 1085.94 214.699 1082.4 Q212.894 1078.83 209.26 1078.83 M209.26 1075.13 Q215.07 1075.13 218.125 1079.74 Q221.204 1084.32 221.204 1093.07 Q221.204 1101.8 218.125 1106.4 Q215.07 1110.99 209.26 1110.99 Q203.449 1110.99 200.371 1106.4 Q197.315 1101.8 197.315 1093.07 Q197.315 1084.32 200.371 1079.74 Q203.449 1075.13 209.26 1075.13 Z" fill="#000000" fill-rule="nonzero" fill-opacity="1" /><path clip-path="url(#clip490)" d="M242.269 1079.83 L230.463 1098.28 L242.269 1098.28 L242.269 1079.83 M241.042 1075.76 L246.921 1075.76 L246.921 1098.28 L251.852 1098.28 L251.852 1102.17 L246.921 1102.17 L246.921 1110.32 L242.269 1110.32 L242.269 1102.17 L226.667 1102.17 L226.667 1097.65 L241.042 1075.76 Z" fill="#000000" fill-rule="nonzero" fill-opacity="1" /><path clip-path="url(#clip490)" d="M116.343 914.575 L146.019 914.575 L146.019 918.51 L116.343 918.51 L116.343 914.575 Z" fill="#000000" fill-rule="nonzero" fill-opacity="1" /><path clip-path="url(#clip490)" d="M166.112 899.923 Q162.501 899.923 160.672 903.487 Q158.866 907.029 158.866 914.159 Q158.866 921.265 160.672 924.83 Q162.501 928.372 166.112 928.372 Q169.746 928.372 171.552 924.83 Q173.38 921.265 173.38 914.159 Q173.38 907.029 171.552 903.487 Q169.746 899.923 166.112 899.923 M166.112 896.219 Q171.922 896.219 174.977 900.825 Q178.056 905.409 178.056 914.159 Q178.056 922.885 174.977 927.492 Q171.922 932.075 166.112 932.075 Q160.302 932.075 157.223 927.492 Q154.167 922.885 154.167 914.159 Q154.167 905.409 157.223 900.825 Q160.302 896.219 166.112 896.219 Z" fill="#000000" fill-rule="nonzero" fill-opacity="1" /><path clip-path="url(#clip490)" d="M186.274 925.524 L191.158 925.524 L191.158 931.404 L186.274 931.404 L186.274 925.524 Z" fill="#000000" fill-rule="nonzero" fill-opacity="1" /><path clip-path="url(#clip490)" d="M211.343 899.923 Q207.732 899.923 205.903 903.487 Q204.098 907.029 204.098 914.159 Q204.098 921.265 205.903 924.83 Q207.732 928.372 211.343 928.372 Q214.977 928.372 216.783 924.83 Q218.611 921.265 218.611 914.159 Q218.611 907.029 216.783 903.487 Q214.977 899.923 211.343 899.923 M211.343 896.219 Q217.153 896.219 220.209 900.825 Q223.287 905.409 223.287 914.159 Q223.287 922.885 220.209 927.492 Q217.153 932.075 211.343 932.075 Q205.533 932.075 202.454 927.492 Q199.399 922.885 199.399 914.159 Q199.399 905.409 202.454 900.825 Q205.533 896.219 211.343 896.219 Z" fill="#000000" fill-rule="nonzero" fill-opacity="1" /><path clip-path="url(#clip490)" d="M235.533 927.469 L251.852 927.469 L251.852 931.404 L229.908 931.404 L229.908 927.469 Q232.57 924.714 237.153 920.085 Q241.759 915.432 242.94 914.089 Q245.185 911.566 246.065 909.83 Q246.968 908.071 246.968 906.381 Q246.968 903.626 245.023 901.89 Q243.102 900.154 240 900.154 Q237.801 900.154 235.347 900.918 Q232.917 901.682 230.139 903.233 L230.139 898.511 Q232.963 897.376 235.417 896.798 Q237.871 896.219 239.908 896.219 Q245.278 896.219 248.472 898.904 Q251.667 901.589 251.667 906.08 Q251.667 908.21 250.857 910.131 Q250.07 912.029 247.963 914.622 Q247.384 915.293 244.283 918.51 Q241.181 921.705 235.533 927.469 Z" fill="#000000" fill-rule="nonzero" fill-opacity="1" /><path clip-path="url(#clip490)" d="M164.515 721.011 Q160.903 721.011 159.075 724.575 Q157.269 728.117 157.269 735.247 Q157.269 742.353 159.075 745.918 Q160.903 749.46 164.515 749.46 Q168.149 749.46 169.954 745.918 Q171.783 742.353 171.783 735.247 Q171.783 728.117 169.954 724.575 Q168.149 721.011 164.515 721.011 M164.515 717.307 Q170.325 717.307 173.38 721.913 Q176.459 726.497 176.459 735.247 Q176.459 743.973 173.38 748.58 Q170.325 753.163 164.515 753.163 Q158.704 753.163 155.626 748.58 Q152.57 743.973 152.57 735.247 Q152.57 726.497 155.626 721.913 Q158.704 717.307 164.515 717.307 Z" fill="#000000" fill-rule="nonzero" fill-opacity="1" /><path clip-path="url(#clip490)" d="M184.676 746.612 L189.561 746.612 L189.561 752.492 L184.676 752.492 L184.676 746.612 Z" fill="#000000" fill-rule="nonzero" fill-opacity="1" /><path clip-path="url(#clip490)" d="M209.746 721.011 Q206.135 721.011 204.306 724.575 Q202.5 728.117 202.5 735.247 Q202.5 742.353 204.306 745.918 Q206.135 749.46 209.746 749.46 Q213.38 749.46 215.186 745.918 Q217.014 742.353 217.014 735.247 Q217.014 728.117 215.186 724.575 Q213.38 721.011 209.746 721.011 M209.746 717.307 Q215.556 717.307 218.611 721.913 Q221.69 726.497 221.69 735.247 Q221.69 743.973 218.611 748.58 Q215.556 753.163 209.746 753.163 Q203.936 753.163 200.857 748.58 Q197.801 743.973 197.801 735.247 Q197.801 726.497 200.857 721.913 Q203.936 717.307 209.746 717.307 Z" fill="#000000" fill-rule="nonzero" fill-opacity="1" /><path clip-path="url(#clip490)" d="M239.908 721.011 Q236.297 721.011 234.468 724.575 Q232.662 728.117 232.662 735.247 Q232.662 742.353 234.468 745.918 Q236.297 749.46 239.908 749.46 Q243.542 749.46 245.347 745.918 Q247.176 742.353 247.176 735.247 Q247.176 728.117 245.347 724.575 Q243.542 721.011 239.908 721.011 M239.908 717.307 Q245.718 717.307 248.773 721.913 Q251.852 726.497 251.852 735.247 Q251.852 743.973 248.773 748.58 Q245.718 753.163 239.908 753.163 Q234.097 753.163 231.019 748.58 Q227.963 743.973 227.963 735.247 Q227.963 726.497 231.019 721.913 Q234.097 717.307 239.908 717.307 Z" fill="#000000" fill-rule="nonzero" fill-opacity="1" /><path clip-path="url(#clip490)" d="M166.112 542.099 Q162.501 542.099 160.672 545.663 Q158.866 549.205 158.866 556.335 Q158.866 563.441 160.672 567.006 Q162.501 570.548 166.112 570.548 Q169.746 570.548 171.552 567.006 Q173.38 563.441 173.38 556.335 Q173.38 549.205 171.552 545.663 Q169.746 542.099 166.112 542.099 M166.112 538.395 Q171.922 538.395 174.977 543.001 Q178.056 547.585 178.056 556.335 Q178.056 565.062 174.977 569.668 Q171.922 574.251 166.112 574.251 Q160.302 574.251 157.223 569.668 Q154.167 565.062 154.167 556.335 Q154.167 547.585 157.223 543.001 Q160.302 538.395 166.112 538.395 Z" fill="#000000" fill-rule="nonzero" fill-opacity="1" /><path clip-path="url(#clip490)" d="M186.274 567.7 L191.158 567.7 L191.158 573.58 L186.274 573.58 L186.274 567.7 Z" fill="#000000" fill-rule="nonzero" fill-opacity="1" /><path clip-path="url(#clip490)" d="M211.343 542.099 Q207.732 542.099 205.903 545.663 Q204.098 549.205 204.098 556.335 Q204.098 563.441 205.903 567.006 Q207.732 570.548 211.343 570.548 Q214.977 570.548 216.783 567.006 Q218.611 563.441 218.611 556.335 Q218.611 549.205 216.783 545.663 Q214.977 542.099 211.343 542.099 M211.343 538.395 Q217.153 538.395 220.209 543.001 Q223.287 547.585 223.287 556.335 Q223.287 565.062 220.209 569.668 Q217.153 574.251 211.343 574.251 Q205.533 574.251 202.454 569.668 Q199.399 565.062 199.399 556.335 Q199.399 547.585 202.454 543.001 Q205.533 538.395 211.343 538.395 Z" fill="#000000" fill-rule="nonzero" fill-opacity="1" /><path clip-path="url(#clip490)" d="M235.533 569.645 L251.852 569.645 L251.852 573.58 L229.908 573.58 L229.908 569.645 Q232.57 566.89 237.153 562.261 Q241.759 557.608 242.94 556.265 Q245.185 553.742 246.065 552.006 Q246.968 550.247 246.968 548.557 Q246.968 545.802 245.023 544.066 Q243.102 542.33 240 542.33 Q237.801 542.33 235.347 543.094 Q232.917 543.858 230.139 545.409 L230.139 540.687 Q232.963 539.552 235.417 538.974 Q237.871 538.395 239.908 538.395 Q245.278 538.395 248.472 541.08 Q251.667 543.765 251.667 548.256 Q251.667 550.386 250.857 552.307 Q250.07 554.205 247.963 556.798 Q247.384 557.469 244.283 560.687 Q241.181 563.881 235.533 569.645 Z" fill="#000000" fill-rule="nonzero" fill-opacity="1" /><path clip-path="url(#clip490)" d="M164.028 363.187 Q160.417 363.187 158.589 366.752 Q156.783 370.293 156.783 377.423 Q156.783 384.529 158.589 388.094 Q160.417 391.636 164.028 391.636 Q167.663 391.636 169.468 388.094 Q171.297 384.529 171.297 377.423 Q171.297 370.293 169.468 366.752 Q167.663 363.187 164.028 363.187 M164.028 359.483 Q169.839 359.483 172.894 364.09 Q175.973 368.673 175.973 377.423 Q175.973 386.15 172.894 390.756 Q169.839 395.339 164.028 395.339 Q158.218 395.339 155.14 390.756 Q152.084 386.15 152.084 377.423 Q152.084 368.673 155.14 364.09 Q158.218 359.483 164.028 359.483 Z" fill="#000000" fill-rule="nonzero" fill-opacity="1" /><path clip-path="url(#clip490)" d="M184.19 388.788 L189.075 388.788 L189.075 394.668 L184.19 394.668 L184.19 388.788 Z" fill="#000000" fill-rule="nonzero" fill-opacity="1" /><path clip-path="url(#clip490)" d="M209.26 363.187 Q205.649 363.187 203.82 366.752 Q202.014 370.293 202.014 377.423 Q202.014 384.529 203.82 388.094 Q205.649 391.636 209.26 391.636 Q212.894 391.636 214.699 388.094 Q216.528 384.529 216.528 377.423 Q216.528 370.293 214.699 366.752 Q212.894 363.187 209.26 363.187 M209.26 359.483 Q215.07 359.483 218.125 364.09 Q221.204 368.673 221.204 377.423 Q221.204 386.15 218.125 390.756 Q215.07 395.339 209.26 395.339 Q203.449 395.339 200.371 390.756 Q197.315 386.15 197.315 377.423 Q197.315 368.673 200.371 364.09 Q203.449 359.483 209.26 359.483 Z" fill="#000000" fill-rule="nonzero" fill-opacity="1" /><path clip-path="url(#clip490)" d="M242.269 364.182 L230.463 382.631 L242.269 382.631 L242.269 364.182 M241.042 360.108 L246.921 360.108 L246.921 382.631 L251.852 382.631 L251.852 386.52 L246.921 386.52 L246.921 394.668 L242.269 394.668 L242.269 386.52 L226.667 386.52 L226.667 382.006 L241.042 360.108 Z" fill="#000000" fill-rule="nonzero" fill-opacity="1" /><path clip-path="url(#clip490)" d="M164.352 184.275 Q160.741 184.275 158.913 187.84 Q157.107 191.381 157.107 198.511 Q157.107 205.617 158.913 209.182 Q160.741 212.724 164.352 212.724 Q167.987 212.724 169.792 209.182 Q171.621 205.617 171.621 198.511 Q171.621 191.381 169.792 187.84 Q167.987 184.275 164.352 184.275 M164.352 180.571 Q170.163 180.571 173.218 185.178 Q176.297 189.761 176.297 198.511 Q176.297 207.238 173.218 211.844 Q170.163 216.427 164.352 216.427 Q158.542 216.427 155.464 211.844 Q152.408 207.238 152.408 198.511 Q152.408 189.761 155.464 185.178 Q158.542 180.571 164.352 180.571 Z" fill="#000000" fill-rule="nonzero" fill-opacity="1" /><path clip-path="url(#clip490)" d="M184.514 209.876 L189.399 209.876 L189.399 215.756 L184.514 215.756 L184.514 209.876 Z" fill="#000000" fill-rule="nonzero" fill-opacity="1" /><path clip-path="url(#clip490)" d="M209.584 184.275 Q205.973 184.275 204.144 187.84 Q202.338 191.381 202.338 198.511 Q202.338 205.617 204.144 209.182 Q205.973 212.724 209.584 212.724 Q213.218 212.724 215.024 209.182 Q216.852 205.617 216.852 198.511 Q216.852 191.381 215.024 187.84 Q213.218 184.275 209.584 184.275 M209.584 180.571 Q215.394 180.571 218.449 185.178 Q221.528 189.761 221.528 198.511 Q221.528 207.238 218.449 211.844 Q215.394 216.427 209.584 216.427 Q203.774 216.427 200.695 211.844 Q197.639 207.238 197.639 198.511 Q197.639 189.761 200.695 185.178 Q203.774 180.571 209.584 180.571 Z" fill="#000000" fill-rule="nonzero" fill-opacity="1" /><path clip-path="url(#clip490)" d="M240.324 196.613 Q237.176 196.613 235.324 198.765 Q233.496 200.918 233.496 204.668 Q233.496 208.395 235.324 210.571 Q237.176 212.724 240.324 212.724 Q243.472 212.724 245.301 210.571 Q247.153 208.395 247.153 204.668 Q247.153 200.918 245.301 198.765 Q243.472 196.613 240.324 196.613 M249.607 181.96 L249.607 186.219 Q247.847 185.386 246.042 184.946 Q244.259 184.506 242.5 184.506 Q237.871 184.506 235.417 187.631 Q232.986 190.756 232.639 197.076 Q234.005 195.062 236.065 193.997 Q238.125 192.909 240.602 192.909 Q245.81 192.909 248.82 196.08 Q251.852 199.228 251.852 204.668 Q251.852 209.992 248.704 213.21 Q245.556 216.427 240.324 216.427 Q234.329 216.427 231.158 211.844 Q227.986 207.238 227.986 198.511 Q227.986 190.316 231.875 185.455 Q235.764 180.571 242.315 180.571 Q244.074 180.571 245.857 180.918 Q247.662 181.266 249.607 181.96 Z" fill="#000000" fill-rule="nonzero" fill-opacity="1" /><path clip-path="url(#clip490)" d="M67.3143 842.092 Q73.68 844.575 75.6216 846.93 Q77.5631 849.285 77.5631 853.232 L77.5631 857.911 L72.6615 857.911 L72.6615 854.473 Q72.6615 852.055 71.5157 850.718 Q70.3699 849.381 66.1048 847.758 L63.4312 846.707 L28.3562 861.126 L28.3562 854.919 L56.238 843.779 L28.3562 832.639 L28.3562 826.433 L67.3143 842.092 Z" fill="#000000" fill-rule="nonzero" fill-opacity="1" /><path clip-path="url(#clip490)" d="M58.657 791.962 L77.5631 791.962 L77.5631 797.851 L28.3562 797.851 L28.3562 791.962 L33.7671 791.962 Q30.5842 790.116 29.0564 787.315 Q27.4968 784.483 27.4968 780.568 Q27.4968 774.075 32.6531 770.032 Q37.8093 765.958 46.212 765.958 Q54.6147 765.958 59.771 770.032 Q64.9272 774.075 64.9272 780.568 Q64.9272 784.483 63.3994 787.315 Q61.8398 790.116 58.657 791.962 M46.212 772.038 Q39.7508 772.038 36.0905 774.711 Q32.3984 777.353 32.3984 782 Q32.3984 786.647 36.0905 789.32 Q39.7508 791.962 46.212 791.962 Q52.6732 791.962 56.3653 789.32 Q60.0256 786.647 60.0256 782 Q60.0256 777.353 56.3653 774.711 Q52.6732 772.038 46.212 772.038 Z" fill="#000000" fill-rule="nonzero" fill-opacity="1" /><path clip-path="url(#clip490)" d="M32.4621 742.437 Q32.4621 747.148 36.1542 749.885 Q39.8145 752.622 46.212 752.622 Q52.6095 752.622 56.3017 749.917 Q59.9619 747.179 59.9619 742.437 Q59.9619 737.758 56.2698 735.021 Q52.5777 732.284 46.212 732.284 Q39.8781 732.284 36.186 735.021 Q32.4621 737.758 32.4621 742.437 M27.4968 742.437 Q27.4968 734.798 32.4621 730.438 Q37.4273 726.077 46.212 726.077 Q54.9649 726.077 59.9619 730.438 Q64.9272 734.798 64.9272 742.437 Q64.9272 750.108 59.9619 754.468 Q54.9649 758.797 46.212 758.797 Q37.4273 758.797 32.4621 754.468 Q27.4968 750.108 27.4968 742.437 Z" fill="#000000" fill-rule="nonzero" fill-opacity="1" /><path clip-path="url(#clip490)" d="M29.4065 693.644 L34.9447 693.644 Q33.6716 696.127 33.035 698.8 Q32.3984 701.474 32.3984 704.338 Q32.3984 708.699 33.7352 710.895 Q35.072 713.059 37.7456 713.059 Q39.7826 713.059 40.9603 711.5 Q42.1061 709.94 43.1565 705.229 L43.6021 703.224 Q44.9389 696.986 47.3897 694.376 Q49.8086 691.734 54.1691 691.734 Q59.1344 691.734 62.0308 695.681 Q64.9272 699.596 64.9272 706.471 Q64.9272 709.335 64.3543 712.455 Q63.8132 715.542 62.6992 718.979 L56.6518 718.979 Q58.3387 715.733 59.198 712.582 Q60.0256 709.431 60.0256 706.343 Q60.0256 702.206 58.6251 699.978 Q57.1929 697.75 54.6147 697.75 Q52.2276 697.75 50.9545 699.373 Q49.6813 700.964 48.5037 706.407 L48.0262 708.444 Q46.8804 713.887 44.5251 716.306 Q42.138 718.725 38.0002 718.725 Q32.9713 718.725 30.2341 715.16 Q27.4968 711.595 27.4968 705.039 Q27.4968 701.792 27.9743 698.927 Q28.4517 696.063 29.4065 693.644 Z" fill="#000000" fill-rule="nonzero" fill-opacity="1" /><path clip-path="url(#clip490)" d="M55.9197 681.581 L55.9197 674.865 L64.0042 674.865 L64.0042 681.581 L55.9197 681.581 Z" fill="#000000" fill-rule="nonzero" fill-opacity="1" /><path clip-path="url(#clip490)" d="M22.086 622.475 L47.4533 638.708 L47.4533 622.475 L22.086 622.475 M16.4842 624.162 L16.4842 616.078 L47.4533 616.078 L47.4533 609.298 L52.8005 609.298 L52.8005 616.078 L64.0042 616.078 L64.0042 622.475 L52.8005 622.475 L52.8005 643.928 L46.5939 643.928 L16.4842 624.162 Z" fill="#000000" fill-rule="nonzero" fill-opacity="1" /><polyline clip-path="url(#clip492)" style="stroke:#ff0000; stroke-linecap:round; stroke-linejoin:round; stroke-width:4; stroke-opacity:1; fill:none" points="346.293,86.1857 541.095,337.181 735.897,503.876 930.699,611.816 1125.5,682.541 1320.3,735.212 1515.11,787.883 1709.91,858.608 1904.71,966.548 2099.51,1133.24 2294.32,1384.24 "/>
</svg>
