<?xml version="1.0" encoding="utf-8"?>
<svg xmlns="http://www.w3.org/2000/svg" xmlns:xlink="http://www.w3.org/1999/xlink" width="600" height="400" viewBox="0 0 2400 1600">
<defs>
  <clipPath id="clip220">
    <rect x="0" y="0" width="2400" height="1600"/>
  </clipPath>
</defs>
<path clip-path="url(#clip220)" d="M0 1600 L2400 1600 L2400 0 L0 0  Z" fill="#ffffff" fill-rule="evenodd" fill-opacity="1"/>
<defs>
  <clipPath id="clip221">
    <rect x="480" y="0" width="1681" height="1600"/>
  </clipPath>
</defs>
<path clip-path="url(#clip220)" d="M257.69 1423.18 L2352.76 1423.18 L2352.76 47.2441 L257.69 47.2441  Z" fill="#ffffff" fill-rule="evenodd" fill-opacity="1"/>
<defs>
  <clipPath id="clip222">
    <rect x="257" y="47" width="2096" height="1377"/>
  </clipPath>
</defs>
<polyline clip-path="url(#clip222)" style="stroke:#000000; stroke-linecap:round; stroke-linejoin:round; stroke-width:2; stroke-opacity:0.1; fill:none" points="316.984,1423.18 316.984,47.2441 "/>
<polyline clip-path="url(#clip222)" style="stroke:#000000; stroke-linecap:round; stroke-linejoin:round; stroke-width:2; stroke-opacity:0.1; fill:none" points="811.104,1423.18 811.104,47.2441 "/>
<polyline clip-path="url(#clip222)" style="stroke:#000000; stroke-linecap:round; stroke-linejoin:round; stroke-width:2; stroke-opacity:0.1; fill:none" points="1305.22,1423.18 1305.22,47.2441 "/>
<polyline clip-path="url(#clip222)" style="stroke:#000000; stroke-linecap:round; stroke-linejoin:round; stroke-width:2; stroke-opacity:0.1; fill:none" points="1799.34,1423.18 1799.34,47.2441 "/>
<polyline clip-path="url(#clip222)" style="stroke:#000000; stroke-linecap:round; stroke-linejoin:round; stroke-width:2; stroke-opacity:0.1; fill:none" points="2293.46,1423.18 2293.46,47.2441 "/>
<polyline clip-path="url(#clip222)" style="stroke:#000000; stroke-linecap:round; stroke-linejoin:round; stroke-width:2; stroke-opacity:0.1; fill:none" points="257.69,1404.41 2352.76,1404.41 "/>
<polyline clip-path="url(#clip222)" style="stroke:#000000; stroke-linecap:round; stroke-linejoin:round; stroke-width:2; stroke-opacity:0.1; fill:none" points="257.69,1069.81 2352.76,1069.81 "/>
<polyline clip-path="url(#clip222)" style="stroke:#000000; stroke-linecap:round; stroke-linejoin:round; stroke-width:2; stroke-opacity:0.1; fill:none" points="257.69,735.212 2352.76,735.212 "/>
<polyline clip-path="url(#clip222)" style="stroke:#000000; stroke-linecap:round; stroke-linejoin:round; stroke-width:2; stroke-opacity:0.1; fill:none" points="257.69,400.612 2352.76,400.612 "/>
<polyline clip-path="url(#clip222)" style="stroke:#000000; stroke-linecap:round; stroke-linejoin:round; stroke-width:2; stroke-opacity:0.1; fill:none" points="257.69,66.0125 2352.76,66.0125 "/>
<polyline clip-path="url(#clip220)" style="stroke:#000000; stroke-linecap:round; stroke-linejoin:round; stroke-width:4; stroke-opacity:1; fill:none" points="257.69,1423.18 2352.76,1423.18 "/>
<polyline clip-path="url(#clip220)" style="stroke:#000000; stroke-linecap:round; stroke-linejoin:round; stroke-width:4; stroke-opacity:1; fill:none" points="316.984,1423.18 316.984,1404.28 "/>
<polyline clip-path="url(#clip220)" style="stroke:#000000; stroke-linecap:round; stroke-linejoin:round; stroke-width:4; stroke-opacity:1; fill:none" points="811.104,1423.18 811.104,1404.28 "/>
<polyline clip-path="url(#clip220)" style="stroke:#000000; stroke-linecap:round; stroke-linejoin:round; stroke-width:4; stroke-opacity:1; fill:none" points="1305.22,1423.18 1305.22,1404.28 "/>
<polyline clip-path="url(#clip220)" style="stroke:#000000; stroke-linecap:round; stroke-linejoin:round; stroke-width:4; stroke-opacity:1; fill:none" points="1799.34,1423.18 1799.34,1404.28 "/>
<polyline clip-path="url(#clip220)" style="stroke:#000000; stroke-linecap:round; stroke-linejoin:round; stroke-width:4; stroke-opacity:1; fill:none" points="2293.46,1423.18 2293.46,1404.28 "/>
<path clip-path="url(#clip220)" d="M285.885 1468.75 L315.561 1468.75 L315.561 1472.69 L285.885 1472.69 L285.885 1468.75 Z" fill="#000000" fill-rule="nonzero" fill-opacity="1" /><path clip-path="url(#clip220)" d="M338.501 1455.09 L326.695 1473.54 L338.501 1473.54 L338.501 1455.09 M337.274 1451.02 L343.153 1451.02 L343.153 1473.54 L348.084 1473.54 L348.084 1477.43 L343.153 1477.43 L343.153 1485.58 L338.501 1485.58 L338.501 1477.43 L322.899 1477.43 L322.899 1472.92 L337.274 1451.02 Z" fill="#000000" fill-rule="nonzero" fill-opacity="1" /><path clip-path="url(#clip220)" d="M781.046 1468.75 L810.722 1468.75 L810.722 1472.69 L781.046 1472.69 L781.046 1468.75 Z" fill="#000000" fill-rule="nonzero" fill-opacity="1" /><path clip-path="url(#clip220)" d="M824.842 1481.64 L841.161 1481.64 L841.161 1485.58 L819.217 1485.58 L819.217 1481.64 Q821.879 1478.89 826.462 1474.26 Q831.069 1469.61 832.249 1468.27 Q834.495 1465.74 835.374 1464.01 Q836.277 1462.25 836.277 1460.56 Q836.277 1457.8 834.333 1456.07 Q832.411 1454.33 829.31 1454.33 Q827.111 1454.33 824.657 1455.09 Q822.226 1455.86 819.449 1457.41 L819.449 1452.69 Q822.273 1451.55 824.726 1450.97 Q827.18 1450.39 829.217 1450.39 Q834.587 1450.39 837.782 1453.08 Q840.976 1455.77 840.976 1460.26 Q840.976 1462.39 840.166 1464.31 Q839.379 1466.2 837.273 1468.8 Q836.694 1469.47 833.592 1472.69 Q830.49 1475.88 824.842 1481.64 Z" fill="#000000" fill-rule="nonzero" fill-opacity="1" /><path clip-path="url(#clip220)" d="M1305.22 1454.1 Q1301.61 1454.1 1299.78 1457.66 Q1297.98 1461.2 1297.98 1468.33 Q1297.98 1475.44 1299.78 1479.01 Q1301.61 1482.55 1305.22 1482.55 Q1308.86 1482.55 1310.66 1479.01 Q1312.49 1475.44 1312.49 1468.33 Q1312.49 1461.2 1310.66 1457.66 Q1308.86 1454.1 1305.22 1454.1 M1305.22 1450.39 Q1311.03 1450.39 1314.09 1455 Q1317.17 1459.58 1317.17 1468.33 Q1317.17 1477.06 1314.09 1481.67 Q1311.03 1486.25 1305.22 1486.25 Q1299.41 1486.25 1296.33 1481.67 Q1293.28 1477.06 1293.28 1468.33 Q1293.28 1459.58 1296.33 1455 Q1299.41 1450.39 1305.22 1450.39 Z" fill="#000000" fill-rule="nonzero" fill-opacity="1" /><path clip-path="url(#clip220)" d="M1794 1481.64 L1810.31 1481.64 L1810.31 1485.58 L1788.37 1485.58 L1788.37 1481.64 Q1791.03 1478.89 1795.62 1474.26 Q1800.22 1469.61 1801.4 1468.27 Q1803.65 1465.74 1804.53 1464.01 Q1805.43 1462.25 1805.43 1460.56 Q1805.43 1457.8 1803.49 1456.07 Q1801.56 1454.33 1798.46 1454.33 Q1796.26 1454.33 1793.81 1455.09 Q1791.38 1455.86 1788.6 1457.41 L1788.6 1452.69 Q1791.43 1451.55 1793.88 1450.97 Q1796.33 1450.39 1798.37 1450.39 Q1803.74 1450.39 1806.93 1453.08 Q1810.13 1455.77 1810.13 1460.26 Q1810.13 1462.39 1809.32 1464.31 Q1808.53 1466.2 1806.43 1468.8 Q1805.85 1469.47 1802.75 1472.69 Q1799.64 1475.88 1794 1481.64 Z" fill="#000000" fill-rule="nonzero" fill-opacity="1" /><path clip-path="url(#clip220)" d="M2296.47 1455.09 L2284.67 1473.54 L2296.47 1473.54 L2296.47 1455.09 M2295.24 1451.02 L2301.12 1451.02 L2301.12 1473.54 L2306.05 1473.54 L2306.05 1477.43 L2301.12 1477.43 L2301.12 1485.58 L2296.47 1485.58 L2296.47 1477.43 L2280.87 1477.43 L2280.87 1472.92 L2295.24 1451.02 Z" fill="#000000" fill-rule="nonzero" fill-opacity="1" /><path clip-path="url(#clip220)" d="M1199.52 1571.35 Q1197.04 1577.72 1194.68 1579.66 Q1192.33 1581.6 1188.38 1581.6 L1183.7 1581.6 L1183.7 1576.7 L1187.14 1576.7 Q1189.56 1576.7 1190.89 1575.56 Q1192.23 1574.41 1193.85 1570.14 L1194.91 1567.47 L1180.49 1532.4 L1186.69 1532.4 L1197.83 1560.28 L1208.97 1532.4 L1215.18 1532.4 L1199.52 1571.35 Z" fill="#000000" fill-rule="nonzero" fill-opacity="1" /><path clip-path="url(#clip220)" d="M1249.65 1562.7 L1249.65 1581.6 L1243.76 1581.6 L1243.76 1532.4 L1249.65 1532.4 L1249.65 1537.81 Q1251.5 1534.62 1254.3 1533.1 Q1257.13 1531.54 1261.05 1531.54 Q1267.54 1531.54 1271.58 1536.69 Q1275.65 1541.85 1275.65 1550.25 Q1275.65 1558.65 1271.58 1563.81 Q1267.54 1568.97 1261.05 1568.97 Q1257.13 1568.97 1254.3 1567.44 Q1251.5 1565.88 1249.65 1562.7 M1269.58 1550.25 Q1269.58 1543.79 1266.9 1540.13 Q1264.26 1536.44 1259.61 1536.44 Q1254.97 1536.44 1252.29 1540.13 Q1249.65 1543.79 1249.65 1550.25 Q1249.65 1556.71 1252.29 1560.4 Q1254.97 1564.07 1259.61 1564.07 Q1264.26 1564.07 1266.9 1560.4 Q1269.58 1556.71 1269.58 1550.25 Z" fill="#000000" fill-rule="nonzero" fill-opacity="1" /><path clip-path="url(#clip220)" d="M1299.18 1536.5 Q1294.46 1536.5 1291.73 1540.19 Q1288.99 1543.85 1288.99 1550.25 Q1288.99 1556.65 1291.7 1560.34 Q1294.43 1564 1299.18 1564 Q1303.85 1564 1306.59 1560.31 Q1309.33 1556.62 1309.33 1550.25 Q1309.33 1543.92 1306.59 1540.23 Q1303.85 1536.5 1299.18 1536.5 M1299.18 1531.54 Q1306.81 1531.54 1311.17 1536.5 Q1315.54 1541.47 1315.54 1550.25 Q1315.54 1559 1311.17 1564 Q1306.81 1568.97 1299.18 1568.97 Q1291.5 1568.97 1287.14 1564 Q1282.82 1559 1282.82 1550.25 Q1282.82 1541.47 1287.14 1536.5 Q1291.5 1531.54 1299.18 1531.54 Z" fill="#000000" fill-rule="nonzero" fill-opacity="1" /><path clip-path="url(#clip220)" d="M1347.97 1533.45 L1347.97 1538.98 Q1345.49 1537.71 1342.81 1537.07 Q1340.14 1536.44 1337.27 1536.44 Q1332.91 1536.44 1330.72 1537.77 Q1328.55 1539.11 1328.55 1541.79 Q1328.55 1543.82 1330.11 1545 Q1331.67 1546.15 1336.38 1547.2 L1338.39 1547.64 Q1344.63 1548.98 1347.24 1551.43 Q1349.88 1553.85 1349.88 1558.21 Q1349.88 1563.17 1345.93 1566.07 Q1342.02 1568.97 1335.14 1568.97 Q1332.28 1568.97 1329.16 1568.39 Q1326.07 1567.85 1322.63 1566.74 L1322.63 1560.69 Q1325.88 1562.38 1329.03 1563.24 Q1332.18 1564.07 1335.27 1564.07 Q1339.41 1564.07 1341.63 1562.66 Q1343.86 1561.23 1343.86 1558.65 Q1343.86 1556.27 1342.24 1554.99 Q1340.65 1553.72 1335.21 1552.54 L1333.17 1552.07 Q1327.73 1550.92 1325.31 1548.56 Q1322.89 1546.18 1322.89 1542.04 Q1322.89 1537.01 1326.45 1534.27 Q1330.02 1531.54 1336.57 1531.54 Q1339.82 1531.54 1342.69 1532.01 Q1345.55 1532.49 1347.97 1533.45 Z" fill="#000000" fill-rule="nonzero" fill-opacity="1" /><path clip-path="url(#clip220)" d="M1360.03 1559.96 L1366.75 1559.96 L1366.75 1568.04 L1360.03 1568.04 L1360.03 1559.96 Z" fill="#000000" fill-rule="nonzero" fill-opacity="1" /><path clip-path="url(#clip220)" d="M1402.59 1562.63 L1413.09 1562.63 L1413.09 1526.38 L1401.66 1528.67 L1401.66 1522.82 L1413.03 1520.52 L1419.46 1520.52 L1419.46 1562.63 L1429.96 1562.63 L1429.96 1568.04 L1402.59 1568.04 L1402.59 1562.63 Z" fill="#000000" fill-rule="nonzero" fill-opacity="1" /><polyline clip-path="url(#clip220)" style="stroke:#000000; stroke-linecap:round; stroke-linejoin:round; stroke-width:4; stroke-opacity:1; fill:none" points="257.69,1423.18 257.69,47.2441 "/>
<polyline clip-path="url(#clip220)" style="stroke:#000000; stroke-linecap:round; stroke-linejoin:round; stroke-width:4; stroke-opacity:1; fill:none" points="257.69,1404.41 276.588,1404.41 "/>
<polyline clip-path="url(#clip220)" style="stroke:#000000; stroke-linecap:round; stroke-linejoin:round; stroke-width:4; stroke-opacity:1; fill:none" points="257.69,1069.81 276.588,1069.81 "/>
<polyline clip-path="url(#clip220)" style="stroke:#000000; stroke-linecap:round; stroke-linejoin:round; stroke-width:4; stroke-opacity:1; fill:none" points="257.69,735.212 276.588,735.212 "/>
<polyline clip-path="url(#clip220)" style="stroke:#000000; stroke-linecap:round; stroke-linejoin:round; stroke-width:4; stroke-opacity:1; fill:none" points="257.69,400.612 276.588,400.612 "/>
<polyline clip-path="url(#clip220)" style="stroke:#000000; stroke-linecap:round; stroke-linejoin:round; stroke-width:4; stroke-opacity:1; fill:none" points="257.69,66.0125 276.588,66.0125 "/>
<path clip-path="url(#clip220)" d="M114.26 1404.86 L143.936 1404.86 L143.936 1408.8 L114.26 1408.8 L114.26 1404.86 Z" fill="#000000" fill-rule="nonzero" fill-opacity="1" /><path clip-path="url(#clip220)" d="M164.028 1390.21 Q160.417 1390.21 158.589 1393.77 Q156.783 1397.32 156.783 1404.45 Q156.783 1411.55 158.589 1415.12 Q160.417 1418.66 164.028 1418.66 Q167.663 1418.66 169.468 1415.12 Q171.297 1411.55 171.297 1404.45 Q171.297 1397.32 169.468 1393.77 Q167.663 1390.21 164.028 1390.21 M164.028 1386.51 Q169.839 1386.51 172.894 1391.11 Q175.973 1395.7 175.973 1404.45 Q175.973 1413.17 172.894 1417.78 Q169.839 1422.36 164.028 1422.36 Q158.218 1422.36 155.14 1417.78 Q152.084 1413.17 152.084 1404.45 Q152.084 1395.7 155.14 1391.11 Q158.218 1386.51 164.028 1386.51 Z" fill="#000000" fill-rule="nonzero" fill-opacity="1" /><path clip-path="url(#clip220)" d="M184.19 1415.81 L189.075 1415.81 L189.075 1421.69 L184.19 1421.69 L184.19 1415.81 Z" fill="#000000" fill-rule="nonzero" fill-opacity="1" /><path clip-path="url(#clip220)" d="M212.107 1391.21 L200.301 1409.65 L212.107 1409.65 L212.107 1391.21 M210.88 1387.13 L216.76 1387.13 L216.76 1409.65 L221.69 1409.65 L221.69 1413.54 L216.76 1413.54 L216.76 1421.69 L212.107 1421.69 L212.107 1413.54 L196.505 1413.54 L196.505 1409.03 L210.88 1387.13 Z" fill="#000000" fill-rule="nonzero" fill-opacity="1" /><path clip-path="url(#clip220)" d="M116.343 1070.26 L146.019 1070.26 L146.019 1074.2 L116.343 1074.2 L116.343 1070.26 Z" fill="#000000" fill-rule="nonzero" fill-opacity="1" /><path clip-path="url(#clip220)" d="M166.112 1055.61 Q162.501 1055.61 160.672 1059.18 Q158.866 1062.72 158.866 1069.85 Q158.866 1076.95 160.672 1080.52 Q162.501 1084.06 166.112 1084.06 Q169.746 1084.06 171.552 1080.52 Q173.38 1076.95 173.38 1069.85 Q173.38 1062.72 171.552 1059.18 Q169.746 1055.61 166.112 1055.61 M166.112 1051.91 Q171.922 1051.91 174.977 1056.51 Q178.056 1061.1 178.056 1069.85 Q178.056 1078.57 174.977 1083.18 Q171.922 1087.76 166.112 1087.76 Q160.302 1087.76 157.223 1083.18 Q154.167 1078.57 154.167 1069.85 Q154.167 1061.1 157.223 1056.51 Q160.302 1051.91 166.112 1051.91 Z" fill="#000000" fill-rule="nonzero" fill-opacity="1" /><path clip-path="url(#clip220)" d="M186.274 1081.21 L191.158 1081.21 L191.158 1087.09 L186.274 1087.09 L186.274 1081.21 Z" fill="#000000" fill-rule="nonzero" fill-opacity="1" /><path clip-path="url(#clip220)" d="M205.371 1083.16 L221.69 1083.16 L221.69 1087.09 L199.746 1087.09 L199.746 1083.16 Q202.408 1080.4 206.991 1075.77 Q211.598 1071.12 212.778 1069.78 Q215.024 1067.25 215.903 1065.52 Q216.806 1063.76 216.806 1062.07 Q216.806 1059.31 214.861 1057.58 Q212.94 1055.84 209.838 1055.84 Q207.639 1055.84 205.186 1056.61 Q202.755 1057.37 199.977 1058.92 L199.977 1054.2 Q202.801 1053.06 205.255 1052.49 Q207.709 1051.91 209.746 1051.91 Q215.116 1051.91 218.311 1054.59 Q221.505 1057.28 221.505 1061.77 Q221.505 1063.9 220.695 1065.82 Q219.908 1067.72 217.801 1070.31 Q217.223 1070.98 214.121 1074.2 Q211.019 1077.39 205.371 1083.16 Z" fill="#000000" fill-rule="nonzero" fill-opacity="1" /><path clip-path="url(#clip220)" d="M164.515 721.011 Q160.903 721.011 159.075 724.575 Q157.269 728.117 157.269 735.247 Q157.269 742.353 159.075 745.918 Q160.903 749.46 164.515 749.46 Q168.149 749.46 169.954 745.918 Q171.783 742.353 171.783 735.247 Q171.783 728.117 169.954 724.575 Q168.149 721.011 164.515 721.011 M164.515 717.307 Q170.325 717.307 173.38 721.913 Q176.459 726.497 176.459 735.247 Q176.459 743.973 173.38 748.58 Q170.325 753.163 164.515 753.163 Q158.704 753.163 155.626 748.58 Q152.57 743.973 152.57 735.247 Q152.57 726.497 155.626 721.913 Q158.704 717.307 164.515 717.307 Z" fill="#000000" fill-rule="nonzero" fill-opacity="1" /><path clip-path="url(#clip220)" d="M184.676 746.612 L189.561 746.612 L189.561 752.492 L184.676 752.492 L184.676 746.612 Z" fill="#000000" fill-rule="nonzero" fill-opacity="1" /><path clip-path="url(#clip220)" d="M209.746 721.011 Q206.135 721.011 204.306 724.575 Q202.5 728.117 202.5 735.247 Q202.5 742.353 204.306 745.918 Q206.135 749.46 209.746 749.46 Q213.38 749.46 215.186 745.918 Q217.014 742.353 217.014 735.247 Q217.014 728.117 215.186 724.575 Q213.38 721.011 209.746 721.011 M209.746 717.307 Q215.556 717.307 218.611 721.913 Q221.69 726.497 221.69 735.247 Q221.69 743.973 218.611 748.58 Q215.556 753.163 209.746 753.163 Q203.936 753.163 200.857 748.58 Q197.801 743.973 197.801 735.247 Q197.801 726.497 200.857 721.913 Q203.936 717.307 209.746 717.307 Z" fill="#000000" fill-rule="nonzero" fill-opacity="1" /><path clip-path="url(#clip220)" d="M166.112 386.411 Q162.501 386.411 160.672 389.976 Q158.866 393.517 158.866 400.647 Q158.866 407.753 160.672 411.318 Q162.501 414.86 166.112 414.86 Q169.746 414.86 171.552 411.318 Q173.38 407.753 173.38 400.647 Q173.38 393.517 171.552 389.976 Q169.746 386.411 166.112 386.411 M166.112 382.707 Q171.922 382.707 174.977 387.314 Q178.056 391.897 178.056 400.647 Q178.056 409.374 174.977 413.98 Q171.922 418.564 166.112 418.564 Q160.302 418.564 157.223 413.98 Q154.167 409.374 154.167 400.647 Q154.167 391.897 157.223 387.314 Q160.302 382.707 166.112 382.707 Z" fill="#000000" fill-rule="nonzero" fill-opacity="1" /><path clip-path="url(#clip220)" d="M186.274 412.013 L191.158 412.013 L191.158 417.892 L186.274 417.892 L186.274 412.013 Z" fill="#000000" fill-rule="nonzero" fill-opacity="1" /><path clip-path="url(#clip220)" d="M205.371 413.957 L221.69 413.957 L221.69 417.892 L199.746 417.892 L199.746 413.957 Q202.408 411.202 206.991 406.573 Q211.598 401.92 212.778 400.577 Q215.024 398.054 215.903 396.318 Q216.806 394.559 216.806 392.869 Q216.806 390.115 214.861 388.378 Q212.94 386.642 209.838 386.642 Q207.639 386.642 205.186 387.406 Q202.755 388.17 199.977 389.721 L199.977 384.999 Q202.801 383.865 205.255 383.286 Q207.709 382.707 209.746 382.707 Q215.116 382.707 218.311 385.392 Q221.505 388.078 221.505 392.568 Q221.505 394.698 220.695 396.619 Q219.908 398.517 217.801 401.11 Q217.223 401.781 214.121 404.999 Q211.019 408.193 205.371 413.957 Z" fill="#000000" fill-rule="nonzero" fill-opacity="1" /><path clip-path="url(#clip220)" d="M164.028 51.8111 Q160.417 51.8111 158.589 55.3759 Q156.783 58.9176 156.783 66.0472 Q156.783 73.1536 158.589 76.7184 Q160.417 80.2601 164.028 80.2601 Q167.663 80.2601 169.468 76.7184 Q171.297 73.1536 171.297 66.0472 Q171.297 58.9176 169.468 55.3759 Q167.663 51.8111 164.028 51.8111 M164.028 48.1075 Q169.839 48.1075 172.894 52.7139 Q175.973 57.2972 175.973 66.0472 Q175.973 74.774 172.894 79.3804 Q169.839 83.9637 164.028 83.9637 Q158.218 83.9637 155.14 79.3804 Q152.084 74.774 152.084 66.0472 Q152.084 57.2972 155.14 52.7139 Q158.218 48.1075 164.028 48.1075 Z" fill="#000000" fill-rule="nonzero" fill-opacity="1" /><path clip-path="url(#clip220)" d="M184.19 77.4129 L189.075 77.4129 L189.075 83.2925 L184.19 83.2925 L184.19 77.4129 Z" fill="#000000" fill-rule="nonzero" fill-opacity="1" /><path clip-path="url(#clip220)" d="M212.107 52.8065 L200.301 71.2555 L212.107 71.2555 L212.107 52.8065 M210.88 48.7325 L216.76 48.7325 L216.76 71.2555 L221.69 71.2555 L221.69 75.1443 L216.76 75.1443 L216.76 83.2925 L212.107 83.2925 L212.107 75.1443 L196.505 75.1443 L196.505 70.6305 L210.88 48.7325 Z" fill="#000000" fill-rule="nonzero" fill-opacity="1" /><path clip-path="url(#clip220)" d="M67.3143 883.167 Q73.68 885.65 75.6216 888.005 Q77.5631 890.36 77.5631 894.307 L77.5631 898.986 L72.6615 898.986 L72.6615 895.548 Q72.6615 893.129 71.5157 891.792 Q70.3699 890.456 66.1048 888.832 L63.4312 887.782 L28.3562 902.2 L28.3562 895.994 L56.238 884.854 L28.3562 873.714 L28.3562 867.507 L67.3143 883.167 Z" fill="#000000" fill-rule="nonzero" fill-opacity="1" /><path clip-path="url(#clip220)" d="M58.657 833.037 L77.5631 833.037 L77.5631 838.925 L28.3562 838.925 L28.3562 833.037 L33.7671 833.037 Q30.5842 831.191 29.0564 828.39 Q27.4968 825.557 27.4968 821.642 Q27.4968 815.149 32.6531 811.107 Q37.8093 807.033 46.212 807.033 Q54.6147 807.033 59.771 811.107 Q64.9272 815.149 64.9272 821.642 Q64.9272 825.557 63.3994 828.39 Q61.8398 831.191 58.657 833.037 M46.212 813.112 Q39.7508 813.112 36.0905 815.786 Q32.3984 818.428 32.3984 823.075 Q32.3984 827.722 36.0905 830.395 Q39.7508 833.037 46.212 833.037 Q52.6732 833.037 56.3653 830.395 Q60.0256 827.722 60.0256 823.075 Q60.0256 818.428 56.3653 815.786 Q52.6732 813.112 46.212 813.112 Z" fill="#000000" fill-rule="nonzero" fill-opacity="1" /><path clip-path="url(#clip220)" d="M32.4621 783.512 Q32.4621 788.222 36.1542 790.96 Q39.8145 793.697 46.212 793.697 Q52.6095 793.697 56.3017 790.991 Q59.9619 788.254 59.9619 783.512 Q59.9619 778.833 56.2698 776.096 Q52.5777 773.358 46.212 773.358 Q39.8781 773.358 36.186 776.096 Q32.4621 778.833 32.4621 783.512 M27.4968 783.512 Q27.4968 775.873 32.4621 771.512 Q37.4273 767.152 46.212 767.152 Q54.9649 767.152 59.9619 771.512 Q64.9272 775.873 64.9272 783.512 Q64.9272 791.182 59.9619 795.543 Q54.9649 799.872 46.212 799.872 Q37.4273 799.872 32.4621 795.543 Q27.4968 791.182 27.4968 783.512 Z" fill="#000000" fill-rule="nonzero" fill-opacity="1" /><path clip-path="url(#clip220)" d="M29.4065 734.719 L34.9447 734.719 Q33.6716 737.201 33.035 739.875 Q32.3984 742.548 32.3984 745.413 Q32.3984 749.774 33.7352 751.97 Q35.072 754.134 37.7456 754.134 Q39.7826 754.134 40.9603 752.574 Q42.1061 751.015 43.1565 746.304 L43.6021 744.299 Q44.9389 738.061 47.3897 735.451 Q49.8086 732.809 54.1691 732.809 Q59.1344 732.809 62.0308 736.756 Q64.9272 740.671 64.9272 747.546 Q64.9272 750.41 64.3543 753.529 Q63.8132 756.617 62.6992 760.054 L56.6518 760.054 Q58.3387 756.808 59.198 753.657 Q60.0256 750.506 60.0256 747.418 Q60.0256 743.281 58.6251 741.053 Q57.1929 738.825 54.6147 738.825 Q52.2276 738.825 50.9545 740.448 Q49.6813 742.039 48.5037 747.482 L48.0262 749.519 Q46.8804 754.962 44.5251 757.381 Q42.138 759.8 38.0002 759.8 Q32.9713 759.8 30.2341 756.235 Q27.4968 752.67 27.4968 746.113 Q27.4968 742.867 27.9743 740.002 Q28.4517 737.138 29.4065 734.719 Z" fill="#000000" fill-rule="nonzero" fill-opacity="1" /><path clip-path="url(#clip220)" d="M55.9197 722.656 L55.9197 715.94 L64.0042 715.94 L64.0042 722.656 L55.9197 722.656 Z" fill="#000000" fill-rule="nonzero" fill-opacity="1" /><path clip-path="url(#clip220)" d="M16.4842 681.151 L16.4842 655.911 L21.895 655.911 L21.895 675.263 L33.5443 675.263 Q33.0668 673.862 32.844 672.462 Q32.5894 671.062 32.5894 669.661 Q32.5894 661.704 36.9499 657.057 Q41.3104 652.41 48.7583 652.41 Q56.429 652.41 60.694 657.184 Q64.9272 661.959 64.9272 670.648 Q64.9272 673.64 64.4179 676.759 Q63.9087 679.846 62.8902 683.156 L56.429 683.156 Q57.9886 680.292 58.7524 677.236 Q59.5163 674.181 59.5163 670.775 Q59.5163 665.269 56.6199 662.054 Q53.7235 658.839 48.7583 658.839 Q43.793 658.839 40.8966 662.054 Q38.0002 665.269 38.0002 670.775 Q38.0002 673.353 38.5732 675.931 Q39.1461 678.478 40.3556 681.151 L16.4842 681.151 Z" fill="#000000" fill-rule="nonzero" fill-opacity="1" /><path clip-path="url(#clip220)" d="M63.0175 639.551 L57.161 639.551 Q58.3069 637.132 58.9116 634.65 Q59.5163 632.167 59.5163 629.78 Q59.5163 623.414 55.2513 620.072 Q50.9545 616.698 42.2334 616.221 Q44.9707 618.067 46.4348 620.9 Q47.8989 623.733 47.8989 627.17 Q47.8989 634.3 43.6021 638.469 Q39.2734 642.607 31.7937 642.607 Q24.4731 642.607 20.049 638.278 Q15.6248 633.949 15.6248 626.756 Q15.6248 618.513 21.9587 614.184 Q28.2607 609.823 40.2919 609.823 Q51.5274 609.823 58.2432 615.171 Q64.9272 620.486 64.9272 629.493 Q64.9272 631.912 64.4498 634.395 Q63.9723 636.878 63.0175 639.551 M42.87 626.756 Q42.87 622.428 39.91 619.913 Q36.9499 617.367 31.7937 617.367 Q26.6693 617.367 23.7092 619.913 Q20.7174 622.428 20.7174 626.756 Q20.7174 631.085 23.7092 633.631 Q26.6693 636.146 31.7937 636.146 Q36.9499 636.146 39.91 633.631 Q42.87 631.085 42.87 626.756 Z" fill="#000000" fill-rule="nonzero" fill-opacity="1" /><path clip-path="url(#clip220)" d="M41.4377 584.52 Q41.4377 589.103 43.8885 591.745 Q46.3393 594.355 50.6362 594.355 Q54.933 594.355 57.3838 591.745 Q59.8346 589.103 59.8346 584.52 Q59.8346 579.936 57.3838 577.295 Q54.9012 574.653 50.6362 574.653 Q46.3393 574.653 43.8885 577.295 Q41.4377 579.905 41.4377 584.52 M38.7005 590.949 Q37.682 595.087 34.8492 597.41 Q32.0165 599.702 27.9424 599.702 Q22.2451 599.702 18.935 595.66 Q15.6248 591.586 15.6248 584.52 Q15.6248 577.422 18.935 573.38 Q22.2451 569.338 27.9424 569.338 Q32.0165 569.338 34.8492 571.661 Q37.682 573.953 38.7005 578.059 Q39.7826 573.412 42.9337 570.834 Q46.0847 568.224 50.6362 568.224 Q57.543 568.224 61.2351 572.457 Q64.9272 576.658 64.9272 584.52 Q64.9272 592.381 61.2351 596.615 Q57.543 600.816 50.6362 600.816 Q46.0847 600.816 42.9337 598.206 Q39.7826 595.596 38.7005 590.949 M28.5472 593.304 Q32.2393 593.304 34.3081 591.013 Q36.377 588.689 36.377 584.52 Q36.377 580.382 34.3081 578.059 Q32.2393 575.703 28.5472 575.703 Q24.8551 575.703 22.7862 578.059 Q20.7174 580.382 20.7174 584.52 Q20.7174 588.689 22.7862 591.013 Q24.8551 593.304 28.5472 593.304 Z" fill="#000000" fill-rule="nonzero" fill-opacity="1" /><polyline clip-path="url(#clip222)" style="stroke:#ff0000; stroke-linecap:round; stroke-linejoin:round; stroke-width:4; stroke-opacity:1; fill:none" points="316.984,86.1857 440.514,273.575 564.044,395.938 687.574,489.883 811.104,561.444 934.634,617.491 1058.16,660.471 1181.69,698.478 1305.22,735.212 1428.75,771.946 1552.28,809.952 1675.81,852.933 1799.34,908.98 1922.87,980.541 2046.4,1074.49 2169.93,1196.85 2293.46,1384.24 "/>
</svg>
