<?xml version="1.0" encoding="utf-8"?>
<svg xmlns="http://www.w3.org/2000/svg" xmlns:xlink="http://www.w3.org/1999/xlink" width="600" height="400" viewBox="0 0 2400 1600">
<defs>
  <clipPath id="clip310">
    <rect x="0" y="0" width="2400" height="1600"/>
  </clipPath>
</defs>
<path clip-path="url(#clip310)" d="M0 1600 L2400 1600 L2400 0 L0 0  Z" fill="#ffffff" fill-rule="evenodd" fill-opacity="1"/>
<defs>
  <clipPath id="clip311">
    <rect x="480" y="0" width="1681" height="1600"/>
  </clipPath>
</defs>
<path clip-path="url(#clip310)" d="M212.459 1423.18 L2352.76 1423.18 L2352.76 47.2441 L212.459 47.2441  Z" fill="#ffffff" fill-rule="evenodd" fill-opacity="1"/>
<defs>
  <clipPath id="clip312">
    <rect x="212" y="47" width="2141" height="1377"/>
  </clipPath>
</defs>
<polyline clip-path="url(#clip312)" style="stroke:#000000; stroke-linecap:round; stroke-linejoin:round; stroke-width:2; stroke-opacity:0.1; fill:none" points="633.581,1423.18 633.581,47.2441 "/>
<polyline clip-path="url(#clip312)" style="stroke:#000000; stroke-linecap:round; stroke-linejoin:round; stroke-width:2; stroke-opacity:0.1; fill:none" points="1120.35,1423.18 1120.35,47.2441 "/>
<polyline clip-path="url(#clip312)" style="stroke:#000000; stroke-linecap:round; stroke-linejoin:round; stroke-width:2; stroke-opacity:0.1; fill:none" points="1607.12,1423.18 1607.12,47.2441 "/>
<polyline clip-path="url(#clip312)" style="stroke:#000000; stroke-linecap:round; stroke-linejoin:round; stroke-width:2; stroke-opacity:0.1; fill:none" points="2093.89,1423.18 2093.89,47.2441 "/>
<polyline clip-path="url(#clip312)" style="stroke:#000000; stroke-linecap:round; stroke-linejoin:round; stroke-width:2; stroke-opacity:0.1; fill:none" points="212.459,1384.24 2352.76,1384.24 "/>
<polyline clip-path="url(#clip312)" style="stroke:#000000; stroke-linecap:round; stroke-linejoin:round; stroke-width:2; stroke-opacity:0.1; fill:none" points="212.459,1059.73 2352.76,1059.73 "/>
<polyline clip-path="url(#clip312)" style="stroke:#000000; stroke-linecap:round; stroke-linejoin:round; stroke-width:2; stroke-opacity:0.1; fill:none" points="212.459,735.212 2352.76,735.212 "/>
<polyline clip-path="url(#clip312)" style="stroke:#000000; stroke-linecap:round; stroke-linejoin:round; stroke-width:2; stroke-opacity:0.1; fill:none" points="212.459,410.699 2352.76,410.699 "/>
<polyline clip-path="url(#clip312)" style="stroke:#000000; stroke-linecap:round; stroke-linejoin:round; stroke-width:2; stroke-opacity:0.1; fill:none" points="212.459,86.1857 2352.76,86.1857 "/>
<polyline clip-path="url(#clip310)" style="stroke:#000000; stroke-linecap:round; stroke-linejoin:round; stroke-width:4; stroke-opacity:1; fill:none" points="212.459,1423.18 2352.76,1423.18 "/>
<polyline clip-path="url(#clip310)" style="stroke:#000000; stroke-linecap:round; stroke-linejoin:round; stroke-width:4; stroke-opacity:1; fill:none" points="633.581,1423.18 633.581,1404.28 "/>
<polyline clip-path="url(#clip310)" style="stroke:#000000; stroke-linecap:round; stroke-linejoin:round; stroke-width:4; stroke-opacity:1; fill:none" points="1120.35,1423.18 1120.35,1404.28 "/>
<polyline clip-path="url(#clip310)" style="stroke:#000000; stroke-linecap:round; stroke-linejoin:round; stroke-width:4; stroke-opacity:1; fill:none" points="1607.12,1423.18 1607.12,1404.28 "/>
<polyline clip-path="url(#clip310)" style="stroke:#000000; stroke-linecap:round; stroke-linejoin:round; stroke-width:4; stroke-opacity:1; fill:none" points="2093.89,1423.18 2093.89,1404.28 "/>
<path clip-path="url(#clip310)" d="M633.581 1454.1 Q629.97 1454.1 628.141 1457.66 Q626.336 1461.2 626.336 1468.33 Q626.336 1475.44 628.141 1479.01 Q629.97 1482.55 633.581 1482.55 Q637.215 1482.55 639.021 1479.01 Q640.85 1475.44 640.85 1468.33 Q640.85 1461.2 639.021 1457.66 Q637.215 1454.1 633.581 1454.1 M633.581 1450.39 Q639.391 1450.39 642.447 1455 Q645.525 1459.58 645.525 1468.33 Q645.525 1477.06 642.447 1481.67 Q639.391 1486.25 633.581 1486.25 Q627.771 1486.25 624.692 1481.67 Q621.637 1477.06 621.637 1468.33 Q621.637 1459.58 624.692 1455 Q627.771 1450.39 633.581 1450.39 Z" fill="#000000" fill-rule="nonzero" fill-opacity="1" /><path clip-path="url(#clip310)" d="M1124.6 1466.95 Q1127.95 1467.66 1129.83 1469.93 Q1131.73 1472.2 1131.73 1475.53 Q1131.73 1480.65 1128.21 1483.45 Q1124.69 1486.25 1118.21 1486.25 Q1116.03 1486.25 1113.72 1485.81 Q1111.43 1485.39 1108.97 1484.54 L1108.97 1480.02 Q1110.92 1481.16 1113.23 1481.74 Q1115.55 1482.32 1118.07 1482.32 Q1122.47 1482.32 1124.76 1480.58 Q1127.08 1478.84 1127.08 1475.53 Q1127.08 1472.48 1124.92 1470.77 Q1122.79 1469.03 1118.97 1469.03 L1114.95 1469.03 L1114.95 1465.19 L1119.16 1465.19 Q1122.61 1465.19 1124.44 1463.82 Q1126.27 1462.43 1126.27 1459.84 Q1126.27 1457.18 1124.37 1455.77 Q1122.49 1454.33 1118.97 1454.33 Q1117.05 1454.33 1114.85 1454.75 Q1112.65 1455.16 1110.02 1456.04 L1110.02 1451.88 Q1112.68 1451.14 1114.99 1450.77 Q1117.33 1450.39 1119.39 1450.39 Q1124.71 1450.39 1127.82 1452.83 Q1130.92 1455.23 1130.92 1459.35 Q1130.92 1462.22 1129.27 1464.21 Q1127.63 1466.18 1124.6 1466.95 Z" fill="#000000" fill-rule="nonzero" fill-opacity="1" /><path clip-path="url(#clip310)" d="M1607.53 1466.44 Q1604.38 1466.44 1602.53 1468.59 Q1600.7 1470.74 1600.7 1474.49 Q1600.7 1478.22 1602.53 1480.39 Q1604.38 1482.55 1607.53 1482.55 Q1610.67 1482.55 1612.5 1480.39 Q1614.35 1478.22 1614.35 1474.49 Q1614.35 1470.74 1612.5 1468.59 Q1610.67 1466.44 1607.53 1466.44 M1616.81 1451.78 L1616.81 1456.04 Q1615.05 1455.21 1613.24 1454.77 Q1611.46 1454.33 1609.7 1454.33 Q1605.07 1454.33 1602.62 1457.45 Q1600.19 1460.58 1599.84 1466.9 Q1601.21 1464.89 1603.27 1463.82 Q1605.33 1462.73 1607.8 1462.73 Q1613.01 1462.73 1616.02 1465.9 Q1619.05 1469.05 1619.05 1474.49 Q1619.05 1479.82 1615.91 1483.03 Q1612.76 1486.25 1607.53 1486.25 Q1601.53 1486.25 1598.36 1481.67 Q1595.19 1477.06 1595.19 1468.33 Q1595.19 1460.14 1599.08 1455.28 Q1602.97 1450.39 1609.52 1450.39 Q1611.28 1450.39 1613.06 1450.74 Q1614.86 1451.09 1616.81 1451.78 Z" fill="#000000" fill-rule="nonzero" fill-opacity="1" /><path clip-path="url(#clip310)" d="M2084.19 1484.86 L2084.19 1480.6 Q2085.95 1481.44 2087.76 1481.88 Q2089.56 1482.32 2091.3 1482.32 Q2095.93 1482.32 2098.36 1479.21 Q2100.81 1476.09 2101.16 1469.75 Q2099.82 1471.74 2097.76 1472.8 Q2095.7 1473.87 2093.2 1473.87 Q2088.01 1473.87 2084.98 1470.74 Q2081.97 1467.59 2081.97 1462.15 Q2081.97 1456.83 2085.12 1453.61 Q2088.27 1450.39 2093.5 1450.39 Q2099.49 1450.39 2102.64 1455 Q2105.81 1459.58 2105.81 1468.33 Q2105.81 1476.51 2101.92 1481.39 Q2098.06 1486.25 2091.51 1486.25 Q2089.75 1486.25 2087.94 1485.9 Q2086.14 1485.56 2084.19 1484.86 M2093.5 1470.21 Q2096.64 1470.21 2098.47 1468.06 Q2100.33 1465.9 2100.33 1462.15 Q2100.33 1458.43 2098.47 1456.27 Q2096.64 1454.1 2093.5 1454.1 Q2090.35 1454.1 2088.5 1456.27 Q2086.67 1458.43 2086.67 1462.15 Q2086.67 1465.9 2088.5 1468.06 Q2090.35 1470.21 2093.5 1470.21 Z" fill="#000000" fill-rule="nonzero" fill-opacity="1" /><path clip-path="url(#clip310)" d="M1269.1 1532.4 L1296.91 1532.4 L1296.91 1537.74 L1274.89 1563.37 L1296.91 1563.37 L1296.91 1568.04 L1268.3 1568.04 L1268.3 1562.7 L1290.33 1537.07 L1269.1 1537.07 L1269.1 1532.4 Z" fill="#000000" fill-rule="nonzero" fill-opacity="1" /><polyline clip-path="url(#clip310)" style="stroke:#000000; stroke-linecap:round; stroke-linejoin:round; stroke-width:4; stroke-opacity:1; fill:none" points="212.459,1423.18 212.459,47.2441 "/>
<polyline clip-path="url(#clip310)" style="stroke:#000000; stroke-linecap:round; stroke-linejoin:round; stroke-width:4; stroke-opacity:1; fill:none" points="212.459,1384.24 231.357,1384.24 "/>
<polyline clip-path="url(#clip310)" style="stroke:#000000; stroke-linecap:round; stroke-linejoin:round; stroke-width:4; stroke-opacity:1; fill:none" points="212.459,1059.73 231.357,1059.73 "/>
<polyline clip-path="url(#clip310)" style="stroke:#000000; stroke-linecap:round; stroke-linejoin:round; stroke-width:4; stroke-opacity:1; fill:none" points="212.459,735.212 231.357,735.212 "/>
<polyline clip-path="url(#clip310)" style="stroke:#000000; stroke-linecap:round; stroke-linejoin:round; stroke-width:4; stroke-opacity:1; fill:none" points="212.459,410.699 231.357,410.699 "/>
<polyline clip-path="url(#clip310)" style="stroke:#000000; stroke-linecap:round; stroke-linejoin:round; stroke-width:4; stroke-opacity:1; fill:none" points="212.459,86.1857 231.357,86.1857 "/>
<path clip-path="url(#clip310)" d="M114.26 1384.69 L143.936 1384.69 L143.936 1388.62 L114.26 1388.62 L114.26 1384.69 Z" fill="#000000" fill-rule="nonzero" fill-opacity="1" /><path clip-path="url(#clip310)" d="M166.876 1371.03 L155.07 1389.48 L166.876 1389.48 L166.876 1371.03 M165.649 1366.96 L171.528 1366.96 L171.528 1389.48 L176.459 1389.48 L176.459 1393.37 L171.528 1393.37 L171.528 1401.52 L166.876 1401.52 L166.876 1393.37 L151.274 1393.37 L151.274 1388.86 L165.649 1366.96 Z" fill="#000000" fill-rule="nonzero" fill-opacity="1" /><path clip-path="url(#clip310)" d="M116.343 1060.18 L146.019 1060.18 L146.019 1064.11 L116.343 1064.11 L116.343 1060.18 Z" fill="#000000" fill-rule="nonzero" fill-opacity="1" /><path clip-path="url(#clip310)" d="M160.14 1073.07 L176.459 1073.07 L176.459 1077.01 L154.515 1077.01 L154.515 1073.07 Q157.177 1070.32 161.76 1065.69 Q166.366 1061.03 167.547 1059.69 Q169.792 1057.17 170.672 1055.43 Q171.575 1053.67 171.575 1051.98 Q171.575 1049.23 169.63 1047.49 Q167.709 1045.76 164.607 1045.76 Q162.408 1045.76 159.954 1046.52 Q157.524 1047.28 154.746 1048.83 L154.746 1044.11 Q157.57 1042.98 160.024 1042.4 Q162.477 1041.82 164.515 1041.82 Q169.885 1041.82 173.079 1044.51 Q176.274 1047.19 176.274 1051.68 Q176.274 1053.81 175.464 1055.73 Q174.677 1057.63 172.57 1060.22 Q171.991 1060.89 168.889 1064.11 Q165.788 1067.31 160.14 1073.07 Z" fill="#000000" fill-rule="nonzero" fill-opacity="1" /><path clip-path="url(#clip310)" d="M164.515 721.011 Q160.903 721.011 159.075 724.575 Q157.269 728.117 157.269 735.247 Q157.269 742.353 159.075 745.918 Q160.903 749.46 164.515 749.46 Q168.149 749.46 169.954 745.918 Q171.783 742.353 171.783 735.247 Q171.783 728.117 169.954 724.575 Q168.149 721.011 164.515 721.011 M164.515 717.307 Q170.325 717.307 173.38 721.913 Q176.459 726.497 176.459 735.247 Q176.459 743.973 173.38 748.58 Q170.325 753.163 164.515 753.163 Q158.704 753.163 155.626 748.58 Q152.57 743.973 152.57 735.247 Q152.57 726.497 155.626 721.913 Q158.704 717.307 164.515 717.307 Z" fill="#000000" fill-rule="nonzero" fill-opacity="1" /><path clip-path="url(#clip310)" d="M160.14 424.044 L176.459 424.044 L176.459 427.979 L154.515 427.979 L154.515 424.044 Q157.177 421.289 161.76 416.659 Q166.366 412.007 167.547 410.664 Q169.792 408.141 170.672 406.405 Q171.575 404.646 171.575 402.956 Q171.575 400.201 169.63 398.465 Q167.709 396.729 164.607 396.729 Q162.408 396.729 159.954 397.493 Q157.524 398.257 154.746 399.808 L154.746 395.085 Q157.57 393.951 160.024 393.373 Q162.477 392.794 164.515 392.794 Q169.885 392.794 173.079 395.479 Q176.274 398.164 176.274 402.655 Q176.274 404.785 175.464 406.706 Q174.677 408.604 172.57 411.197 Q171.991 411.868 168.889 415.085 Q165.788 418.28 160.14 424.044 Z" fill="#000000" fill-rule="nonzero" fill-opacity="1" /><path clip-path="url(#clip310)" d="M166.876 72.9797 L155.07 91.4287 L166.876 91.4287 L166.876 72.9797 M165.649 68.9057 L171.528 68.9057 L171.528 91.4287 L176.459 91.4287 L176.459 95.3176 L171.528 95.3176 L171.528 103.466 L166.876 103.466 L166.876 95.3176 L151.274 95.3176 L151.274 90.8037 L165.649 68.9057 Z" fill="#000000" fill-rule="nonzero" fill-opacity="1" /><path clip-path="url(#clip310)" d="M67.3143 733.525 Q73.68 736.008 75.6216 738.363 Q77.5631 740.718 77.5631 744.665 L77.5631 749.344 L72.6615 749.344 L72.6615 745.906 Q72.6615 743.487 71.5157 742.151 Q70.3699 740.814 66.1048 739.191 L63.4312 738.14 L28.3562 752.559 L28.3562 746.352 L56.238 735.212 L28.3562 724.072 L28.3562 717.865 L67.3143 733.525 Z" fill="#000000" fill-rule="nonzero" fill-opacity="1" /><polyline clip-path="url(#clip312)" style="stroke:#000000; stroke-linecap:round; stroke-linejoin:round; stroke-width:4; stroke-opacity:1; fill:none" points="795.838,1384.24 795.838,1315.92 795.838,1247.6 795.838,1179.28 795.838,1110.96 795.838,1042.65 795.838,974.327 795.838,906.008 795.838,837.69 795.838,769.371 795.838,701.053 795.838,632.734 795.838,564.416 795.838,496.097 795.838,427.778 795.838,359.46 795.838,291.141 795.838,222.823 795.838,154.504 795.838,86.1857 "/>
<polyline clip-path="url(#clip312)" style="stroke:#000000; stroke-linecap:round; stroke-linejoin:round; stroke-width:4; stroke-opacity:1; fill:none" points="1931.63,1384.24 1931.63,1315.92 1931.63,1247.6 1931.63,1179.28 1931.63,1110.96 1931.63,1042.65 1931.63,974.327 1931.63,906.008 1931.63,837.69 1931.63,769.371 1931.63,701.053 1931.63,632.734 1931.63,564.416 1931.63,496.097 1931.63,427.778 1931.63,359.46 1931.63,291.141 1931.63,222.823 1931.63,154.504 1931.63,86.1857 "/>
<polyline clip-path="url(#clip312)" style="stroke:#ff0000; stroke-linecap:round; stroke-linejoin:round; stroke-width:4; stroke-opacity:1; fill:none" points="633.581,1384.24 795.838,1384.24 1931.63,735.212 "/>
<polyline clip-path="url(#clip312)" style="stroke:#ff0000; stroke-linecap:round; stroke-linejoin:round; stroke-width:4; stroke-opacity:1; fill:none" points="633.581,1303.11 795.838,1303.11 1931.63,735.212 "/>
<polyline clip-path="url(#clip312)" style="stroke:#ff0000; stroke-linecap:round; stroke-linejoin:round; stroke-width:4; stroke-opacity:1; fill:none" points="633.581,1221.98 795.838,1221.98 1931.63,735.212 "/>
<polyline clip-path="url(#clip312)" style="stroke:#ff0000; stroke-linecap:round; stroke-linejoin:round; stroke-width:4; stroke-opacity:1; fill:none" points="633.581,1140.85 795.838,1140.85 1931.63,735.212 "/>
<polyline clip-path="url(#clip312)" style="stroke:#ff0000; stroke-linecap:round; stroke-linejoin:round; stroke-width:4; stroke-opacity:1; fill:none" points="633.581,1059.73 795.838,1059.73 1931.63,735.212 "/>
<polyline clip-path="url(#clip312)" style="stroke:#ff0000; stroke-linecap:round; stroke-linejoin:round; stroke-width:4; stroke-opacity:1; fill:none" points="633.581,978.597 795.838,978.597 1931.63,735.212 "/>
<polyline clip-path="url(#clip312)" style="stroke:#ff0000; stroke-linecap:round; stroke-linejoin:round; stroke-width:4; stroke-opacity:1; fill:none" points="633.581,897.469 795.838,897.469 1931.63,735.212 "/>
<polyline clip-path="url(#clip312)" style="stroke:#ff0000; stroke-linecap:round; stroke-linejoin:round; stroke-width:4; stroke-opacity:1; fill:none" points="633.581,816.34 795.838,816.34 1931.63,735.212 "/>
<polyline clip-path="url(#clip312)" style="stroke:#ff0000; stroke-linecap:round; stroke-linejoin:round; stroke-width:4; stroke-opacity:1; fill:none" points="633.581,735.212 795.838,735.212 1931.63,735.212 "/>
<polyline clip-path="url(#clip312)" style="stroke:#ff0000; stroke-linecap:round; stroke-linejoin:round; stroke-width:4; stroke-opacity:1; fill:none" points="633.581,654.084 795.838,654.084 1931.63,735.212 "/>
<polyline clip-path="url(#clip312)" style="stroke:#ff0000; stroke-linecap:round; stroke-linejoin:round; stroke-width:4; stroke-opacity:1; fill:none" points="633.581,572.955 795.838,572.955 1931.63,735.212 "/>
<polyline clip-path="url(#clip312)" style="stroke:#ff0000; stroke-linecap:round; stroke-linejoin:round; stroke-width:4; stroke-opacity:1; fill:none" points="633.581,491.827 795.838,491.827 1931.63,735.212 "/>
<polyline clip-path="url(#clip312)" style="stroke:#ff0000; stroke-linecap:round; stroke-linejoin:round; stroke-width:4; stroke-opacity:1; fill:none" points="633.581,410.699 795.838,410.699 1931.63,735.212 "/>
<polyline clip-path="url(#clip312)" style="stroke:#ff0000; stroke-linecap:round; stroke-linejoin:round; stroke-width:4; stroke-opacity:1; fill:none" points="633.581,329.571 795.838,329.571 1931.63,735.212 "/>
<polyline clip-path="url(#clip312)" style="stroke:#ff0000; stroke-linecap:round; stroke-linejoin:round; stroke-width:4; stroke-opacity:1; fill:none" points="633.581,248.442 795.838,248.442 1931.63,735.212 "/>
<polyline clip-path="url(#clip312)" style="stroke:#ff0000; stroke-linecap:round; stroke-linejoin:round; stroke-width:4; stroke-opacity:1; fill:none" points="633.581,167.314 795.838,167.314 1931.63,735.212 "/>
<polyline clip-path="url(#clip312)" style="stroke:#ff0000; stroke-linecap:round; stroke-linejoin:round; stroke-width:4; stroke-opacity:1; fill:none" points="633.581,86.1857 795.838,86.1857 1931.63,735.212 "/>
</svg>
