<?xml version="1.0" encoding="utf-8"?>
<svg xmlns="http://www.w3.org/2000/svg" xmlns:xlink="http://www.w3.org/1999/xlink" width="600" height="400" viewBox="0 0 2400 1600">
<defs>
  <clipPath id="clip130">
    <rect x="0" y="0" width="2400" height="1600"/>
  </clipPath>
</defs>
<path clip-path="url(#clip130)" d="M0 1600 L2400 1600 L2400 0 L0 0  Z" fill="#ffffff" fill-rule="evenodd" fill-opacity="1"/>
<defs>
  <clipPath id="clip131">
    <rect x="480" y="0" width="1681" height="1600"/>
  </clipPath>
</defs>
<path clip-path="url(#clip130)" d="M212.459 1423.18 L2352.76 1423.18 L2352.76 47.2441 L212.459 47.2441  Z" fill="#ffffff" fill-rule="evenodd" fill-opacity="1"/>
<defs>
  <clipPath id="clip132">
    <rect x="212" y="47" width="2141" height="1377"/>
  </clipPath>
</defs>
<polyline clip-path="url(#clip132)" style="stroke:#000000; stroke-linecap:round; stroke-linejoin:round; stroke-width:2; stroke-opacity:0.1; fill:none" points="273.033,1423.18 273.033,47.2441 "/>
<polyline clip-path="url(#clip132)" style="stroke:#000000; stroke-linecap:round; stroke-linejoin:round; stroke-width:2; stroke-opacity:0.1; fill:none" points="777.82,1423.18 777.82,47.2441 "/>
<polyline clip-path="url(#clip132)" style="stroke:#000000; stroke-linecap:round; stroke-linejoin:round; stroke-width:2; stroke-opacity:0.1; fill:none" points="1282.61,1423.18 1282.61,47.2441 "/>
<polyline clip-path="url(#clip132)" style="stroke:#000000; stroke-linecap:round; stroke-linejoin:round; stroke-width:2; stroke-opacity:0.1; fill:none" points="1787.39,1423.18 1787.39,47.2441 "/>
<polyline clip-path="url(#clip132)" style="stroke:#000000; stroke-linecap:round; stroke-linejoin:round; stroke-width:2; stroke-opacity:0.1; fill:none" points="2292.18,1423.18 2292.18,47.2441 "/>
<polyline clip-path="url(#clip132)" style="stroke:#000000; stroke-linecap:round; stroke-linejoin:round; stroke-width:2; stroke-opacity:0.1; fill:none" points="212.459,1384.24 2352.76,1384.24 "/>
<polyline clip-path="url(#clip132)" style="stroke:#000000; stroke-linecap:round; stroke-linejoin:round; stroke-width:2; stroke-opacity:0.1; fill:none" points="212.459,1059.73 2352.76,1059.73 "/>
<polyline clip-path="url(#clip132)" style="stroke:#000000; stroke-linecap:round; stroke-linejoin:round; stroke-width:2; stroke-opacity:0.1; fill:none" points="212.459,735.212 2352.76,735.212 "/>
<polyline clip-path="url(#clip132)" style="stroke:#000000; stroke-linecap:round; stroke-linejoin:round; stroke-width:2; stroke-opacity:0.1; fill:none" points="212.459,410.698 2352.76,410.698 "/>
<polyline clip-path="url(#clip132)" style="stroke:#000000; stroke-linecap:round; stroke-linejoin:round; stroke-width:2; stroke-opacity:0.1; fill:none" points="212.459,86.185 2352.76,86.185 "/>
<polyline clip-path="url(#clip130)" style="stroke:#000000; stroke-linecap:round; stroke-linejoin:round; stroke-width:4; stroke-opacity:1; fill:none" points="212.459,1423.18 2352.76,1423.18 "/>
<polyline clip-path="url(#clip130)" style="stroke:#000000; stroke-linecap:round; stroke-linejoin:round; stroke-width:4; stroke-opacity:1; fill:none" points="273.033,1423.18 273.033,1404.28 "/>
<polyline clip-path="url(#clip130)" style="stroke:#000000; stroke-linecap:round; stroke-linejoin:round; stroke-width:4; stroke-opacity:1; fill:none" points="777.82,1423.18 777.82,1404.28 "/>
<polyline clip-path="url(#clip130)" style="stroke:#000000; stroke-linecap:round; stroke-linejoin:round; stroke-width:4; stroke-opacity:1; fill:none" points="1282.61,1423.18 1282.61,1404.28 "/>
<polyline clip-path="url(#clip130)" style="stroke:#000000; stroke-linecap:round; stroke-linejoin:round; stroke-width:4; stroke-opacity:1; fill:none" points="1787.39,1423.18 1787.39,1404.28 "/>
<polyline clip-path="url(#clip130)" style="stroke:#000000; stroke-linecap:round; stroke-linejoin:round; stroke-width:4; stroke-opacity:1; fill:none" points="2292.18,1423.18 2292.18,1404.28 "/>
<path clip-path="url(#clip130)" d="M241.934 1468.75 L271.61 1468.75 L271.61 1472.69 L241.934 1472.69 L241.934 1468.75 Z" fill="#000000" fill-rule="nonzero" fill-opacity="1" /><path clip-path="url(#clip130)" d="M294.549 1455.09 L282.744 1473.54 L294.549 1473.54 L294.549 1455.09 M293.323 1451.02 L299.202 1451.02 L299.202 1473.54 L304.133 1473.54 L304.133 1477.43 L299.202 1477.43 L299.202 1485.58 L294.549 1485.58 L294.549 1477.43 L278.948 1477.43 L278.948 1472.92 L293.323 1451.02 Z" fill="#000000" fill-rule="nonzero" fill-opacity="1" /><path clip-path="url(#clip130)" d="M747.763 1468.75 L777.438 1468.75 L777.438 1472.69 L747.763 1472.69 L747.763 1468.75 Z" fill="#000000" fill-rule="nonzero" fill-opacity="1" /><path clip-path="url(#clip130)" d="M791.559 1481.64 L807.878 1481.64 L807.878 1485.58 L785.934 1485.58 L785.934 1481.64 Q788.596 1478.89 793.179 1474.26 Q797.786 1469.61 798.966 1468.27 Q801.211 1465.74 802.091 1464.01 Q802.994 1462.25 802.994 1460.56 Q802.994 1457.8 801.049 1456.07 Q799.128 1454.33 796.026 1454.33 Q793.827 1454.33 791.374 1455.09 Q788.943 1455.86 786.165 1457.41 L786.165 1452.69 Q788.989 1451.55 791.443 1450.97 Q793.897 1450.39 795.934 1450.39 Q801.304 1450.39 804.498 1453.08 Q807.693 1455.77 807.693 1460.26 Q807.693 1462.39 806.883 1464.31 Q806.096 1466.2 803.989 1468.8 Q803.411 1469.47 800.309 1472.69 Q797.207 1475.88 791.559 1481.64 Z" fill="#000000" fill-rule="nonzero" fill-opacity="1" /><path clip-path="url(#clip130)" d="M1282.61 1454.1 Q1279 1454.1 1277.17 1457.66 Q1275.36 1461.2 1275.36 1468.33 Q1275.36 1475.44 1277.17 1479.01 Q1279 1482.55 1282.61 1482.55 Q1286.24 1482.55 1288.05 1479.01 Q1289.88 1475.44 1289.88 1468.33 Q1289.88 1461.2 1288.05 1457.66 Q1286.24 1454.1 1282.61 1454.1 M1282.61 1450.39 Q1288.42 1450.39 1291.47 1455 Q1294.55 1459.58 1294.55 1468.33 Q1294.55 1477.06 1291.47 1481.67 Q1288.42 1486.25 1282.61 1486.25 Q1276.8 1486.25 1273.72 1481.67 Q1270.66 1477.06 1270.66 1468.33 Q1270.66 1459.58 1273.72 1455 Q1276.8 1450.39 1282.61 1450.39 Z" fill="#000000" fill-rule="nonzero" fill-opacity="1" /><path clip-path="url(#clip130)" d="M1782.05 1481.64 L1798.37 1481.64 L1798.37 1485.58 L1776.42 1485.58 L1776.42 1481.64 Q1779.08 1478.89 1783.67 1474.26 Q1788.27 1469.61 1789.45 1468.27 Q1791.7 1465.74 1792.58 1464.01 Q1793.48 1462.25 1793.48 1460.56 Q1793.48 1457.8 1791.54 1456.07 Q1789.62 1454.33 1786.51 1454.33 Q1784.32 1454.33 1781.86 1455.09 Q1779.43 1455.86 1776.65 1457.41 L1776.65 1452.69 Q1779.48 1451.55 1781.93 1450.97 Q1784.39 1450.39 1786.42 1450.39 Q1791.79 1450.39 1794.99 1453.08 Q1798.18 1455.77 1798.18 1460.26 Q1798.18 1462.39 1797.37 1464.31 Q1796.58 1466.2 1794.48 1468.8 Q1793.9 1469.47 1790.8 1472.69 Q1787.7 1475.88 1782.05 1481.64 Z" fill="#000000" fill-rule="nonzero" fill-opacity="1" /><path clip-path="url(#clip130)" d="M2295.19 1455.09 L2283.39 1473.54 L2295.19 1473.54 L2295.19 1455.09 M2293.96 1451.02 L2299.84 1451.02 L2299.84 1473.54 L2304.77 1473.54 L2304.77 1477.43 L2299.84 1477.43 L2299.84 1485.58 L2295.19 1485.58 L2295.19 1477.43 L2279.59 1477.43 L2279.59 1472.92 L2293.96 1451.02 Z" fill="#000000" fill-rule="nonzero" fill-opacity="1" /><path clip-path="url(#clip130)" d="M1176.9 1571.35 Q1174.42 1577.72 1172.07 1579.66 Q1169.71 1581.6 1165.76 1581.6 L1161.09 1581.6 L1161.09 1576.7 L1164.52 1576.7 Q1166.94 1576.7 1168.28 1575.56 Q1169.62 1574.41 1171.24 1570.14 L1172.29 1567.47 L1157.87 1532.4 L1164.08 1532.4 L1175.22 1560.28 L1186.36 1532.4 L1192.56 1532.4 L1176.9 1571.35 Z" fill="#000000" fill-rule="nonzero" fill-opacity="1" /><path clip-path="url(#clip130)" d="M1227.03 1562.7 L1227.03 1581.6 L1221.15 1581.6 L1221.15 1532.4 L1227.03 1532.4 L1227.03 1537.81 Q1228.88 1534.62 1231.68 1533.1 Q1234.51 1531.54 1238.43 1531.54 Q1244.92 1531.54 1248.96 1536.69 Q1253.04 1541.85 1253.04 1550.25 Q1253.04 1558.65 1248.96 1563.81 Q1244.92 1568.97 1238.43 1568.97 Q1234.51 1568.97 1231.68 1567.44 Q1228.88 1565.88 1227.03 1562.7 M1246.96 1550.25 Q1246.96 1543.79 1244.29 1540.13 Q1241.64 1536.44 1237 1536.44 Q1232.35 1536.44 1229.68 1540.13 Q1227.03 1543.79 1227.03 1550.25 Q1227.03 1556.71 1229.68 1560.4 Q1232.35 1564.07 1237 1564.07 Q1241.64 1564.07 1244.29 1560.4 Q1246.96 1556.71 1246.96 1550.25 Z" fill="#000000" fill-rule="nonzero" fill-opacity="1" /><path clip-path="url(#clip130)" d="M1276.56 1536.5 Q1271.85 1536.5 1269.11 1540.19 Q1266.37 1543.85 1266.37 1550.25 Q1266.37 1556.65 1269.08 1560.34 Q1271.82 1564 1276.56 1564 Q1281.24 1564 1283.98 1560.31 Q1286.71 1556.62 1286.71 1550.25 Q1286.71 1543.92 1283.98 1540.23 Q1281.24 1536.5 1276.56 1536.5 M1276.56 1531.54 Q1284.2 1531.54 1288.56 1536.5 Q1292.92 1541.47 1292.92 1550.25 Q1292.92 1559 1288.56 1564 Q1284.2 1568.97 1276.56 1568.97 Q1268.89 1568.97 1264.53 1564 Q1260.2 1559 1260.2 1550.25 Q1260.2 1541.47 1264.53 1536.5 Q1268.89 1531.54 1276.56 1531.54 Z" fill="#000000" fill-rule="nonzero" fill-opacity="1" /><path clip-path="url(#clip130)" d="M1325.35 1533.45 L1325.35 1538.98 Q1322.87 1537.71 1320.2 1537.07 Q1317.52 1536.44 1314.66 1536.44 Q1310.3 1536.44 1308.1 1537.77 Q1305.94 1539.11 1305.94 1541.79 Q1305.94 1543.82 1307.5 1545 Q1309.06 1546.15 1313.77 1547.2 L1315.77 1547.64 Q1322.01 1548.98 1324.62 1551.43 Q1327.26 1553.85 1327.26 1558.21 Q1327.26 1563.17 1323.32 1566.07 Q1319.4 1568.97 1312.53 1568.97 Q1309.66 1568.97 1306.54 1568.39 Q1303.46 1567.85 1300.02 1566.74 L1300.02 1560.69 Q1303.26 1562.38 1306.42 1563.24 Q1309.57 1564.07 1312.65 1564.07 Q1316.79 1564.07 1319.02 1562.66 Q1321.25 1561.23 1321.25 1558.65 Q1321.25 1556.27 1319.62 1554.99 Q1318.03 1553.72 1312.59 1552.54 L1310.55 1552.07 Q1305.11 1550.92 1302.69 1548.56 Q1300.27 1546.18 1300.27 1542.04 Q1300.27 1537.01 1303.84 1534.27 Q1307.4 1531.54 1313.96 1531.54 Q1317.21 1531.54 1320.07 1532.01 Q1322.93 1532.49 1325.35 1533.45 Z" fill="#000000" fill-rule="nonzero" fill-opacity="1" /><path clip-path="url(#clip130)" d="M1337.42 1559.96 L1344.13 1559.96 L1344.13 1568.04 L1337.42 1568.04 L1337.42 1559.96 Z" fill="#000000" fill-rule="nonzero" fill-opacity="1" /><path clip-path="url(#clip130)" d="M1379.97 1562.63 L1390.47 1562.63 L1390.47 1526.38 L1379.05 1528.67 L1379.05 1522.82 L1390.41 1520.52 L1396.84 1520.52 L1396.84 1562.63 L1407.34 1562.63 L1407.34 1568.04 L1379.97 1568.04 L1379.97 1562.63 Z" fill="#000000" fill-rule="nonzero" fill-opacity="1" /><polyline clip-path="url(#clip130)" style="stroke:#000000; stroke-linecap:round; stroke-linejoin:round; stroke-width:4; stroke-opacity:1; fill:none" points="212.459,1423.18 212.459,47.2441 "/>
<polyline clip-path="url(#clip130)" style="stroke:#000000; stroke-linecap:round; stroke-linejoin:round; stroke-width:4; stroke-opacity:1; fill:none" points="212.459,1384.24 231.357,1384.24 "/>
<polyline clip-path="url(#clip130)" style="stroke:#000000; stroke-linecap:round; stroke-linejoin:round; stroke-width:4; stroke-opacity:1; fill:none" points="212.459,1059.73 231.357,1059.73 "/>
<polyline clip-path="url(#clip130)" style="stroke:#000000; stroke-linecap:round; stroke-linejoin:round; stroke-width:4; stroke-opacity:1; fill:none" points="212.459,735.212 231.357,735.212 "/>
<polyline clip-path="url(#clip130)" style="stroke:#000000; stroke-linecap:round; stroke-linejoin:round; stroke-width:4; stroke-opacity:1; fill:none" points="212.459,410.698 231.357,410.698 "/>
<polyline clip-path="url(#clip130)" style="stroke:#000000; stroke-linecap:round; stroke-linejoin:round; stroke-width:4; stroke-opacity:1; fill:none" points="212.459,86.185 231.357,86.185 "/>
<path clip-path="url(#clip130)" d="M114.26 1384.69 L143.936 1384.69 L143.936 1388.63 L114.26 1388.63 L114.26 1384.69 Z" fill="#000000" fill-rule="nonzero" fill-opacity="1" /><path clip-path="url(#clip130)" d="M166.876 1371.03 L155.07 1389.48 L166.876 1389.48 L166.876 1371.03 M165.649 1366.96 L171.528 1366.96 L171.528 1389.48 L176.459 1389.48 L176.459 1393.37 L171.528 1393.37 L171.528 1401.52 L166.876 1401.52 L166.876 1393.37 L151.274 1393.37 L151.274 1388.86 L165.649 1366.96 Z" fill="#000000" fill-rule="nonzero" fill-opacity="1" /><path clip-path="url(#clip130)" d="M116.343 1060.18 L146.019 1060.18 L146.019 1064.11 L116.343 1064.11 L116.343 1060.18 Z" fill="#000000" fill-rule="nonzero" fill-opacity="1" /><path clip-path="url(#clip130)" d="M160.14 1073.07 L176.459 1073.07 L176.459 1077.01 L154.515 1077.01 L154.515 1073.07 Q157.177 1070.32 161.76 1065.69 Q166.366 1061.03 167.547 1059.69 Q169.792 1057.17 170.672 1055.43 Q171.575 1053.67 171.575 1051.98 Q171.575 1049.23 169.63 1047.49 Q167.709 1045.76 164.607 1045.76 Q162.408 1045.76 159.954 1046.52 Q157.524 1047.28 154.746 1048.83 L154.746 1044.11 Q157.57 1042.98 160.024 1042.4 Q162.477 1041.82 164.515 1041.82 Q169.885 1041.82 173.079 1044.51 Q176.274 1047.19 176.274 1051.68 Q176.274 1053.81 175.464 1055.73 Q174.677 1057.63 172.57 1060.22 Q171.991 1060.89 168.889 1064.11 Q165.788 1067.31 160.14 1073.07 Z" fill="#000000" fill-rule="nonzero" fill-opacity="1" /><path clip-path="url(#clip130)" d="M164.515 721.011 Q160.903 721.011 159.075 724.575 Q157.269 728.117 157.269 735.247 Q157.269 742.353 159.075 745.918 Q160.903 749.46 164.515 749.46 Q168.149 749.46 169.954 745.918 Q171.783 742.353 171.783 735.247 Q171.783 728.117 169.954 724.575 Q168.149 721.011 164.515 721.011 M164.515 717.307 Q170.325 717.307 173.38 721.913 Q176.459 726.497 176.459 735.247 Q176.459 743.973 173.38 748.58 Q170.325 753.163 164.515 753.163 Q158.704 753.163 155.626 748.58 Q152.57 743.973 152.57 735.247 Q152.57 726.497 155.626 721.913 Q158.704 717.307 164.515 717.307 Z" fill="#000000" fill-rule="nonzero" fill-opacity="1" /><path clip-path="url(#clip130)" d="M160.14 424.043 L176.459 424.043 L176.459 427.978 L154.515 427.978 L154.515 424.043 Q157.177 421.289 161.76 416.659 Q166.366 412.006 167.547 410.664 Q169.792 408.141 170.672 406.405 Q171.575 404.645 171.575 402.955 Q171.575 400.201 169.63 398.465 Q167.709 396.729 164.607 396.729 Q162.408 396.729 159.954 397.493 Q157.524 398.256 154.746 399.807 L154.746 395.085 Q157.57 393.951 160.024 393.372 Q162.477 392.794 164.515 392.794 Q169.885 392.794 173.079 395.479 Q176.274 398.164 176.274 402.655 Q176.274 404.784 175.464 406.705 Q174.677 408.604 172.57 411.196 Q171.991 411.867 168.889 415.085 Q165.788 418.279 160.14 424.043 Z" fill="#000000" fill-rule="nonzero" fill-opacity="1" /><path clip-path="url(#clip130)" d="M166.876 72.9791 L155.07 91.4281 L166.876 91.4281 L166.876 72.9791 M165.649 68.905 L171.528 68.905 L171.528 91.4281 L176.459 91.4281 L176.459 95.3169 L171.528 95.3169 L171.528 103.465 L166.876 103.465 L166.876 95.3169 L151.274 95.3169 L151.274 90.8031 L165.649 68.905 Z" fill="#000000" fill-rule="nonzero" fill-opacity="1" /><path clip-path="url(#clip130)" d="M67.3143 842.092 Q73.68 844.575 75.6216 846.93 Q77.5631 849.285 77.5631 853.232 L77.5631 857.911 L72.6615 857.911 L72.6615 854.473 Q72.6615 852.055 71.5157 850.718 Q70.3699 849.381 66.1048 847.758 L63.4312 846.707 L28.3562 861.126 L28.3562 854.919 L56.238 843.779 L28.3562 832.639 L28.3562 826.433 L67.3143 842.092 Z" fill="#000000" fill-rule="nonzero" fill-opacity="1" /><path clip-path="url(#clip130)" d="M58.657 791.962 L77.5631 791.962 L77.5631 797.851 L28.3562 797.851 L28.3562 791.962 L33.7671 791.962 Q30.5842 790.116 29.0564 787.315 Q27.4968 784.483 27.4968 780.568 Q27.4968 774.075 32.6531 770.032 Q37.8093 765.958 46.212 765.958 Q54.6147 765.958 59.771 770.032 Q64.9272 774.075 64.9272 780.568 Q64.9272 784.483 63.3994 787.315 Q61.8398 790.116 58.657 791.962 M46.212 772.038 Q39.7508 772.038 36.0905 774.711 Q32.3984 777.353 32.3984 782 Q32.3984 786.647 36.0905 789.32 Q39.7508 791.962 46.212 791.962 Q52.6732 791.962 56.3653 789.32 Q60.0256 786.647 60.0256 782 Q60.0256 777.353 56.3653 774.711 Q52.6732 772.038 46.212 772.038 Z" fill="#000000" fill-rule="nonzero" fill-opacity="1" /><path clip-path="url(#clip130)" d="M32.4621 742.437 Q32.4621 747.148 36.1542 749.885 Q39.8145 752.622 46.212 752.622 Q52.6095 752.622 56.3017 749.917 Q59.9619 747.179 59.9619 742.437 Q59.9619 737.758 56.2698 735.021 Q52.5777 732.284 46.212 732.284 Q39.8781 732.284 36.186 735.021 Q32.4621 737.758 32.4621 742.437 M27.4968 742.437 Q27.4968 734.798 32.4621 730.438 Q37.4273 726.077 46.212 726.077 Q54.9649 726.077 59.9619 730.438 Q64.9272 734.798 64.9272 742.437 Q64.9272 750.108 59.9619 754.468 Q54.9649 758.797 46.212 758.797 Q37.4273 758.797 32.4621 754.468 Q27.4968 750.108 27.4968 742.437 Z" fill="#000000" fill-rule="nonzero" fill-opacity="1" /><path clip-path="url(#clip130)" d="M29.4065 693.644 L34.9447 693.644 Q33.6716 696.127 33.035 698.8 Q32.3984 701.474 32.3984 704.338 Q32.3984 708.699 33.7352 710.895 Q35.072 713.059 37.7456 713.059 Q39.7826 713.059 40.9603 711.5 Q42.1061 709.94 43.1565 705.229 L43.6021 703.224 Q44.9389 696.986 47.3897 694.376 Q49.8086 691.734 54.1691 691.734 Q59.1344 691.734 62.0308 695.681 Q64.9272 699.596 64.9272 706.471 Q64.9272 709.335 64.3543 712.455 Q63.8132 715.542 62.6992 718.979 L56.6518 718.979 Q58.3387 715.733 59.198 712.582 Q60.0256 709.431 60.0256 706.343 Q60.0256 702.206 58.6251 699.978 Q57.1929 697.75 54.6147 697.75 Q52.2276 697.75 50.9545 699.373 Q49.6813 700.964 48.5037 706.407 L48.0262 708.444 Q46.8804 713.887 44.5251 716.306 Q42.138 718.725 38.0002 718.725 Q32.9713 718.725 30.2341 715.16 Q27.4968 711.595 27.4968 705.039 Q27.4968 701.792 27.9743 698.927 Q28.4517 696.063 29.4065 693.644 Z" fill="#000000" fill-rule="nonzero" fill-opacity="1" /><path clip-path="url(#clip130)" d="M55.9197 681.581 L55.9197 674.865 L64.0042 674.865 L64.0042 681.581 L55.9197 681.581 Z" fill="#000000" fill-rule="nonzero" fill-opacity="1" /><path clip-path="url(#clip130)" d="M22.086 622.475 L47.4533 638.708 L47.4533 622.475 L22.086 622.475 M16.4842 624.162 L16.4842 616.078 L47.4533 616.078 L47.4533 609.298 L52.8005 609.298 L52.8005 616.078 L64.0042 616.078 L64.0042 622.475 L52.8005 622.475 L52.8005 643.928 L46.5939 643.928 L16.4842 624.162 Z" fill="#000000" fill-rule="nonzero" fill-opacity="1" /><polyline clip-path="url(#clip132)" style="stroke:#ff0000; stroke-linecap:round; stroke-linejoin:round; stroke-width:4; stroke-opacity:1; fill:none" points="273.033,1384.24 399.23,1303.11 525.427,1221.98 651.624,1140.85 777.82,1059.73 904.017,978.597 1030.21,897.468 1156.41,816.34 1282.61,735.212 1408.8,654.084 1535,572.955 1661.2,491.827 1787.39,410.699 1913.59,329.571 2039.79,248.442 2165.98,167.314 2292.18,86.1857 "/>
</svg>
