<?xml version="1.0" encoding="utf-8"?>
<svg xmlns="http://www.w3.org/2000/svg" xmlns:xlink="http://www.w3.org/1999/xlink" width="600" height="400" viewBox="0 0 2400 1600">
<defs>
  <clipPath id="clip320">
    <rect x="0" y="0" width="2400" height="1600"/>
  </clipPath>
</defs>
<path clip-path="url(#clip320)" d="M0 1600 L2400 1600 L2400 0 L0 0  Z" fill="#ffffff" fill-rule="evenodd" fill-opacity="1"/>
<defs>
  <clipPath id="clip321">
    <rect x="480" y="0" width="1681" height="1600"/>
  </clipPath>
</defs>
<path clip-path="url(#clip320)" d="M210.746 1423.18 L2352.76 1423.18 L2352.76 123.472 L210.746 123.472  Z" fill="#ffffff" fill-rule="evenodd" fill-opacity="1"/>
<defs>
  <clipPath id="clip322">
    <rect x="210" y="123" width="2143" height="1301"/>
  </clipPath>
</defs>
<polyline clip-path="url(#clip322)" style="stroke:#000000; stroke-linecap:round; stroke-linejoin:round; stroke-width:2; stroke-opacity:0.1; fill:none" points="271.369,1423.18 271.369,123.472 "/>
<polyline clip-path="url(#clip322)" style="stroke:#000000; stroke-linecap:round; stroke-linejoin:round; stroke-width:2; stroke-opacity:0.1; fill:none" points="776.56,1423.18 776.56,123.472 "/>
<polyline clip-path="url(#clip322)" style="stroke:#000000; stroke-linecap:round; stroke-linejoin:round; stroke-width:2; stroke-opacity:0.1; fill:none" points="1281.75,1423.18 1281.75,123.472 "/>
<polyline clip-path="url(#clip322)" style="stroke:#000000; stroke-linecap:round; stroke-linejoin:round; stroke-width:2; stroke-opacity:0.1; fill:none" points="1786.94,1423.18 1786.94,123.472 "/>
<polyline clip-path="url(#clip322)" style="stroke:#000000; stroke-linecap:round; stroke-linejoin:round; stroke-width:2; stroke-opacity:0.1; fill:none" points="2292.13,1423.18 2292.13,123.472 "/>
<polyline clip-path="url(#clip322)" style="stroke:#000000; stroke-linecap:round; stroke-linejoin:round; stroke-width:2; stroke-opacity:0.1; fill:none" points="210.746,1278.52 2352.76,1278.52 "/>
<polyline clip-path="url(#clip322)" style="stroke:#000000; stroke-linecap:round; stroke-linejoin:round; stroke-width:2; stroke-opacity:0.1; fill:none" points="210.746,1025.92 2352.76,1025.92 "/>
<polyline clip-path="url(#clip322)" style="stroke:#000000; stroke-linecap:round; stroke-linejoin:round; stroke-width:2; stroke-opacity:0.1; fill:none" points="210.746,773.326 2352.76,773.326 "/>
<polyline clip-path="url(#clip322)" style="stroke:#000000; stroke-linecap:round; stroke-linejoin:round; stroke-width:2; stroke-opacity:0.1; fill:none" points="210.746,520.73 2352.76,520.73 "/>
<polyline clip-path="url(#clip322)" style="stroke:#000000; stroke-linecap:round; stroke-linejoin:round; stroke-width:2; stroke-opacity:0.1; fill:none" points="210.746,268.135 2352.76,268.135 "/>
<polyline clip-path="url(#clip320)" style="stroke:#000000; stroke-linecap:round; stroke-linejoin:round; stroke-width:4; stroke-opacity:1; fill:none" points="210.746,1423.18 2352.76,1423.18 "/>
<polyline clip-path="url(#clip320)" style="stroke:#000000; stroke-linecap:round; stroke-linejoin:round; stroke-width:4; stroke-opacity:1; fill:none" points="271.369,1423.18 271.369,1404.28 "/>
<polyline clip-path="url(#clip320)" style="stroke:#000000; stroke-linecap:round; stroke-linejoin:round; stroke-width:4; stroke-opacity:1; fill:none" points="776.56,1423.18 776.56,1404.28 "/>
<polyline clip-path="url(#clip320)" style="stroke:#000000; stroke-linecap:round; stroke-linejoin:round; stroke-width:4; stroke-opacity:1; fill:none" points="1281.75,1423.18 1281.75,1404.28 "/>
<polyline clip-path="url(#clip320)" style="stroke:#000000; stroke-linecap:round; stroke-linejoin:round; stroke-width:4; stroke-opacity:1; fill:none" points="1786.94,1423.18 1786.94,1404.28 "/>
<polyline clip-path="url(#clip320)" style="stroke:#000000; stroke-linecap:round; stroke-linejoin:round; stroke-width:4; stroke-opacity:1; fill:none" points="2292.13,1423.18 2292.13,1404.28 "/>
<path clip-path="url(#clip320)" d="M271.369 1454.1 Q267.758 1454.1 265.929 1457.66 Q264.124 1461.2 264.124 1468.33 Q264.124 1475.44 265.929 1479.01 Q267.758 1482.55 271.369 1482.55 Q275.003 1482.55 276.809 1479.01 Q278.637 1475.44 278.637 1468.33 Q278.637 1461.2 276.809 1457.66 Q275.003 1454.1 271.369 1454.1 M271.369 1450.39 Q277.179 1450.39 280.235 1455 Q283.313 1459.58 283.313 1468.33 Q283.313 1477.06 280.235 1481.67 Q277.179 1486.25 271.369 1486.25 Q265.559 1486.25 262.48 1481.67 Q259.424 1477.06 259.424 1468.33 Q259.424 1459.58 262.48 1455 Q265.559 1450.39 271.369 1450.39 Z" fill="#000000" fill-rule="nonzero" fill-opacity="1" /><path clip-path="url(#clip320)" d="M771.213 1481.64 L787.532 1481.64 L787.532 1485.58 L765.588 1485.58 L765.588 1481.64 Q768.25 1478.89 772.833 1474.26 Q777.44 1469.61 778.62 1468.27 Q780.865 1465.74 781.745 1464.01 Q782.648 1462.25 782.648 1460.56 Q782.648 1457.8 780.703 1456.07 Q778.782 1454.33 775.68 1454.33 Q773.481 1454.33 771.028 1455.09 Q768.597 1455.86 765.819 1457.41 L765.819 1452.69 Q768.643 1451.55 771.097 1450.97 Q773.551 1450.39 775.588 1450.39 Q780.958 1450.39 784.152 1453.08 Q787.347 1455.77 787.347 1460.26 Q787.347 1462.39 786.537 1464.31 Q785.75 1466.2 783.643 1468.8 Q783.064 1469.47 779.963 1472.69 Q776.861 1475.88 771.213 1481.64 Z" fill="#000000" fill-rule="nonzero" fill-opacity="1" /><path clip-path="url(#clip320)" d="M1284.76 1455.09 L1272.95 1473.54 L1284.76 1473.54 L1284.76 1455.09 M1283.53 1451.02 L1289.41 1451.02 L1289.41 1473.54 L1294.34 1473.54 L1294.34 1477.43 L1289.41 1477.43 L1289.41 1485.58 L1284.76 1485.58 L1284.76 1477.43 L1269.16 1477.43 L1269.16 1472.92 L1283.53 1451.02 Z" fill="#000000" fill-rule="nonzero" fill-opacity="1" /><path clip-path="url(#clip320)" d="M1787.35 1466.44 Q1784.2 1466.44 1782.35 1468.59 Q1780.52 1470.74 1780.52 1474.49 Q1780.52 1478.22 1782.35 1480.39 Q1784.2 1482.55 1787.35 1482.55 Q1790.5 1482.55 1792.32 1480.39 Q1794.18 1478.22 1794.18 1474.49 Q1794.18 1470.74 1792.32 1468.59 Q1790.5 1466.44 1787.35 1466.44 M1796.63 1451.78 L1796.63 1456.04 Q1794.87 1455.21 1793.06 1454.77 Q1791.28 1454.33 1789.52 1454.33 Q1784.89 1454.33 1782.44 1457.45 Q1780.01 1460.58 1779.66 1466.9 Q1781.03 1464.89 1783.09 1463.82 Q1785.15 1462.73 1787.62 1462.73 Q1792.83 1462.73 1795.84 1465.9 Q1798.87 1469.05 1798.87 1474.49 Q1798.87 1479.82 1795.73 1483.03 Q1792.58 1486.25 1787.35 1486.25 Q1781.35 1486.25 1778.18 1481.67 Q1775.01 1477.06 1775.01 1468.33 Q1775.01 1460.14 1778.9 1455.28 Q1782.79 1450.39 1789.34 1450.39 Q1791.1 1450.39 1792.88 1450.74 Q1794.68 1451.09 1796.63 1451.78 Z" fill="#000000" fill-rule="nonzero" fill-opacity="1" /><path clip-path="url(#clip320)" d="M2292.13 1469.17 Q2288.8 1469.17 2286.88 1470.95 Q2284.98 1472.73 2284.98 1475.86 Q2284.98 1478.98 2286.88 1480.77 Q2288.8 1482.55 2292.13 1482.55 Q2295.47 1482.55 2297.39 1480.77 Q2299.31 1478.96 2299.31 1475.86 Q2299.31 1472.73 2297.39 1470.95 Q2295.49 1469.17 2292.13 1469.17 M2287.46 1467.18 Q2284.45 1466.44 2282.76 1464.38 Q2281.09 1462.32 2281.09 1459.35 Q2281.09 1455.21 2284.03 1452.8 Q2286.99 1450.39 2292.13 1450.39 Q2297.29 1450.39 2300.23 1452.8 Q2303.17 1455.21 2303.17 1459.35 Q2303.17 1462.32 2301.48 1464.38 Q2299.82 1466.44 2296.83 1467.18 Q2300.21 1467.96 2302.09 1470.26 Q2303.98 1472.55 2303.98 1475.86 Q2303.98 1480.88 2300.91 1483.57 Q2297.85 1486.25 2292.13 1486.25 Q2286.42 1486.25 2283.34 1483.57 Q2280.28 1480.88 2280.28 1475.86 Q2280.28 1472.55 2282.18 1470.26 Q2284.08 1467.96 2287.46 1467.18 M2285.74 1459.79 Q2285.74 1462.48 2287.41 1463.98 Q2289.1 1465.49 2292.13 1465.49 Q2295.14 1465.49 2296.83 1463.98 Q2298.54 1462.48 2298.54 1459.79 Q2298.54 1457.11 2296.83 1455.6 Q2295.14 1454.1 2292.13 1454.1 Q2289.1 1454.1 2287.41 1455.6 Q2285.74 1457.11 2285.74 1459.79 Z" fill="#000000" fill-rule="nonzero" fill-opacity="1" /><path clip-path="url(#clip320)" d="M1268.24 1532.4 L1296.06 1532.4 L1296.06 1537.74 L1274.03 1563.37 L1296.06 1563.37 L1296.06 1568.04 L1267.44 1568.04 L1267.44 1562.7 L1289.47 1537.07 L1268.24 1537.07 L1268.24 1532.4 Z" fill="#000000" fill-rule="nonzero" fill-opacity="1" /><polyline clip-path="url(#clip320)" style="stroke:#000000; stroke-linecap:round; stroke-linejoin:round; stroke-width:4; stroke-opacity:1; fill:none" points="210.746,1423.18 210.746,123.472 "/>
<polyline clip-path="url(#clip320)" style="stroke:#000000; stroke-linecap:round; stroke-linejoin:round; stroke-width:4; stroke-opacity:1; fill:none" points="210.746,1278.52 229.644,1278.52 "/>
<polyline clip-path="url(#clip320)" style="stroke:#000000; stroke-linecap:round; stroke-linejoin:round; stroke-width:4; stroke-opacity:1; fill:none" points="210.746,1025.92 229.644,1025.92 "/>
<polyline clip-path="url(#clip320)" style="stroke:#000000; stroke-linecap:round; stroke-linejoin:round; stroke-width:4; stroke-opacity:1; fill:none" points="210.746,773.326 229.644,773.326 "/>
<polyline clip-path="url(#clip320)" style="stroke:#000000; stroke-linecap:round; stroke-linejoin:round; stroke-width:4; stroke-opacity:1; fill:none" points="210.746,520.73 229.644,520.73 "/>
<polyline clip-path="url(#clip320)" style="stroke:#000000; stroke-linecap:round; stroke-linejoin:round; stroke-width:4; stroke-opacity:1; fill:none" points="210.746,268.135 229.644,268.135 "/>
<path clip-path="url(#clip320)" d="M114.631 1278.97 L144.306 1278.97 L144.306 1282.9 L114.631 1282.9 L114.631 1278.97 Z" fill="#000000" fill-rule="nonzero" fill-opacity="1" /><path clip-path="url(#clip320)" d="M158.427 1291.86 L174.746 1291.86 L174.746 1295.8 L152.802 1295.8 L152.802 1291.86 Q155.464 1289.11 160.047 1284.48 Q164.653 1279.82 165.834 1278.48 Q168.079 1275.96 168.959 1274.22 Q169.862 1272.46 169.862 1270.77 Q169.862 1268.02 167.917 1266.28 Q165.996 1264.55 162.894 1264.55 Q160.695 1264.55 158.241 1265.31 Q155.811 1266.07 153.033 1267.63 L153.033 1262.9 Q155.857 1261.77 158.311 1261.19 Q160.765 1260.61 162.802 1260.61 Q168.172 1260.61 171.366 1263.3 Q174.561 1265.98 174.561 1270.47 Q174.561 1272.6 173.751 1274.52 Q172.964 1276.42 170.857 1279.01 Q170.278 1279.69 167.177 1282.9 Q164.075 1286.1 158.427 1291.86 Z" fill="#000000" fill-rule="nonzero" fill-opacity="1" /><path clip-path="url(#clip320)" d="M114.26 1026.37 L143.936 1026.37 L143.936 1030.31 L114.26 1030.31 L114.26 1026.37 Z" fill="#000000" fill-rule="nonzero" fill-opacity="1" /><path clip-path="url(#clip320)" d="M154.839 1039.27 L162.477 1039.27 L162.477 1012.9 L154.167 1014.57 L154.167 1010.31 L162.431 1008.64 L167.107 1008.64 L167.107 1039.27 L174.746 1039.27 L174.746 1043.2 L154.839 1043.2 L154.839 1039.27 Z" fill="#000000" fill-rule="nonzero" fill-opacity="1" /><path clip-path="url(#clip320)" d="M162.802 759.125 Q159.19 759.125 157.362 762.689 Q155.556 766.231 155.556 773.361 Q155.556 780.467 157.362 784.032 Q159.19 787.574 162.802 787.574 Q166.436 787.574 168.241 784.032 Q170.07 780.467 170.07 773.361 Q170.07 766.231 168.241 762.689 Q166.436 759.125 162.802 759.125 M162.802 755.421 Q168.612 755.421 171.667 760.027 Q174.746 764.611 174.746 773.361 Q174.746 782.088 171.667 786.694 Q168.612 791.277 162.802 791.277 Q156.991 791.277 153.913 786.694 Q150.857 782.088 150.857 773.361 Q150.857 764.611 153.913 760.027 Q156.991 755.421 162.802 755.421 Z" fill="#000000" fill-rule="nonzero" fill-opacity="1" /><path clip-path="url(#clip320)" d="M154.839 534.075 L162.477 534.075 L162.477 507.71 L154.167 509.376 L154.167 505.117 L162.431 503.45 L167.107 503.45 L167.107 534.075 L174.746 534.075 L174.746 538.01 L154.839 538.01 L154.839 534.075 Z" fill="#000000" fill-rule="nonzero" fill-opacity="1" /><path clip-path="url(#clip320)" d="M158.427 281.48 L174.746 281.48 L174.746 285.415 L152.802 285.415 L152.802 281.48 Q155.464 278.725 160.047 274.096 Q164.653 269.443 165.834 268.1 Q168.079 265.577 168.959 263.841 Q169.862 262.082 169.862 260.392 Q169.862 257.637 167.917 255.901 Q165.996 254.165 162.894 254.165 Q160.695 254.165 158.241 254.929 Q155.811 255.693 153.033 257.244 L153.033 252.522 Q155.857 251.387 158.311 250.809 Q160.765 250.23 162.802 250.23 Q168.172 250.23 171.366 252.915 Q174.561 255.6 174.561 260.091 Q174.561 262.221 173.751 264.142 Q172.964 266.04 170.857 268.633 Q170.278 269.304 167.177 272.522 Q164.075 275.716 158.427 281.48 Z" fill="#000000" fill-rule="nonzero" fill-opacity="1" /><path clip-path="url(#clip320)" d="M67.3143 771.639 Q73.68 774.122 75.6216 776.477 Q77.5631 778.832 77.5631 782.779 L77.5631 787.458 L72.6615 787.458 L72.6615 784.02 Q72.6615 781.601 71.5157 780.265 Q70.3699 778.928 66.1048 777.305 L63.4312 776.254 L28.3562 790.673 L28.3562 784.466 L56.238 773.326 L28.3562 762.186 L28.3562 755.979 L67.3143 771.639 Z" fill="#000000" fill-rule="nonzero" fill-opacity="1" /><path clip-path="url(#clip320)" d="M969.041 9.54393 L969.041 15.7418 L961.912 15.7418 Q957.901 15.7418 956.322 17.3622 Q954.782 18.9825 954.782 23.1955 L954.782 27.2059 L967.056 27.2059 L967.056 32.9987 L954.782 32.9987 L954.782 72.576 L947.288 72.576 L947.288 32.9987 L940.158 32.9987 L940.158 27.2059 L947.288 27.2059 L947.288 24.0462 Q947.288 16.471 950.812 13.0277 Q954.337 9.54393 961.993 9.54393 L969.041 9.54393 Z" fill="#000000" fill-rule="nonzero" fill-opacity="1" /><path clip-path="url(#clip320)" d="M975.28 27.2059 L982.733 27.2059 L982.733 72.576 L975.28 72.576 L975.28 27.2059 M975.28 9.54393 L982.733 9.54393 L982.733 18.9825 L975.28 18.9825 L975.28 9.54393 Z" fill="#000000" fill-rule="nonzero" fill-opacity="1" /><path clip-path="url(#clip320)" d="M1036.04 27.2059 L1019.64 49.2833 L1036.89 72.576 L1028.1 72.576 L1014.9 54.752 L1001.69 72.576 L992.901 72.576 L1010.52 48.8377 L994.4 27.2059 L1003.19 27.2059 L1015.22 43.369 L1027.25 27.2059 L1036.04 27.2059 Z" fill="#000000" fill-rule="nonzero" fill-opacity="1" /><path clip-path="url(#clip320)" d="M1083.68 48.0275 L1083.68 51.6733 L1049.41 51.6733 Q1049.9 59.3701 1054.03 63.421 Q1058.2 67.4314 1065.61 67.4314 Q1069.91 67.4314 1073.92 66.3781 Q1077.97 65.3249 1081.94 63.2184 L1081.94 70.267 Q1077.93 71.9684 1073.72 72.8596 Q1069.5 73.7508 1065.17 73.7508 Q1054.31 73.7508 1047.95 67.4314 Q1041.63 61.1119 1041.63 50.3365 Q1041.63 39.1965 1047.63 32.6746 Q1053.66 26.1121 1063.87 26.1121 Q1073.03 26.1121 1078.33 32.0264 Q1083.68 37.9003 1083.68 48.0275 M1076.23 45.84 Q1076.15 39.7232 1072.79 36.0774 Q1069.46 32.4315 1063.95 32.4315 Q1057.72 32.4315 1053.95 35.9558 Q1050.22 39.4801 1049.65 45.8805 L1076.23 45.84 Z" fill="#000000" fill-rule="nonzero" fill-opacity="1" /><path clip-path="url(#clip320)" d="M1125.77 34.0924 L1125.77 9.54393 L1133.22 9.54393 L1133.22 72.576 L1125.77 72.576 L1125.77 65.7705 Q1123.42 69.8214 1119.82 71.8063 Q1116.25 73.7508 1111.23 73.7508 Q1103 73.7508 1097.82 67.1883 Q1092.67 60.6258 1092.67 49.9314 Q1092.67 39.2371 1097.82 32.6746 Q1103 26.1121 1111.23 26.1121 Q1116.25 26.1121 1119.82 28.0971 Q1123.42 30.0415 1125.77 34.0924 M1100.37 49.9314 Q1100.37 58.1548 1103.73 62.8538 Q1107.14 67.5124 1113.05 67.5124 Q1118.97 67.5124 1122.37 62.8538 Q1125.77 58.1548 1125.77 49.9314 Q1125.77 41.7081 1122.37 37.0496 Q1118.97 32.3505 1113.05 32.3505 Q1107.14 32.3505 1103.73 37.0496 Q1100.37 41.7081 1100.37 49.9314 Z" fill="#000000" fill-rule="nonzero" fill-opacity="1" /><path clip-path="url(#clip320)" d="M1182.32 14.324 L1182.32 27.2059 L1197.67 27.2059 L1197.67 32.9987 L1182.32 32.9987 L1182.32 57.6282 Q1182.32 63.1779 1183.82 64.7578 Q1185.36 66.3376 1190.02 66.3376 L1197.67 66.3376 L1197.67 72.576 L1190.02 72.576 Q1181.39 72.576 1178.11 69.3758 Q1174.83 66.1351 1174.83 57.6282 L1174.83 32.9987 L1169.36 32.9987 L1169.36 27.2059 L1174.83 27.2059 L1174.83 14.324 L1182.32 14.324 Z" fill="#000000" fill-rule="nonzero" fill-opacity="1" /><path clip-path="url(#clip320)" d="M1245.19 45.1919 L1245.19 72.576 L1237.74 72.576 L1237.74 45.4349 Q1237.74 38.994 1235.23 35.7938 Q1232.71 32.5936 1227.69 32.5936 Q1221.66 32.5936 1218.17 36.4419 Q1214.69 40.2903 1214.69 46.9338 L1214.69 72.576 L1207.19 72.576 L1207.19 9.54393 L1214.69 9.54393 L1214.69 34.2544 Q1217.36 30.163 1220.97 28.1376 Q1224.61 26.1121 1229.35 26.1121 Q1237.17 26.1121 1241.18 30.9732 Q1245.19 35.7938 1245.19 45.1919 Z" fill="#000000" fill-rule="nonzero" fill-opacity="1" /><path clip-path="url(#clip320)" d="M1298.87 48.0275 L1298.87 51.6733 L1264.6 51.6733 Q1265.08 59.3701 1269.21 63.421 Q1273.39 67.4314 1280.8 67.4314 Q1285.09 67.4314 1289.1 66.3781 Q1293.15 65.3249 1297.12 63.2184 L1297.12 70.267 Q1293.11 71.9684 1288.9 72.8596 Q1284.69 73.7508 1280.35 73.7508 Q1269.5 73.7508 1263.14 67.4314 Q1256.82 61.1119 1256.82 50.3365 Q1256.82 39.1965 1262.81 32.6746 Q1268.85 26.1121 1279.06 26.1121 Q1288.21 26.1121 1293.52 32.0264 Q1298.87 37.9003 1298.87 48.0275 M1291.41 45.84 Q1291.33 39.7232 1287.97 36.0774 Q1284.65 32.4315 1279.14 32.4315 Q1272.9 32.4315 1269.13 35.9558 Q1265.41 39.4801 1264.84 45.8805 L1291.41 45.84 Z" fill="#000000" fill-rule="nonzero" fill-opacity="1" /><path clip-path="url(#clip320)" d="M1344.84 14.324 L1344.84 27.2059 L1360.2 27.2059 L1360.2 32.9987 L1344.84 32.9987 L1344.84 57.6282 Q1344.84 63.1779 1346.34 64.7578 Q1347.88 66.3376 1352.54 66.3376 L1360.2 66.3376 L1360.2 72.576 L1352.54 72.576 Q1343.91 72.576 1340.63 69.3758 Q1337.35 66.1351 1337.35 57.6282 L1337.35 32.9987 L1331.88 32.9987 L1331.88 27.2059 L1337.35 27.2059 L1337.35 14.324 L1344.84 14.324 Z" fill="#000000" fill-rule="nonzero" fill-opacity="1" /><path clip-path="url(#clip320)" d="M1396.29 34.1734 Q1395.03 33.4443 1393.54 33.1202 Q1392.08 32.7556 1390.29 32.7556 Q1383.98 32.7556 1380.57 36.8875 Q1377.21 40.9789 1377.21 48.6757 L1377.21 72.576 L1369.72 72.576 L1369.72 27.2059 L1377.21 27.2059 L1377.21 34.2544 Q1379.56 30.1225 1383.33 28.1376 Q1387.09 26.1121 1392.48 26.1121 Q1393.25 26.1121 1394.18 26.2337 Q1395.12 26.3147 1396.25 26.5172 L1396.29 34.1734 Z" fill="#000000" fill-rule="nonzero" fill-opacity="1" /><path clip-path="url(#clip320)" d="M1424.73 49.7694 Q1415.69 49.7694 1412.21 51.8354 Q1408.73 53.9013 1408.73 58.8839 Q1408.73 62.8538 1411.32 65.2034 Q1413.95 67.5124 1418.45 67.5124 Q1424.65 67.5124 1428.37 63.1374 Q1432.14 58.7219 1432.14 51.4303 L1432.14 49.7694 L1424.73 49.7694 M1439.59 46.6907 L1439.59 72.576 L1432.14 72.576 L1432.14 65.6895 Q1429.59 69.8214 1425.78 71.8063 Q1421.97 73.7508 1416.46 73.7508 Q1409.5 73.7508 1405.36 69.8619 Q1401.27 65.9325 1401.27 59.3701 Q1401.27 51.7138 1406.38 47.825 Q1411.52 43.9361 1421.69 43.9361 L1432.14 43.9361 L1432.14 43.2069 Q1432.14 38.0623 1428.74 35.2672 Q1425.38 32.4315 1419.26 32.4315 Q1415.37 32.4315 1411.68 33.3632 Q1408 34.295 1404.59 36.1584 L1404.59 29.2718 Q1408.69 27.692 1412.53 26.9223 Q1416.38 26.1121 1420.03 26.1121 Q1429.87 26.1121 1434.73 31.2163 Q1439.59 36.3204 1439.59 46.6907 Z" fill="#000000" fill-rule="nonzero" fill-opacity="1" /><path clip-path="url(#clip320)" d="M1487.6 28.9478 L1487.6 35.9153 Q1484.44 34.1734 1481.24 33.3227 Q1478.08 32.4315 1474.84 32.4315 Q1467.59 32.4315 1463.58 37.0496 Q1459.57 41.6271 1459.57 49.9314 Q1459.57 58.2358 1463.58 62.8538 Q1467.59 67.4314 1474.84 67.4314 Q1478.08 67.4314 1481.24 66.5807 Q1484.44 65.6895 1487.6 63.9476 L1487.6 70.8341 Q1484.48 72.2924 1481.12 73.0216 Q1477.79 73.7508 1474.03 73.7508 Q1463.78 73.7508 1457.74 67.3098 Q1451.71 60.8689 1451.71 49.9314 Q1451.71 38.832 1457.78 32.472 Q1463.9 26.1121 1474.51 26.1121 Q1477.96 26.1121 1481.24 26.8413 Q1484.52 27.5299 1487.6 28.9478 Z" fill="#000000" fill-rule="nonzero" fill-opacity="1" /><path clip-path="url(#clip320)" d="M1539.37 48.0275 L1539.37 51.6733 L1505.1 51.6733 Q1505.58 59.3701 1509.72 63.421 Q1513.89 67.4314 1521.3 67.4314 Q1525.6 67.4314 1529.61 66.3781 Q1533.66 65.3249 1537.63 63.2184 L1537.63 70.267 Q1533.62 71.9684 1529.4 72.8596 Q1525.19 73.7508 1520.86 73.7508 Q1510 73.7508 1503.64 67.4314 Q1497.32 61.1119 1497.32 50.3365 Q1497.32 39.1965 1503.32 32.6746 Q1509.35 26.1121 1519.56 26.1121 Q1528.71 26.1121 1534.02 32.0264 Q1539.37 37.9003 1539.37 48.0275 M1531.91 45.84 Q1531.83 39.7232 1528.47 36.0774 Q1525.15 32.4315 1519.64 32.4315 Q1513.4 32.4315 1509.63 35.9558 Q1505.91 39.4801 1505.34 45.8805 L1531.91 45.84 Z" fill="#000000" fill-rule="nonzero" fill-opacity="1" /><path clip-path="url(#clip320)" d="M1579.88 62.2867 L1588.42 62.2867 L1588.42 72.576 L1579.88 72.576 L1579.88 62.2867 M1579.88 29.6769 L1588.42 29.6769 L1588.42 39.9662 L1579.88 39.9662 L1579.88 29.6769 Z" fill="#000000" fill-rule="nonzero" fill-opacity="1" /><path clip-path="url(#clip320)" d="M1604.75 9.62495 L1611.23 9.62495 Q1617.31 19.1851 1620.31 28.3401 Q1623.34 37.4952 1623.34 46.5287 Q1623.34 55.6027 1620.31 64.7983 Q1617.31 73.9938 1611.23 83.5134 L1604.75 83.5134 Q1610.14 74.2369 1612.77 65.0818 Q1615.44 55.8863 1615.44 46.5287 Q1615.44 37.1711 1612.77 28.0566 Q1610.14 18.942 1604.75 9.62495 Z" fill="#000000" fill-rule="nonzero" fill-opacity="1" /><polyline clip-path="url(#clip322)" style="stroke:#000000; stroke-linecap:round; stroke-linejoin:round; stroke-width:4; stroke-opacity:1; fill:none" points="1155.45,1278.52 1167.77,1253.26 1179.45,1228 1190.5,1202.74 1200.92,1177.48 1210.71,1152.22 1219.87,1126.96 1228.39,1101.7 1236.28,1076.44 1243.55,1051.18 1250.18,1025.92 1256.18,1000.66 1261.54,975.402 1266.28,950.143 1270.38,924.883 1273.86,899.624 1276.7,874.364 1278.91,849.105 1280.49,823.845 1281.44,798.586 1281.75,773.326 1281.44,748.066 1280.49,722.807 1278.91,697.547 1276.7,672.288 1273.86,647.028 1270.38,621.769 1266.28,596.509 1261.54,571.25 1256.18,545.99 1250.18,520.73 1243.55,495.471 1236.28,470.211 1228.39,444.952 1219.87,419.692 1210.71,394.433 1200.92,369.173 1190.5,343.914 1179.45,318.654 1167.77,293.395 1155.45,268.135 "/>
<polyline clip-path="url(#clip322)" style="stroke:#000000; stroke-linecap:round; stroke-linejoin:round; stroke-width:4; stroke-opacity:1; fill:none" points="776.56,1278.52 751.932,1253.26 728.567,1228 706.465,1202.74 685.626,1177.48 666.049,1152.22 647.736,1126.96 630.686,1101.7 614.899,1076.44 600.375,1051.18 587.113,1025.92 575.115,1000.66 564.38,975.402 554.907,950.143 546.698,924.883 539.752,899.624 534.068,874.364 529.648,849.105 526.49,823.845 524.596,798.586 523.964,773.326 524.596,748.066 526.49,722.807 529.648,697.547 534.068,672.288 539.752,647.028 546.698,621.769 554.907,596.509 564.38,571.25 575.115,545.99 587.113,520.73 600.375,495.471 614.899,470.211 630.686,444.952 647.736,419.692 666.049,394.433 685.626,369.173 706.465,343.914 728.567,318.654 751.932,293.395 776.56,268.135 "/>
<polyline clip-path="url(#clip322)" style="stroke:#000000; stroke-linecap:round; stroke-linejoin:round; stroke-width:4; stroke-opacity:1; fill:none" points="2292.13,1278.52 2292.13,1253.26 2292.13,1228 2292.13,1202.74 2292.13,1177.48 2292.13,1152.22 2292.13,1126.96 2292.13,1101.7 2292.13,1076.44 2292.13,1051.18 2292.13,1025.92 2292.13,1000.66 2292.13,975.402 2292.13,950.143 2292.13,924.883 2292.13,899.624 2292.13,874.364 2292.13,849.105 2292.13,823.845 2292.13,798.586 2292.13,773.326 2292.13,748.066 2292.13,722.807 2292.13,697.547 2292.13,672.288 2292.13,647.028 2292.13,621.769 2292.13,596.509 2292.13,571.25 2292.13,545.99 2292.13,520.73 2292.13,495.471 2292.13,470.211 2292.13,444.952 2292.13,419.692 2292.13,394.433 2292.13,369.173 2292.13,343.914 2292.13,318.654 2292.13,293.395 2292.13,268.135 "/>
<polyline clip-path="url(#clip322)" style="stroke:#ff0000; stroke-linecap:round; stroke-linejoin:round; stroke-width:4; stroke-opacity:1; fill:none" points="271.369,647.028 1273.86,647.028 527.911,836.475 2292.13,836.476 "/>
<polyline clip-path="url(#clip322)" style="stroke:#ff0000; stroke-linecap:round; stroke-linejoin:round; stroke-width:4; stroke-opacity:1; fill:none" points="271.369,520.73 1250.18,520.73 539.752,899.624 2292.13,899.625 "/>
<polyline clip-path="url(#clip322)" style="stroke:#ff0000; stroke-linecap:round; stroke-linejoin:round; stroke-width:4; stroke-opacity:1; fill:none" points="271.369,394.433 1210.71,394.433 559.486,962.772 2292.13,962.774 "/>
<polyline clip-path="url(#clip322)" style="stroke:#008000; stroke-linecap:round; stroke-linejoin:round; stroke-width:4; stroke-opacity:1; fill:none" points="271.369,647.028 1269.97,619.06 527,828.706 2292.13,928.805 "/>
<polyline clip-path="url(#clip322)" style="stroke:#008000; stroke-linecap:round; stroke-linejoin:round; stroke-width:4; stroke-opacity:1; fill:none" points="271.369,520.73 1243.01,493.518 537.507,890.301 2292.13,990.866 "/>
<polyline clip-path="url(#clip322)" style="stroke:#008000; stroke-linecap:round; stroke-linejoin:round; stroke-width:4; stroke-opacity:1; fill:none" points="271.369,394.433 1200.61,368.407 555.217,951.024 2292.13,1051.64 "/>
<polyline clip-path="url(#clip322)" style="stroke:#0000ff; stroke-linecap:round; stroke-linejoin:round; stroke-width:4; stroke-opacity:1; fill:none" points="271.369,647.028 1268.08,607.138 526.628,825.205 2292.13,969.191 "/>
<polyline clip-path="url(#clip322)" style="stroke:#0000ff; stroke-linecap:round; stroke-linejoin:round; stroke-width:4; stroke-opacity:1; fill:none" points="271.369,520.73 1239.74,481.975 536.529,885.995 2292.13,1031.37 "/>
<polyline clip-path="url(#clip322)" style="stroke:#0000ff; stroke-linecap:round; stroke-linejoin:round; stroke-width:4; stroke-opacity:1; fill:none" points="271.369,394.433 1196.15,357.422 553.32,945.546 2292.13,1091.76 "/>
</svg>
