<?xml version="1.0" encoding="utf-8"?>
<svg xmlns="http://www.w3.org/2000/svg" xmlns:xlink="http://www.w3.org/1999/xlink" width="600" height="400" viewBox="0 0 2400 1600">
<defs>
  <clipPath id="clip050">
    <rect x="0" y="0" width="2400" height="1600"/>
  </clipPath>
</defs>
<path clip-path="url(#clip050)" d="M0 1600 L2400 1600 L2400 0 L0 0  Z" fill="#ffffff" fill-rule="evenodd" fill-opacity="1"/>
<defs>
  <clipPath id="clip051">
    <rect x="480" y="0" width="1681" height="1600"/>
  </clipPath>
</defs>
<path clip-path="url(#clip050)" d="M287.366 1423.18 L2352.76 1423.18 L2352.76 47.2441 L287.366 47.2441  Z" fill="#ffffff" fill-rule="evenodd" fill-opacity="1"/>
<defs>
  <clipPath id="clip052">
    <rect x="287" y="47" width="2066" height="1377"/>
  </clipPath>
</defs>
<polyline clip-path="url(#clip052)" style="stroke:#000000; stroke-linecap:round; stroke-linejoin:round; stroke-width:2; stroke-opacity:0.1; fill:none" points="610.586,1423.18 610.586,47.2441 "/>
<polyline clip-path="url(#clip052)" style="stroke:#000000; stroke-linecap:round; stroke-linejoin:round; stroke-width:2; stroke-opacity:0.1; fill:none" points="965.323,1423.18 965.323,47.2441 "/>
<polyline clip-path="url(#clip052)" style="stroke:#000000; stroke-linecap:round; stroke-linejoin:round; stroke-width:2; stroke-opacity:0.1; fill:none" points="1320.06,1423.18 1320.06,47.2441 "/>
<polyline clip-path="url(#clip052)" style="stroke:#000000; stroke-linecap:round; stroke-linejoin:round; stroke-width:2; stroke-opacity:0.1; fill:none" points="1674.8,1423.18 1674.8,47.2441 "/>
<polyline clip-path="url(#clip052)" style="stroke:#000000; stroke-linecap:round; stroke-linejoin:round; stroke-width:2; stroke-opacity:0.1; fill:none" points="2029.54,1423.18 2029.54,47.2441 "/>
<polyline clip-path="url(#clip052)" style="stroke:#000000; stroke-linecap:round; stroke-linejoin:round; stroke-width:2; stroke-opacity:0.1; fill:none" points="287.366,1367.18 2352.76,1367.18 "/>
<polyline clip-path="url(#clip052)" style="stroke:#000000; stroke-linecap:round; stroke-linejoin:round; stroke-width:2; stroke-opacity:0.1; fill:none" points="287.366,1071.57 2352.76,1071.57 "/>
<polyline clip-path="url(#clip052)" style="stroke:#000000; stroke-linecap:round; stroke-linejoin:round; stroke-width:2; stroke-opacity:0.1; fill:none" points="287.366,775.952 2352.76,775.952 "/>
<polyline clip-path="url(#clip052)" style="stroke:#000000; stroke-linecap:round; stroke-linejoin:round; stroke-width:2; stroke-opacity:0.1; fill:none" points="287.366,480.337 2352.76,480.337 "/>
<polyline clip-path="url(#clip052)" style="stroke:#000000; stroke-linecap:round; stroke-linejoin:round; stroke-width:2; stroke-opacity:0.1; fill:none" points="287.366,184.722 2352.76,184.722 "/>
<polyline clip-path="url(#clip050)" style="stroke:#000000; stroke-linecap:round; stroke-linejoin:round; stroke-width:4; stroke-opacity:1; fill:none" points="287.366,1423.18 2352.76,1423.18 "/>
<polyline clip-path="url(#clip050)" style="stroke:#000000; stroke-linecap:round; stroke-linejoin:round; stroke-width:4; stroke-opacity:1; fill:none" points="610.586,1423.18 610.586,1404.28 "/>
<polyline clip-path="url(#clip050)" style="stroke:#000000; stroke-linecap:round; stroke-linejoin:round; stroke-width:4; stroke-opacity:1; fill:none" points="965.323,1423.18 965.323,1404.28 "/>
<polyline clip-path="url(#clip050)" style="stroke:#000000; stroke-linecap:round; stroke-linejoin:round; stroke-width:4; stroke-opacity:1; fill:none" points="1320.06,1423.18 1320.06,1404.28 "/>
<polyline clip-path="url(#clip050)" style="stroke:#000000; stroke-linecap:round; stroke-linejoin:round; stroke-width:4; stroke-opacity:1; fill:none" points="1674.8,1423.18 1674.8,1404.28 "/>
<polyline clip-path="url(#clip050)" style="stroke:#000000; stroke-linecap:round; stroke-linejoin:round; stroke-width:4; stroke-opacity:1; fill:none" points="2029.54,1423.18 2029.54,1404.28 "/>
<path clip-path="url(#clip050)" d="M557.033 1468.75 L586.708 1468.75 L586.708 1472.69 L557.033 1472.69 L557.033 1468.75 Z" fill="#000000" fill-rule="nonzero" fill-opacity="1" /><path clip-path="url(#clip050)" d="M606.801 1454.1 Q603.19 1454.1 601.361 1457.66 Q599.556 1461.2 599.556 1468.33 Q599.556 1475.44 601.361 1479.01 Q603.19 1482.55 606.801 1482.55 Q610.435 1482.55 612.241 1479.01 Q614.069 1475.44 614.069 1468.33 Q614.069 1461.2 612.241 1457.66 Q610.435 1454.1 606.801 1454.1 M606.801 1450.39 Q612.611 1450.39 615.667 1455 Q618.745 1459.58 618.745 1468.33 Q618.745 1477.06 615.667 1481.67 Q612.611 1486.25 606.801 1486.25 Q600.991 1486.25 597.912 1481.67 Q594.857 1477.06 594.857 1468.33 Q594.857 1459.58 597.912 1455 Q600.991 1450.39 606.801 1450.39 Z" fill="#000000" fill-rule="nonzero" fill-opacity="1" /><path clip-path="url(#clip050)" d="M626.963 1479.7 L631.847 1479.7 L631.847 1485.58 L626.963 1485.58 L626.963 1479.7 Z" fill="#000000" fill-rule="nonzero" fill-opacity="1" /><path clip-path="url(#clip050)" d="M652.611 1466.44 Q649.463 1466.44 647.611 1468.59 Q645.782 1470.74 645.782 1474.49 Q645.782 1478.22 647.611 1480.39 Q649.463 1482.55 652.611 1482.55 Q655.759 1482.55 657.588 1480.39 Q659.44 1478.22 659.44 1474.49 Q659.44 1470.74 657.588 1468.59 Q655.759 1466.44 652.611 1466.44 M661.893 1451.78 L661.893 1456.04 Q660.134 1455.21 658.328 1454.77 Q656.546 1454.33 654.787 1454.33 Q650.157 1454.33 647.703 1457.45 Q645.273 1460.58 644.926 1466.9 Q646.291 1464.89 648.352 1463.82 Q650.412 1462.73 652.889 1462.73 Q658.097 1462.73 661.106 1465.9 Q664.139 1469.05 664.139 1474.49 Q664.139 1479.82 660.99 1483.03 Q657.842 1486.25 652.611 1486.25 Q646.616 1486.25 643.444 1481.67 Q640.273 1477.06 640.273 1468.33 Q640.273 1460.14 644.162 1455.28 Q648.051 1450.39 654.602 1450.39 Q656.361 1450.39 658.143 1450.74 Q659.949 1451.09 661.893 1451.78 Z" fill="#000000" fill-rule="nonzero" fill-opacity="1" /><path clip-path="url(#clip050)" d="M912.175 1468.75 L941.851 1468.75 L941.851 1472.69 L912.175 1472.69 L912.175 1468.75 Z" fill="#000000" fill-rule="nonzero" fill-opacity="1" /><path clip-path="url(#clip050)" d="M961.944 1454.1 Q958.333 1454.1 956.504 1457.66 Q954.698 1461.2 954.698 1468.33 Q954.698 1475.44 956.504 1479.01 Q958.333 1482.55 961.944 1482.55 Q965.578 1482.55 967.383 1479.01 Q969.212 1475.44 969.212 1468.33 Q969.212 1461.2 967.383 1457.66 Q965.578 1454.1 961.944 1454.1 M961.944 1450.39 Q967.754 1450.39 970.809 1455 Q973.888 1459.58 973.888 1468.33 Q973.888 1477.06 970.809 1481.67 Q967.754 1486.25 961.944 1486.25 Q956.133 1486.25 953.055 1481.67 Q949.999 1477.06 949.999 1468.33 Q949.999 1459.58 953.055 1455 Q956.133 1450.39 961.944 1450.39 Z" fill="#000000" fill-rule="nonzero" fill-opacity="1" /><path clip-path="url(#clip050)" d="M982.106 1479.7 L986.99 1479.7 L986.99 1485.58 L982.106 1485.58 L982.106 1479.7 Z" fill="#000000" fill-rule="nonzero" fill-opacity="1" /><path clip-path="url(#clip050)" d="M1011.34 1466.95 Q1014.7 1467.66 1016.57 1469.93 Q1018.47 1472.2 1018.47 1475.53 Q1018.47 1480.65 1014.95 1483.45 Q1011.43 1486.25 1004.95 1486.25 Q1002.78 1486.25 1000.46 1485.81 Q998.17 1485.39 995.717 1484.54 L995.717 1480.02 Q997.661 1481.16 999.976 1481.74 Q1002.29 1482.32 1004.81 1482.32 Q1009.21 1482.32 1011.5 1480.58 Q1013.82 1478.84 1013.82 1475.53 Q1013.82 1472.48 1011.67 1470.77 Q1009.54 1469.03 1005.72 1469.03 L1001.69 1469.03 L1001.69 1465.19 L1005.9 1465.19 Q1009.35 1465.19 1011.18 1463.82 Q1013.01 1462.43 1013.01 1459.84 Q1013.01 1457.18 1011.11 1455.77 Q1009.24 1454.33 1005.72 1454.33 Q1003.8 1454.33 1001.6 1454.75 Q999.397 1455.16 996.758 1456.04 L996.758 1451.88 Q999.42 1451.14 1001.74 1450.77 Q1004.07 1450.39 1006.13 1450.39 Q1011.46 1450.39 1014.56 1452.83 Q1017.66 1455.23 1017.66 1459.35 Q1017.66 1462.22 1016.02 1464.21 Q1014.37 1466.18 1011.34 1466.95 Z" fill="#000000" fill-rule="nonzero" fill-opacity="1" /><path clip-path="url(#clip050)" d="M1297.45 1454.1 Q1293.83 1454.1 1292.01 1457.66 Q1290.2 1461.2 1290.2 1468.33 Q1290.2 1475.44 1292.01 1479.01 Q1293.83 1482.55 1297.45 1482.55 Q1301.08 1482.55 1302.89 1479.01 Q1304.71 1475.44 1304.71 1468.33 Q1304.71 1461.2 1302.89 1457.66 Q1301.08 1454.1 1297.45 1454.1 M1297.45 1450.39 Q1303.26 1450.39 1306.31 1455 Q1309.39 1459.58 1309.39 1468.33 Q1309.39 1477.06 1306.31 1481.67 Q1303.26 1486.25 1297.45 1486.25 Q1291.64 1486.25 1288.56 1481.67 Q1285.5 1477.06 1285.5 1468.33 Q1285.5 1459.58 1288.56 1455 Q1291.64 1450.39 1297.45 1450.39 Z" fill="#000000" fill-rule="nonzero" fill-opacity="1" /><path clip-path="url(#clip050)" d="M1317.61 1479.7 L1322.49 1479.7 L1322.49 1485.58 L1317.61 1485.58 L1317.61 1479.7 Z" fill="#000000" fill-rule="nonzero" fill-opacity="1" /><path clip-path="url(#clip050)" d="M1342.68 1454.1 Q1339.07 1454.1 1337.24 1457.66 Q1335.43 1461.2 1335.43 1468.33 Q1335.43 1475.44 1337.24 1479.01 Q1339.07 1482.55 1342.68 1482.55 Q1346.31 1482.55 1348.12 1479.01 Q1349.95 1475.44 1349.95 1468.33 Q1349.95 1461.2 1348.12 1457.66 Q1346.31 1454.1 1342.68 1454.1 M1342.68 1450.39 Q1348.49 1450.39 1351.54 1455 Q1354.62 1459.58 1354.62 1468.33 Q1354.62 1477.06 1351.54 1481.67 Q1348.49 1486.25 1342.68 1486.25 Q1336.87 1486.25 1333.79 1481.67 Q1330.73 1477.06 1330.73 1468.33 Q1330.73 1459.58 1333.79 1455 Q1336.87 1450.39 1342.68 1450.39 Z" fill="#000000" fill-rule="nonzero" fill-opacity="1" /><path clip-path="url(#clip050)" d="M1652.51 1454.1 Q1648.9 1454.1 1647.07 1457.66 Q1645.26 1461.2 1645.26 1468.33 Q1645.26 1475.44 1647.07 1479.01 Q1648.9 1482.55 1652.51 1482.55 Q1656.14 1482.55 1657.95 1479.01 Q1659.78 1475.44 1659.78 1468.33 Q1659.78 1461.2 1657.95 1457.66 Q1656.14 1454.1 1652.51 1454.1 M1652.51 1450.39 Q1658.32 1450.39 1661.37 1455 Q1664.45 1459.58 1664.45 1468.33 Q1664.45 1477.06 1661.37 1481.67 Q1658.32 1486.25 1652.51 1486.25 Q1646.7 1486.25 1643.62 1481.67 Q1640.56 1477.06 1640.56 1468.33 Q1640.56 1459.58 1643.62 1455 Q1646.7 1450.39 1652.51 1450.39 Z" fill="#000000" fill-rule="nonzero" fill-opacity="1" /><path clip-path="url(#clip050)" d="M1672.67 1479.7 L1677.55 1479.7 L1677.55 1485.58 L1672.67 1485.58 L1672.67 1479.7 Z" fill="#000000" fill-rule="nonzero" fill-opacity="1" /><path clip-path="url(#clip050)" d="M1701.9 1466.95 Q1705.26 1467.66 1707.14 1469.93 Q1709.03 1472.2 1709.03 1475.53 Q1709.03 1480.65 1705.52 1483.45 Q1702 1486.25 1695.52 1486.25 Q1693.34 1486.25 1691.03 1485.81 Q1688.73 1485.39 1686.28 1484.54 L1686.28 1480.02 Q1688.22 1481.16 1690.54 1481.74 Q1692.85 1482.32 1695.38 1482.32 Q1699.78 1482.32 1702.07 1480.58 Q1704.38 1478.84 1704.38 1475.53 Q1704.38 1472.48 1702.23 1470.77 Q1700.1 1469.03 1696.28 1469.03 L1692.25 1469.03 L1692.25 1465.19 L1696.47 1465.19 Q1699.91 1465.19 1701.74 1463.82 Q1703.57 1462.43 1703.57 1459.84 Q1703.57 1457.18 1701.67 1455.77 Q1699.8 1454.33 1696.28 1454.33 Q1694.36 1454.33 1692.16 1454.75 Q1689.96 1455.16 1687.32 1456.04 L1687.32 1451.88 Q1689.98 1451.14 1692.3 1450.77 Q1694.64 1450.39 1696.7 1450.39 Q1702.02 1450.39 1705.12 1452.83 Q1708.22 1455.23 1708.22 1459.35 Q1708.22 1462.22 1706.58 1464.21 Q1704.94 1466.18 1701.9 1466.95 Z" fill="#000000" fill-rule="nonzero" fill-opacity="1" /><path clip-path="url(#clip050)" d="M2006.84 1454.1 Q2003.23 1454.1 2001.4 1457.66 Q1999.59 1461.2 1999.59 1468.33 Q1999.59 1475.44 2001.4 1479.01 Q2003.23 1482.55 2006.84 1482.55 Q2010.47 1482.55 2012.28 1479.01 Q2014.11 1475.44 2014.11 1468.33 Q2014.11 1461.2 2012.28 1457.66 Q2010.47 1454.1 2006.84 1454.1 M2006.84 1450.39 Q2012.65 1450.39 2015.71 1455 Q2018.78 1459.58 2018.78 1468.33 Q2018.78 1477.06 2015.71 1481.67 Q2012.65 1486.25 2006.84 1486.25 Q2001.03 1486.25 1997.95 1481.67 Q1994.9 1477.06 1994.9 1468.33 Q1994.9 1459.58 1997.95 1455 Q2001.03 1450.39 2006.84 1450.39 Z" fill="#000000" fill-rule="nonzero" fill-opacity="1" /><path clip-path="url(#clip050)" d="M2027 1479.7 L2031.89 1479.7 L2031.89 1485.58 L2027 1485.58 L2027 1479.7 Z" fill="#000000" fill-rule="nonzero" fill-opacity="1" /><path clip-path="url(#clip050)" d="M2052.65 1466.44 Q2049.5 1466.44 2047.65 1468.59 Q2045.82 1470.74 2045.82 1474.49 Q2045.82 1478.22 2047.65 1480.39 Q2049.5 1482.55 2052.65 1482.55 Q2055.8 1482.55 2057.63 1480.39 Q2059.48 1478.22 2059.48 1474.49 Q2059.48 1470.74 2057.63 1468.59 Q2055.8 1466.44 2052.65 1466.44 M2061.93 1451.78 L2061.93 1456.04 Q2060.17 1455.21 2058.37 1454.77 Q2056.58 1454.33 2054.83 1454.33 Q2050.2 1454.33 2047.74 1457.45 Q2045.31 1460.58 2044.96 1466.9 Q2046.33 1464.89 2048.39 1463.82 Q2050.45 1462.73 2052.93 1462.73 Q2058.14 1462.73 2061.14 1465.9 Q2064.18 1469.05 2064.18 1474.49 Q2064.18 1479.82 2061.03 1483.03 Q2057.88 1486.25 2052.65 1486.25 Q2046.65 1486.25 2043.48 1481.67 Q2040.31 1477.06 2040.31 1468.33 Q2040.31 1460.14 2044.2 1455.28 Q2048.09 1450.39 2054.64 1450.39 Q2056.4 1450.39 2058.18 1450.74 Q2059.99 1451.09 2061.93 1451.78 Z" fill="#000000" fill-rule="nonzero" fill-opacity="1" /><path clip-path="url(#clip050)" d="M1336.68 1532.4 L1323.78 1549.74 L1337.34 1568.04 L1330.44 1568.04 L1320.06 1554.04 L1309.68 1568.04 L1302.78 1568.04 L1316.62 1549.39 L1303.96 1532.4 L1310.86 1532.4 L1320.32 1545.1 L1329.77 1532.4 L1336.68 1532.4 Z" fill="#000000" fill-rule="nonzero" fill-opacity="1" /><polyline clip-path="url(#clip050)" style="stroke:#000000; stroke-linecap:round; stroke-linejoin:round; stroke-width:4; stroke-opacity:1; fill:none" points="287.366,1423.18 287.366,47.2441 "/>
<polyline clip-path="url(#clip050)" style="stroke:#000000; stroke-linecap:round; stroke-linejoin:round; stroke-width:4; stroke-opacity:1; fill:none" points="287.366,1367.18 306.264,1367.18 "/>
<polyline clip-path="url(#clip050)" style="stroke:#000000; stroke-linecap:round; stroke-linejoin:round; stroke-width:4; stroke-opacity:1; fill:none" points="287.366,1071.57 306.264,1071.57 "/>
<polyline clip-path="url(#clip050)" style="stroke:#000000; stroke-linecap:round; stroke-linejoin:round; stroke-width:4; stroke-opacity:1; fill:none" points="287.366,775.952 306.264,775.952 "/>
<polyline clip-path="url(#clip050)" style="stroke:#000000; stroke-linecap:round; stroke-linejoin:round; stroke-width:4; stroke-opacity:1; fill:none" points="287.366,480.337 306.264,480.337 "/>
<polyline clip-path="url(#clip050)" style="stroke:#000000; stroke-linecap:round; stroke-linejoin:round; stroke-width:4; stroke-opacity:1; fill:none" points="287.366,184.722 306.264,184.722 "/>
<path clip-path="url(#clip050)" d="M115.256 1367.63 L144.931 1367.63 L144.931 1371.57 L115.256 1371.57 L115.256 1367.63 Z" fill="#000000" fill-rule="nonzero" fill-opacity="1" /><path clip-path="url(#clip050)" d="M155.834 1380.53 L163.473 1380.53 L163.473 1354.16 L155.163 1355.83 L155.163 1351.57 L163.427 1349.9 L168.102 1349.9 L168.102 1380.53 L175.741 1380.53 L175.741 1384.46 L155.834 1384.46 L155.834 1380.53 Z" fill="#000000" fill-rule="nonzero" fill-opacity="1" /><path clip-path="url(#clip050)" d="M185.186 1378.58 L190.07 1378.58 L190.07 1384.46 L185.186 1384.46 L185.186 1378.58 Z" fill="#000000" fill-rule="nonzero" fill-opacity="1" /><path clip-path="url(#clip050)" d="M204.283 1380.53 L220.602 1380.53 L220.602 1384.46 L198.658 1384.46 L198.658 1380.53 Q201.32 1377.77 205.903 1373.14 Q210.51 1368.49 211.69 1367.15 Q213.936 1364.62 214.815 1362.89 Q215.718 1361.13 215.718 1359.44 Q215.718 1356.68 213.774 1354.95 Q211.852 1353.21 208.75 1353.21 Q206.551 1353.21 204.098 1353.98 Q201.667 1354.74 198.889 1356.29 L198.889 1351.57 Q201.713 1350.43 204.167 1349.85 Q206.621 1349.28 208.658 1349.28 Q214.028 1349.28 217.223 1351.96 Q220.417 1354.65 220.417 1359.14 Q220.417 1361.27 219.607 1363.19 Q218.82 1365.09 216.713 1367.68 Q216.135 1368.35 213.033 1371.57 Q209.931 1374.76 204.283 1380.53 Z" fill="#000000" fill-rule="nonzero" fill-opacity="1" /><path clip-path="url(#clip050)" d="M230.463 1349.9 L248.82 1349.9 L248.82 1353.84 L234.746 1353.84 L234.746 1362.31 Q235.764 1361.96 236.783 1361.8 Q237.801 1361.61 238.82 1361.61 Q244.607 1361.61 247.986 1364.79 Q251.366 1367.96 251.366 1373.37 Q251.366 1378.95 247.894 1382.05 Q244.421 1385.13 238.102 1385.13 Q235.926 1385.13 233.658 1384.76 Q231.412 1384.39 229.005 1383.65 L229.005 1378.95 Q231.088 1380.09 233.31 1380.64 Q235.533 1381.2 238.009 1381.2 Q242.014 1381.2 244.352 1379.09 Q246.69 1376.98 246.69 1373.37 Q246.69 1369.76 244.352 1367.66 Q242.014 1365.55 238.009 1365.55 Q236.135 1365.55 234.26 1365.97 Q232.408 1366.38 230.463 1367.26 L230.463 1349.9 Z" fill="#000000" fill-rule="nonzero" fill-opacity="1" /><path clip-path="url(#clip050)" d="M114.26 1072.02 L143.936 1072.02 L143.936 1075.95 L114.26 1075.95 L114.26 1072.02 Z" fill="#000000" fill-rule="nonzero" fill-opacity="1" /><path clip-path="url(#clip050)" d="M154.839 1084.91 L162.477 1084.91 L162.477 1058.55 L154.167 1060.21 L154.167 1055.95 L162.431 1054.29 L167.107 1054.29 L167.107 1084.91 L174.746 1084.91 L174.746 1088.85 L154.839 1088.85 L154.839 1084.91 Z" fill="#000000" fill-rule="nonzero" fill-opacity="1" /><path clip-path="url(#clip050)" d="M184.19 1082.97 L189.075 1082.97 L189.075 1088.85 L184.19 1088.85 L184.19 1082.97 Z" fill="#000000" fill-rule="nonzero" fill-opacity="1" /><path clip-path="url(#clip050)" d="M209.26 1057.37 Q205.649 1057.37 203.82 1060.93 Q202.014 1064.47 202.014 1071.6 Q202.014 1078.71 203.82 1082.27 Q205.649 1085.81 209.26 1085.81 Q212.894 1085.81 214.699 1082.27 Q216.528 1078.71 216.528 1071.6 Q216.528 1064.47 214.699 1060.93 Q212.894 1057.37 209.26 1057.37 M209.26 1053.66 Q215.07 1053.66 218.125 1058.27 Q221.204 1062.85 221.204 1071.6 Q221.204 1080.33 218.125 1084.93 Q215.07 1089.52 209.26 1089.52 Q203.449 1089.52 200.371 1084.93 Q197.315 1080.33 197.315 1071.6 Q197.315 1062.85 200.371 1058.27 Q203.449 1053.66 209.26 1053.66 Z" fill="#000000" fill-rule="nonzero" fill-opacity="1" /><path clip-path="url(#clip050)" d="M239.422 1057.37 Q235.81 1057.37 233.982 1060.93 Q232.176 1064.47 232.176 1071.6 Q232.176 1078.71 233.982 1082.27 Q235.81 1085.81 239.422 1085.81 Q243.056 1085.81 244.861 1082.27 Q246.69 1078.71 246.69 1071.6 Q246.69 1064.47 244.861 1060.93 Q243.056 1057.37 239.422 1057.37 M239.422 1053.66 Q245.232 1053.66 248.287 1058.27 Q251.366 1062.85 251.366 1071.6 Q251.366 1080.33 248.287 1084.93 Q245.232 1089.52 239.422 1089.52 Q233.611 1089.52 230.533 1084.93 Q227.477 1080.33 227.477 1071.6 Q227.477 1062.85 230.533 1058.27 Q233.611 1053.66 239.422 1053.66 Z" fill="#000000" fill-rule="nonzero" fill-opacity="1" /><path clip-path="url(#clip050)" d="M115.256 776.403 L144.931 776.403 L144.931 780.338 L115.256 780.338 L115.256 776.403 Z" fill="#000000" fill-rule="nonzero" fill-opacity="1" /><path clip-path="url(#clip050)" d="M165.024 761.75 Q161.413 761.75 159.584 765.315 Q157.778 768.857 157.778 775.986 Q157.778 783.093 159.584 786.658 Q161.413 790.199 165.024 790.199 Q168.658 790.199 170.464 786.658 Q172.292 783.093 172.292 775.986 Q172.292 768.857 170.464 765.315 Q168.658 761.75 165.024 761.75 M165.024 758.047 Q170.834 758.047 173.889 762.653 Q176.968 767.236 176.968 775.986 Q176.968 784.713 173.889 789.32 Q170.834 793.903 165.024 793.903 Q159.214 793.903 156.135 789.32 Q153.079 784.713 153.079 775.986 Q153.079 767.236 156.135 762.653 Q159.214 758.047 165.024 758.047 Z" fill="#000000" fill-rule="nonzero" fill-opacity="1" /><path clip-path="url(#clip050)" d="M185.186 787.352 L190.07 787.352 L190.07 793.232 L185.186 793.232 L185.186 787.352 Z" fill="#000000" fill-rule="nonzero" fill-opacity="1" /><path clip-path="url(#clip050)" d="M199.075 758.672 L221.297 758.672 L221.297 760.662 L208.75 793.232 L203.866 793.232 L215.672 762.607 L199.075 762.607 L199.075 758.672 Z" fill="#000000" fill-rule="nonzero" fill-opacity="1" /><path clip-path="url(#clip050)" d="M230.463 758.672 L248.82 758.672 L248.82 762.607 L234.746 762.607 L234.746 771.079 Q235.764 770.732 236.783 770.57 Q237.801 770.385 238.82 770.385 Q244.607 770.385 247.986 773.556 Q251.366 776.727 251.366 782.144 Q251.366 787.722 247.894 790.824 Q244.421 793.903 238.102 793.903 Q235.926 793.903 233.658 793.533 Q231.412 793.162 229.005 792.421 L229.005 787.722 Q231.088 788.857 233.31 789.412 Q235.533 789.968 238.009 789.968 Q242.014 789.968 244.352 787.861 Q246.69 785.755 246.69 782.144 Q246.69 778.533 244.352 776.426 Q242.014 774.32 238.009 774.32 Q236.135 774.32 234.26 774.736 Q232.408 775.153 230.463 776.033 L230.463 758.672 Z" fill="#000000" fill-rule="nonzero" fill-opacity="1" /><path clip-path="url(#clip050)" d="M114.26 480.788 L143.936 480.788 L143.936 484.723 L114.26 484.723 L114.26 480.788 Z" fill="#000000" fill-rule="nonzero" fill-opacity="1" /><path clip-path="url(#clip050)" d="M164.028 466.136 Q160.417 466.136 158.589 469.7 Q156.783 473.242 156.783 480.372 Q156.783 487.478 158.589 491.043 Q160.417 494.585 164.028 494.585 Q167.663 494.585 169.468 491.043 Q171.297 487.478 171.297 480.372 Q171.297 473.242 169.468 469.7 Q167.663 466.136 164.028 466.136 M164.028 462.432 Q169.839 462.432 172.894 467.038 Q175.973 471.622 175.973 480.372 Q175.973 489.098 172.894 493.705 Q169.839 498.288 164.028 498.288 Q158.218 498.288 155.14 493.705 Q152.084 489.098 152.084 480.372 Q152.084 471.622 155.14 467.038 Q158.218 462.432 164.028 462.432 Z" fill="#000000" fill-rule="nonzero" fill-opacity="1" /><path clip-path="url(#clip050)" d="M184.19 491.737 L189.075 491.737 L189.075 497.617 L184.19 497.617 L184.19 491.737 Z" fill="#000000" fill-rule="nonzero" fill-opacity="1" /><path clip-path="url(#clip050)" d="M199.306 463.057 L217.662 463.057 L217.662 466.992 L203.588 466.992 L203.588 475.464 Q204.607 475.117 205.625 474.955 Q206.644 474.77 207.662 474.77 Q213.449 474.77 216.829 477.941 Q220.209 481.112 220.209 486.529 Q220.209 492.108 216.736 495.21 Q213.264 498.288 206.945 498.288 Q204.769 498.288 202.5 497.918 Q200.255 497.548 197.848 496.807 L197.848 492.108 Q199.931 493.242 202.153 493.798 Q204.375 494.353 206.852 494.353 Q210.857 494.353 213.195 492.247 Q215.533 490.14 215.533 486.529 Q215.533 482.918 213.195 480.811 Q210.857 478.705 206.852 478.705 Q204.977 478.705 203.102 479.122 Q201.25 479.538 199.306 480.418 L199.306 463.057 Z" fill="#000000" fill-rule="nonzero" fill-opacity="1" /><path clip-path="url(#clip050)" d="M239.422 466.136 Q235.81 466.136 233.982 469.7 Q232.176 473.242 232.176 480.372 Q232.176 487.478 233.982 491.043 Q235.81 494.585 239.422 494.585 Q243.056 494.585 244.861 491.043 Q246.69 487.478 246.69 480.372 Q246.69 473.242 244.861 469.7 Q243.056 466.136 239.422 466.136 M239.422 462.432 Q245.232 462.432 248.287 467.038 Q251.366 471.622 251.366 480.372 Q251.366 489.098 248.287 493.705 Q245.232 498.288 239.422 498.288 Q233.611 498.288 230.533 493.705 Q227.477 489.098 227.477 480.372 Q227.477 471.622 230.533 467.038 Q233.611 462.432 239.422 462.432 Z" fill="#000000" fill-rule="nonzero" fill-opacity="1" /><path clip-path="url(#clip050)" d="M115.256 185.174 L144.931 185.174 L144.931 189.109 L115.256 189.109 L115.256 185.174 Z" fill="#000000" fill-rule="nonzero" fill-opacity="1" /><path clip-path="url(#clip050)" d="M165.024 170.521 Q161.413 170.521 159.584 174.086 Q157.778 177.627 157.778 184.757 Q157.778 191.863 159.584 195.428 Q161.413 198.97 165.024 198.97 Q168.658 198.97 170.464 195.428 Q172.292 191.863 172.292 184.757 Q172.292 177.627 170.464 174.086 Q168.658 170.521 165.024 170.521 M165.024 166.817 Q170.834 166.817 173.889 171.424 Q176.968 176.007 176.968 184.757 Q176.968 193.484 173.889 198.09 Q170.834 202.674 165.024 202.674 Q159.214 202.674 156.135 198.09 Q153.079 193.484 153.079 184.757 Q153.079 176.007 156.135 171.424 Q159.214 166.817 165.024 166.817 Z" fill="#000000" fill-rule="nonzero" fill-opacity="1" /><path clip-path="url(#clip050)" d="M185.186 196.123 L190.07 196.123 L190.07 202.002 L185.186 202.002 L185.186 196.123 Z" fill="#000000" fill-rule="nonzero" fill-opacity="1" /><path clip-path="url(#clip050)" d="M204.283 198.067 L220.602 198.067 L220.602 202.002 L198.658 202.002 L198.658 198.067 Q201.32 195.312 205.903 190.683 Q210.51 186.03 211.69 184.688 Q213.936 182.164 214.815 180.428 Q215.718 178.669 215.718 176.979 Q215.718 174.225 213.774 172.489 Q211.852 170.752 208.75 170.752 Q206.551 170.752 204.098 171.516 Q201.667 172.28 198.889 173.831 L198.889 169.109 Q201.713 167.975 204.167 167.396 Q206.621 166.817 208.658 166.817 Q214.028 166.817 217.223 169.502 Q220.417 172.188 220.417 176.678 Q220.417 178.808 219.607 180.729 Q218.82 182.627 216.713 185.22 Q216.135 185.891 213.033 189.109 Q209.931 192.303 204.283 198.067 Z" fill="#000000" fill-rule="nonzero" fill-opacity="1" /><path clip-path="url(#clip050)" d="M230.463 167.442 L248.82 167.442 L248.82 171.377 L234.746 171.377 L234.746 179.85 Q235.764 179.502 236.783 179.34 Q237.801 179.155 238.82 179.155 Q244.607 179.155 247.986 182.326 Q251.366 185.498 251.366 190.914 Q251.366 196.493 247.894 199.595 Q244.421 202.674 238.102 202.674 Q235.926 202.674 233.658 202.303 Q231.412 201.933 229.005 201.192 L229.005 196.493 Q231.088 197.627 233.31 198.183 Q235.533 198.738 238.009 198.738 Q242.014 198.738 244.352 196.632 Q246.69 194.525 246.69 190.914 Q246.69 187.303 244.352 185.197 Q242.014 183.09 238.009 183.09 Q236.135 183.09 234.26 183.507 Q232.408 183.924 230.463 184.803 L230.463 167.442 Z" fill="#000000" fill-rule="nonzero" fill-opacity="1" /><path clip-path="url(#clip050)" d="M67.3143 733.525 Q73.68 736.008 75.6216 738.363 Q77.5631 740.718 77.5631 744.665 L77.5631 749.344 L72.6615 749.344 L72.6615 745.906 Q72.6615 743.487 71.5157 742.151 Q70.3699 740.814 66.1048 739.191 L63.4312 738.14 L28.3562 752.559 L28.3562 746.352 L56.238 735.212 L28.3562 724.072 L28.3562 717.865 L67.3143 733.525 Z" fill="#000000" fill-rule="nonzero" fill-opacity="1" /><circle clip-path="url(#clip052)" cx="1517.14" cy="86.1857" r="7.2" fill="#ff0000" fill-rule="evenodd" fill-opacity="1" stroke="#000000" stroke-opacity="1" stroke-width="3.2"/>
<circle clip-path="url(#clip052)" cx="1438.31" cy="86.1857" r="7.2" fill="#ff0000" fill-rule="evenodd" fill-opacity="1" stroke="#000000" stroke-opacity="1" stroke-width="3.2"/>
<circle clip-path="url(#clip052)" cx="1359.48" cy="86.1858" r="7.2" fill="#ff0000" fill-rule="evenodd" fill-opacity="1" stroke="#000000" stroke-opacity="1" stroke-width="3.2"/>
<circle clip-path="url(#clip052)" cx="1280.65" cy="86.1858" r="7.2" fill="#ff0000" fill-rule="evenodd" fill-opacity="1" stroke="#000000" stroke-opacity="1" stroke-width="3.2"/>
<circle clip-path="url(#clip052)" cx="1201.81" cy="86.1857" r="7.2" fill="#ff0000" fill-rule="evenodd" fill-opacity="1" stroke="#000000" stroke-opacity="1" stroke-width="3.2"/>
<circle clip-path="url(#clip052)" cx="1122.98" cy="86.1857" r="7.2" fill="#ff0000" fill-rule="evenodd" fill-opacity="1" stroke="#000000" stroke-opacity="1" stroke-width="3.2"/>
<circle clip-path="url(#clip052)" cx="1517.14" cy="165.017" r="7.2" fill="#ff0000" fill-rule="evenodd" fill-opacity="1" stroke="#000000" stroke-opacity="1" stroke-width="3.2"/>
<circle clip-path="url(#clip052)" cx="1438.31" cy="165.017" r="7.2" fill="#ff0000" fill-rule="evenodd" fill-opacity="1" stroke="#000000" stroke-opacity="1" stroke-width="3.2"/>
<circle clip-path="url(#clip052)" cx="1359.48" cy="165.017" r="7.2" fill="#ff0000" fill-rule="evenodd" fill-opacity="1" stroke="#000000" stroke-opacity="1" stroke-width="3.2"/>
<circle clip-path="url(#clip052)" cx="1280.65" cy="165.017" r="7.2" fill="#ff0000" fill-rule="evenodd" fill-opacity="1" stroke="#000000" stroke-opacity="1" stroke-width="3.2"/>
<circle clip-path="url(#clip052)" cx="1201.81" cy="165.017" r="7.2" fill="#ff0000" fill-rule="evenodd" fill-opacity="1" stroke="#000000" stroke-opacity="1" stroke-width="3.2"/>
<circle clip-path="url(#clip052)" cx="1122.98" cy="165.017" r="7.2" fill="#ff0000" fill-rule="evenodd" fill-opacity="1" stroke="#000000" stroke-opacity="1" stroke-width="3.2"/>
<circle clip-path="url(#clip052)" cx="1517.14" cy="243.848" r="7.2" fill="#ff0000" fill-rule="evenodd" fill-opacity="1" stroke="#000000" stroke-opacity="1" stroke-width="3.2"/>
<circle clip-path="url(#clip052)" cx="1438.31" cy="243.848" r="7.2" fill="#ff0000" fill-rule="evenodd" fill-opacity="1" stroke="#000000" stroke-opacity="1" stroke-width="3.2"/>
<circle clip-path="url(#clip052)" cx="1359.48" cy="243.848" r="7.2" fill="#ff0000" fill-rule="evenodd" fill-opacity="1" stroke="#000000" stroke-opacity="1" stroke-width="3.2"/>
<circle clip-path="url(#clip052)" cx="1280.65" cy="243.848" r="7.2" fill="#ff0000" fill-rule="evenodd" fill-opacity="1" stroke="#000000" stroke-opacity="1" stroke-width="3.2"/>
<circle clip-path="url(#clip052)" cx="1201.81" cy="243.848" r="7.2" fill="#ff0000" fill-rule="evenodd" fill-opacity="1" stroke="#000000" stroke-opacity="1" stroke-width="3.2"/>
<circle clip-path="url(#clip052)" cx="1122.98" cy="243.848" r="7.2" fill="#ff0000" fill-rule="evenodd" fill-opacity="1" stroke="#000000" stroke-opacity="1" stroke-width="3.2"/>
<circle clip-path="url(#clip052)" cx="1517.14" cy="322.679" r="7.2" fill="#ff0000" fill-rule="evenodd" fill-opacity="1" stroke="#000000" stroke-opacity="1" stroke-width="3.2"/>
<circle clip-path="url(#clip052)" cx="1438.31" cy="322.679" r="7.2" fill="#ff0000" fill-rule="evenodd" fill-opacity="1" stroke="#000000" stroke-opacity="1" stroke-width="3.2"/>
<circle clip-path="url(#clip052)" cx="1359.48" cy="322.679" r="7.2" fill="#ff0000" fill-rule="evenodd" fill-opacity="1" stroke="#000000" stroke-opacity="1" stroke-width="3.2"/>
<circle clip-path="url(#clip052)" cx="1280.65" cy="322.679" r="7.2" fill="#ff0000" fill-rule="evenodd" fill-opacity="1" stroke="#000000" stroke-opacity="1" stroke-width="3.2"/>
<circle clip-path="url(#clip052)" cx="1201.81" cy="322.679" r="7.2" fill="#ff0000" fill-rule="evenodd" fill-opacity="1" stroke="#000000" stroke-opacity="1" stroke-width="3.2"/>
<circle clip-path="url(#clip052)" cx="1122.98" cy="322.679" r="7.2" fill="#ff0000" fill-rule="evenodd" fill-opacity="1" stroke="#000000" stroke-opacity="1" stroke-width="3.2"/>
<circle clip-path="url(#clip052)" cx="1517.14" cy="401.509" r="7.2" fill="#ff0000" fill-rule="evenodd" fill-opacity="1" stroke="#000000" stroke-opacity="1" stroke-width="3.2"/>
<circle clip-path="url(#clip052)" cx="1438.31" cy="401.51" r="7.2" fill="#ff0000" fill-rule="evenodd" fill-opacity="1" stroke="#000000" stroke-opacity="1" stroke-width="3.2"/>
<circle clip-path="url(#clip052)" cx="1359.48" cy="401.51" r="7.2" fill="#ff0000" fill-rule="evenodd" fill-opacity="1" stroke="#000000" stroke-opacity="1" stroke-width="3.2"/>
<circle clip-path="url(#clip052)" cx="1280.65" cy="401.51" r="7.2" fill="#ff0000" fill-rule="evenodd" fill-opacity="1" stroke="#000000" stroke-opacity="1" stroke-width="3.2"/>
<circle clip-path="url(#clip052)" cx="1201.81" cy="401.51" r="7.2" fill="#ff0000" fill-rule="evenodd" fill-opacity="1" stroke="#000000" stroke-opacity="1" stroke-width="3.2"/>
<circle clip-path="url(#clip052)" cx="1122.98" cy="401.509" r="7.2" fill="#ff0000" fill-rule="evenodd" fill-opacity="1" stroke="#000000" stroke-opacity="1" stroke-width="3.2"/>
<circle clip-path="url(#clip052)" cx="1517.14" cy="480.341" r="7.2" fill="#ff0000" fill-rule="evenodd" fill-opacity="1" stroke="#000000" stroke-opacity="1" stroke-width="3.2"/>
<circle clip-path="url(#clip052)" cx="1438.31" cy="480.342" r="7.2" fill="#ff0000" fill-rule="evenodd" fill-opacity="1" stroke="#000000" stroke-opacity="1" stroke-width="3.2"/>
<circle clip-path="url(#clip052)" cx="1359.48" cy="480.342" r="7.2" fill="#ff0000" fill-rule="evenodd" fill-opacity="1" stroke="#000000" stroke-opacity="1" stroke-width="3.2"/>
<circle clip-path="url(#clip052)" cx="1280.65" cy="480.342" r="7.2" fill="#ff0000" fill-rule="evenodd" fill-opacity="1" stroke="#000000" stroke-opacity="1" stroke-width="3.2"/>
<circle clip-path="url(#clip052)" cx="1201.81" cy="480.342" r="7.2" fill="#ff0000" fill-rule="evenodd" fill-opacity="1" stroke="#000000" stroke-opacity="1" stroke-width="3.2"/>
<circle clip-path="url(#clip052)" cx="1122.98" cy="480.341" r="7.2" fill="#ff0000" fill-rule="evenodd" fill-opacity="1" stroke="#000000" stroke-opacity="1" stroke-width="3.2"/>
<circle clip-path="url(#clip052)" cx="1523.08" cy="708.505" r="7.2" fill="#008000" fill-rule="evenodd" fill-opacity="1" stroke="#000000" stroke-opacity="1" stroke-width="3.2"/>
<circle clip-path="url(#clip052)" cx="1441.88" cy="709.695" r="7.2" fill="#008000" fill-rule="evenodd" fill-opacity="1" stroke="#000000" stroke-opacity="1" stroke-width="3.2"/>
<circle clip-path="url(#clip052)" cx="1360.67" cy="710.29" r="7.2" fill="#008000" fill-rule="evenodd" fill-opacity="1" stroke="#000000" stroke-opacity="1" stroke-width="3.2"/>
<circle clip-path="url(#clip052)" cx="1279.45" cy="710.29" r="7.2" fill="#008000" fill-rule="evenodd" fill-opacity="1" stroke="#000000" stroke-opacity="1" stroke-width="3.2"/>
<circle clip-path="url(#clip052)" cx="1198.24" cy="709.695" r="7.2" fill="#008000" fill-rule="evenodd" fill-opacity="1" stroke="#000000" stroke-opacity="1" stroke-width="3.2"/>
<circle clip-path="url(#clip052)" cx="1117.04" cy="708.505" r="7.2" fill="#008000" fill-rule="evenodd" fill-opacity="1" stroke="#000000" stroke-opacity="1" stroke-width="3.2"/>
<circle clip-path="url(#clip052)" cx="1523.1" cy="788.08" r="7.2" fill="#008000" fill-rule="evenodd" fill-opacity="1" stroke="#000000" stroke-opacity="1" stroke-width="3.2"/>
<circle clip-path="url(#clip052)" cx="1441.89" cy="789.269" r="7.2" fill="#008000" fill-rule="evenodd" fill-opacity="1" stroke="#000000" stroke-opacity="1" stroke-width="3.2"/>
<circle clip-path="url(#clip052)" cx="1360.67" cy="789.864" r="7.2" fill="#008000" fill-rule="evenodd" fill-opacity="1" stroke="#000000" stroke-opacity="1" stroke-width="3.2"/>
<circle clip-path="url(#clip052)" cx="1279.45" cy="789.864" r="7.2" fill="#008000" fill-rule="evenodd" fill-opacity="1" stroke="#000000" stroke-opacity="1" stroke-width="3.2"/>
<circle clip-path="url(#clip052)" cx="1198.23" cy="789.269" r="7.2" fill="#008000" fill-rule="evenodd" fill-opacity="1" stroke="#000000" stroke-opacity="1" stroke-width="3.2"/>
<circle clip-path="url(#clip052)" cx="1117.02" cy="788.08" r="7.2" fill="#008000" fill-rule="evenodd" fill-opacity="1" stroke="#000000" stroke-opacity="1" stroke-width="3.2"/>
<circle clip-path="url(#clip052)" cx="1523.12" cy="867.088" r="7.2" fill="#008000" fill-rule="evenodd" fill-opacity="1" stroke="#000000" stroke-opacity="1" stroke-width="3.2"/>
<circle clip-path="url(#clip052)" cx="1441.9" cy="868.277" r="7.2" fill="#008000" fill-rule="evenodd" fill-opacity="1" stroke="#000000" stroke-opacity="1" stroke-width="3.2"/>
<circle clip-path="url(#clip052)" cx="1360.68" cy="868.872" r="7.2" fill="#008000" fill-rule="evenodd" fill-opacity="1" stroke="#000000" stroke-opacity="1" stroke-width="3.2"/>
<circle clip-path="url(#clip052)" cx="1279.45" cy="868.872" r="7.2" fill="#008000" fill-rule="evenodd" fill-opacity="1" stroke="#000000" stroke-opacity="1" stroke-width="3.2"/>
<circle clip-path="url(#clip052)" cx="1198.22" cy="868.277" r="7.2" fill="#008000" fill-rule="evenodd" fill-opacity="1" stroke="#000000" stroke-opacity="1" stroke-width="3.2"/>
<circle clip-path="url(#clip052)" cx="1117" cy="867.088" r="7.2" fill="#008000" fill-rule="evenodd" fill-opacity="1" stroke="#000000" stroke-opacity="1" stroke-width="3.2"/>
<circle clip-path="url(#clip052)" cx="1523.14" cy="945.531" r="7.2" fill="#008000" fill-rule="evenodd" fill-opacity="1" stroke="#000000" stroke-opacity="1" stroke-width="3.2"/>
<circle clip-path="url(#clip052)" cx="1441.91" cy="946.719" r="7.2" fill="#008000" fill-rule="evenodd" fill-opacity="1" stroke="#000000" stroke-opacity="1" stroke-width="3.2"/>
<circle clip-path="url(#clip052)" cx="1360.68" cy="947.314" r="7.2" fill="#008000" fill-rule="evenodd" fill-opacity="1" stroke="#000000" stroke-opacity="1" stroke-width="3.2"/>
<circle clip-path="url(#clip052)" cx="1279.44" cy="947.314" r="7.2" fill="#008000" fill-rule="evenodd" fill-opacity="1" stroke="#000000" stroke-opacity="1" stroke-width="3.2"/>
<circle clip-path="url(#clip052)" cx="1198.21" cy="946.719" r="7.2" fill="#008000" fill-rule="evenodd" fill-opacity="1" stroke="#000000" stroke-opacity="1" stroke-width="3.2"/>
<circle clip-path="url(#clip052)" cx="1116.99" cy="945.531" r="7.2" fill="#008000" fill-rule="evenodd" fill-opacity="1" stroke="#000000" stroke-opacity="1" stroke-width="3.2"/>
<circle clip-path="url(#clip052)" cx="1523.15" cy="1023.41" r="7.2" fill="#008000" fill-rule="evenodd" fill-opacity="1" stroke="#000000" stroke-opacity="1" stroke-width="3.2"/>
<circle clip-path="url(#clip052)" cx="1441.92" cy="1024.6" r="7.2" fill="#008000" fill-rule="evenodd" fill-opacity="1" stroke="#000000" stroke-opacity="1" stroke-width="3.2"/>
<circle clip-path="url(#clip052)" cx="1360.68" cy="1025.19" r="7.2" fill="#008000" fill-rule="evenodd" fill-opacity="1" stroke="#000000" stroke-opacity="1" stroke-width="3.2"/>
<circle clip-path="url(#clip052)" cx="1279.44" cy="1025.19" r="7.2" fill="#008000" fill-rule="evenodd" fill-opacity="1" stroke="#000000" stroke-opacity="1" stroke-width="3.2"/>
<circle clip-path="url(#clip052)" cx="1198.2" cy="1024.6" r="7.2" fill="#008000" fill-rule="evenodd" fill-opacity="1" stroke="#000000" stroke-opacity="1" stroke-width="3.2"/>
<circle clip-path="url(#clip052)" cx="1116.97" cy="1023.41" r="7.2" fill="#008000" fill-rule="evenodd" fill-opacity="1" stroke="#000000" stroke-opacity="1" stroke-width="3.2"/>
<circle clip-path="url(#clip052)" cx="1523.16" cy="1100.72" r="7.2" fill="#008000" fill-rule="evenodd" fill-opacity="1" stroke="#000000" stroke-opacity="1" stroke-width="3.2"/>
<circle clip-path="url(#clip052)" cx="1441.92" cy="1101.91" r="7.2" fill="#008000" fill-rule="evenodd" fill-opacity="1" stroke="#000000" stroke-opacity="1" stroke-width="3.2"/>
<circle clip-path="url(#clip052)" cx="1360.68" cy="1102.51" r="7.2" fill="#008000" fill-rule="evenodd" fill-opacity="1" stroke="#000000" stroke-opacity="1" stroke-width="3.2"/>
<circle clip-path="url(#clip052)" cx="1279.44" cy="1102.51" r="7.2" fill="#008000" fill-rule="evenodd" fill-opacity="1" stroke="#000000" stroke-opacity="1" stroke-width="3.2"/>
<circle clip-path="url(#clip052)" cx="1198.2" cy="1101.91" r="7.2" fill="#008000" fill-rule="evenodd" fill-opacity="1" stroke="#000000" stroke-opacity="1" stroke-width="3.2"/>
<circle clip-path="url(#clip052)" cx="1116.97" cy="1100.72" r="7.2" fill="#008000" fill-rule="evenodd" fill-opacity="1" stroke="#000000" stroke-opacity="1" stroke-width="3.2"/>
<circle clip-path="url(#clip052)" cx="1529.38" cy="981.814" r="7.2" fill="#0000ff" fill-rule="evenodd" fill-opacity="1" stroke="#000000" stroke-opacity="1" stroke-width="3.2"/>
<circle clip-path="url(#clip052)" cx="1445.66" cy="983.535" r="7.2" fill="#0000ff" fill-rule="evenodd" fill-opacity="1" stroke="#000000" stroke-opacity="1" stroke-width="3.2"/>
<circle clip-path="url(#clip052)" cx="1361.93" cy="984.395" r="7.2" fill="#0000ff" fill-rule="evenodd" fill-opacity="1" stroke="#000000" stroke-opacity="1" stroke-width="3.2"/>
<circle clip-path="url(#clip052)" cx="1278.19" cy="984.395" r="7.2" fill="#0000ff" fill-rule="evenodd" fill-opacity="1" stroke="#000000" stroke-opacity="1" stroke-width="3.2"/>
<circle clip-path="url(#clip052)" cx="1194.46" cy="983.535" r="7.2" fill="#0000ff" fill-rule="evenodd" fill-opacity="1" stroke="#000000" stroke-opacity="1" stroke-width="3.2"/>
<circle clip-path="url(#clip052)" cx="1110.74" cy="981.814" r="7.2" fill="#0000ff" fill-rule="evenodd" fill-opacity="1" stroke="#000000" stroke-opacity="1" stroke-width="3.2"/>
<circle clip-path="url(#clip052)" cx="1529.45" cy="1063.33" r="7.2" fill="#0000ff" fill-rule="evenodd" fill-opacity="1" stroke="#000000" stroke-opacity="1" stroke-width="3.2"/>
<circle clip-path="url(#clip052)" cx="1445.7" cy="1065.05" r="7.2" fill="#0000ff" fill-rule="evenodd" fill-opacity="1" stroke="#000000" stroke-opacity="1" stroke-width="3.2"/>
<circle clip-path="url(#clip052)" cx="1361.94" cy="1065.91" r="7.2" fill="#0000ff" fill-rule="evenodd" fill-opacity="1" stroke="#000000" stroke-opacity="1" stroke-width="3.2"/>
<circle clip-path="url(#clip052)" cx="1278.18" cy="1065.91" r="7.2" fill="#0000ff" fill-rule="evenodd" fill-opacity="1" stroke="#000000" stroke-opacity="1" stroke-width="3.2"/>
<circle clip-path="url(#clip052)" cx="1194.42" cy="1065.05" r="7.2" fill="#0000ff" fill-rule="evenodd" fill-opacity="1" stroke="#000000" stroke-opacity="1" stroke-width="3.2"/>
<circle clip-path="url(#clip052)" cx="1110.67" cy="1063.33" r="7.2" fill="#0000ff" fill-rule="evenodd" fill-opacity="1" stroke="#000000" stroke-opacity="1" stroke-width="3.2"/>
<circle clip-path="url(#clip052)" cx="1529.52" cy="1144.07" r="7.2" fill="#0000ff" fill-rule="evenodd" fill-opacity="1" stroke="#000000" stroke-opacity="1" stroke-width="3.2"/>
<circle clip-path="url(#clip052)" cx="1445.74" cy="1145.79" r="7.2" fill="#0000ff" fill-rule="evenodd" fill-opacity="1" stroke="#000000" stroke-opacity="1" stroke-width="3.2"/>
<circle clip-path="url(#clip052)" cx="1361.96" cy="1146.65" r="7.2" fill="#0000ff" fill-rule="evenodd" fill-opacity="1" stroke="#000000" stroke-opacity="1" stroke-width="3.2"/>
<circle clip-path="url(#clip052)" cx="1278.17" cy="1146.65" r="7.2" fill="#0000ff" fill-rule="evenodd" fill-opacity="1" stroke="#000000" stroke-opacity="1" stroke-width="3.2"/>
<circle clip-path="url(#clip052)" cx="1194.38" cy="1145.79" r="7.2" fill="#0000ff" fill-rule="evenodd" fill-opacity="1" stroke="#000000" stroke-opacity="1" stroke-width="3.2"/>
<circle clip-path="url(#clip052)" cx="1110.61" cy="1144.07" r="7.2" fill="#0000ff" fill-rule="evenodd" fill-opacity="1" stroke="#000000" stroke-opacity="1" stroke-width="3.2"/>
<circle clip-path="url(#clip052)" cx="1529.58" cy="1224.04" r="7.2" fill="#0000ff" fill-rule="evenodd" fill-opacity="1" stroke="#000000" stroke-opacity="1" stroke-width="3.2"/>
<circle clip-path="url(#clip052)" cx="1445.78" cy="1225.76" r="7.2" fill="#0000ff" fill-rule="evenodd" fill-opacity="1" stroke="#000000" stroke-opacity="1" stroke-width="3.2"/>
<circle clip-path="url(#clip052)" cx="1361.97" cy="1226.62" r="7.2" fill="#0000ff" fill-rule="evenodd" fill-opacity="1" stroke="#000000" stroke-opacity="1" stroke-width="3.2"/>
<circle clip-path="url(#clip052)" cx="1278.15" cy="1226.62" r="7.2" fill="#0000ff" fill-rule="evenodd" fill-opacity="1" stroke="#000000" stroke-opacity="1" stroke-width="3.2"/>
<circle clip-path="url(#clip052)" cx="1194.34" cy="1225.76" r="7.2" fill="#0000ff" fill-rule="evenodd" fill-opacity="1" stroke="#000000" stroke-opacity="1" stroke-width="3.2"/>
<circle clip-path="url(#clip052)" cx="1110.55" cy="1224.04" r="7.2" fill="#0000ff" fill-rule="evenodd" fill-opacity="1" stroke="#000000" stroke-opacity="1" stroke-width="3.2"/>
<circle clip-path="url(#clip052)" cx="1529.63" cy="1303.24" r="7.2" fill="#0000ff" fill-rule="evenodd" fill-opacity="1" stroke="#000000" stroke-opacity="1" stroke-width="3.2"/>
<circle clip-path="url(#clip052)" cx="1445.81" cy="1304.95" r="7.2" fill="#0000ff" fill-rule="evenodd" fill-opacity="1" stroke="#000000" stroke-opacity="1" stroke-width="3.2"/>
<circle clip-path="url(#clip052)" cx="1361.98" cy="1305.81" r="7.2" fill="#0000ff" fill-rule="evenodd" fill-opacity="1" stroke="#000000" stroke-opacity="1" stroke-width="3.2"/>
<circle clip-path="url(#clip052)" cx="1278.14" cy="1305.81" r="7.2" fill="#0000ff" fill-rule="evenodd" fill-opacity="1" stroke="#000000" stroke-opacity="1" stroke-width="3.2"/>
<circle clip-path="url(#clip052)" cx="1194.31" cy="1304.95" r="7.2" fill="#0000ff" fill-rule="evenodd" fill-opacity="1" stroke="#000000" stroke-opacity="1" stroke-width="3.2"/>
<circle clip-path="url(#clip052)" cx="1110.49" cy="1303.24" r="7.2" fill="#0000ff" fill-rule="evenodd" fill-opacity="1" stroke="#000000" stroke-opacity="1" stroke-width="3.2"/>
<circle clip-path="url(#clip052)" cx="1529.68" cy="1381.66" r="7.2" fill="#0000ff" fill-rule="evenodd" fill-opacity="1" stroke="#000000" stroke-opacity="1" stroke-width="3.2"/>
<circle clip-path="url(#clip052)" cx="1445.84" cy="1383.38" r="7.2" fill="#0000ff" fill-rule="evenodd" fill-opacity="1" stroke="#000000" stroke-opacity="1" stroke-width="3.2"/>
<circle clip-path="url(#clip052)" cx="1361.99" cy="1384.24" r="7.2" fill="#0000ff" fill-rule="evenodd" fill-opacity="1" stroke="#000000" stroke-opacity="1" stroke-width="3.2"/>
<circle clip-path="url(#clip052)" cx="1278.13" cy="1384.24" r="7.2" fill="#0000ff" fill-rule="evenodd" fill-opacity="1" stroke="#000000" stroke-opacity="1" stroke-width="3.2"/>
<circle clip-path="url(#clip052)" cx="1194.28" cy="1383.38" r="7.2" fill="#0000ff" fill-rule="evenodd" fill-opacity="1" stroke="#000000" stroke-opacity="1" stroke-width="3.2"/>
<circle clip-path="url(#clip052)" cx="1110.44" cy="1381.66" r="7.2" fill="#0000ff" fill-rule="evenodd" fill-opacity="1" stroke="#000000" stroke-opacity="1" stroke-width="3.2"/>
</svg>
