<?xml version="1.0" encoding="utf-8"?>
<svg xmlns="http://www.w3.org/2000/svg" xmlns:xlink="http://www.w3.org/1999/xlink" width="600" height="400" viewBox="0 0 2400 1600">
<defs>
  <clipPath id="clip230">
    <rect x="0" y="0" width="2400" height="1600"/>
  </clipPath>
</defs>
<path clip-path="url(#clip230)" d="M0 1600 L2400 1600 L2400 0 L0 0  Z" fill="#ffffff" fill-rule="evenodd" fill-opacity="1"/>
<defs>
  <clipPath id="clip231">
    <rect x="480" y="0" width="1681" height="1600"/>
  </clipPath>
</defs>
<path clip-path="url(#clip230)" d="M210.746 1423.18 L2352.76 1423.18 L2352.76 123.472 L210.746 123.472  Z" fill="#ffffff" fill-rule="evenodd" fill-opacity="1"/>
<defs>
  <clipPath id="clip232">
    <rect x="210" y="123" width="2143" height="1301"/>
  </clipPath>
</defs>
<polyline clip-path="url(#clip232)" style="stroke:#000000; stroke-linecap:round; stroke-linejoin:round; stroke-width:2; stroke-opacity:0.1; fill:none" points="390,1423.18 390,123.472 "/>
<polyline clip-path="url(#clip232)" style="stroke:#000000; stroke-linecap:round; stroke-linejoin:round; stroke-width:2; stroke-opacity:0.1; fill:none" points="835.876,1423.18 835.876,123.472 "/>
<polyline clip-path="url(#clip232)" style="stroke:#000000; stroke-linecap:round; stroke-linejoin:round; stroke-width:2; stroke-opacity:0.1; fill:none" points="1281.75,1423.18 1281.75,123.472 "/>
<polyline clip-path="url(#clip232)" style="stroke:#000000; stroke-linecap:round; stroke-linejoin:round; stroke-width:2; stroke-opacity:0.1; fill:none" points="1727.63,1423.18 1727.63,123.472 "/>
<polyline clip-path="url(#clip232)" style="stroke:#000000; stroke-linecap:round; stroke-linejoin:round; stroke-width:2; stroke-opacity:0.1; fill:none" points="2173.5,1423.18 2173.5,123.472 "/>
<polyline clip-path="url(#clip232)" style="stroke:#000000; stroke-linecap:round; stroke-linejoin:round; stroke-width:2; stroke-opacity:0.1; fill:none" points="210.746,1356.84 2352.76,1356.84 "/>
<polyline clip-path="url(#clip232)" style="stroke:#000000; stroke-linecap:round; stroke-linejoin:round; stroke-width:2; stroke-opacity:0.1; fill:none" points="210.746,1178.49 2352.76,1178.49 "/>
<polyline clip-path="url(#clip232)" style="stroke:#000000; stroke-linecap:round; stroke-linejoin:round; stroke-width:2; stroke-opacity:0.1; fill:none" points="210.746,1000.14 2352.76,1000.14 "/>
<polyline clip-path="url(#clip232)" style="stroke:#000000; stroke-linecap:round; stroke-linejoin:round; stroke-width:2; stroke-opacity:0.1; fill:none" points="210.746,821.789 2352.76,821.789 "/>
<polyline clip-path="url(#clip232)" style="stroke:#000000; stroke-linecap:round; stroke-linejoin:round; stroke-width:2; stroke-opacity:0.1; fill:none" points="210.746,643.439 2352.76,643.439 "/>
<polyline clip-path="url(#clip232)" style="stroke:#000000; stroke-linecap:round; stroke-linejoin:round; stroke-width:2; stroke-opacity:0.1; fill:none" points="210.746,465.089 2352.76,465.089 "/>
<polyline clip-path="url(#clip232)" style="stroke:#000000; stroke-linecap:round; stroke-linejoin:round; stroke-width:2; stroke-opacity:0.1; fill:none" points="210.746,286.739 2352.76,286.739 "/>
<polyline clip-path="url(#clip230)" style="stroke:#000000; stroke-linecap:round; stroke-linejoin:round; stroke-width:4; stroke-opacity:1; fill:none" points="210.746,1423.18 2352.76,1423.18 "/>
<polyline clip-path="url(#clip230)" style="stroke:#000000; stroke-linecap:round; stroke-linejoin:round; stroke-width:4; stroke-opacity:1; fill:none" points="390,1423.18 390,1404.28 "/>
<polyline clip-path="url(#clip230)" style="stroke:#000000; stroke-linecap:round; stroke-linejoin:round; stroke-width:4; stroke-opacity:1; fill:none" points="835.876,1423.18 835.876,1404.28 "/>
<polyline clip-path="url(#clip230)" style="stroke:#000000; stroke-linecap:round; stroke-linejoin:round; stroke-width:4; stroke-opacity:1; fill:none" points="1281.75,1423.18 1281.75,1404.28 "/>
<polyline clip-path="url(#clip230)" style="stroke:#000000; stroke-linecap:round; stroke-linejoin:round; stroke-width:4; stroke-opacity:1; fill:none" points="1727.63,1423.18 1727.63,1404.28 "/>
<polyline clip-path="url(#clip230)" style="stroke:#000000; stroke-linecap:round; stroke-linejoin:round; stroke-width:4; stroke-opacity:1; fill:none" points="2173.5,1423.18 2173.5,1404.28 "/>
<path clip-path="url(#clip230)" d="M336.528 1468.75 L366.204 1468.75 L366.204 1472.69 L336.528 1472.69 L336.528 1468.75 Z" fill="#000000" fill-rule="nonzero" fill-opacity="1" /><path clip-path="url(#clip230)" d="M376.343 1451.02 L394.699 1451.02 L394.699 1454.96 L380.625 1454.96 L380.625 1463.43 Q381.644 1463.08 382.662 1462.92 Q383.681 1462.73 384.699 1462.73 Q390.486 1462.73 393.866 1465.9 Q397.246 1469.08 397.246 1474.49 Q397.246 1480.07 393.773 1483.17 Q390.301 1486.25 383.982 1486.25 Q381.806 1486.25 379.537 1485.88 Q377.292 1485.51 374.885 1484.77 L374.885 1480.07 Q376.968 1481.2 379.19 1481.76 Q381.412 1482.32 383.889 1482.32 Q387.894 1482.32 390.232 1480.21 Q392.57 1478.1 392.57 1474.49 Q392.57 1470.88 390.232 1468.77 Q387.894 1466.67 383.889 1466.67 Q382.014 1466.67 380.139 1467.08 Q378.287 1467.5 376.343 1468.38 L376.343 1451.02 Z" fill="#000000" fill-rule="nonzero" fill-opacity="1" /><path clip-path="url(#clip230)" d="M406.459 1479.7 L411.343 1479.7 L411.343 1485.58 L406.459 1485.58 L406.459 1479.7 Z" fill="#000000" fill-rule="nonzero" fill-opacity="1" /><path clip-path="url(#clip230)" d="M431.528 1454.1 Q427.917 1454.1 426.088 1457.66 Q424.283 1461.2 424.283 1468.33 Q424.283 1475.44 426.088 1479.01 Q427.917 1482.55 431.528 1482.55 Q435.162 1482.55 436.968 1479.01 Q438.796 1475.44 438.796 1468.33 Q438.796 1461.2 436.968 1457.66 Q435.162 1454.1 431.528 1454.1 M431.528 1450.39 Q437.338 1450.39 440.394 1455 Q443.472 1459.58 443.472 1468.33 Q443.472 1477.06 440.394 1481.67 Q437.338 1486.25 431.528 1486.25 Q425.718 1486.25 422.639 1481.67 Q419.583 1477.06 419.583 1468.33 Q419.583 1459.58 422.639 1455 Q425.718 1450.39 431.528 1450.39 Z" fill="#000000" fill-rule="nonzero" fill-opacity="1" /><path clip-path="url(#clip230)" d="M782.901 1468.75 L812.577 1468.75 L812.577 1472.69 L782.901 1472.69 L782.901 1468.75 Z" fill="#000000" fill-rule="nonzero" fill-opacity="1" /><path clip-path="url(#clip230)" d="M826.697 1481.64 L843.017 1481.64 L843.017 1485.58 L821.072 1485.58 L821.072 1481.64 Q823.734 1478.89 828.318 1474.26 Q832.924 1469.61 834.105 1468.27 Q836.35 1465.74 837.23 1464.01 Q838.133 1462.25 838.133 1460.56 Q838.133 1457.8 836.188 1456.07 Q834.267 1454.33 831.165 1454.33 Q828.966 1454.33 826.512 1455.09 Q824.082 1455.86 821.304 1457.41 L821.304 1452.69 Q824.128 1451.55 826.582 1450.97 Q829.035 1450.39 831.072 1450.39 Q836.443 1450.39 839.637 1453.08 Q842.832 1455.77 842.832 1460.26 Q842.832 1462.39 842.021 1464.31 Q841.234 1466.2 839.128 1468.8 Q838.549 1469.47 835.447 1472.69 Q832.346 1475.88 826.697 1481.64 Z" fill="#000000" fill-rule="nonzero" fill-opacity="1" /><path clip-path="url(#clip230)" d="M852.832 1479.7 L857.716 1479.7 L857.716 1485.58 L852.832 1485.58 L852.832 1479.7 Z" fill="#000000" fill-rule="nonzero" fill-opacity="1" /><path clip-path="url(#clip230)" d="M867.947 1451.02 L886.304 1451.02 L886.304 1454.96 L872.23 1454.96 L872.23 1463.43 Q873.248 1463.08 874.267 1462.92 Q875.285 1462.73 876.304 1462.73 Q882.091 1462.73 885.47 1465.9 Q888.85 1469.08 888.85 1474.49 Q888.85 1480.07 885.378 1483.17 Q881.905 1486.25 875.586 1486.25 Q873.41 1486.25 871.142 1485.88 Q868.896 1485.51 866.489 1484.77 L866.489 1480.07 Q868.572 1481.2 870.794 1481.76 Q873.017 1482.32 875.493 1482.32 Q879.498 1482.32 881.836 1480.21 Q884.174 1478.1 884.174 1474.49 Q884.174 1470.88 881.836 1468.77 Q879.498 1466.67 875.493 1466.67 Q873.618 1466.67 871.743 1467.08 Q869.892 1467.5 867.947 1468.38 L867.947 1451.02 Z" fill="#000000" fill-rule="nonzero" fill-opacity="1" /><path clip-path="url(#clip230)" d="M1259.14 1454.1 Q1255.52 1454.1 1253.7 1457.66 Q1251.89 1461.2 1251.89 1468.33 Q1251.89 1475.44 1253.7 1479.01 Q1255.52 1482.55 1259.14 1482.55 Q1262.77 1482.55 1264.58 1479.01 Q1266.4 1475.44 1266.4 1468.33 Q1266.4 1461.2 1264.58 1457.66 Q1262.77 1454.1 1259.14 1454.1 M1259.14 1450.39 Q1264.95 1450.39 1268 1455 Q1271.08 1459.58 1271.08 1468.33 Q1271.08 1477.06 1268 1481.67 Q1264.95 1486.25 1259.14 1486.25 Q1253.33 1486.25 1250.25 1481.67 Q1247.19 1477.06 1247.19 1468.33 Q1247.19 1459.58 1250.25 1455 Q1253.33 1450.39 1259.14 1450.39 Z" fill="#000000" fill-rule="nonzero" fill-opacity="1" /><path clip-path="url(#clip230)" d="M1279.3 1479.7 L1284.18 1479.7 L1284.18 1485.58 L1279.3 1485.58 L1279.3 1479.7 Z" fill="#000000" fill-rule="nonzero" fill-opacity="1" /><path clip-path="url(#clip230)" d="M1304.37 1454.1 Q1300.76 1454.1 1298.93 1457.66 Q1297.12 1461.2 1297.12 1468.33 Q1297.12 1475.44 1298.93 1479.01 Q1300.76 1482.55 1304.37 1482.55 Q1308 1482.55 1309.81 1479.01 Q1311.64 1475.44 1311.64 1468.33 Q1311.64 1461.2 1309.81 1457.66 Q1308 1454.1 1304.37 1454.1 M1304.37 1450.39 Q1310.18 1450.39 1313.23 1455 Q1316.31 1459.58 1316.31 1468.33 Q1316.31 1477.06 1313.23 1481.67 Q1310.18 1486.25 1304.37 1486.25 Q1298.56 1486.25 1295.48 1481.67 Q1292.42 1477.06 1292.42 1468.33 Q1292.42 1459.58 1295.48 1455 Q1298.56 1450.39 1304.37 1450.39 Z" fill="#000000" fill-rule="nonzero" fill-opacity="1" /><path clip-path="url(#clip230)" d="M1699.36 1481.64 L1715.68 1481.64 L1715.68 1485.58 L1693.74 1485.58 L1693.74 1481.64 Q1696.4 1478.89 1700.98 1474.26 Q1705.59 1469.61 1706.77 1468.27 Q1709.02 1465.74 1709.89 1464.01 Q1710.8 1462.25 1710.8 1460.56 Q1710.8 1457.8 1708.85 1456.07 Q1706.93 1454.33 1703.83 1454.33 Q1701.63 1454.33 1699.18 1455.09 Q1696.75 1455.86 1693.97 1457.41 L1693.97 1452.69 Q1696.79 1451.55 1699.25 1450.97 Q1701.7 1450.39 1703.74 1450.39 Q1709.11 1450.39 1712.3 1453.08 Q1715.5 1455.77 1715.5 1460.26 Q1715.5 1462.39 1714.69 1464.31 Q1713.9 1466.2 1711.79 1468.8 Q1711.21 1469.47 1708.11 1472.69 Q1705.01 1475.88 1699.36 1481.64 Z" fill="#000000" fill-rule="nonzero" fill-opacity="1" /><path clip-path="url(#clip230)" d="M1725.5 1479.7 L1730.38 1479.7 L1730.38 1485.58 L1725.5 1485.58 L1725.5 1479.7 Z" fill="#000000" fill-rule="nonzero" fill-opacity="1" /><path clip-path="url(#clip230)" d="M1740.61 1451.02 L1758.97 1451.02 L1758.97 1454.96 L1744.89 1454.96 L1744.89 1463.43 Q1745.91 1463.08 1746.93 1462.92 Q1747.95 1462.73 1748.97 1462.73 Q1754.76 1462.73 1758.14 1465.9 Q1761.51 1469.08 1761.51 1474.49 Q1761.51 1480.07 1758.04 1483.17 Q1754.57 1486.25 1748.25 1486.25 Q1746.08 1486.25 1743.81 1485.88 Q1741.56 1485.51 1739.15 1484.77 L1739.15 1480.07 Q1741.24 1481.2 1743.46 1481.76 Q1745.68 1482.32 1748.16 1482.32 Q1752.16 1482.32 1754.5 1480.21 Q1756.84 1478.1 1756.84 1474.49 Q1756.84 1470.88 1754.5 1468.77 Q1752.16 1466.67 1748.16 1466.67 Q1746.28 1466.67 1744.41 1467.08 Q1742.56 1467.5 1740.61 1468.38 L1740.61 1451.02 Z" fill="#000000" fill-rule="nonzero" fill-opacity="1" /><path clip-path="url(#clip230)" d="M2140.67 1451.02 L2159.02 1451.02 L2159.02 1454.96 L2144.95 1454.96 L2144.95 1463.43 Q2145.97 1463.08 2146.99 1462.92 Q2148 1462.73 2149.02 1462.73 Q2154.81 1462.73 2158.19 1465.9 Q2161.57 1469.08 2161.57 1474.49 Q2161.57 1480.07 2158.1 1483.17 Q2154.62 1486.25 2148.3 1486.25 Q2146.13 1486.25 2143.86 1485.88 Q2141.62 1485.51 2139.21 1484.77 L2139.21 1480.07 Q2141.29 1481.2 2143.51 1481.76 Q2145.74 1482.32 2148.21 1482.32 Q2152.22 1482.32 2154.55 1480.21 Q2156.89 1478.1 2156.89 1474.49 Q2156.89 1470.88 2154.55 1468.77 Q2152.22 1466.67 2148.21 1466.67 Q2146.34 1466.67 2144.46 1467.08 Q2142.61 1467.5 2140.67 1468.38 L2140.67 1451.02 Z" fill="#000000" fill-rule="nonzero" fill-opacity="1" /><path clip-path="url(#clip230)" d="M2170.78 1479.7 L2175.67 1479.7 L2175.67 1485.58 L2170.78 1485.58 L2170.78 1479.7 Z" fill="#000000" fill-rule="nonzero" fill-opacity="1" /><path clip-path="url(#clip230)" d="M2195.85 1454.1 Q2192.24 1454.1 2190.41 1457.66 Q2188.61 1461.2 2188.61 1468.33 Q2188.61 1475.44 2190.41 1479.01 Q2192.24 1482.55 2195.85 1482.55 Q2199.49 1482.55 2201.29 1479.01 Q2203.12 1475.44 2203.12 1468.33 Q2203.12 1461.2 2201.29 1457.66 Q2199.49 1454.1 2195.85 1454.1 M2195.85 1450.39 Q2201.66 1450.39 2204.72 1455 Q2207.8 1459.58 2207.8 1468.33 Q2207.8 1477.06 2204.72 1481.67 Q2201.66 1486.25 2195.85 1486.25 Q2190.04 1486.25 2186.96 1481.67 Q2183.91 1477.06 2183.91 1468.33 Q2183.91 1459.58 2186.96 1455 Q2190.04 1450.39 2195.85 1450.39 Z" fill="#000000" fill-rule="nonzero" fill-opacity="1" /><path clip-path="url(#clip230)" d="M1298.37 1532.4 L1285.47 1549.74 L1299.03 1568.04 L1292.13 1568.04 L1281.75 1554.04 L1271.37 1568.04 L1264.47 1568.04 L1278.31 1549.39 L1265.65 1532.4 L1272.55 1532.4 L1282.01 1545.1 L1291.46 1532.4 L1298.37 1532.4 Z" fill="#000000" fill-rule="nonzero" fill-opacity="1" /><polyline clip-path="url(#clip230)" style="stroke:#000000; stroke-linecap:round; stroke-linejoin:round; stroke-width:4; stroke-opacity:1; fill:none" points="210.746,1423.18 210.746,123.472 "/>
<polyline clip-path="url(#clip230)" style="stroke:#000000; stroke-linecap:round; stroke-linejoin:round; stroke-width:4; stroke-opacity:1; fill:none" points="210.746,1356.84 229.644,1356.84 "/>
<polyline clip-path="url(#clip230)" style="stroke:#000000; stroke-linecap:round; stroke-linejoin:round; stroke-width:4; stroke-opacity:1; fill:none" points="210.746,1178.49 229.644,1178.49 "/>
<polyline clip-path="url(#clip230)" style="stroke:#000000; stroke-linecap:round; stroke-linejoin:round; stroke-width:4; stroke-opacity:1; fill:none" points="210.746,1000.14 229.644,1000.14 "/>
<polyline clip-path="url(#clip230)" style="stroke:#000000; stroke-linecap:round; stroke-linejoin:round; stroke-width:4; stroke-opacity:1; fill:none" points="210.746,821.789 229.644,821.789 "/>
<polyline clip-path="url(#clip230)" style="stroke:#000000; stroke-linecap:round; stroke-linejoin:round; stroke-width:4; stroke-opacity:1; fill:none" points="210.746,643.439 229.644,643.439 "/>
<polyline clip-path="url(#clip230)" style="stroke:#000000; stroke-linecap:round; stroke-linejoin:round; stroke-width:4; stroke-opacity:1; fill:none" points="210.746,465.089 229.644,465.089 "/>
<polyline clip-path="url(#clip230)" style="stroke:#000000; stroke-linecap:round; stroke-linejoin:round; stroke-width:4; stroke-opacity:1; fill:none" points="210.746,286.739 229.644,286.739 "/>
<path clip-path="url(#clip230)" d="M114.26 1357.29 L143.936 1357.29 L143.936 1361.23 L114.26 1361.23 L114.26 1357.29 Z" fill="#000000" fill-rule="nonzero" fill-opacity="1" /><path clip-path="url(#clip230)" d="M154.839 1370.18 L162.477 1370.18 L162.477 1343.82 L154.167 1345.49 L154.167 1341.23 L162.431 1339.56 L167.107 1339.56 L167.107 1370.18 L174.746 1370.18 L174.746 1374.12 L154.839 1374.12 L154.839 1370.18 Z" fill="#000000" fill-rule="nonzero" fill-opacity="1" /><path clip-path="url(#clip230)" d="M162.802 1164.29 Q159.19 1164.29 157.362 1167.85 Q155.556 1171.39 155.556 1178.52 Q155.556 1185.63 157.362 1189.2 Q159.19 1192.74 162.802 1192.74 Q166.436 1192.74 168.241 1189.2 Q170.07 1185.63 170.07 1178.52 Q170.07 1171.39 168.241 1167.85 Q166.436 1164.29 162.802 1164.29 M162.802 1160.58 Q168.612 1160.58 171.667 1165.19 Q174.746 1169.77 174.746 1178.52 Q174.746 1187.25 171.667 1191.86 Q168.612 1196.44 162.802 1196.44 Q156.991 1196.44 153.913 1191.86 Q150.857 1187.25 150.857 1178.52 Q150.857 1169.77 153.913 1165.19 Q156.991 1160.58 162.802 1160.58 Z" fill="#000000" fill-rule="nonzero" fill-opacity="1" /><path clip-path="url(#clip230)" d="M154.839 1013.48 L162.477 1013.48 L162.477 987.119 L154.167 988.785 L154.167 984.526 L162.431 982.859 L167.107 982.859 L167.107 1013.48 L174.746 1013.48 L174.746 1017.42 L154.839 1017.42 L154.839 1013.48 Z" fill="#000000" fill-rule="nonzero" fill-opacity="1" /><path clip-path="url(#clip230)" d="M158.427 835.134 L174.746 835.134 L174.746 839.069 L152.802 839.069 L152.802 835.134 Q155.464 832.379 160.047 827.75 Q164.653 823.097 165.834 821.754 Q168.079 819.231 168.959 817.495 Q169.862 815.736 169.862 814.046 Q169.862 811.292 167.917 809.555 Q165.996 807.819 162.894 807.819 Q160.695 807.819 158.241 808.583 Q155.811 809.347 153.033 810.898 L153.033 806.176 Q155.857 805.042 158.311 804.463 Q160.765 803.884 162.802 803.884 Q168.172 803.884 171.366 806.569 Q174.561 809.255 174.561 813.745 Q174.561 815.875 173.751 817.796 Q172.964 819.694 170.857 822.287 Q170.278 822.958 167.177 826.176 Q164.075 829.37 158.427 835.134 Z" fill="#000000" fill-rule="nonzero" fill-opacity="1" /><path clip-path="url(#clip230)" d="M167.616 642.085 Q170.973 642.802 172.848 645.071 Q174.746 647.339 174.746 650.673 Q174.746 655.789 171.227 658.589 Q167.709 661.39 161.227 661.39 Q159.052 661.39 156.737 660.951 Q154.445 660.534 151.991 659.677 L151.991 655.164 Q153.936 656.298 156.251 656.876 Q158.565 657.455 161.089 657.455 Q165.487 657.455 167.778 655.719 Q170.093 653.983 170.093 650.673 Q170.093 647.617 167.94 645.904 Q165.811 644.168 161.991 644.168 L157.964 644.168 L157.964 640.326 L162.177 640.326 Q165.626 640.326 167.454 638.96 Q169.283 637.571 169.283 634.978 Q169.283 632.316 167.385 630.904 Q165.51 629.469 161.991 629.469 Q160.07 629.469 157.871 629.886 Q155.672 630.303 153.033 631.182 L153.033 627.016 Q155.695 626.275 158.01 625.904 Q160.348 625.534 162.408 625.534 Q167.732 625.534 170.834 627.965 Q173.936 630.372 173.936 634.492 Q173.936 637.363 172.292 639.353 Q170.649 641.321 167.616 642.085 Z" fill="#000000" fill-rule="nonzero" fill-opacity="1" /><path clip-path="url(#clip230)" d="M165.163 451.883 L153.357 470.332 L165.163 470.332 L165.163 451.883 M163.936 447.809 L169.815 447.809 L169.815 470.332 L174.746 470.332 L174.746 474.221 L169.815 474.221 L169.815 482.369 L165.163 482.369 L165.163 474.221 L149.561 474.221 L149.561 469.707 L163.936 447.809 Z" fill="#000000" fill-rule="nonzero" fill-opacity="1" /><path clip-path="url(#clip230)" d="M153.843 269.459 L172.2 269.459 L172.2 273.394 L158.126 273.394 L158.126 281.866 Q159.144 281.519 160.163 281.357 Q161.181 281.172 162.2 281.172 Q167.987 281.172 171.366 284.343 Q174.746 287.514 174.746 292.931 Q174.746 298.51 171.274 301.611 Q167.802 304.69 161.482 304.69 Q159.306 304.69 157.038 304.32 Q154.792 303.949 152.385 303.209 L152.385 298.51 Q154.468 299.644 156.69 300.199 Q158.913 300.755 161.39 300.755 Q165.394 300.755 167.732 298.648 Q170.07 296.542 170.07 292.931 Q170.07 289.32 167.732 287.213 Q165.394 285.107 161.39 285.107 Q159.515 285.107 157.64 285.524 Q155.788 285.94 153.843 286.82 L153.843 269.459 Z" fill="#000000" fill-rule="nonzero" fill-opacity="1" /><path clip-path="url(#clip230)" d="M67.3143 771.639 Q73.68 774.122 75.6216 776.477 Q77.5631 778.832 77.5631 782.779 L77.5631 787.458 L72.6615 787.458 L72.6615 784.02 Q72.6615 781.601 71.5157 780.265 Q70.3699 778.928 66.1048 777.305 L63.4312 776.254 L28.3562 790.673 L28.3562 784.466 L56.238 773.326 L28.3562 762.186 L28.3562 755.979 L67.3143 771.639 Z" fill="#000000" fill-rule="nonzero" fill-opacity="1" /><path clip-path="url(#clip230)" d="M960.919 49.9314 Q960.919 41.7081 957.517 37.0496 Q954.154 32.3505 948.24 32.3505 Q942.326 32.3505 938.923 37.0496 Q935.561 41.7081 935.561 49.9314 Q935.561 58.1548 938.923 62.8538 Q942.326 67.5124 948.24 67.5124 Q954.154 67.5124 957.517 62.8538 Q960.919 58.1548 960.919 49.9314 M935.561 34.0924 Q937.91 30.0415 941.475 28.0971 Q945.08 26.1121 950.063 26.1121 Q958.327 26.1121 963.471 32.6746 Q968.657 39.2371 968.657 49.9314 Q968.657 60.6258 963.471 67.1883 Q958.327 73.7508 950.063 73.7508 Q945.08 73.7508 941.475 71.8063 Q937.91 69.8214 935.561 65.7705 L935.561 72.576 L928.066 72.576 L928.066 9.54393 L935.561 9.54393 L935.561 34.0924 Z" fill="#000000" fill-rule="nonzero" fill-opacity="1" /><path clip-path="url(#clip230)" d="M1007.3 34.1734 Q1006.05 33.4443 1004.55 33.1202 Q1003.09 32.7556 1001.31 32.7556 Q994.987 32.7556 991.585 36.8875 Q988.222 40.9789 988.222 48.6757 L988.222 72.576 L980.728 72.576 L980.728 27.2059 L988.222 27.2059 L988.222 34.2544 Q990.572 30.1225 994.339 28.1376 Q998.107 26.1121 1003.49 26.1121 Q1004.26 26.1121 1005.2 26.2337 Q1006.13 26.3147 1007.26 26.5172 L1007.3 34.1734 Z" fill="#000000" fill-rule="nonzero" fill-opacity="1" /><path clip-path="url(#clip230)" d="M1030.88 32.4315 Q1024.88 32.4315 1021.4 37.1306 Q1017.92 41.7891 1017.92 49.9314 Q1017.92 58.0738 1021.36 62.7728 Q1024.84 67.4314 1030.88 67.4314 Q1036.83 67.4314 1040.32 62.7323 Q1043.8 58.0333 1043.8 49.9314 Q1043.8 41.8701 1040.32 37.1711 Q1036.83 32.4315 1030.88 32.4315 M1030.88 26.1121 Q1040.6 26.1121 1046.15 32.4315 Q1051.7 38.7509 1051.7 49.9314 Q1051.7 61.0714 1046.15 67.4314 Q1040.6 73.7508 1030.88 73.7508 Q1021.12 73.7508 1015.57 67.4314 Q1010.06 61.0714 1010.06 49.9314 Q1010.06 38.7509 1015.57 32.4315 Q1021.12 26.1121 1030.88 26.1121 Z" fill="#000000" fill-rule="nonzero" fill-opacity="1" /><path clip-path="url(#clip230)" d="M1063.77 9.54393 L1071.27 9.54393 L1071.27 46.7717 L1093.51 27.2059 L1103.03 27.2059 L1078.96 48.4326 L1104.04 72.576 L1094.32 72.576 L1071.27 50.4176 L1071.27 72.576 L1063.77 72.576 L1063.77 9.54393 Z" fill="#000000" fill-rule="nonzero" fill-opacity="1" /><path clip-path="url(#clip230)" d="M1147.95 48.0275 L1147.95 51.6733 L1113.68 51.6733 Q1114.17 59.3701 1118.3 63.421 Q1122.47 67.4314 1129.88 67.4314 Q1134.18 67.4314 1138.19 66.3781 Q1142.24 65.3249 1146.21 63.2184 L1146.21 70.267 Q1142.2 71.9684 1137.98 72.8596 Q1133.77 73.7508 1129.44 73.7508 Q1118.58 73.7508 1112.22 67.4314 Q1105.9 61.1119 1105.9 50.3365 Q1105.9 39.1965 1111.9 32.6746 Q1117.93 26.1121 1128.14 26.1121 Q1137.3 26.1121 1142.6 32.0264 Q1147.95 37.9003 1147.95 48.0275 M1140.5 45.84 Q1140.41 39.7232 1137.05 36.0774 Q1133.73 32.4315 1128.22 32.4315 Q1121.98 32.4315 1118.22 35.9558 Q1114.49 39.4801 1113.92 45.8805 L1140.5 45.84 Z" fill="#000000" fill-rule="nonzero" fill-opacity="1" /><path clip-path="url(#clip230)" d="M1193.93 14.324 L1193.93 27.2059 L1209.28 27.2059 L1209.28 32.9987 L1193.93 32.9987 L1193.93 57.6282 Q1193.93 63.1779 1195.43 64.7578 Q1196.97 66.3376 1201.62 66.3376 L1209.28 66.3376 L1209.28 72.576 L1201.62 72.576 Q1193 72.576 1189.71 69.3758 Q1186.43 66.1351 1186.43 57.6282 L1186.43 32.9987 L1180.96 32.9987 L1180.96 27.2059 L1186.43 27.2059 L1186.43 14.324 L1193.93 14.324 Z" fill="#000000" fill-rule="nonzero" fill-opacity="1" /><path clip-path="url(#clip230)" d="M1256.8 45.1919 L1256.8 72.576 L1249.34 72.576 L1249.34 45.4349 Q1249.34 38.994 1246.83 35.7938 Q1244.32 32.5936 1239.3 32.5936 Q1233.26 32.5936 1229.78 36.4419 Q1226.29 40.2903 1226.29 46.9338 L1226.29 72.576 L1218.8 72.576 L1218.8 9.54393 L1226.29 9.54393 L1226.29 34.2544 Q1228.97 30.163 1232.57 28.1376 Q1236.22 26.1121 1240.96 26.1121 Q1248.78 26.1121 1252.79 30.9732 Q1256.8 35.7938 1256.8 45.1919 Z" fill="#000000" fill-rule="nonzero" fill-opacity="1" /><path clip-path="url(#clip230)" d="M1310.47 48.0275 L1310.47 51.6733 L1276.2 51.6733 Q1276.69 59.3701 1280.82 63.421 Q1284.99 67.4314 1292.4 67.4314 Q1296.7 67.4314 1300.71 66.3781 Q1304.76 65.3249 1308.73 63.2184 L1308.73 70.267 Q1304.72 71.9684 1300.51 72.8596 Q1296.29 73.7508 1291.96 73.7508 Q1281.1 73.7508 1274.74 67.4314 Q1268.42 61.1119 1268.42 50.3365 Q1268.42 39.1965 1274.42 32.6746 Q1280.45 26.1121 1290.66 26.1121 Q1299.82 26.1121 1305.12 32.0264 Q1310.47 37.9003 1310.47 48.0275 M1303.02 45.84 Q1302.94 39.7232 1299.57 36.0774 Q1296.25 32.4315 1290.74 32.4315 Q1284.51 32.4315 1280.74 35.9558 Q1277.01 39.4801 1276.44 45.8805 L1303.02 45.84 Z" fill="#000000" fill-rule="nonzero" fill-opacity="1" /><path clip-path="url(#clip230)" d="M1356.45 14.324 L1356.45 27.2059 L1371.8 27.2059 L1371.8 32.9987 L1356.45 32.9987 L1356.45 57.6282 Q1356.45 63.1779 1357.95 64.7578 Q1359.49 66.3376 1364.15 66.3376 L1371.8 66.3376 L1371.8 72.576 L1364.15 72.576 Q1355.52 72.576 1352.24 69.3758 Q1348.96 66.1351 1348.96 57.6282 L1348.96 32.9987 L1343.49 32.9987 L1343.49 27.2059 L1348.96 27.2059 L1348.96 14.324 L1356.45 14.324 Z" fill="#000000" fill-rule="nonzero" fill-opacity="1" /><path clip-path="url(#clip230)" d="M1407.9 34.1734 Q1406.64 33.4443 1405.14 33.1202 Q1403.68 32.7556 1401.9 32.7556 Q1395.58 32.7556 1392.18 36.8875 Q1388.82 40.9789 1388.82 48.6757 L1388.82 72.576 L1381.32 72.576 L1381.32 27.2059 L1388.82 27.2059 L1388.82 34.2544 Q1391.17 30.1225 1394.93 28.1376 Q1398.7 26.1121 1404.09 26.1121 Q1404.86 26.1121 1405.79 26.2337 Q1406.72 26.3147 1407.86 26.5172 L1407.9 34.1734 Z" fill="#000000" fill-rule="nonzero" fill-opacity="1" /><path clip-path="url(#clip230)" d="M1436.33 49.7694 Q1427.3 49.7694 1423.82 51.8354 Q1420.33 53.9013 1420.33 58.8839 Q1420.33 62.8538 1422.92 65.2034 Q1425.56 67.5124 1430.05 67.5124 Q1436.25 67.5124 1439.98 63.1374 Q1443.75 58.7219 1443.75 51.4303 L1443.75 49.7694 L1436.33 49.7694 M1451.2 46.6907 L1451.2 72.576 L1443.75 72.576 L1443.75 65.6895 Q1441.19 69.8214 1437.39 71.8063 Q1433.58 73.7508 1428.07 73.7508 Q1421.1 73.7508 1416.97 69.8619 Q1412.88 65.9325 1412.88 59.3701 Q1412.88 51.7138 1417.98 47.825 Q1423.13 43.9361 1433.3 43.9361 L1443.75 43.9361 L1443.75 43.2069 Q1443.75 38.0623 1440.34 35.2672 Q1436.98 32.4315 1430.86 32.4315 Q1426.98 32.4315 1423.29 33.3632 Q1419.6 34.295 1416.2 36.1584 L1416.2 29.2718 Q1420.29 27.692 1424.14 26.9223 Q1427.99 26.1121 1431.63 26.1121 Q1441.48 26.1121 1446.34 31.2163 Q1451.2 36.3204 1451.2 46.6907 Z" fill="#000000" fill-rule="nonzero" fill-opacity="1" /><path clip-path="url(#clip230)" d="M1499.2 28.9478 L1499.2 35.9153 Q1496.04 34.1734 1492.84 33.3227 Q1489.68 32.4315 1486.44 32.4315 Q1479.19 32.4315 1475.18 37.0496 Q1471.17 41.6271 1471.17 49.9314 Q1471.17 58.2358 1475.18 62.8538 Q1479.19 67.4314 1486.44 67.4314 Q1489.68 67.4314 1492.84 66.5807 Q1496.04 65.6895 1499.2 63.9476 L1499.2 70.8341 Q1496.08 72.2924 1492.72 73.0216 Q1489.4 73.7508 1485.63 73.7508 Q1475.38 73.7508 1469.35 67.3098 Q1463.31 60.8689 1463.31 49.9314 Q1463.31 38.832 1469.39 32.472 Q1475.51 26.1121 1486.12 26.1121 Q1489.56 26.1121 1492.84 26.8413 Q1496.12 27.5299 1499.2 28.9478 Z" fill="#000000" fill-rule="nonzero" fill-opacity="1" /><path clip-path="url(#clip230)" d="M1550.97 48.0275 L1550.97 51.6733 L1516.7 51.6733 Q1517.19 59.3701 1521.32 63.421 Q1525.49 67.4314 1532.91 67.4314 Q1537.2 67.4314 1541.21 66.3781 Q1545.26 65.3249 1549.23 63.2184 L1549.23 70.267 Q1545.22 71.9684 1541.01 72.8596 Q1536.8 73.7508 1532.46 73.7508 Q1521.6 73.7508 1515.25 67.4314 Q1508.93 61.1119 1508.93 50.3365 Q1508.93 39.1965 1514.92 32.6746 Q1520.96 26.1121 1531.17 26.1121 Q1540.32 26.1121 1545.63 32.0264 Q1550.97 37.9003 1550.97 48.0275 M1543.52 45.84 Q1543.44 39.7232 1540.08 36.0774 Q1536.76 32.4315 1531.25 32.4315 Q1525.01 32.4315 1521.24 35.9558 Q1517.51 39.4801 1516.95 45.8805 L1543.52 45.84 Z" fill="#000000" fill-rule="nonzero" fill-opacity="1" /><path clip-path="url(#clip230)" d="M1591.48 62.2867 L1600.03 62.2867 L1600.03 72.576 L1591.48 72.576 L1591.48 62.2867 M1591.48 29.6769 L1600.03 29.6769 L1600.03 39.9662 L1591.48 39.9662 L1591.48 29.6769 Z" fill="#000000" fill-rule="nonzero" fill-opacity="1" /><path clip-path="url(#clip230)" d="M1635.44 9.62495 Q1630.01 18.942 1627.37 28.0566 Q1624.74 37.1711 1624.74 46.5287 Q1624.74 55.8863 1627.37 65.0818 Q1630.05 74.2369 1635.44 83.5134 L1628.95 83.5134 Q1622.88 73.9938 1619.84 64.7983 Q1616.84 55.6027 1616.84 46.5287 Q1616.84 37.4952 1619.84 28.3401 Q1622.84 19.1851 1628.95 9.62495 L1635.44 9.62495 Z" fill="#000000" fill-rule="nonzero" fill-opacity="1" /><circle clip-path="url(#clip232)" cx="1326.34" cy="1223.08" r="7.2" fill="#ff0000" fill-rule="evenodd" fill-opacity="1" stroke="#000000" stroke-opacity="1" stroke-width="3.2"/>
<circle clip-path="url(#clip232)" cx="1308.5" cy="1223.08" r="7.2" fill="#ff0000" fill-rule="evenodd" fill-opacity="1" stroke="#000000" stroke-opacity="1" stroke-width="3.2"/>
<circle clip-path="url(#clip232)" cx="1290.67" cy="1223.08" r="7.2" fill="#ff0000" fill-rule="evenodd" fill-opacity="1" stroke="#000000" stroke-opacity="1" stroke-width="3.2"/>
<circle clip-path="url(#clip232)" cx="1272.83" cy="1223.08" r="7.2" fill="#ff0000" fill-rule="evenodd" fill-opacity="1" stroke="#000000" stroke-opacity="1" stroke-width="3.2"/>
<circle clip-path="url(#clip232)" cx="1255" cy="1223.08" r="7.2" fill="#ff0000" fill-rule="evenodd" fill-opacity="1" stroke="#000000" stroke-opacity="1" stroke-width="3.2"/>
<circle clip-path="url(#clip232)" cx="1237.16" cy="1223.08" r="7.2" fill="#ff0000" fill-rule="evenodd" fill-opacity="1" stroke="#000000" stroke-opacity="1" stroke-width="3.2"/>
<circle clip-path="url(#clip232)" cx="1326.34" cy="1240.91" r="7.2" fill="#ff0000" fill-rule="evenodd" fill-opacity="1" stroke="#000000" stroke-opacity="1" stroke-width="3.2"/>
<circle clip-path="url(#clip232)" cx="1308.5" cy="1240.91" r="7.2" fill="#ff0000" fill-rule="evenodd" fill-opacity="1" stroke="#000000" stroke-opacity="1" stroke-width="3.2"/>
<circle clip-path="url(#clip232)" cx="1290.67" cy="1240.91" r="7.2" fill="#ff0000" fill-rule="evenodd" fill-opacity="1" stroke="#000000" stroke-opacity="1" stroke-width="3.2"/>
<circle clip-path="url(#clip232)" cx="1272.83" cy="1240.91" r="7.2" fill="#ff0000" fill-rule="evenodd" fill-opacity="1" stroke="#000000" stroke-opacity="1" stroke-width="3.2"/>
<circle clip-path="url(#clip232)" cx="1255" cy="1240.91" r="7.2" fill="#ff0000" fill-rule="evenodd" fill-opacity="1" stroke="#000000" stroke-opacity="1" stroke-width="3.2"/>
<circle clip-path="url(#clip232)" cx="1237.16" cy="1240.91" r="7.2" fill="#ff0000" fill-rule="evenodd" fill-opacity="1" stroke="#000000" stroke-opacity="1" stroke-width="3.2"/>
<circle clip-path="url(#clip232)" cx="1326.34" cy="1258.75" r="7.2" fill="#ff0000" fill-rule="evenodd" fill-opacity="1" stroke="#000000" stroke-opacity="1" stroke-width="3.2"/>
<circle clip-path="url(#clip232)" cx="1308.5" cy="1258.75" r="7.2" fill="#ff0000" fill-rule="evenodd" fill-opacity="1" stroke="#000000" stroke-opacity="1" stroke-width="3.2"/>
<circle clip-path="url(#clip232)" cx="1290.67" cy="1258.75" r="7.2" fill="#ff0000" fill-rule="evenodd" fill-opacity="1" stroke="#000000" stroke-opacity="1" stroke-width="3.2"/>
<circle clip-path="url(#clip232)" cx="1272.83" cy="1258.75" r="7.2" fill="#ff0000" fill-rule="evenodd" fill-opacity="1" stroke="#000000" stroke-opacity="1" stroke-width="3.2"/>
<circle clip-path="url(#clip232)" cx="1255" cy="1258.75" r="7.2" fill="#ff0000" fill-rule="evenodd" fill-opacity="1" stroke="#000000" stroke-opacity="1" stroke-width="3.2"/>
<circle clip-path="url(#clip232)" cx="1237.16" cy="1258.75" r="7.2" fill="#ff0000" fill-rule="evenodd" fill-opacity="1" stroke="#000000" stroke-opacity="1" stroke-width="3.2"/>
<circle clip-path="url(#clip232)" cx="1326.34" cy="1276.58" r="7.2" fill="#ff0000" fill-rule="evenodd" fill-opacity="1" stroke="#000000" stroke-opacity="1" stroke-width="3.2"/>
<circle clip-path="url(#clip232)" cx="1308.5" cy="1276.58" r="7.2" fill="#ff0000" fill-rule="evenodd" fill-opacity="1" stroke="#000000" stroke-opacity="1" stroke-width="3.2"/>
<circle clip-path="url(#clip232)" cx="1290.67" cy="1276.58" r="7.2" fill="#ff0000" fill-rule="evenodd" fill-opacity="1" stroke="#000000" stroke-opacity="1" stroke-width="3.2"/>
<circle clip-path="url(#clip232)" cx="1272.83" cy="1276.58" r="7.2" fill="#ff0000" fill-rule="evenodd" fill-opacity="1" stroke="#000000" stroke-opacity="1" stroke-width="3.2"/>
<circle clip-path="url(#clip232)" cx="1255" cy="1276.58" r="7.2" fill="#ff0000" fill-rule="evenodd" fill-opacity="1" stroke="#000000" stroke-opacity="1" stroke-width="3.2"/>
<circle clip-path="url(#clip232)" cx="1237.16" cy="1276.58" r="7.2" fill="#ff0000" fill-rule="evenodd" fill-opacity="1" stroke="#000000" stroke-opacity="1" stroke-width="3.2"/>
<circle clip-path="url(#clip232)" cx="1326.34" cy="1294.42" r="7.2" fill="#ff0000" fill-rule="evenodd" fill-opacity="1" stroke="#000000" stroke-opacity="1" stroke-width="3.2"/>
<circle clip-path="url(#clip232)" cx="1308.5" cy="1294.42" r="7.2" fill="#ff0000" fill-rule="evenodd" fill-opacity="1" stroke="#000000" stroke-opacity="1" stroke-width="3.2"/>
<circle clip-path="url(#clip232)" cx="1290.67" cy="1294.42" r="7.2" fill="#ff0000" fill-rule="evenodd" fill-opacity="1" stroke="#000000" stroke-opacity="1" stroke-width="3.2"/>
<circle clip-path="url(#clip232)" cx="1272.83" cy="1294.42" r="7.2" fill="#ff0000" fill-rule="evenodd" fill-opacity="1" stroke="#000000" stroke-opacity="1" stroke-width="3.2"/>
<circle clip-path="url(#clip232)" cx="1255" cy="1294.42" r="7.2" fill="#ff0000" fill-rule="evenodd" fill-opacity="1" stroke="#000000" stroke-opacity="1" stroke-width="3.2"/>
<circle clip-path="url(#clip232)" cx="1237.16" cy="1294.42" r="7.2" fill="#ff0000" fill-rule="evenodd" fill-opacity="1" stroke="#000000" stroke-opacity="1" stroke-width="3.2"/>
<circle clip-path="url(#clip232)" cx="964.684" cy="227.289" r="7.2" fill="#ff0000" fill-rule="evenodd" fill-opacity="1" stroke="#000000" stroke-opacity="1" stroke-width="3.2"/>
<circle clip-path="url(#clip232)" cx="1093.74" cy="238.43" r="7.2" fill="#ff0000" fill-rule="evenodd" fill-opacity="1" stroke="#000000" stroke-opacity="1" stroke-width="3.2"/>
<circle clip-path="url(#clip232)" cx="1219.45" cy="243.904" r="7.2" fill="#ff0000" fill-rule="evenodd" fill-opacity="1" stroke="#000000" stroke-opacity="1" stroke-width="3.2"/>
<circle clip-path="url(#clip232)" cx="1344.06" cy="243.904" r="7.2" fill="#ff0000" fill-rule="evenodd" fill-opacity="1" stroke="#000000" stroke-opacity="1" stroke-width="3.2"/>
<circle clip-path="url(#clip232)" cx="1469.76" cy="238.43" r="7.2" fill="#ff0000" fill-rule="evenodd" fill-opacity="1" stroke="#000000" stroke-opacity="1" stroke-width="3.2"/>
<circle clip-path="url(#clip232)" cx="1598.82" cy="227.289" r="7.2" fill="#ff0000" fill-rule="evenodd" fill-opacity="1" stroke="#000000" stroke-opacity="1" stroke-width="3.2"/>
<circle clip-path="url(#clip232)" cx="1327" cy="1287.8" r="7.2" fill="#008000" fill-rule="evenodd" fill-opacity="1" stroke="#000000" stroke-opacity="1" stroke-width="3.2"/>
<circle clip-path="url(#clip232)" cx="1308.9" cy="1288.1" r="7.2" fill="#008000" fill-rule="evenodd" fill-opacity="1" stroke="#000000" stroke-opacity="1" stroke-width="3.2"/>
<circle clip-path="url(#clip232)" cx="1290.8" cy="1288.25" r="7.2" fill="#008000" fill-rule="evenodd" fill-opacity="1" stroke="#000000" stroke-opacity="1" stroke-width="3.2"/>
<circle clip-path="url(#clip232)" cx="1272.7" cy="1288.25" r="7.2" fill="#008000" fill-rule="evenodd" fill-opacity="1" stroke="#000000" stroke-opacity="1" stroke-width="3.2"/>
<circle clip-path="url(#clip232)" cx="1254.6" cy="1288.1" r="7.2" fill="#008000" fill-rule="evenodd" fill-opacity="1" stroke="#000000" stroke-opacity="1" stroke-width="3.2"/>
<circle clip-path="url(#clip232)" cx="1236.5" cy="1287.8" r="7.2" fill="#008000" fill-rule="evenodd" fill-opacity="1" stroke="#000000" stroke-opacity="1" stroke-width="3.2"/>
<circle clip-path="url(#clip232)" cx="1327" cy="1305.44" r="7.2" fill="#008000" fill-rule="evenodd" fill-opacity="1" stroke="#000000" stroke-opacity="1" stroke-width="3.2"/>
<circle clip-path="url(#clip232)" cx="1308.9" cy="1305.74" r="7.2" fill="#008000" fill-rule="evenodd" fill-opacity="1" stroke="#000000" stroke-opacity="1" stroke-width="3.2"/>
<circle clip-path="url(#clip232)" cx="1290.8" cy="1305.89" r="7.2" fill="#008000" fill-rule="evenodd" fill-opacity="1" stroke="#000000" stroke-opacity="1" stroke-width="3.2"/>
<circle clip-path="url(#clip232)" cx="1272.7" cy="1305.89" r="7.2" fill="#008000" fill-rule="evenodd" fill-opacity="1" stroke="#000000" stroke-opacity="1" stroke-width="3.2"/>
<circle clip-path="url(#clip232)" cx="1254.6" cy="1305.74" r="7.2" fill="#008000" fill-rule="evenodd" fill-opacity="1" stroke="#000000" stroke-opacity="1" stroke-width="3.2"/>
<circle clip-path="url(#clip232)" cx="1236.5" cy="1305.44" r="7.2" fill="#008000" fill-rule="evenodd" fill-opacity="1" stroke="#000000" stroke-opacity="1" stroke-width="3.2"/>
<circle clip-path="url(#clip232)" cx="1327" cy="1322.93" r="7.2" fill="#008000" fill-rule="evenodd" fill-opacity="1" stroke="#000000" stroke-opacity="1" stroke-width="3.2"/>
<circle clip-path="url(#clip232)" cx="1308.9" cy="1323.23" r="7.2" fill="#008000" fill-rule="evenodd" fill-opacity="1" stroke="#000000" stroke-opacity="1" stroke-width="3.2"/>
<circle clip-path="url(#clip232)" cx="1290.8" cy="1323.38" r="7.2" fill="#008000" fill-rule="evenodd" fill-opacity="1" stroke="#000000" stroke-opacity="1" stroke-width="3.2"/>
<circle clip-path="url(#clip232)" cx="1272.7" cy="1323.38" r="7.2" fill="#008000" fill-rule="evenodd" fill-opacity="1" stroke="#000000" stroke-opacity="1" stroke-width="3.2"/>
<circle clip-path="url(#clip232)" cx="1254.6" cy="1323.23" r="7.2" fill="#008000" fill-rule="evenodd" fill-opacity="1" stroke="#000000" stroke-opacity="1" stroke-width="3.2"/>
<circle clip-path="url(#clip232)" cx="1236.5" cy="1322.93" r="7.2" fill="#008000" fill-rule="evenodd" fill-opacity="1" stroke="#000000" stroke-opacity="1" stroke-width="3.2"/>
<circle clip-path="url(#clip232)" cx="1327" cy="1340.27" r="7.2" fill="#008000" fill-rule="evenodd" fill-opacity="1" stroke="#000000" stroke-opacity="1" stroke-width="3.2"/>
<circle clip-path="url(#clip232)" cx="1308.9" cy="1340.57" r="7.2" fill="#008000" fill-rule="evenodd" fill-opacity="1" stroke="#000000" stroke-opacity="1" stroke-width="3.2"/>
<circle clip-path="url(#clip232)" cx="1290.8" cy="1340.72" r="7.2" fill="#008000" fill-rule="evenodd" fill-opacity="1" stroke="#000000" stroke-opacity="1" stroke-width="3.2"/>
<circle clip-path="url(#clip232)" cx="1272.7" cy="1340.72" r="7.2" fill="#008000" fill-rule="evenodd" fill-opacity="1" stroke="#000000" stroke-opacity="1" stroke-width="3.2"/>
<circle clip-path="url(#clip232)" cx="1254.6" cy="1340.57" r="7.2" fill="#008000" fill-rule="evenodd" fill-opacity="1" stroke="#000000" stroke-opacity="1" stroke-width="3.2"/>
<circle clip-path="url(#clip232)" cx="1236.5" cy="1340.27" r="7.2" fill="#008000" fill-rule="evenodd" fill-opacity="1" stroke="#000000" stroke-opacity="1" stroke-width="3.2"/>
<circle clip-path="url(#clip232)" cx="973.899" cy="341.516" r="7.2" fill="#008000" fill-rule="evenodd" fill-opacity="1" stroke="#000000" stroke-opacity="1" stroke-width="3.2"/>
<circle clip-path="url(#clip232)" cx="1308.9" cy="1357.77" r="7.2" fill="#008000" fill-rule="evenodd" fill-opacity="1" stroke="#000000" stroke-opacity="1" stroke-width="3.2"/>
<circle clip-path="url(#clip232)" cx="1290.8" cy="1357.92" r="7.2" fill="#008000" fill-rule="evenodd" fill-opacity="1" stroke="#000000" stroke-opacity="1" stroke-width="3.2"/>
<circle clip-path="url(#clip232)" cx="1272.7" cy="1357.92" r="7.2" fill="#008000" fill-rule="evenodd" fill-opacity="1" stroke="#000000" stroke-opacity="1" stroke-width="3.2"/>
<circle clip-path="url(#clip232)" cx="1254.6" cy="1357.77" r="7.2" fill="#008000" fill-rule="evenodd" fill-opacity="1" stroke="#000000" stroke-opacity="1" stroke-width="3.2"/>
<circle clip-path="url(#clip232)" cx="1589.6" cy="341.516" r="7.2" fill="#008000" fill-rule="evenodd" fill-opacity="1" stroke="#000000" stroke-opacity="1" stroke-width="3.2"/>
<circle clip-path="url(#clip232)" cx="960.732" cy="180.046" r="7.2" fill="#008000" fill-rule="evenodd" fill-opacity="1" stroke="#000000" stroke-opacity="1" stroke-width="3.2"/>
<circle clip-path="url(#clip232)" cx="1091.37" cy="190.88" r="7.2" fill="#008000" fill-rule="evenodd" fill-opacity="1" stroke="#000000" stroke-opacity="1" stroke-width="3.2"/>
<circle clip-path="url(#clip232)" cx="1218.66" cy="196.205" r="7.2" fill="#008000" fill-rule="evenodd" fill-opacity="1" stroke="#000000" stroke-opacity="1" stroke-width="3.2"/>
<circle clip-path="url(#clip232)" cx="1344.84" cy="196.205" r="7.2" fill="#008000" fill-rule="evenodd" fill-opacity="1" stroke="#000000" stroke-opacity="1" stroke-width="3.2"/>
<circle clip-path="url(#clip232)" cx="1472.13" cy="190.88" r="7.2" fill="#008000" fill-rule="evenodd" fill-opacity="1" stroke="#000000" stroke-opacity="1" stroke-width="3.2"/>
<circle clip-path="url(#clip232)" cx="1602.77" cy="180.046" r="7.2" fill="#008000" fill-rule="evenodd" fill-opacity="1" stroke="#000000" stroke-opacity="1" stroke-width="3.2"/>
<circle clip-path="url(#clip232)" cx="1327.7" cy="1316.11" r="7.2" fill="#0000ff" fill-rule="evenodd" fill-opacity="1" stroke="#000000" stroke-opacity="1" stroke-width="3.2"/>
<circle clip-path="url(#clip232)" cx="1309.32" cy="1316.54" r="7.2" fill="#0000ff" fill-rule="evenodd" fill-opacity="1" stroke="#000000" stroke-opacity="1" stroke-width="3.2"/>
<circle clip-path="url(#clip232)" cx="1290.94" cy="1316.76" r="7.2" fill="#0000ff" fill-rule="evenodd" fill-opacity="1" stroke="#000000" stroke-opacity="1" stroke-width="3.2"/>
<circle clip-path="url(#clip232)" cx="1272.56" cy="1316.76" r="7.2" fill="#0000ff" fill-rule="evenodd" fill-opacity="1" stroke="#000000" stroke-opacity="1" stroke-width="3.2"/>
<circle clip-path="url(#clip232)" cx="1254.18" cy="1316.54" r="7.2" fill="#0000ff" fill-rule="evenodd" fill-opacity="1" stroke="#000000" stroke-opacity="1" stroke-width="3.2"/>
<circle clip-path="url(#clip232)" cx="1235.81" cy="1316.11" r="7.2" fill="#0000ff" fill-rule="evenodd" fill-opacity="1" stroke="#000000" stroke-opacity="1" stroke-width="3.2"/>
<circle clip-path="url(#clip232)" cx="1327.7" cy="1333.82" r="7.2" fill="#0000ff" fill-rule="evenodd" fill-opacity="1" stroke="#000000" stroke-opacity="1" stroke-width="3.2"/>
<circle clip-path="url(#clip232)" cx="1309.32" cy="1334.26" r="7.2" fill="#0000ff" fill-rule="evenodd" fill-opacity="1" stroke="#000000" stroke-opacity="1" stroke-width="3.2"/>
<circle clip-path="url(#clip232)" cx="1290.94" cy="1334.47" r="7.2" fill="#0000ff" fill-rule="evenodd" fill-opacity="1" stroke="#000000" stroke-opacity="1" stroke-width="3.2"/>
<circle clip-path="url(#clip232)" cx="1272.56" cy="1334.47" r="7.2" fill="#0000ff" fill-rule="evenodd" fill-opacity="1" stroke="#000000" stroke-opacity="1" stroke-width="3.2"/>
<circle clip-path="url(#clip232)" cx="1254.18" cy="1334.26" r="7.2" fill="#0000ff" fill-rule="evenodd" fill-opacity="1" stroke="#000000" stroke-opacity="1" stroke-width="3.2"/>
<circle clip-path="url(#clip232)" cx="1235.8" cy="1333.82" r="7.2" fill="#0000ff" fill-rule="evenodd" fill-opacity="1" stroke="#000000" stroke-opacity="1" stroke-width="3.2"/>
<circle clip-path="url(#clip232)" cx="1327.7" cy="1351.34" r="7.2" fill="#0000ff" fill-rule="evenodd" fill-opacity="1" stroke="#000000" stroke-opacity="1" stroke-width="3.2"/>
<circle clip-path="url(#clip232)" cx="1309.33" cy="1351.77" r="7.2" fill="#0000ff" fill-rule="evenodd" fill-opacity="1" stroke="#000000" stroke-opacity="1" stroke-width="3.2"/>
<circle clip-path="url(#clip232)" cx="1290.94" cy="1351.98" r="7.2" fill="#0000ff" fill-rule="evenodd" fill-opacity="1" stroke="#000000" stroke-opacity="1" stroke-width="3.2"/>
<circle clip-path="url(#clip232)" cx="1272.56" cy="1351.98" r="7.2" fill="#0000ff" fill-rule="evenodd" fill-opacity="1" stroke="#000000" stroke-opacity="1" stroke-width="3.2"/>
<circle clip-path="url(#clip232)" cx="1254.18" cy="1351.77" r="7.2" fill="#0000ff" fill-rule="evenodd" fill-opacity="1" stroke="#000000" stroke-opacity="1" stroke-width="3.2"/>
<circle clip-path="url(#clip232)" cx="1235.8" cy="1351.34" r="7.2" fill="#0000ff" fill-rule="evenodd" fill-opacity="1" stroke="#000000" stroke-opacity="1" stroke-width="3.2"/>
<circle clip-path="url(#clip232)" cx="1327.71" cy="1368.64" r="7.2" fill="#0000ff" fill-rule="evenodd" fill-opacity="1" stroke="#000000" stroke-opacity="1" stroke-width="3.2"/>
<circle clip-path="url(#clip232)" cx="1309.33" cy="1369.07" r="7.2" fill="#0000ff" fill-rule="evenodd" fill-opacity="1" stroke="#000000" stroke-opacity="1" stroke-width="3.2"/>
<circle clip-path="url(#clip232)" cx="1290.94" cy="1369.29" r="7.2" fill="#0000ff" fill-rule="evenodd" fill-opacity="1" stroke="#000000" stroke-opacity="1" stroke-width="3.2"/>
<circle clip-path="url(#clip232)" cx="1272.56" cy="1369.29" r="7.2" fill="#0000ff" fill-rule="evenodd" fill-opacity="1" stroke="#000000" stroke-opacity="1" stroke-width="3.2"/>
<circle clip-path="url(#clip232)" cx="1254.18" cy="1369.07" r="7.2" fill="#0000ff" fill-rule="evenodd" fill-opacity="1" stroke="#000000" stroke-opacity="1" stroke-width="3.2"/>
<circle clip-path="url(#clip232)" cx="1235.8" cy="1368.64" r="7.2" fill="#0000ff" fill-rule="evenodd" fill-opacity="1" stroke="#000000" stroke-opacity="1" stroke-width="3.2"/>
<circle clip-path="url(#clip232)" cx="972.447" cy="322.368" r="7.2" fill="#0000ff" fill-rule="evenodd" fill-opacity="1" stroke="#000000" stroke-opacity="1" stroke-width="3.2"/>
<circle clip-path="url(#clip232)" cx="1309.33" cy="1386.18" r="7.2" fill="#0000ff" fill-rule="evenodd" fill-opacity="1" stroke="#000000" stroke-opacity="1" stroke-width="3.2"/>
<circle clip-path="url(#clip232)" cx="1290.94" cy="1386.4" r="7.2" fill="#0000ff" fill-rule="evenodd" fill-opacity="1" stroke="#000000" stroke-opacity="1" stroke-width="3.2"/>
<circle clip-path="url(#clip232)" cx="1272.56" cy="1386.4" r="7.2" fill="#0000ff" fill-rule="evenodd" fill-opacity="1" stroke="#000000" stroke-opacity="1" stroke-width="3.2"/>
<circle clip-path="url(#clip232)" cx="1254.18" cy="1386.18" r="7.2" fill="#0000ff" fill-rule="evenodd" fill-opacity="1" stroke="#000000" stroke-opacity="1" stroke-width="3.2"/>
<circle clip-path="url(#clip232)" cx="1591.05" cy="322.368" r="7.2" fill="#0000ff" fill-rule="evenodd" fill-opacity="1" stroke="#000000" stroke-opacity="1" stroke-width="3.2"/>
<circle clip-path="url(#clip232)" cx="959.071" cy="160.256" r="7.2" fill="#0000ff" fill-rule="evenodd" fill-opacity="1" stroke="#000000" stroke-opacity="1" stroke-width="3.2"/>
<circle clip-path="url(#clip232)" cx="1090.37" cy="170.943" r="7.2" fill="#0000ff" fill-rule="evenodd" fill-opacity="1" stroke="#000000" stroke-opacity="1" stroke-width="3.2"/>
<circle clip-path="url(#clip232)" cx="1218.32" cy="176.195" r="7.2" fill="#0000ff" fill-rule="evenodd" fill-opacity="1" stroke="#000000" stroke-opacity="1" stroke-width="3.2"/>
<circle clip-path="url(#clip232)" cx="1345.18" cy="176.195" r="7.2" fill="#0000ff" fill-rule="evenodd" fill-opacity="1" stroke="#000000" stroke-opacity="1" stroke-width="3.2"/>
<circle clip-path="url(#clip232)" cx="1473.13" cy="170.943" r="7.2" fill="#0000ff" fill-rule="evenodd" fill-opacity="1" stroke="#000000" stroke-opacity="1" stroke-width="3.2"/>
<circle clip-path="url(#clip232)" cx="1604.43" cy="160.256" r="7.2" fill="#0000ff" fill-rule="evenodd" fill-opacity="1" stroke="#000000" stroke-opacity="1" stroke-width="3.2"/>
</svg>
