<?xml version="1.0" encoding="utf-8"?>
<svg xmlns="http://www.w3.org/2000/svg" xmlns:xlink="http://www.w3.org/1999/xlink" width="600" height="400" viewBox="0 0 2400 1600">
<defs>
  <clipPath id="clip140">
    <rect x="0" y="0" width="2400" height="1600"/>
  </clipPath>
</defs>
<path clip-path="url(#clip140)" d="M0 1600 L2400 1600 L2400 0 L0 0  Z" fill="#ffffff" fill-rule="evenodd" fill-opacity="1"/>
<defs>
  <clipPath id="clip141">
    <rect x="480" y="0" width="1681" height="1600"/>
  </clipPath>
</defs>
<path clip-path="url(#clip140)" d="M210.376 1423.18 L2352.76 1423.18 L2352.76 123.472 L210.376 123.472  Z" fill="#ffffff" fill-rule="evenodd" fill-opacity="1"/>
<defs>
  <clipPath id="clip142">
    <rect x="210" y="123" width="2143" height="1301"/>
  </clipPath>
</defs>
<polyline clip-path="url(#clip142)" style="stroke:#000000; stroke-linecap:round; stroke-linejoin:round; stroke-width:2; stroke-opacity:0.1; fill:none" points="637.598,1423.18 637.598,123.472 "/>
<polyline clip-path="url(#clip142)" style="stroke:#000000; stroke-linecap:round; stroke-linejoin:round; stroke-width:2; stroke-opacity:0.1; fill:none" points="1120.57,1423.18 1120.57,123.472 "/>
<polyline clip-path="url(#clip142)" style="stroke:#000000; stroke-linecap:round; stroke-linejoin:round; stroke-width:2; stroke-opacity:0.1; fill:none" points="1603.55,1423.18 1603.55,123.472 "/>
<polyline clip-path="url(#clip142)" style="stroke:#000000; stroke-linecap:round; stroke-linejoin:round; stroke-width:2; stroke-opacity:0.1; fill:none" points="2086.53,1423.18 2086.53,123.472 "/>
<polyline clip-path="url(#clip142)" style="stroke:#000000; stroke-linecap:round; stroke-linejoin:round; stroke-width:2; stroke-opacity:0.1; fill:none" points="210.376,1386.4 2352.76,1386.4 "/>
<polyline clip-path="url(#clip142)" style="stroke:#000000; stroke-linecap:round; stroke-linejoin:round; stroke-width:2; stroke-opacity:0.1; fill:none" points="210.376,1064.41 2352.76,1064.41 "/>
<polyline clip-path="url(#clip142)" style="stroke:#000000; stroke-linecap:round; stroke-linejoin:round; stroke-width:2; stroke-opacity:0.1; fill:none" points="210.376,742.428 2352.76,742.428 "/>
<polyline clip-path="url(#clip142)" style="stroke:#000000; stroke-linecap:round; stroke-linejoin:round; stroke-width:2; stroke-opacity:0.1; fill:none" points="210.376,420.444 2352.76,420.444 "/>
<polyline clip-path="url(#clip140)" style="stroke:#000000; stroke-linecap:round; stroke-linejoin:round; stroke-width:4; stroke-opacity:1; fill:none" points="210.376,1423.18 2352.76,1423.18 "/>
<polyline clip-path="url(#clip140)" style="stroke:#000000; stroke-linecap:round; stroke-linejoin:round; stroke-width:4; stroke-opacity:1; fill:none" points="637.598,1423.18 637.598,1404.28 "/>
<polyline clip-path="url(#clip140)" style="stroke:#000000; stroke-linecap:round; stroke-linejoin:round; stroke-width:4; stroke-opacity:1; fill:none" points="1120.57,1423.18 1120.57,1404.28 "/>
<polyline clip-path="url(#clip140)" style="stroke:#000000; stroke-linecap:round; stroke-linejoin:round; stroke-width:4; stroke-opacity:1; fill:none" points="1603.55,1423.18 1603.55,1404.28 "/>
<polyline clip-path="url(#clip140)" style="stroke:#000000; stroke-linecap:round; stroke-linejoin:round; stroke-width:4; stroke-opacity:1; fill:none" points="2086.53,1423.18 2086.53,1404.28 "/>
<path clip-path="url(#clip140)" d="M637.598 1454.1 Q633.987 1454.1 632.158 1457.66 Q630.353 1461.2 630.353 1468.33 Q630.353 1475.44 632.158 1479.01 Q633.987 1482.55 637.598 1482.55 Q641.232 1482.55 643.038 1479.01 Q644.866 1475.44 644.866 1468.33 Q644.866 1461.2 643.038 1457.66 Q641.232 1454.1 637.598 1454.1 M637.598 1450.39 Q643.408 1450.39 646.464 1455 Q649.542 1459.58 649.542 1468.33 Q649.542 1477.06 646.464 1481.67 Q643.408 1486.25 637.598 1486.25 Q631.788 1486.25 628.709 1481.67 Q625.654 1477.06 625.654 1468.33 Q625.654 1459.58 628.709 1455 Q631.788 1450.39 637.598 1450.39 Z" fill="#000000" fill-rule="nonzero" fill-opacity="1" /><path clip-path="url(#clip140)" d="M1124.82 1466.95 Q1128.18 1467.66 1130.05 1469.93 Q1131.95 1472.2 1131.95 1475.53 Q1131.95 1480.65 1128.43 1483.45 Q1124.91 1486.25 1118.43 1486.25 Q1116.26 1486.25 1113.94 1485.81 Q1111.65 1485.39 1109.2 1484.54 L1109.2 1480.02 Q1111.14 1481.16 1113.46 1481.74 Q1115.77 1482.32 1118.29 1482.32 Q1122.69 1482.32 1124.98 1480.58 Q1127.3 1478.84 1127.3 1475.53 Q1127.3 1472.48 1125.15 1470.77 Q1123.02 1469.03 1119.2 1469.03 L1115.17 1469.03 L1115.17 1465.19 L1119.38 1465.19 Q1122.83 1465.19 1124.66 1463.82 Q1126.49 1462.43 1126.49 1459.84 Q1126.49 1457.18 1124.59 1455.77 Q1122.71 1454.33 1119.2 1454.33 Q1117.28 1454.33 1115.08 1454.75 Q1112.88 1455.16 1110.24 1456.04 L1110.24 1451.88 Q1112.9 1451.14 1115.22 1450.77 Q1117.55 1450.39 1119.61 1450.39 Q1124.94 1450.39 1128.04 1452.83 Q1131.14 1455.23 1131.14 1459.35 Q1131.14 1462.22 1129.5 1464.21 Q1127.85 1466.18 1124.82 1466.95 Z" fill="#000000" fill-rule="nonzero" fill-opacity="1" /><path clip-path="url(#clip140)" d="M1603.95 1466.44 Q1600.81 1466.44 1598.95 1468.59 Q1597.13 1470.74 1597.13 1474.49 Q1597.13 1478.22 1598.95 1480.39 Q1600.81 1482.55 1603.95 1482.55 Q1607.1 1482.55 1608.93 1480.39 Q1610.78 1478.22 1610.78 1474.49 Q1610.78 1470.74 1608.93 1468.59 Q1607.1 1466.44 1603.95 1466.44 M1613.24 1451.78 L1613.24 1456.04 Q1611.48 1455.21 1609.67 1454.77 Q1607.89 1454.33 1606.13 1454.33 Q1601.5 1454.33 1599.05 1457.45 Q1596.62 1460.58 1596.27 1466.9 Q1597.64 1464.89 1599.7 1463.82 Q1601.76 1462.73 1604.23 1462.73 Q1609.44 1462.73 1612.45 1465.9 Q1615.48 1469.05 1615.48 1474.49 Q1615.48 1479.82 1612.33 1483.03 Q1609.19 1486.25 1603.95 1486.25 Q1597.96 1486.25 1594.79 1481.67 Q1591.62 1477.06 1591.62 1468.33 Q1591.62 1460.14 1595.51 1455.28 Q1599.39 1450.39 1605.95 1450.39 Q1607.7 1450.39 1609.49 1450.74 Q1611.29 1451.09 1613.24 1451.78 Z" fill="#000000" fill-rule="nonzero" fill-opacity="1" /><path clip-path="url(#clip140)" d="M2076.83 1484.86 L2076.83 1480.6 Q2078.59 1481.44 2080.39 1481.88 Q2082.2 1482.32 2083.93 1482.32 Q2088.56 1482.32 2090.99 1479.21 Q2093.45 1476.09 2093.79 1469.75 Q2092.45 1471.74 2090.39 1472.8 Q2088.33 1473.87 2085.83 1473.87 Q2080.65 1473.87 2077.61 1470.74 Q2074.6 1467.59 2074.6 1462.15 Q2074.6 1456.83 2077.75 1453.61 Q2080.9 1450.39 2086.13 1450.39 Q2092.13 1450.39 2095.28 1455 Q2098.45 1459.58 2098.45 1468.33 Q2098.45 1476.51 2094.56 1481.39 Q2090.69 1486.25 2084.14 1486.25 Q2082.38 1486.25 2080.58 1485.9 Q2078.77 1485.56 2076.83 1484.86 M2086.13 1470.21 Q2089.28 1470.21 2091.11 1468.06 Q2092.96 1465.9 2092.96 1462.15 Q2092.96 1458.43 2091.11 1456.27 Q2089.28 1454.1 2086.13 1454.1 Q2082.98 1454.1 2081.13 1456.27 Q2079.3 1458.43 2079.3 1462.15 Q2079.3 1465.9 2081.13 1468.06 Q2082.98 1470.21 2086.13 1470.21 Z" fill="#000000" fill-rule="nonzero" fill-opacity="1" /><path clip-path="url(#clip140)" d="M1268.05 1532.4 L1295.87 1532.4 L1295.87 1537.74 L1273.85 1563.37 L1295.87 1563.37 L1295.87 1568.04 L1267.26 1568.04 L1267.26 1562.7 L1289.28 1537.07 L1268.05 1537.07 L1268.05 1532.4 Z" fill="#000000" fill-rule="nonzero" fill-opacity="1" /><polyline clip-path="url(#clip140)" style="stroke:#000000; stroke-linecap:round; stroke-linejoin:round; stroke-width:4; stroke-opacity:1; fill:none" points="210.376,1423.18 210.376,123.472 "/>
<polyline clip-path="url(#clip140)" style="stroke:#000000; stroke-linecap:round; stroke-linejoin:round; stroke-width:4; stroke-opacity:1; fill:none" points="210.376,1386.4 229.273,1386.4 "/>
<polyline clip-path="url(#clip140)" style="stroke:#000000; stroke-linecap:round; stroke-linejoin:round; stroke-width:4; stroke-opacity:1; fill:none" points="210.376,1064.41 229.273,1064.41 "/>
<polyline clip-path="url(#clip140)" style="stroke:#000000; stroke-linecap:round; stroke-linejoin:round; stroke-width:4; stroke-opacity:1; fill:none" points="210.376,742.428 229.273,742.428 "/>
<polyline clip-path="url(#clip140)" style="stroke:#000000; stroke-linecap:round; stroke-linejoin:round; stroke-width:4; stroke-opacity:1; fill:none" points="210.376,420.444 229.273,420.444 "/>
<path clip-path="url(#clip140)" d="M114.26 1386.85 L143.936 1386.85 L143.936 1390.78 L114.26 1390.78 L114.26 1386.85 Z" fill="#000000" fill-rule="nonzero" fill-opacity="1" /><path clip-path="url(#clip140)" d="M158.056 1399.74 L174.376 1399.74 L174.376 1403.68 L152.431 1403.68 L152.431 1399.74 Q155.093 1396.99 159.677 1392.36 Q164.283 1387.7 165.464 1386.36 Q167.709 1383.84 168.589 1382.1 Q169.491 1380.34 169.491 1378.65 Q169.491 1375.9 167.547 1374.16 Q165.626 1372.43 162.524 1372.43 Q160.325 1372.43 157.871 1373.19 Q155.44 1373.95 152.663 1375.5 L152.663 1370.78 Q155.487 1369.65 157.94 1369.07 Q160.394 1368.49 162.431 1368.49 Q167.802 1368.49 170.996 1371.18 Q174.19 1373.86 174.19 1378.35 Q174.19 1380.48 173.38 1382.4 Q172.593 1384.3 170.487 1386.89 Q169.908 1387.56 166.806 1390.78 Q163.704 1393.98 158.056 1399.74 Z" fill="#000000" fill-rule="nonzero" fill-opacity="1" /><path clip-path="url(#clip140)" d="M162.431 1050.21 Q158.82 1050.21 156.991 1053.78 Q155.186 1057.32 155.186 1064.45 Q155.186 1071.55 156.991 1075.12 Q158.82 1078.66 162.431 1078.66 Q166.065 1078.66 167.871 1075.12 Q169.7 1071.55 169.7 1064.45 Q169.7 1057.32 167.871 1053.78 Q166.065 1050.21 162.431 1050.21 M162.431 1046.51 Q168.241 1046.51 171.297 1051.11 Q174.376 1055.7 174.376 1064.45 Q174.376 1073.17 171.297 1077.78 Q168.241 1082.36 162.431 1082.36 Q156.621 1082.36 153.542 1077.78 Q150.487 1073.17 150.487 1064.45 Q150.487 1055.7 153.542 1051.11 Q156.621 1046.51 162.431 1046.51 Z" fill="#000000" fill-rule="nonzero" fill-opacity="1" /><path clip-path="url(#clip140)" d="M158.056 755.773 L174.376 755.773 L174.376 759.708 L152.431 759.708 L152.431 755.773 Q155.093 753.018 159.677 748.388 Q164.283 743.736 165.464 742.393 Q167.709 739.87 168.589 738.134 Q169.491 736.375 169.491 734.685 Q169.491 731.93 167.547 730.194 Q165.626 728.458 162.524 728.458 Q160.325 728.458 157.871 729.222 Q155.44 729.986 152.663 731.537 L152.663 726.814 Q155.487 725.68 157.94 725.102 Q160.394 724.523 162.431 724.523 Q167.802 724.523 170.996 727.208 Q174.19 729.893 174.19 734.384 Q174.19 736.514 173.38 738.435 Q172.593 740.333 170.487 742.926 Q169.908 743.597 166.806 746.814 Q163.704 750.009 158.056 755.773 Z" fill="#000000" fill-rule="nonzero" fill-opacity="1" /><path clip-path="url(#clip140)" d="M164.792 407.238 L152.987 425.687 L164.792 425.687 L164.792 407.238 M163.565 403.164 L169.445 403.164 L169.445 425.687 L174.376 425.687 L174.376 429.576 L169.445 429.576 L169.445 437.724 L164.792 437.724 L164.792 429.576 L149.191 429.576 L149.191 425.062 L163.565 403.164 Z" fill="#000000" fill-rule="nonzero" fill-opacity="1" /><path clip-path="url(#clip140)" d="M67.3143 771.639 Q73.68 774.122 75.6216 776.477 Q77.5631 778.832 77.5631 782.779 L77.5631 787.458 L72.6615 787.458 L72.6615 784.02 Q72.6615 781.601 71.5157 780.265 Q70.3699 778.928 66.1048 777.305 L63.4312 776.254 L28.3562 790.673 L28.3562 784.466 L56.238 773.326 L28.3562 762.186 L28.3562 755.979 L67.3143 771.639 Z" fill="#000000" fill-rule="nonzero" fill-opacity="1" /><path clip-path="url(#clip140)" d="M960.734 49.9314 Q960.734 41.7081 957.331 37.0496 Q953.969 32.3505 948.055 32.3505 Q942.14 32.3505 938.738 37.0496 Q935.375 41.7081 935.375 49.9314 Q935.375 58.1548 938.738 62.8538 Q942.14 67.5124 948.055 67.5124 Q953.969 67.5124 957.331 62.8538 Q960.734 58.1548 960.734 49.9314 M935.375 34.0924 Q937.725 30.0415 941.29 28.0971 Q944.895 26.1121 949.878 26.1121 Q958.142 26.1121 963.286 32.6746 Q968.471 39.2371 968.471 49.9314 Q968.471 60.6258 963.286 67.1883 Q958.142 73.7508 949.878 73.7508 Q944.895 73.7508 941.29 71.8063 Q937.725 69.8214 935.375 65.7705 L935.375 72.576 L927.881 72.576 L927.881 9.54393 L935.375 9.54393 L935.375 34.0924 Z" fill="#000000" fill-rule="nonzero" fill-opacity="1" /><path clip-path="url(#clip140)" d="M1007.12 34.1734 Q1005.86 33.4443 1004.36 33.1202 Q1002.9 32.7556 1001.12 32.7556 Q994.802 32.7556 991.399 36.8875 Q988.037 40.9789 988.037 48.6757 L988.037 72.576 L980.543 72.576 L980.543 27.2059 L988.037 27.2059 L988.037 34.2544 Q990.387 30.1225 994.154 28.1376 Q997.921 26.1121 1003.31 26.1121 Q1004.08 26.1121 1005.01 26.2337 Q1005.94 26.3147 1007.08 26.5172 L1007.12 34.1734 Z" fill="#000000" fill-rule="nonzero" fill-opacity="1" /><path clip-path="url(#clip140)" d="M1030.69 32.4315 Q1024.7 32.4315 1021.21 37.1306 Q1017.73 41.7891 1017.73 49.9314 Q1017.73 58.0738 1021.17 62.7728 Q1024.66 67.4314 1030.69 67.4314 Q1036.65 67.4314 1040.13 62.7323 Q1043.62 58.0333 1043.62 49.9314 Q1043.62 41.8701 1040.13 37.1711 Q1036.65 32.4315 1030.69 32.4315 M1030.69 26.1121 Q1040.42 26.1121 1045.97 32.4315 Q1051.51 38.7509 1051.51 49.9314 Q1051.51 61.0714 1045.97 67.4314 Q1040.42 73.7508 1030.69 73.7508 Q1020.93 73.7508 1015.38 67.4314 Q1009.87 61.0714 1009.87 49.9314 Q1009.87 38.7509 1015.38 32.4315 Q1020.93 26.1121 1030.69 26.1121 Z" fill="#000000" fill-rule="nonzero" fill-opacity="1" /><path clip-path="url(#clip140)" d="M1063.59 9.54393 L1071.08 9.54393 L1071.08 46.7717 L1093.32 27.2059 L1102.84 27.2059 L1078.78 48.4326 L1103.85 72.576 L1094.13 72.576 L1071.08 50.4176 L1071.08 72.576 L1063.59 72.576 L1063.59 9.54393 Z" fill="#000000" fill-rule="nonzero" fill-opacity="1" /><path clip-path="url(#clip140)" d="M1147.76 48.0275 L1147.76 51.6733 L1113.49 51.6733 Q1113.98 59.3701 1118.11 63.421 Q1122.28 67.4314 1129.7 67.4314 Q1133.99 67.4314 1138 66.3781 Q1142.05 65.3249 1146.02 63.2184 L1146.02 70.267 Q1142.01 71.9684 1137.8 72.8596 Q1133.59 73.7508 1129.25 73.7508 Q1118.4 73.7508 1112.04 67.4314 Q1105.72 61.1119 1105.72 50.3365 Q1105.72 39.1965 1111.71 32.6746 Q1117.75 26.1121 1127.96 26.1121 Q1137.11 26.1121 1142.42 32.0264 Q1147.76 37.9003 1147.76 48.0275 M1140.31 45.84 Q1140.23 39.7232 1136.87 36.0774 Q1133.55 32.4315 1128.04 32.4315 Q1121.8 32.4315 1118.03 35.9558 Q1114.3 39.4801 1113.74 45.8805 L1140.31 45.84 Z" fill="#000000" fill-rule="nonzero" fill-opacity="1" /><path clip-path="url(#clip140)" d="M1193.74 14.324 L1193.74 27.2059 L1209.1 27.2059 L1209.1 32.9987 L1193.74 32.9987 L1193.74 57.6282 Q1193.74 63.1779 1195.24 64.7578 Q1196.78 66.3376 1201.44 66.3376 L1209.1 66.3376 L1209.1 72.576 L1201.44 72.576 Q1192.81 72.576 1189.53 69.3758 Q1186.25 66.1351 1186.25 57.6282 L1186.25 32.9987 L1180.78 32.9987 L1180.78 27.2059 L1186.25 27.2059 L1186.25 14.324 L1193.74 14.324 Z" fill="#000000" fill-rule="nonzero" fill-opacity="1" /><path clip-path="url(#clip140)" d="M1256.61 45.1919 L1256.61 72.576 L1249.16 72.576 L1249.16 45.4349 Q1249.16 38.994 1246.65 35.7938 Q1244.14 32.5936 1239.11 32.5936 Q1233.08 32.5936 1229.59 36.4419 Q1226.11 40.2903 1226.11 46.9338 L1226.11 72.576 L1218.61 72.576 L1218.61 9.54393 L1226.11 9.54393 L1226.11 34.2544 Q1228.78 30.163 1232.39 28.1376 Q1236.03 26.1121 1240.77 26.1121 Q1248.59 26.1121 1252.6 30.9732 Q1256.61 35.7938 1256.61 45.1919 Z" fill="#000000" fill-rule="nonzero" fill-opacity="1" /><path clip-path="url(#clip140)" d="M1310.29 48.0275 L1310.29 51.6733 L1276.02 51.6733 Q1276.5 59.3701 1280.63 63.421 Q1284.81 67.4314 1292.22 67.4314 Q1296.51 67.4314 1300.52 66.3781 Q1304.57 65.3249 1308.54 63.2184 L1308.54 70.267 Q1304.53 71.9684 1300.32 72.8596 Q1296.11 73.7508 1291.77 73.7508 Q1280.92 73.7508 1274.56 67.4314 Q1268.24 61.1119 1268.24 50.3365 Q1268.24 39.1965 1274.23 32.6746 Q1280.27 26.1121 1290.48 26.1121 Q1299.63 26.1121 1304.94 32.0264 Q1310.29 37.9003 1310.29 48.0275 M1302.83 45.84 Q1302.75 39.7232 1299.39 36.0774 Q1296.07 32.4315 1290.56 32.4315 Q1284.32 32.4315 1280.55 35.9558 Q1276.83 39.4801 1276.26 45.8805 L1302.83 45.84 Z" fill="#000000" fill-rule="nonzero" fill-opacity="1" /><path clip-path="url(#clip140)" d="M1356.26 14.324 L1356.26 27.2059 L1371.62 27.2059 L1371.62 32.9987 L1356.26 32.9987 L1356.26 57.6282 Q1356.26 63.1779 1357.76 64.7578 Q1359.3 66.3376 1363.96 66.3376 L1371.62 66.3376 L1371.62 72.576 L1363.96 72.576 Q1355.33 72.576 1352.05 69.3758 Q1348.77 66.1351 1348.77 57.6282 L1348.77 32.9987 L1343.3 32.9987 L1343.3 27.2059 L1348.77 27.2059 L1348.77 14.324 L1356.26 14.324 Z" fill="#000000" fill-rule="nonzero" fill-opacity="1" /><path clip-path="url(#clip140)" d="M1407.71 34.1734 Q1406.46 33.4443 1404.96 33.1202 Q1403.5 32.7556 1401.72 32.7556 Q1395.4 32.7556 1391.99 36.8875 Q1388.63 40.9789 1388.63 48.6757 L1388.63 72.576 L1381.14 72.576 L1381.14 27.2059 L1388.63 27.2059 L1388.63 34.2544 Q1390.98 30.1225 1394.75 28.1376 Q1398.52 26.1121 1403.9 26.1121 Q1404.67 26.1121 1405.6 26.2337 Q1406.54 26.3147 1407.67 26.5172 L1407.71 34.1734 Z" fill="#000000" fill-rule="nonzero" fill-opacity="1" /><path clip-path="url(#clip140)" d="M1436.15 49.7694 Q1427.11 49.7694 1423.63 51.8354 Q1420.15 53.9013 1420.15 58.8839 Q1420.15 62.8538 1422.74 65.2034 Q1425.37 67.5124 1429.87 67.5124 Q1436.07 67.5124 1439.79 63.1374 Q1443.56 58.7219 1443.56 51.4303 L1443.56 49.7694 L1436.15 49.7694 M1451.02 46.6907 L1451.02 72.576 L1443.56 72.576 L1443.56 65.6895 Q1441.01 69.8214 1437.2 71.8063 Q1433.39 73.7508 1427.88 73.7508 Q1420.92 73.7508 1416.78 69.8619 Q1412.69 65.9325 1412.69 59.3701 Q1412.69 51.7138 1417.8 47.825 Q1422.94 43.9361 1433.11 43.9361 L1443.56 43.9361 L1443.56 43.2069 Q1443.56 38.0623 1440.16 35.2672 Q1436.8 32.4315 1430.68 32.4315 Q1426.79 32.4315 1423.1 33.3632 Q1419.42 34.295 1416.02 36.1584 L1416.02 29.2718 Q1420.11 27.692 1423.96 26.9223 Q1427.8 26.1121 1431.45 26.1121 Q1441.29 26.1121 1446.15 31.2163 Q1451.02 36.3204 1451.02 46.6907 Z" fill="#000000" fill-rule="nonzero" fill-opacity="1" /><path clip-path="url(#clip140)" d="M1499.02 28.9478 L1499.02 35.9153 Q1495.86 34.1734 1492.66 33.3227 Q1489.5 32.4315 1486.26 32.4315 Q1479.01 32.4315 1475 37.0496 Q1470.99 41.6271 1470.99 49.9314 Q1470.99 58.2358 1475 62.8538 Q1479.01 67.4314 1486.26 67.4314 Q1489.5 67.4314 1492.66 66.5807 Q1495.86 65.6895 1499.02 63.9476 L1499.02 70.8341 Q1495.9 72.2924 1492.54 73.0216 Q1489.22 73.7508 1485.45 73.7508 Q1475.2 73.7508 1469.16 67.3098 Q1463.13 60.8689 1463.13 49.9314 Q1463.13 38.832 1469.2 32.472 Q1475.32 26.1121 1485.93 26.1121 Q1489.38 26.1121 1492.66 26.8413 Q1495.94 27.5299 1499.02 28.9478 Z" fill="#000000" fill-rule="nonzero" fill-opacity="1" /><path clip-path="url(#clip140)" d="M1550.79 48.0275 L1550.79 51.6733 L1516.52 51.6733 Q1517 59.3701 1521.14 63.421 Q1525.31 67.4314 1532.72 67.4314 Q1537.02 67.4314 1541.03 66.3781 Q1545.08 65.3249 1549.05 63.2184 L1549.05 70.267 Q1545.04 71.9684 1540.82 72.8596 Q1536.61 73.7508 1532.28 73.7508 Q1521.42 73.7508 1515.06 67.4314 Q1508.74 61.1119 1508.74 50.3365 Q1508.74 39.1965 1514.74 32.6746 Q1520.77 26.1121 1530.98 26.1121 Q1540.13 26.1121 1545.44 32.0264 Q1550.79 37.9003 1550.79 48.0275 M1543.34 45.84 Q1543.25 39.7232 1539.89 36.0774 Q1536.57 32.4315 1531.06 32.4315 Q1524.82 32.4315 1521.06 35.9558 Q1517.33 39.4801 1516.76 45.8805 L1543.34 45.84 Z" fill="#000000" fill-rule="nonzero" fill-opacity="1" /><path clip-path="url(#clip140)" d="M1591.3 62.2867 L1599.85 62.2867 L1599.85 72.576 L1591.3 72.576 L1591.3 62.2867 M1591.3 29.6769 L1599.85 29.6769 L1599.85 39.9662 L1591.3 39.9662 L1591.3 29.6769 Z" fill="#000000" fill-rule="nonzero" fill-opacity="1" /><path clip-path="url(#clip140)" d="M1635.25 9.62495 Q1629.82 18.942 1627.19 28.0566 Q1624.56 37.1711 1624.56 46.5287 Q1624.56 55.8863 1627.19 65.0818 Q1629.86 74.2369 1635.25 83.5134 L1628.77 83.5134 Q1622.69 73.9938 1619.65 64.7983 Q1616.66 55.6027 1616.66 46.5287 Q1616.66 37.4952 1619.65 28.3401 Q1622.65 19.1851 1628.77 9.62495 L1635.25 9.62495 Z" fill="#000000" fill-rule="nonzero" fill-opacity="1" /><polyline clip-path="url(#clip142)" style="stroke:#000000; stroke-linecap:round; stroke-linejoin:round; stroke-width:4; stroke-opacity:1; fill:none" points="1201.07,1386.4 1208.92,1370.3 1216.36,1354.2 1223.41,1338.1 1230.05,1322 1236.29,1305.9 1242.12,1289.8 1247.56,1273.7 1252.59,1257.6 1257.22,1241.5 1261.44,1225.4 1265.27,1209.3 1268.69,1193.21 1271.7,1177.11 1274.32,1161.01 1276.53,1144.91 1278.35,1128.81 1279.75,1112.71 1280.76,1096.61 1281.36,1080.51 1281.57,1064.41 1281.36,1048.31 1280.76,1032.21 1279.75,1016.11 1278.35,1000.01 1276.53,983.916 1274.32,967.817 1271.7,951.717 1268.69,935.618 1265.27,919.519 1261.44,903.42 1257.22,887.321 1252.59,871.221 1247.56,855.122 1242.12,839.023 1236.29,822.924 1230.05,806.825 1223.41,790.725 1216.36,774.626 1208.92,758.527 1201.07,742.428 "/>
<polyline clip-path="url(#clip142)" style="stroke:#000000; stroke-linecap:round; stroke-linejoin:round; stroke-width:4; stroke-opacity:1; fill:none" points="959.582,1386.4 943.885,1370.3 928.993,1354.2 914.907,1338.1 901.625,1322 889.148,1305.9 877.476,1289.8 866.609,1273.7 856.547,1257.6 847.29,1241.5 838.838,1225.4 831.191,1209.3 824.349,1193.21 818.311,1177.11 813.079,1161.01 808.652,1144.91 805.03,1128.81 802.212,1112.71 800.2,1096.61 798.992,1080.51 798.59,1064.41 798.992,1048.31 800.2,1032.21 802.212,1016.11 805.03,1000.01 808.652,983.916 813.079,967.817 818.311,951.717 824.349,935.618 831.191,919.519 838.838,903.42 847.29,887.321 856.547,871.221 866.609,855.122 877.476,839.023 889.148,822.924 901.625,806.825 914.907,790.725 928.993,774.626 943.885,758.527 959.582,742.428 "/>
<polyline clip-path="url(#clip142)" style="stroke:#000000; stroke-linecap:round; stroke-linejoin:round; stroke-width:4; stroke-opacity:1; fill:none" points="1925.53,1386.4 1925.53,1370.3 1925.53,1354.2 1925.53,1338.1 1925.53,1322 1925.53,1305.9 1925.53,1289.8 1925.53,1273.7 1925.53,1257.6 1925.53,1241.5 1925.53,1225.4 1925.53,1209.3 1925.53,1193.21 1925.53,1177.11 1925.53,1161.01 1925.53,1144.91 1925.53,1128.81 1925.53,1112.71 1925.53,1096.61 1925.53,1080.51 1925.53,1064.41 1925.53,1048.31 1925.53,1032.21 1925.53,1016.11 1925.53,1000.01 1925.53,983.916 1925.53,967.817 1925.53,951.717 1925.53,935.618 1925.53,919.519 1925.53,903.42 1925.53,887.321 1925.53,871.221 1925.53,855.122 1925.53,839.023 1925.53,822.924 1925.53,806.825 1925.53,790.725 1925.53,774.626 1925.53,758.527 1925.53,742.428 "/>
<polyline clip-path="url(#clip142)" style="stroke:#ff0000; stroke-linecap:round; stroke-linejoin:round; stroke-width:4; stroke-opacity:1; fill:none" points="637.598,983.916 1276.53,983.916 801.105,1104.66 1925.53,1104.66 "/>
<polyline clip-path="url(#clip142)" style="stroke:#ff0000; stroke-linecap:round; stroke-linejoin:round; stroke-width:4; stroke-opacity:1; fill:none" points="637.598,903.42 1261.44,903.42 808.652,1144.91 1925.53,1144.91 "/>
<polyline clip-path="url(#clip142)" style="stroke:#ff0000; stroke-linecap:round; stroke-linejoin:round; stroke-width:4; stroke-opacity:1; fill:none" points="637.598,822.924 1236.29,822.924 821.229,1185.16 1925.53,221.399 "/>
<polyline clip-path="url(#clip142)" style="stroke:#008000; stroke-linecap:round; stroke-linejoin:round; stroke-width:4; stroke-opacity:1; fill:none" points="637.598,983.916 1274.06,966.09 800.525,1099.71 1925.53,1163.51 "/>
<polyline clip-path="url(#clip142)" style="stroke:#008000; stroke-linecap:round; stroke-linejoin:round; stroke-width:4; stroke-opacity:1; fill:none" points="637.598,903.42 1256.87,886.076 807.221,1138.97 1925.53,1203.06 "/>
<polyline clip-path="url(#clip142)" style="stroke:#008000; stroke-linecap:round; stroke-linejoin:round; stroke-width:4; stroke-opacity:1; fill:none" points="637.598,822.924 1229.85,806.336 818.508,1177.67 1925.53,178.326 "/>
<polyline clip-path="url(#clip142)" style="stroke:#0000ff; stroke-linecap:round; stroke-linejoin:round; stroke-width:4; stroke-opacity:1; fill:none" points="637.598,983.916 1272.85,958.492 800.288,1097.48 1925.53,1189.25 "/>
<polyline clip-path="url(#clip142)" style="stroke:#0000ff; stroke-linecap:round; stroke-linejoin:round; stroke-width:4; stroke-opacity:1; fill:none" points="637.598,903.42 1254.79,878.719 806.598,1136.22 1925.53,1228.88 "/>
<polyline clip-path="url(#clip142)" style="stroke:#0000ff; stroke-linecap:round; stroke-linejoin:round; stroke-width:4; stroke-opacity:1; fill:none" points="637.598,822.924 1227.01,799.335 817.299,1174.18 1925.53,160.256 "/>
</svg>
