<?xml version="1.0" encoding="utf-8"?>
<svg xmlns="http://www.w3.org/2000/svg" xmlns:xlink="http://www.w3.org/1999/xlink" width="600" height="400" viewBox="0 0 2400 1600">
<defs>
  <clipPath id="clip410">
    <rect x="0" y="0" width="2400" height="1600"/>
  </clipPath>
</defs>
<path clip-path="url(#clip410)" d="M0 1600 L2400 1600 L2400 0 L0 0  Z" fill="#ffffff" fill-rule="evenodd" fill-opacity="1"/>
<defs>
  <clipPath id="clip411">
    <rect x="480" y="0" width="1681" height="1600"/>
  </clipPath>
</defs>
<path clip-path="url(#clip410)" d="M257.69 1423.18 L2352.76 1423.18 L2352.76 123.472 L257.69 123.472  Z" fill="#ffffff" fill-rule="evenodd" fill-opacity="1"/>
<defs>
  <clipPath id="clip412">
    <rect x="257" y="123" width="2096" height="1301"/>
  </clipPath>
</defs>
<polyline clip-path="url(#clip412)" style="stroke:#000000; stroke-linecap:round; stroke-linejoin:round; stroke-width:2; stroke-opacity:0.1; fill:none" points="577.185,1423.18 577.185,123.472 "/>
<polyline clip-path="url(#clip412)" style="stroke:#000000; stroke-linecap:round; stroke-linejoin:round; stroke-width:2; stroke-opacity:0.1; fill:none" points="941.204,1423.18 941.204,123.472 "/>
<polyline clip-path="url(#clip412)" style="stroke:#000000; stroke-linecap:round; stroke-linejoin:round; stroke-width:2; stroke-opacity:0.1; fill:none" points="1305.22,1423.18 1305.22,123.472 "/>
<polyline clip-path="url(#clip412)" style="stroke:#000000; stroke-linecap:round; stroke-linejoin:round; stroke-width:2; stroke-opacity:0.1; fill:none" points="1669.24,1423.18 1669.24,123.472 "/>
<polyline clip-path="url(#clip412)" style="stroke:#000000; stroke-linecap:round; stroke-linejoin:round; stroke-width:2; stroke-opacity:0.1; fill:none" points="2033.26,1423.18 2033.26,123.472 "/>
<polyline clip-path="url(#clip412)" style="stroke:#000000; stroke-linecap:round; stroke-linejoin:round; stroke-width:2; stroke-opacity:0.1; fill:none" points="257.69,1312.98 2352.76,1312.98 "/>
<polyline clip-path="url(#clip412)" style="stroke:#000000; stroke-linecap:round; stroke-linejoin:round; stroke-width:2; stroke-opacity:0.1; fill:none" points="257.69,1070.3 2352.76,1070.3 "/>
<polyline clip-path="url(#clip412)" style="stroke:#000000; stroke-linecap:round; stroke-linejoin:round; stroke-width:2; stroke-opacity:0.1; fill:none" points="257.69,827.621 2352.76,827.621 "/>
<polyline clip-path="url(#clip412)" style="stroke:#000000; stroke-linecap:round; stroke-linejoin:round; stroke-width:2; stroke-opacity:0.1; fill:none" points="257.69,584.942 2352.76,584.942 "/>
<polyline clip-path="url(#clip412)" style="stroke:#000000; stroke-linecap:round; stroke-linejoin:round; stroke-width:2; stroke-opacity:0.1; fill:none" points="257.69,342.262 2352.76,342.262 "/>
<polyline clip-path="url(#clip410)" style="stroke:#000000; stroke-linecap:round; stroke-linejoin:round; stroke-width:4; stroke-opacity:1; fill:none" points="257.69,1423.18 2352.76,1423.18 "/>
<polyline clip-path="url(#clip410)" style="stroke:#000000; stroke-linecap:round; stroke-linejoin:round; stroke-width:4; stroke-opacity:1; fill:none" points="577.185,1423.18 577.185,1404.28 "/>
<polyline clip-path="url(#clip410)" style="stroke:#000000; stroke-linecap:round; stroke-linejoin:round; stroke-width:4; stroke-opacity:1; fill:none" points="941.204,1423.18 941.204,1404.28 "/>
<polyline clip-path="url(#clip410)" style="stroke:#000000; stroke-linecap:round; stroke-linejoin:round; stroke-width:4; stroke-opacity:1; fill:none" points="1305.22,1423.18 1305.22,1404.28 "/>
<polyline clip-path="url(#clip410)" style="stroke:#000000; stroke-linecap:round; stroke-linejoin:round; stroke-width:4; stroke-opacity:1; fill:none" points="1669.24,1423.18 1669.24,1404.28 "/>
<polyline clip-path="url(#clip410)" style="stroke:#000000; stroke-linecap:round; stroke-linejoin:round; stroke-width:4; stroke-opacity:1; fill:none" points="2033.26,1423.18 2033.26,1404.28 "/>
<path clip-path="url(#clip410)" d="M523.633 1468.75 L553.308 1468.75 L553.308 1472.69 L523.633 1472.69 L523.633 1468.75 Z" fill="#000000" fill-rule="nonzero" fill-opacity="1" /><path clip-path="url(#clip410)" d="M573.401 1454.1 Q569.79 1454.1 567.961 1457.66 Q566.155 1461.2 566.155 1468.33 Q566.155 1475.44 567.961 1479.01 Q569.79 1482.55 573.401 1482.55 Q577.035 1482.55 578.841 1479.01 Q580.669 1475.44 580.669 1468.33 Q580.669 1461.2 578.841 1457.66 Q577.035 1454.1 573.401 1454.1 M573.401 1450.39 Q579.211 1450.39 582.266 1455 Q585.345 1459.58 585.345 1468.33 Q585.345 1477.06 582.266 1481.67 Q579.211 1486.25 573.401 1486.25 Q567.591 1486.25 564.512 1481.67 Q561.456 1477.06 561.456 1468.33 Q561.456 1459.58 564.512 1455 Q567.591 1450.39 573.401 1450.39 Z" fill="#000000" fill-rule="nonzero" fill-opacity="1" /><path clip-path="url(#clip410)" d="M593.563 1479.7 L598.447 1479.7 L598.447 1485.58 L593.563 1485.58 L593.563 1479.7 Z" fill="#000000" fill-rule="nonzero" fill-opacity="1" /><path clip-path="url(#clip410)" d="M619.211 1466.44 Q616.063 1466.44 614.211 1468.59 Q612.382 1470.74 612.382 1474.49 Q612.382 1478.22 614.211 1480.39 Q616.063 1482.55 619.211 1482.55 Q622.359 1482.55 624.188 1480.39 Q626.039 1478.22 626.039 1474.49 Q626.039 1470.74 624.188 1468.59 Q622.359 1466.44 619.211 1466.44 M628.493 1451.78 L628.493 1456.04 Q626.734 1455.21 624.928 1454.77 Q623.146 1454.33 621.387 1454.33 Q616.757 1454.33 614.303 1457.45 Q611.873 1460.58 611.526 1466.9 Q612.891 1464.89 614.951 1463.82 Q617.012 1462.73 619.488 1462.73 Q624.697 1462.73 627.706 1465.9 Q630.738 1469.05 630.738 1474.49 Q630.738 1479.82 627.59 1483.03 Q624.442 1486.25 619.211 1486.25 Q613.215 1486.25 610.044 1481.67 Q606.873 1477.06 606.873 1468.33 Q606.873 1460.14 610.762 1455.28 Q614.651 1450.39 621.201 1450.39 Q622.961 1450.39 624.743 1450.74 Q626.549 1451.09 628.493 1451.78 Z" fill="#000000" fill-rule="nonzero" fill-opacity="1" /><path clip-path="url(#clip410)" d="M888.056 1468.75 L917.732 1468.75 L917.732 1472.69 L888.056 1472.69 L888.056 1468.75 Z" fill="#000000" fill-rule="nonzero" fill-opacity="1" /><path clip-path="url(#clip410)" d="M937.825 1454.1 Q934.214 1454.1 932.385 1457.66 Q930.579 1461.2 930.579 1468.33 Q930.579 1475.44 932.385 1479.01 Q934.214 1482.55 937.825 1482.55 Q941.459 1482.55 943.264 1479.01 Q945.093 1475.44 945.093 1468.33 Q945.093 1461.2 943.264 1457.66 Q941.459 1454.1 937.825 1454.1 M937.825 1450.39 Q943.635 1450.39 946.69 1455 Q949.769 1459.58 949.769 1468.33 Q949.769 1477.06 946.69 1481.67 Q943.635 1486.25 937.825 1486.25 Q932.014 1486.25 928.936 1481.67 Q925.88 1477.06 925.88 1468.33 Q925.88 1459.58 928.936 1455 Q932.014 1450.39 937.825 1450.39 Z" fill="#000000" fill-rule="nonzero" fill-opacity="1" /><path clip-path="url(#clip410)" d="M957.987 1479.7 L962.871 1479.7 L962.871 1485.58 L957.987 1485.58 L957.987 1479.7 Z" fill="#000000" fill-rule="nonzero" fill-opacity="1" /><path clip-path="url(#clip410)" d="M987.223 1466.95 Q990.579 1467.66 992.454 1469.93 Q994.352 1472.2 994.352 1475.53 Q994.352 1480.65 990.834 1483.45 Q987.315 1486.25 980.834 1486.25 Q978.658 1486.25 976.343 1485.81 Q974.051 1485.39 971.598 1484.54 L971.598 1480.02 Q973.542 1481.16 975.857 1481.74 Q978.172 1482.32 980.695 1482.32 Q985.093 1482.32 987.385 1480.58 Q989.699 1478.84 989.699 1475.53 Q989.699 1472.48 987.547 1470.77 Q985.417 1469.03 981.598 1469.03 L977.57 1469.03 L977.57 1465.19 L981.783 1465.19 Q985.232 1465.19 987.06 1463.82 Q988.889 1462.43 988.889 1459.84 Q988.889 1457.18 986.991 1455.77 Q985.116 1454.33 981.598 1454.33 Q979.676 1454.33 977.477 1454.75 Q975.278 1455.16 972.639 1456.04 L972.639 1451.88 Q975.301 1451.14 977.616 1450.77 Q979.954 1450.39 982.014 1450.39 Q987.338 1450.39 990.44 1452.83 Q993.542 1455.23 993.542 1459.35 Q993.542 1462.22 991.898 1464.21 Q990.255 1466.18 987.223 1466.95 Z" fill="#000000" fill-rule="nonzero" fill-opacity="1" /><path clip-path="url(#clip410)" d="M1282.61 1454.1 Q1279 1454.1 1277.17 1457.66 Q1275.36 1461.2 1275.36 1468.33 Q1275.36 1475.44 1277.17 1479.01 Q1279 1482.55 1282.61 1482.55 Q1286.24 1482.55 1288.05 1479.01 Q1289.88 1475.44 1289.88 1468.33 Q1289.88 1461.2 1288.05 1457.66 Q1286.24 1454.1 1282.61 1454.1 M1282.61 1450.39 Q1288.42 1450.39 1291.47 1455 Q1294.55 1459.58 1294.55 1468.33 Q1294.55 1477.06 1291.47 1481.67 Q1288.42 1486.25 1282.61 1486.25 Q1276.8 1486.25 1273.72 1481.67 Q1270.66 1477.06 1270.66 1468.33 Q1270.66 1459.58 1273.72 1455 Q1276.8 1450.39 1282.61 1450.39 Z" fill="#000000" fill-rule="nonzero" fill-opacity="1" /><path clip-path="url(#clip410)" d="M1302.77 1479.7 L1307.65 1479.7 L1307.65 1485.58 L1302.77 1485.58 L1302.77 1479.7 Z" fill="#000000" fill-rule="nonzero" fill-opacity="1" /><path clip-path="url(#clip410)" d="M1327.84 1454.1 Q1324.23 1454.1 1322.4 1457.66 Q1320.59 1461.2 1320.59 1468.33 Q1320.59 1475.44 1322.4 1479.01 Q1324.23 1482.55 1327.84 1482.55 Q1331.47 1482.55 1333.28 1479.01 Q1335.11 1475.44 1335.11 1468.33 Q1335.11 1461.2 1333.28 1457.66 Q1331.47 1454.1 1327.84 1454.1 M1327.84 1450.39 Q1333.65 1450.39 1336.7 1455 Q1339.78 1459.58 1339.78 1468.33 Q1339.78 1477.06 1336.7 1481.67 Q1333.65 1486.25 1327.84 1486.25 Q1322.03 1486.25 1318.95 1481.67 Q1315.89 1477.06 1315.89 1468.33 Q1315.89 1459.58 1318.95 1455 Q1322.03 1450.39 1327.84 1450.39 Z" fill="#000000" fill-rule="nonzero" fill-opacity="1" /><path clip-path="url(#clip410)" d="M1646.95 1454.1 Q1643.34 1454.1 1641.51 1457.66 Q1639.7 1461.2 1639.7 1468.33 Q1639.7 1475.44 1641.51 1479.01 Q1643.34 1482.55 1646.95 1482.55 Q1650.58 1482.55 1652.39 1479.01 Q1654.22 1475.44 1654.22 1468.33 Q1654.22 1461.2 1652.39 1457.66 Q1650.58 1454.1 1646.95 1454.1 M1646.95 1450.39 Q1652.76 1450.39 1655.82 1455 Q1658.89 1459.58 1658.89 1468.33 Q1658.89 1477.06 1655.82 1481.67 Q1652.76 1486.25 1646.95 1486.25 Q1641.14 1486.25 1638.06 1481.67 Q1635.01 1477.06 1635.01 1468.33 Q1635.01 1459.58 1638.06 1455 Q1641.14 1450.39 1646.95 1450.39 Z" fill="#000000" fill-rule="nonzero" fill-opacity="1" /><path clip-path="url(#clip410)" d="M1667.11 1479.7 L1672 1479.7 L1672 1485.58 L1667.11 1485.58 L1667.11 1479.7 Z" fill="#000000" fill-rule="nonzero" fill-opacity="1" /><path clip-path="url(#clip410)" d="M1696.35 1466.95 Q1699.7 1467.66 1701.58 1469.93 Q1703.48 1472.2 1703.48 1475.53 Q1703.48 1480.65 1699.96 1483.45 Q1696.44 1486.25 1689.96 1486.25 Q1687.78 1486.25 1685.47 1485.81 Q1683.18 1485.39 1680.72 1484.54 L1680.72 1480.02 Q1682.67 1481.16 1684.98 1481.74 Q1687.3 1482.32 1689.82 1482.32 Q1694.22 1482.32 1696.51 1480.58 Q1698.82 1478.84 1698.82 1475.53 Q1698.82 1472.48 1696.67 1470.77 Q1694.54 1469.03 1690.72 1469.03 L1686.7 1469.03 L1686.7 1465.19 L1690.91 1465.19 Q1694.36 1465.19 1696.19 1463.82 Q1698.01 1462.43 1698.01 1459.84 Q1698.01 1457.18 1696.12 1455.77 Q1694.24 1454.33 1690.72 1454.33 Q1688.8 1454.33 1686.6 1454.75 Q1684.4 1455.16 1681.76 1456.04 L1681.76 1451.88 Q1684.43 1451.14 1686.74 1450.77 Q1689.08 1450.39 1691.14 1450.39 Q1696.46 1450.39 1699.57 1452.83 Q1702.67 1455.23 1702.67 1459.35 Q1702.67 1462.22 1701.02 1464.21 Q1699.38 1466.18 1696.35 1466.95 Z" fill="#000000" fill-rule="nonzero" fill-opacity="1" /><path clip-path="url(#clip410)" d="M2010.56 1454.1 Q2006.95 1454.1 2005.12 1457.66 Q2003.32 1461.2 2003.32 1468.33 Q2003.32 1475.44 2005.12 1479.01 Q2006.95 1482.55 2010.56 1482.55 Q2014.2 1482.55 2016 1479.01 Q2017.83 1475.44 2017.83 1468.33 Q2017.83 1461.2 2016 1457.66 Q2014.2 1454.1 2010.56 1454.1 M2010.56 1450.39 Q2016.37 1450.39 2019.43 1455 Q2022.51 1459.58 2022.51 1468.33 Q2022.51 1477.06 2019.43 1481.67 Q2016.37 1486.25 2010.56 1486.25 Q2004.75 1486.25 2001.68 1481.67 Q1998.62 1477.06 1998.62 1468.33 Q1998.62 1459.58 2001.68 1455 Q2004.75 1450.39 2010.56 1450.39 Z" fill="#000000" fill-rule="nonzero" fill-opacity="1" /><path clip-path="url(#clip410)" d="M2030.73 1479.7 L2035.61 1479.7 L2035.61 1485.58 L2030.73 1485.58 L2030.73 1479.7 Z" fill="#000000" fill-rule="nonzero" fill-opacity="1" /><path clip-path="url(#clip410)" d="M2056.37 1466.44 Q2053.23 1466.44 2051.37 1468.59 Q2049.55 1470.74 2049.55 1474.49 Q2049.55 1478.22 2051.37 1480.39 Q2053.23 1482.55 2056.37 1482.55 Q2059.52 1482.55 2061.35 1480.39 Q2063.2 1478.22 2063.2 1474.49 Q2063.2 1470.74 2061.35 1468.59 Q2059.52 1466.44 2056.37 1466.44 M2065.66 1451.78 L2065.66 1456.04 Q2063.9 1455.21 2062.09 1454.77 Q2060.31 1454.33 2058.55 1454.33 Q2053.92 1454.33 2051.47 1457.45 Q2049.04 1460.58 2048.69 1466.9 Q2050.05 1464.89 2052.11 1463.82 Q2054.17 1462.73 2056.65 1462.73 Q2061.86 1462.73 2064.87 1465.9 Q2067.9 1469.05 2067.9 1474.49 Q2067.9 1479.82 2064.75 1483.03 Q2061.61 1486.25 2056.37 1486.25 Q2050.38 1486.25 2047.21 1481.67 Q2044.04 1477.06 2044.04 1468.33 Q2044.04 1460.14 2047.92 1455.28 Q2051.81 1450.39 2058.36 1450.39 Q2060.12 1450.39 2061.91 1450.74 Q2063.71 1451.09 2065.66 1451.78 Z" fill="#000000" fill-rule="nonzero" fill-opacity="1" /><path clip-path="url(#clip410)" d="M1321.84 1532.4 L1308.95 1549.74 L1322.51 1568.04 L1315.6 1568.04 L1305.22 1554.04 L1294.85 1568.04 L1287.94 1568.04 L1301.79 1549.39 L1289.12 1532.4 L1296.02 1532.4 L1305.48 1545.1 L1314.93 1532.4 L1321.84 1532.4 Z" fill="#000000" fill-rule="nonzero" fill-opacity="1" /><polyline clip-path="url(#clip410)" style="stroke:#000000; stroke-linecap:round; stroke-linejoin:round; stroke-width:4; stroke-opacity:1; fill:none" points="257.69,1423.18 257.69,123.472 "/>
<polyline clip-path="url(#clip410)" style="stroke:#000000; stroke-linecap:round; stroke-linejoin:round; stroke-width:4; stroke-opacity:1; fill:none" points="257.69,1312.98 276.588,1312.98 "/>
<polyline clip-path="url(#clip410)" style="stroke:#000000; stroke-linecap:round; stroke-linejoin:round; stroke-width:4; stroke-opacity:1; fill:none" points="257.69,1070.3 276.588,1070.3 "/>
<polyline clip-path="url(#clip410)" style="stroke:#000000; stroke-linecap:round; stroke-linejoin:round; stroke-width:4; stroke-opacity:1; fill:none" points="257.69,827.621 276.588,827.621 "/>
<polyline clip-path="url(#clip410)" style="stroke:#000000; stroke-linecap:round; stroke-linejoin:round; stroke-width:4; stroke-opacity:1; fill:none" points="257.69,584.942 276.588,584.942 "/>
<polyline clip-path="url(#clip410)" style="stroke:#000000; stroke-linecap:round; stroke-linejoin:round; stroke-width:4; stroke-opacity:1; fill:none" points="257.69,342.262 276.588,342.262 "/>
<path clip-path="url(#clip410)" d="M116.343 1313.43 L146.019 1313.43 L146.019 1317.37 L116.343 1317.37 L116.343 1313.43 Z" fill="#000000" fill-rule="nonzero" fill-opacity="1" /><path clip-path="url(#clip410)" d="M156.922 1326.32 L164.561 1326.32 L164.561 1299.96 L156.251 1301.63 L156.251 1297.37 L164.515 1295.7 L169.19 1295.7 L169.19 1326.32 L176.829 1326.32 L176.829 1330.26 L156.922 1330.26 L156.922 1326.32 Z" fill="#000000" fill-rule="nonzero" fill-opacity="1" /><path clip-path="url(#clip410)" d="M186.274 1324.38 L191.158 1324.38 L191.158 1330.26 L186.274 1330.26 L186.274 1324.38 Z" fill="#000000" fill-rule="nonzero" fill-opacity="1" /><path clip-path="url(#clip410)" d="M205.371 1326.32 L221.69 1326.32 L221.69 1330.26 L199.746 1330.26 L199.746 1326.32 Q202.408 1323.57 206.991 1318.94 Q211.598 1314.29 212.778 1312.94 Q215.024 1310.42 215.903 1308.69 Q216.806 1306.93 216.806 1305.24 Q216.806 1302.48 214.861 1300.75 Q212.94 1299.01 209.838 1299.01 Q207.639 1299.01 205.186 1299.77 Q202.755 1300.54 199.977 1302.09 L199.977 1297.37 Q202.801 1296.23 205.255 1295.65 Q207.709 1295.07 209.746 1295.07 Q215.116 1295.07 218.311 1297.76 Q221.505 1300.44 221.505 1304.94 Q221.505 1307.06 220.695 1308.99 Q219.908 1310.88 217.801 1313.48 Q217.223 1314.15 214.121 1317.37 Q211.019 1320.56 205.371 1326.32 Z" fill="#000000" fill-rule="nonzero" fill-opacity="1" /><path clip-path="url(#clip410)" d="M114.746 1070.75 L144.422 1070.75 L144.422 1074.69 L114.746 1074.69 L114.746 1070.75 Z" fill="#000000" fill-rule="nonzero" fill-opacity="1" /><path clip-path="url(#clip410)" d="M155.325 1083.64 L162.964 1083.64 L162.964 1057.28 L154.653 1058.95 L154.653 1054.69 L162.917 1053.02 L167.593 1053.02 L167.593 1083.64 L175.232 1083.64 L175.232 1087.58 L155.325 1087.58 L155.325 1083.64 Z" fill="#000000" fill-rule="nonzero" fill-opacity="1" /><path clip-path="url(#clip410)" d="M184.676 1081.7 L189.561 1081.7 L189.561 1087.58 L184.676 1087.58 L184.676 1081.7 Z" fill="#000000" fill-rule="nonzero" fill-opacity="1" /><path clip-path="url(#clip410)" d="M209.746 1056.1 Q206.135 1056.1 204.306 1059.66 Q202.5 1063.21 202.5 1070.33 Q202.5 1077.44 204.306 1081.01 Q206.135 1084.55 209.746 1084.55 Q213.38 1084.55 215.186 1081.01 Q217.014 1077.44 217.014 1070.33 Q217.014 1063.21 215.186 1059.66 Q213.38 1056.1 209.746 1056.1 M209.746 1052.4 Q215.556 1052.4 218.611 1057 Q221.69 1061.58 221.69 1070.33 Q221.69 1079.06 218.611 1083.67 Q215.556 1088.25 209.746 1088.25 Q203.936 1088.25 200.857 1083.67 Q197.801 1079.06 197.801 1070.33 Q197.801 1061.58 200.857 1057 Q203.936 1052.4 209.746 1052.4 Z" fill="#000000" fill-rule="nonzero" fill-opacity="1" /><path clip-path="url(#clip410)" d="M114.839 828.072 L144.515 828.072 L144.515 832.007 L114.839 832.007 L114.839 828.072 Z" fill="#000000" fill-rule="nonzero" fill-opacity="1" /><path clip-path="url(#clip410)" d="M164.607 813.42 Q160.996 813.42 159.167 816.984 Q157.362 820.526 157.362 827.656 Q157.362 834.762 159.167 838.327 Q160.996 841.868 164.607 841.868 Q168.241 841.868 170.047 838.327 Q171.876 834.762 171.876 827.656 Q171.876 820.526 170.047 816.984 Q168.241 813.42 164.607 813.42 M164.607 809.716 Q170.417 809.716 173.473 814.322 Q176.551 818.906 176.551 827.656 Q176.551 836.382 173.473 840.989 Q170.417 845.572 164.607 845.572 Q158.797 845.572 155.718 840.989 Q152.663 836.382 152.663 827.656 Q152.663 818.906 155.718 814.322 Q158.797 809.716 164.607 809.716 Z" fill="#000000" fill-rule="nonzero" fill-opacity="1" /><path clip-path="url(#clip410)" d="M184.769 839.021 L189.653 839.021 L189.653 844.901 L184.769 844.901 L184.769 839.021 Z" fill="#000000" fill-rule="nonzero" fill-opacity="1" /><path clip-path="url(#clip410)" d="M209.838 828.489 Q206.505 828.489 204.584 830.271 Q202.686 832.054 202.686 835.179 Q202.686 838.304 204.584 840.086 Q206.505 841.868 209.838 841.868 Q213.172 841.868 215.093 840.086 Q217.014 838.28 217.014 835.179 Q217.014 832.054 215.093 830.271 Q213.195 828.489 209.838 828.489 M205.162 826.498 Q202.153 825.757 200.463 823.697 Q198.797 821.637 198.797 818.674 Q198.797 814.531 201.737 812.123 Q204.699 809.716 209.838 809.716 Q215 809.716 217.94 812.123 Q220.88 814.531 220.88 818.674 Q220.88 821.637 219.19 823.697 Q217.523 825.757 214.537 826.498 Q217.917 827.285 219.792 829.577 Q221.69 831.868 221.69 835.179 Q221.69 840.202 218.611 842.887 Q215.556 845.572 209.838 845.572 Q204.121 845.572 201.042 842.887 Q197.987 840.202 197.987 835.179 Q197.987 831.868 199.885 829.577 Q201.783 827.285 205.162 826.498 M203.449 819.114 Q203.449 821.799 205.116 823.304 Q206.806 824.808 209.838 824.808 Q212.848 824.808 214.537 823.304 Q216.25 821.799 216.25 819.114 Q216.25 816.429 214.537 814.924 Q212.848 813.42 209.838 813.42 Q206.806 813.42 205.116 814.924 Q203.449 816.429 203.449 819.114 Z" fill="#000000" fill-rule="nonzero" fill-opacity="1" /><path clip-path="url(#clip410)" d="M114.584 585.393 L144.26 585.393 L144.26 589.328 L114.584 589.328 L114.584 585.393 Z" fill="#000000" fill-rule="nonzero" fill-opacity="1" /><path clip-path="url(#clip410)" d="M164.352 570.74 Q160.741 570.74 158.913 574.305 Q157.107 577.847 157.107 584.976 Q157.107 592.083 158.913 595.648 Q160.741 599.189 164.352 599.189 Q167.987 599.189 169.792 595.648 Q171.621 592.083 171.621 584.976 Q171.621 577.847 169.792 574.305 Q167.987 570.74 164.352 570.74 M164.352 567.037 Q170.163 567.037 173.218 571.643 Q176.297 576.226 176.297 584.976 Q176.297 593.703 173.218 598.31 Q170.163 602.893 164.352 602.893 Q158.542 602.893 155.464 598.31 Q152.408 593.703 152.408 584.976 Q152.408 576.226 155.464 571.643 Q158.542 567.037 164.352 567.037 Z" fill="#000000" fill-rule="nonzero" fill-opacity="1" /><path clip-path="url(#clip410)" d="M184.514 596.342 L189.399 596.342 L189.399 602.222 L184.514 602.222 L184.514 596.342 Z" fill="#000000" fill-rule="nonzero" fill-opacity="1" /><path clip-path="url(#clip410)" d="M210.162 583.078 Q207.014 583.078 205.162 585.231 Q203.334 587.384 203.334 591.134 Q203.334 594.861 205.162 597.036 Q207.014 599.189 210.162 599.189 Q213.311 599.189 215.139 597.036 Q216.991 594.861 216.991 591.134 Q216.991 587.384 215.139 585.231 Q213.311 583.078 210.162 583.078 M219.445 568.426 L219.445 572.685 Q217.686 571.851 215.88 571.412 Q214.098 570.972 212.338 570.972 Q207.709 570.972 205.255 574.097 Q202.824 577.222 202.477 583.541 Q203.843 581.527 205.903 580.462 Q207.963 579.375 210.44 579.375 Q215.649 579.375 218.658 582.546 Q221.69 585.694 221.69 591.134 Q221.69 596.458 218.542 599.675 Q215.394 602.893 210.162 602.893 Q204.167 602.893 200.996 598.31 Q197.825 593.703 197.825 584.976 Q197.825 576.782 201.713 571.921 Q205.602 567.037 212.153 567.037 Q213.912 567.037 215.695 567.384 Q217.5 567.731 219.445 568.426 Z" fill="#000000" fill-rule="nonzero" fill-opacity="1" /><path clip-path="url(#clip410)" d="M114.26 342.714 L143.936 342.714 L143.936 346.649 L114.26 346.649 L114.26 342.714 Z" fill="#000000" fill-rule="nonzero" fill-opacity="1" /><path clip-path="url(#clip410)" d="M164.028 328.061 Q160.417 328.061 158.589 331.626 Q156.783 335.168 156.783 342.297 Q156.783 349.404 158.589 352.968 Q160.417 356.51 164.028 356.51 Q167.663 356.51 169.468 352.968 Q171.297 349.404 171.297 342.297 Q171.297 335.168 169.468 331.626 Q167.663 328.061 164.028 328.061 M164.028 324.357 Q169.839 324.357 172.894 328.964 Q175.973 333.547 175.973 342.297 Q175.973 351.024 172.894 355.63 Q169.839 360.214 164.028 360.214 Q158.218 360.214 155.14 355.63 Q152.084 351.024 152.084 342.297 Q152.084 333.547 155.14 328.964 Q158.218 324.357 164.028 324.357 Z" fill="#000000" fill-rule="nonzero" fill-opacity="1" /><path clip-path="url(#clip410)" d="M184.19 353.663 L189.075 353.663 L189.075 359.542 L184.19 359.542 L184.19 353.663 Z" fill="#000000" fill-rule="nonzero" fill-opacity="1" /><path clip-path="url(#clip410)" d="M212.107 329.057 L200.301 347.505 L212.107 347.505 L212.107 329.057 M210.88 324.982 L216.76 324.982 L216.76 347.505 L221.69 347.505 L221.69 351.394 L216.76 351.394 L216.76 359.542 L212.107 359.542 L212.107 351.394 L196.505 351.394 L196.505 346.88 L210.88 324.982 Z" fill="#000000" fill-rule="nonzero" fill-opacity="1" /><path clip-path="url(#clip410)" d="M67.3143 771.639 Q73.68 774.122 75.6216 776.477 Q77.5631 778.832 77.5631 782.779 L77.5631 787.458 L72.6615 787.458 L72.6615 784.02 Q72.6615 781.601 71.5157 780.265 Q70.3699 778.928 66.1048 777.305 L63.4312 776.254 L28.3562 790.673 L28.3562 784.466 L56.238 773.326 L28.3562 762.186 L28.3562 755.979 L67.3143 771.639 Z" fill="#000000" fill-rule="nonzero" fill-opacity="1" /><path clip-path="url(#clip410)" d="M992.513 9.54393 L992.513 15.7418 L985.384 15.7418 Q981.373 15.7418 979.794 17.3622 Q978.254 18.9825 978.254 23.1955 L978.254 27.2059 L990.529 27.2059 L990.529 32.9987 L978.254 32.9987 L978.254 72.576 L970.76 72.576 L970.76 32.9987 L963.631 32.9987 L963.631 27.2059 L970.76 27.2059 L970.76 24.0462 Q970.76 16.471 974.284 13.0277 Q977.809 9.54393 985.465 9.54393 L992.513 9.54393 Z" fill="#000000" fill-rule="nonzero" fill-opacity="1" /><path clip-path="url(#clip410)" d="M998.752 27.2059 L1006.21 27.2059 L1006.21 72.576 L998.752 72.576 L998.752 27.2059 M998.752 9.54393 L1006.21 9.54393 L1006.21 18.9825 L998.752 18.9825 L998.752 9.54393 Z" fill="#000000" fill-rule="nonzero" fill-opacity="1" /><path clip-path="url(#clip410)" d="M1059.52 27.2059 L1043.11 49.2833 L1060.37 72.576 L1051.58 72.576 L1038.37 54.752 L1025.16 72.576 L1016.37 72.576 L1033.99 48.8377 L1017.87 27.2059 L1026.66 27.2059 L1038.69 43.369 L1050.72 27.2059 L1059.52 27.2059 Z" fill="#000000" fill-rule="nonzero" fill-opacity="1" /><path clip-path="url(#clip410)" d="M1107.15 48.0275 L1107.15 51.6733 L1072.88 51.6733 Q1073.37 59.3701 1077.5 63.421 Q1081.67 67.4314 1089.09 67.4314 Q1093.38 67.4314 1097.39 66.3781 Q1101.44 65.3249 1105.41 63.2184 L1105.41 70.267 Q1101.4 71.9684 1097.19 72.8596 Q1092.98 73.7508 1088.64 73.7508 Q1077.79 73.7508 1071.43 67.4314 Q1065.11 61.1119 1065.11 50.3365 Q1065.11 39.1965 1071.1 32.6746 Q1077.14 26.1121 1087.35 26.1121 Q1096.5 26.1121 1101.81 32.0264 Q1107.15 37.9003 1107.15 48.0275 M1099.7 45.84 Q1099.62 39.7232 1096.26 36.0774 Q1092.94 32.4315 1087.43 32.4315 Q1081.19 32.4315 1077.42 35.9558 Q1073.69 39.4801 1073.13 45.8805 L1099.7 45.84 Z" fill="#000000" fill-rule="nonzero" fill-opacity="1" /><path clip-path="url(#clip410)" d="M1149.24 34.0924 L1149.24 9.54393 L1156.7 9.54393 L1156.7 72.576 L1149.24 72.576 L1149.24 65.7705 Q1146.89 69.8214 1143.29 71.8063 Q1139.72 73.7508 1134.7 73.7508 Q1126.48 73.7508 1121.29 67.1883 Q1116.15 60.6258 1116.15 49.9314 Q1116.15 39.2371 1121.29 32.6746 Q1126.48 26.1121 1134.7 26.1121 Q1139.72 26.1121 1143.29 28.0971 Q1146.89 30.0415 1149.24 34.0924 M1123.84 49.9314 Q1123.84 58.1548 1127.21 62.8538 Q1130.61 67.5124 1136.52 67.5124 Q1142.44 67.5124 1145.84 62.8538 Q1149.24 58.1548 1149.24 49.9314 Q1149.24 41.7081 1145.84 37.0496 Q1142.44 32.3505 1136.52 32.3505 Q1130.61 32.3505 1127.21 37.0496 Q1123.84 41.7081 1123.84 49.9314 Z" fill="#000000" fill-rule="nonzero" fill-opacity="1" /><path clip-path="url(#clip410)" d="M1205.79 14.324 L1205.79 27.2059 L1221.15 27.2059 L1221.15 32.9987 L1205.79 32.9987 L1205.79 57.6282 Q1205.79 63.1779 1207.29 64.7578 Q1208.83 66.3376 1213.49 66.3376 L1221.15 66.3376 L1221.15 72.576 L1213.49 72.576 Q1204.86 72.576 1201.58 69.3758 Q1198.3 66.1351 1198.3 57.6282 L1198.3 32.9987 L1192.83 32.9987 L1192.83 27.2059 L1198.3 27.2059 L1198.3 14.324 L1205.79 14.324 Z" fill="#000000" fill-rule="nonzero" fill-opacity="1" /><path clip-path="url(#clip410)" d="M1268.66 45.1919 L1268.66 72.576 L1261.21 72.576 L1261.21 45.4349 Q1261.21 38.994 1258.7 35.7938 Q1256.19 32.5936 1251.16 32.5936 Q1245.13 32.5936 1241.64 36.4419 Q1238.16 40.2903 1238.16 46.9338 L1238.16 72.576 L1230.67 72.576 L1230.67 9.54393 L1238.16 9.54393 L1238.16 34.2544 Q1240.83 30.163 1244.44 28.1376 Q1248.09 26.1121 1252.82 26.1121 Q1260.64 26.1121 1264.65 30.9732 Q1268.66 35.7938 1268.66 45.1919 Z" fill="#000000" fill-rule="nonzero" fill-opacity="1" /><path clip-path="url(#clip410)" d="M1322.34 48.0275 L1322.34 51.6733 L1288.07 51.6733 Q1288.55 59.3701 1292.69 63.421 Q1296.86 67.4314 1304.27 67.4314 Q1308.57 67.4314 1312.58 66.3781 Q1316.63 65.3249 1320.6 63.2184 L1320.6 70.267 Q1316.59 71.9684 1312.37 72.8596 Q1308.16 73.7508 1303.83 73.7508 Q1292.97 73.7508 1286.61 67.4314 Q1280.29 61.1119 1280.29 50.3365 Q1280.29 39.1965 1286.29 32.6746 Q1292.32 26.1121 1302.53 26.1121 Q1311.68 26.1121 1316.99 32.0264 Q1322.34 37.9003 1322.34 48.0275 M1314.88 45.84 Q1314.8 39.7232 1311.44 36.0774 Q1308.12 32.4315 1302.61 32.4315 Q1296.37 32.4315 1292.6 35.9558 Q1288.88 39.4801 1288.31 45.8805 L1314.88 45.84 Z" fill="#000000" fill-rule="nonzero" fill-opacity="1" /><path clip-path="url(#clip410)" d="M1368.32 14.324 L1368.32 27.2059 L1383.67 27.2059 L1383.67 32.9987 L1368.32 32.9987 L1368.32 57.6282 Q1368.32 63.1779 1369.81 64.7578 Q1371.35 66.3376 1376.01 66.3376 L1383.67 66.3376 L1383.67 72.576 L1376.01 72.576 Q1367.38 72.576 1364.1 69.3758 Q1360.82 66.1351 1360.82 57.6282 L1360.82 32.9987 L1355.35 32.9987 L1355.35 27.2059 L1360.82 27.2059 L1360.82 14.324 L1368.32 14.324 Z" fill="#000000" fill-rule="nonzero" fill-opacity="1" /><path clip-path="url(#clip410)" d="M1419.76 34.1734 Q1418.51 33.4443 1417.01 33.1202 Q1415.55 32.7556 1413.77 32.7556 Q1407.45 32.7556 1404.04 36.8875 Q1400.68 40.9789 1400.68 48.6757 L1400.68 72.576 L1393.19 72.576 L1393.19 27.2059 L1400.68 27.2059 L1400.68 34.2544 Q1403.03 30.1225 1406.8 28.1376 Q1410.57 26.1121 1415.95 26.1121 Q1416.72 26.1121 1417.66 26.2337 Q1418.59 26.3147 1419.72 26.5172 L1419.76 34.1734 Z" fill="#000000" fill-rule="nonzero" fill-opacity="1" /><path clip-path="url(#clip410)" d="M1448.2 49.7694 Q1439.17 49.7694 1435.68 51.8354 Q1432.2 53.9013 1432.2 58.8839 Q1432.2 62.8538 1434.79 65.2034 Q1437.42 67.5124 1441.92 67.5124 Q1448.12 67.5124 1451.85 63.1374 Q1455.61 58.7219 1455.61 51.4303 L1455.61 49.7694 L1448.2 49.7694 M1463.07 46.6907 L1463.07 72.576 L1455.61 72.576 L1455.61 65.6895 Q1453.06 69.8214 1449.25 71.8063 Q1445.45 73.7508 1439.94 73.7508 Q1432.97 73.7508 1428.84 69.8619 Q1424.74 65.9325 1424.74 59.3701 Q1424.74 51.7138 1429.85 47.825 Q1434.99 43.9361 1445.16 43.9361 L1455.61 43.9361 L1455.61 43.2069 Q1455.61 38.0623 1452.21 35.2672 Q1448.85 32.4315 1442.73 32.4315 Q1438.84 32.4315 1435.16 33.3632 Q1431.47 34.295 1428.07 36.1584 L1428.07 29.2718 Q1432.16 27.692 1436.01 26.9223 Q1439.85 26.1121 1443.5 26.1121 Q1453.34 26.1121 1458.21 31.2163 Q1463.07 36.3204 1463.07 46.6907 Z" fill="#000000" fill-rule="nonzero" fill-opacity="1" /><path clip-path="url(#clip410)" d="M1511.07 28.9478 L1511.07 35.9153 Q1507.91 34.1734 1504.71 33.3227 Q1501.55 32.4315 1498.31 32.4315 Q1491.06 32.4315 1487.05 37.0496 Q1483.04 41.6271 1483.04 49.9314 Q1483.04 58.2358 1487.05 62.8538 Q1491.06 67.4314 1498.31 67.4314 Q1501.55 67.4314 1504.71 66.5807 Q1507.91 65.6895 1511.07 63.9476 L1511.07 70.8341 Q1507.95 72.2924 1504.59 73.0216 Q1501.27 73.7508 1497.5 73.7508 Q1487.25 73.7508 1481.21 67.3098 Q1475.18 60.8689 1475.18 49.9314 Q1475.18 38.832 1481.26 32.472 Q1487.37 26.1121 1497.99 26.1121 Q1501.43 26.1121 1504.71 26.8413 Q1507.99 27.5299 1511.07 28.9478 Z" fill="#000000" fill-rule="nonzero" fill-opacity="1" /><path clip-path="url(#clip410)" d="M1562.84 48.0275 L1562.84 51.6733 L1528.57 51.6733 Q1529.06 59.3701 1533.19 63.421 Q1537.36 67.4314 1544.77 67.4314 Q1549.07 67.4314 1553.08 66.3781 Q1557.13 65.3249 1561.1 63.2184 L1561.1 70.267 Q1557.09 71.9684 1552.88 72.8596 Q1548.66 73.7508 1544.33 73.7508 Q1533.47 73.7508 1527.11 67.4314 Q1520.79 61.1119 1520.79 50.3365 Q1520.79 39.1965 1526.79 32.6746 Q1532.82 26.1121 1543.03 26.1121 Q1552.19 26.1121 1557.49 32.0264 Q1562.84 37.9003 1562.84 48.0275 M1555.39 45.84 Q1555.31 39.7232 1551.94 36.0774 Q1548.62 32.4315 1543.11 32.4315 Q1536.87 32.4315 1533.11 35.9558 Q1529.38 39.4801 1528.81 45.8805 L1555.39 45.84 Z" fill="#000000" fill-rule="nonzero" fill-opacity="1" /><path clip-path="url(#clip410)" d="M1603.35 62.2867 L1611.9 62.2867 L1611.9 72.576 L1603.35 72.576 L1603.35 62.2867 M1603.35 29.6769 L1611.9 29.6769 L1611.9 39.9662 L1603.35 39.9662 L1603.35 29.6769 Z" fill="#000000" fill-rule="nonzero" fill-opacity="1" /><path clip-path="url(#clip410)" d="M1628.22 9.62495 L1634.7 9.62495 Q1640.78 19.1851 1643.78 28.3401 Q1646.82 37.4952 1646.82 46.5287 Q1646.82 55.6027 1643.78 64.7983 Q1640.78 73.9938 1634.7 83.5134 L1628.22 83.5134 Q1633.61 74.2369 1636.24 65.0818 Q1638.92 55.8863 1638.92 46.5287 Q1638.92 37.1711 1636.24 28.0566 Q1633.61 18.942 1628.22 9.62495 Z" fill="#000000" fill-rule="nonzero" fill-opacity="1" /><circle clip-path="url(#clip412)" cx="1608.58" cy="160.256" r="7.2" fill="#ff0000" fill-rule="evenodd" fill-opacity="1" stroke="#000000" stroke-opacity="1" stroke-width="3.2"/>
<circle clip-path="url(#clip412)" cx="1487.23" cy="160.256" r="7.2" fill="#ff0000" fill-rule="evenodd" fill-opacity="1" stroke="#000000" stroke-opacity="1" stroke-width="3.2"/>
<circle clip-path="url(#clip412)" cx="1365.89" cy="160.256" r="7.2" fill="#ff0000" fill-rule="evenodd" fill-opacity="1" stroke="#000000" stroke-opacity="1" stroke-width="3.2"/>
<circle clip-path="url(#clip412)" cx="1244.55" cy="160.256" r="7.2" fill="#ff0000" fill-rule="evenodd" fill-opacity="1" stroke="#000000" stroke-opacity="1" stroke-width="3.2"/>
<circle clip-path="url(#clip412)" cx="1123.21" cy="160.256" r="7.2" fill="#ff0000" fill-rule="evenodd" fill-opacity="1" stroke="#000000" stroke-opacity="1" stroke-width="3.2"/>
<circle clip-path="url(#clip412)" cx="1001.87" cy="160.256" r="7.2" fill="#ff0000" fill-rule="evenodd" fill-opacity="1" stroke="#000000" stroke-opacity="1" stroke-width="3.2"/>
<circle clip-path="url(#clip412)" cx="1608.58" cy="281.597" r="7.2" fill="#ff0000" fill-rule="evenodd" fill-opacity="1" stroke="#000000" stroke-opacity="1" stroke-width="3.2"/>
<circle clip-path="url(#clip412)" cx="1487.23" cy="281.597" r="7.2" fill="#ff0000" fill-rule="evenodd" fill-opacity="1" stroke="#000000" stroke-opacity="1" stroke-width="3.2"/>
<circle clip-path="url(#clip412)" cx="1365.89" cy="281.597" r="7.2" fill="#ff0000" fill-rule="evenodd" fill-opacity="1" stroke="#000000" stroke-opacity="1" stroke-width="3.2"/>
<circle clip-path="url(#clip412)" cx="1244.55" cy="281.597" r="7.2" fill="#ff0000" fill-rule="evenodd" fill-opacity="1" stroke="#000000" stroke-opacity="1" stroke-width="3.2"/>
<circle clip-path="url(#clip412)" cx="1123.21" cy="281.597" r="7.2" fill="#ff0000" fill-rule="evenodd" fill-opacity="1" stroke="#000000" stroke-opacity="1" stroke-width="3.2"/>
<circle clip-path="url(#clip412)" cx="1001.87" cy="281.597" r="7.2" fill="#ff0000" fill-rule="evenodd" fill-opacity="1" stroke="#000000" stroke-opacity="1" stroke-width="3.2"/>
<circle clip-path="url(#clip412)" cx="1608.57" cy="402.938" r="7.2" fill="#ff0000" fill-rule="evenodd" fill-opacity="1" stroke="#000000" stroke-opacity="1" stroke-width="3.2"/>
<circle clip-path="url(#clip412)" cx="1487.23" cy="402.938" r="7.2" fill="#ff0000" fill-rule="evenodd" fill-opacity="1" stroke="#000000" stroke-opacity="1" stroke-width="3.2"/>
<circle clip-path="url(#clip412)" cx="1365.89" cy="402.938" r="7.2" fill="#ff0000" fill-rule="evenodd" fill-opacity="1" stroke="#000000" stroke-opacity="1" stroke-width="3.2"/>
<circle clip-path="url(#clip412)" cx="1244.55" cy="402.938" r="7.2" fill="#ff0000" fill-rule="evenodd" fill-opacity="1" stroke="#000000" stroke-opacity="1" stroke-width="3.2"/>
<circle clip-path="url(#clip412)" cx="1123.21" cy="402.938" r="7.2" fill="#ff0000" fill-rule="evenodd" fill-opacity="1" stroke="#000000" stroke-opacity="1" stroke-width="3.2"/>
<circle clip-path="url(#clip412)" cx="1001.87" cy="402.938" r="7.2" fill="#ff0000" fill-rule="evenodd" fill-opacity="1" stroke="#000000" stroke-opacity="1" stroke-width="3.2"/>
<circle clip-path="url(#clip412)" cx="1608.57" cy="524.278" r="7.2" fill="#ff0000" fill-rule="evenodd" fill-opacity="1" stroke="#000000" stroke-opacity="1" stroke-width="3.2"/>
<circle clip-path="url(#clip412)" cx="1487.23" cy="524.278" r="7.2" fill="#ff0000" fill-rule="evenodd" fill-opacity="1" stroke="#000000" stroke-opacity="1" stroke-width="3.2"/>
<circle clip-path="url(#clip412)" cx="1365.89" cy="524.278" r="7.2" fill="#ff0000" fill-rule="evenodd" fill-opacity="1" stroke="#000000" stroke-opacity="1" stroke-width="3.2"/>
<circle clip-path="url(#clip412)" cx="1244.55" cy="524.278" r="7.2" fill="#ff0000" fill-rule="evenodd" fill-opacity="1" stroke="#000000" stroke-opacity="1" stroke-width="3.2"/>
<circle clip-path="url(#clip412)" cx="1123.21" cy="524.278" r="7.2" fill="#ff0000" fill-rule="evenodd" fill-opacity="1" stroke="#000000" stroke-opacity="1" stroke-width="3.2"/>
<circle clip-path="url(#clip412)" cx="1001.87" cy="524.278" r="7.2" fill="#ff0000" fill-rule="evenodd" fill-opacity="1" stroke="#000000" stroke-opacity="1" stroke-width="3.2"/>
<circle clip-path="url(#clip412)" cx="1608.57" cy="645.618" r="7.2" fill="#ff0000" fill-rule="evenodd" fill-opacity="1" stroke="#000000" stroke-opacity="1" stroke-width="3.2"/>
<circle clip-path="url(#clip412)" cx="1487.23" cy="645.618" r="7.2" fill="#ff0000" fill-rule="evenodd" fill-opacity="1" stroke="#000000" stroke-opacity="1" stroke-width="3.2"/>
<circle clip-path="url(#clip412)" cx="1365.89" cy="645.618" r="7.2" fill="#ff0000" fill-rule="evenodd" fill-opacity="1" stroke="#000000" stroke-opacity="1" stroke-width="3.2"/>
<circle clip-path="url(#clip412)" cx="1244.55" cy="645.618" r="7.2" fill="#ff0000" fill-rule="evenodd" fill-opacity="1" stroke="#000000" stroke-opacity="1" stroke-width="3.2"/>
<circle clip-path="url(#clip412)" cx="1123.21" cy="645.618" r="7.2" fill="#ff0000" fill-rule="evenodd" fill-opacity="1" stroke="#000000" stroke-opacity="1" stroke-width="3.2"/>
<circle clip-path="url(#clip412)" cx="1001.87" cy="645.618" r="7.2" fill="#ff0000" fill-rule="evenodd" fill-opacity="1" stroke="#000000" stroke-opacity="1" stroke-width="3.2"/>
<circle clip-path="url(#clip412)" cx="1608.57" cy="766.958" r="7.2" fill="#ff0000" fill-rule="evenodd" fill-opacity="1" stroke="#000000" stroke-opacity="1" stroke-width="3.2"/>
<circle clip-path="url(#clip412)" cx="1487.23" cy="766.958" r="7.2" fill="#ff0000" fill-rule="evenodd" fill-opacity="1" stroke="#000000" stroke-opacity="1" stroke-width="3.2"/>
<circle clip-path="url(#clip412)" cx="1365.89" cy="766.958" r="7.2" fill="#ff0000" fill-rule="evenodd" fill-opacity="1" stroke="#000000" stroke-opacity="1" stroke-width="3.2"/>
<circle clip-path="url(#clip412)" cx="1244.55" cy="766.958" r="7.2" fill="#ff0000" fill-rule="evenodd" fill-opacity="1" stroke="#000000" stroke-opacity="1" stroke-width="3.2"/>
<circle clip-path="url(#clip412)" cx="1123.21" cy="766.958" r="7.2" fill="#ff0000" fill-rule="evenodd" fill-opacity="1" stroke="#000000" stroke-opacity="1" stroke-width="3.2"/>
<circle clip-path="url(#clip412)" cx="1001.87" cy="766.958" r="7.2" fill="#ff0000" fill-rule="evenodd" fill-opacity="1" stroke="#000000" stroke-opacity="1" stroke-width="3.2"/>
<circle clip-path="url(#clip412)" cx="1613.06" cy="600.586" r="7.2" fill="#008000" fill-rule="evenodd" fill-opacity="1" stroke="#000000" stroke-opacity="1" stroke-width="3.2"/>
<circle clip-path="url(#clip412)" cx="1489.94" cy="602.631" r="7.2" fill="#008000" fill-rule="evenodd" fill-opacity="1" stroke="#000000" stroke-opacity="1" stroke-width="3.2"/>
<circle clip-path="url(#clip412)" cx="1366.8" cy="603.654" r="7.2" fill="#008000" fill-rule="evenodd" fill-opacity="1" stroke="#000000" stroke-opacity="1" stroke-width="3.2"/>
<circle clip-path="url(#clip412)" cx="1243.65" cy="603.654" r="7.2" fill="#008000" fill-rule="evenodd" fill-opacity="1" stroke="#000000" stroke-opacity="1" stroke-width="3.2"/>
<circle clip-path="url(#clip412)" cx="1120.51" cy="602.631" r="7.2" fill="#008000" fill-rule="evenodd" fill-opacity="1" stroke="#000000" stroke-opacity="1" stroke-width="3.2"/>
<circle clip-path="url(#clip412)" cx="997.382" cy="600.586" r="7.2" fill="#008000" fill-rule="evenodd" fill-opacity="1" stroke="#000000" stroke-opacity="1" stroke-width="3.2"/>
<circle clip-path="url(#clip412)" cx="1613.07" cy="720.581" r="7.2" fill="#008000" fill-rule="evenodd" fill-opacity="1" stroke="#000000" stroke-opacity="1" stroke-width="3.2"/>
<circle clip-path="url(#clip412)" cx="1489.94" cy="722.625" r="7.2" fill="#008000" fill-rule="evenodd" fill-opacity="1" stroke="#000000" stroke-opacity="1" stroke-width="3.2"/>
<circle clip-path="url(#clip412)" cx="1366.8" cy="723.647" r="7.2" fill="#008000" fill-rule="evenodd" fill-opacity="1" stroke="#000000" stroke-opacity="1" stroke-width="3.2"/>
<circle clip-path="url(#clip412)" cx="1243.65" cy="723.647" r="7.2" fill="#008000" fill-rule="evenodd" fill-opacity="1" stroke="#000000" stroke-opacity="1" stroke-width="3.2"/>
<circle clip-path="url(#clip412)" cx="1120.51" cy="722.625" r="7.2" fill="#008000" fill-rule="evenodd" fill-opacity="1" stroke="#000000" stroke-opacity="1" stroke-width="3.2"/>
<circle clip-path="url(#clip412)" cx="997.377" cy="720.581" r="7.2" fill="#008000" fill-rule="evenodd" fill-opacity="1" stroke="#000000" stroke-opacity="1" stroke-width="3.2"/>
<circle clip-path="url(#clip412)" cx="1613.07" cy="839.584" r="7.2" fill="#008000" fill-rule="evenodd" fill-opacity="1" stroke="#000000" stroke-opacity="1" stroke-width="3.2"/>
<circle clip-path="url(#clip412)" cx="1489.94" cy="841.626" r="7.2" fill="#008000" fill-rule="evenodd" fill-opacity="1" stroke="#000000" stroke-opacity="1" stroke-width="3.2"/>
<circle clip-path="url(#clip412)" cx="1366.8" cy="842.647" r="7.2" fill="#008000" fill-rule="evenodd" fill-opacity="1" stroke="#000000" stroke-opacity="1" stroke-width="3.2"/>
<circle clip-path="url(#clip412)" cx="1243.65" cy="842.647" r="7.2" fill="#008000" fill-rule="evenodd" fill-opacity="1" stroke="#000000" stroke-opacity="1" stroke-width="3.2"/>
<circle clip-path="url(#clip412)" cx="1120.51" cy="841.626" r="7.2" fill="#008000" fill-rule="evenodd" fill-opacity="1" stroke="#000000" stroke-opacity="1" stroke-width="3.2"/>
<circle clip-path="url(#clip412)" cx="997.377" cy="839.584" r="7.2" fill="#008000" fill-rule="evenodd" fill-opacity="1" stroke="#000000" stroke-opacity="1" stroke-width="3.2"/>
<circle clip-path="url(#clip412)" cx="1613.06" cy="957.598" r="7.2" fill="#008000" fill-rule="evenodd" fill-opacity="1" stroke="#000000" stroke-opacity="1" stroke-width="3.2"/>
<circle clip-path="url(#clip412)" cx="1489.93" cy="959.637" r="7.2" fill="#008000" fill-rule="evenodd" fill-opacity="1" stroke="#000000" stroke-opacity="1" stroke-width="3.2"/>
<circle clip-path="url(#clip412)" cx="1366.79" cy="960.657" r="7.2" fill="#008000" fill-rule="evenodd" fill-opacity="1" stroke="#000000" stroke-opacity="1" stroke-width="3.2"/>
<circle clip-path="url(#clip412)" cx="1243.65" cy="960.657" r="7.2" fill="#008000" fill-rule="evenodd" fill-opacity="1" stroke="#000000" stroke-opacity="1" stroke-width="3.2"/>
<circle clip-path="url(#clip412)" cx="1120.51" cy="959.637" r="7.2" fill="#008000" fill-rule="evenodd" fill-opacity="1" stroke="#000000" stroke-opacity="1" stroke-width="3.2"/>
<circle clip-path="url(#clip412)" cx="997.384" cy="957.598" r="7.2" fill="#008000" fill-rule="evenodd" fill-opacity="1" stroke="#000000" stroke-opacity="1" stroke-width="3.2"/>
<circle clip-path="url(#clip412)" cx="1613.05" cy="1074.62" r="7.2" fill="#008000" fill-rule="evenodd" fill-opacity="1" stroke="#000000" stroke-opacity="1" stroke-width="3.2"/>
<circle clip-path="url(#clip412)" cx="1489.93" cy="1076.66" r="7.2" fill="#008000" fill-rule="evenodd" fill-opacity="1" stroke="#000000" stroke-opacity="1" stroke-width="3.2"/>
<circle clip-path="url(#clip412)" cx="1366.79" cy="1077.68" r="7.2" fill="#008000" fill-rule="evenodd" fill-opacity="1" stroke="#000000" stroke-opacity="1" stroke-width="3.2"/>
<circle clip-path="url(#clip412)" cx="1243.65" cy="1077.68" r="7.2" fill="#008000" fill-rule="evenodd" fill-opacity="1" stroke="#000000" stroke-opacity="1" stroke-width="3.2"/>
<circle clip-path="url(#clip412)" cx="1120.52" cy="1076.66" r="7.2" fill="#008000" fill-rule="evenodd" fill-opacity="1" stroke="#000000" stroke-opacity="1" stroke-width="3.2"/>
<circle clip-path="url(#clip412)" cx="997.397" cy="1074.62" r="7.2" fill="#008000" fill-rule="evenodd" fill-opacity="1" stroke="#000000" stroke-opacity="1" stroke-width="3.2"/>
<circle clip-path="url(#clip412)" cx="1613.03" cy="1190.67" r="7.2" fill="#008000" fill-rule="evenodd" fill-opacity="1" stroke="#000000" stroke-opacity="1" stroke-width="3.2"/>
<circle clip-path="url(#clip412)" cx="1489.91" cy="1192.7" r="7.2" fill="#008000" fill-rule="evenodd" fill-opacity="1" stroke="#000000" stroke-opacity="1" stroke-width="3.2"/>
<circle clip-path="url(#clip412)" cx="1366.79" cy="1193.72" r="7.2" fill="#008000" fill-rule="evenodd" fill-opacity="1" stroke="#000000" stroke-opacity="1" stroke-width="3.2"/>
<circle clip-path="url(#clip412)" cx="1243.66" cy="1193.72" r="7.2" fill="#008000" fill-rule="evenodd" fill-opacity="1" stroke="#000000" stroke-opacity="1" stroke-width="3.2"/>
<circle clip-path="url(#clip412)" cx="1120.53" cy="1192.7" r="7.2" fill="#008000" fill-rule="evenodd" fill-opacity="1" stroke="#000000" stroke-opacity="1" stroke-width="3.2"/>
<circle clip-path="url(#clip412)" cx="997.416" cy="1190.67" r="7.2" fill="#008000" fill-rule="evenodd" fill-opacity="1" stroke="#000000" stroke-opacity="1" stroke-width="3.2"/>
<circle clip-path="url(#clip412)" cx="1617.81" cy="793.195" r="7.2" fill="#0000ff" fill-rule="evenodd" fill-opacity="1" stroke="#000000" stroke-opacity="1" stroke-width="3.2"/>
<circle clip-path="url(#clip412)" cx="1492.79" cy="796.133" r="7.2" fill="#0000ff" fill-rule="evenodd" fill-opacity="1" stroke="#000000" stroke-opacity="1" stroke-width="3.2"/>
<circle clip-path="url(#clip412)" cx="1367.75" cy="797.602" r="7.2" fill="#0000ff" fill-rule="evenodd" fill-opacity="1" stroke="#000000" stroke-opacity="1" stroke-width="3.2"/>
<circle clip-path="url(#clip412)" cx="1242.7" cy="797.602" r="7.2" fill="#0000ff" fill-rule="evenodd" fill-opacity="1" stroke="#000000" stroke-opacity="1" stroke-width="3.2"/>
<circle clip-path="url(#clip412)" cx="1117.66" cy="796.133" r="7.2" fill="#0000ff" fill-rule="evenodd" fill-opacity="1" stroke="#000000" stroke-opacity="1" stroke-width="3.2"/>
<circle clip-path="url(#clip412)" cx="992.635" cy="793.195" r="7.2" fill="#0000ff" fill-rule="evenodd" fill-opacity="1" stroke="#000000" stroke-opacity="1" stroke-width="3.2"/>
<circle clip-path="url(#clip412)" cx="1617.84" cy="913.721" r="7.2" fill="#0000ff" fill-rule="evenodd" fill-opacity="1" stroke="#000000" stroke-opacity="1" stroke-width="3.2"/>
<circle clip-path="url(#clip412)" cx="1492.81" cy="916.654" r="7.2" fill="#0000ff" fill-rule="evenodd" fill-opacity="1" stroke="#000000" stroke-opacity="1" stroke-width="3.2"/>
<circle clip-path="url(#clip412)" cx="1367.75" cy="918.121" r="7.2" fill="#0000ff" fill-rule="evenodd" fill-opacity="1" stroke="#000000" stroke-opacity="1" stroke-width="3.2"/>
<circle clip-path="url(#clip412)" cx="1242.69" cy="918.121" r="7.2" fill="#0000ff" fill-rule="evenodd" fill-opacity="1" stroke="#000000" stroke-opacity="1" stroke-width="3.2"/>
<circle clip-path="url(#clip412)" cx="1117.64" cy="916.654" r="7.2" fill="#0000ff" fill-rule="evenodd" fill-opacity="1" stroke="#000000" stroke-opacity="1" stroke-width="3.2"/>
<circle clip-path="url(#clip412)" cx="992.603" cy="913.721" r="7.2" fill="#0000ff" fill-rule="evenodd" fill-opacity="1" stroke="#000000" stroke-opacity="1" stroke-width="3.2"/>
<circle clip-path="url(#clip412)" cx="1617.86" cy="1032.86" r="7.2" fill="#0000ff" fill-rule="evenodd" fill-opacity="1" stroke="#000000" stroke-opacity="1" stroke-width="3.2"/>
<circle clip-path="url(#clip412)" cx="1492.82" cy="1035.79" r="7.2" fill="#0000ff" fill-rule="evenodd" fill-opacity="1" stroke="#000000" stroke-opacity="1" stroke-width="3.2"/>
<circle clip-path="url(#clip412)" cx="1367.76" cy="1037.25" r="7.2" fill="#0000ff" fill-rule="evenodd" fill-opacity="1" stroke="#000000" stroke-opacity="1" stroke-width="3.2"/>
<circle clip-path="url(#clip412)" cx="1242.69" cy="1037.25" r="7.2" fill="#0000ff" fill-rule="evenodd" fill-opacity="1" stroke="#000000" stroke-opacity="1" stroke-width="3.2"/>
<circle clip-path="url(#clip412)" cx="1117.62" cy="1035.79" r="7.2" fill="#0000ff" fill-rule="evenodd" fill-opacity="1" stroke="#000000" stroke-opacity="1" stroke-width="3.2"/>
<circle clip-path="url(#clip412)" cx="992.582" cy="1032.86" r="7.2" fill="#0000ff" fill-rule="evenodd" fill-opacity="1" stroke="#000000" stroke-opacity="1" stroke-width="3.2"/>
<circle clip-path="url(#clip412)" cx="1617.87" cy="1150.62" r="7.2" fill="#0000ff" fill-rule="evenodd" fill-opacity="1" stroke="#000000" stroke-opacity="1" stroke-width="3.2"/>
<circle clip-path="url(#clip412)" cx="1492.83" cy="1153.54" r="7.2" fill="#0000ff" fill-rule="evenodd" fill-opacity="1" stroke="#000000" stroke-opacity="1" stroke-width="3.2"/>
<circle clip-path="url(#clip412)" cx="1367.76" cy="1155.01" r="7.2" fill="#0000ff" fill-rule="evenodd" fill-opacity="1" stroke="#000000" stroke-opacity="1" stroke-width="3.2"/>
<circle clip-path="url(#clip412)" cx="1242.69" cy="1155.01" r="7.2" fill="#0000ff" fill-rule="evenodd" fill-opacity="1" stroke="#000000" stroke-opacity="1" stroke-width="3.2"/>
<circle clip-path="url(#clip412)" cx="1117.62" cy="1153.54" r="7.2" fill="#0000ff" fill-rule="evenodd" fill-opacity="1" stroke="#000000" stroke-opacity="1" stroke-width="3.2"/>
<circle clip-path="url(#clip412)" cx="992.572" cy="1150.62" r="7.2" fill="#0000ff" fill-rule="evenodd" fill-opacity="1" stroke="#000000" stroke-opacity="1" stroke-width="3.2"/>
<circle clip-path="url(#clip412)" cx="1617.87" cy="1267" r="7.2" fill="#0000ff" fill-rule="evenodd" fill-opacity="1" stroke="#000000" stroke-opacity="1" stroke-width="3.2"/>
<circle clip-path="url(#clip412)" cx="1492.83" cy="1269.92" r="7.2" fill="#0000ff" fill-rule="evenodd" fill-opacity="1" stroke="#000000" stroke-opacity="1" stroke-width="3.2"/>
<circle clip-path="url(#clip412)" cx="1367.76" cy="1271.38" r="7.2" fill="#0000ff" fill-rule="evenodd" fill-opacity="1" stroke="#000000" stroke-opacity="1" stroke-width="3.2"/>
<circle clip-path="url(#clip412)" cx="1242.69" cy="1271.38" r="7.2" fill="#0000ff" fill-rule="evenodd" fill-opacity="1" stroke="#000000" stroke-opacity="1" stroke-width="3.2"/>
<circle clip-path="url(#clip412)" cx="1117.62" cy="1269.92" r="7.2" fill="#0000ff" fill-rule="evenodd" fill-opacity="1" stroke="#000000" stroke-opacity="1" stroke-width="3.2"/>
<circle clip-path="url(#clip412)" cx="992.575" cy="1267" r="7.2" fill="#0000ff" fill-rule="evenodd" fill-opacity="1" stroke="#000000" stroke-opacity="1" stroke-width="3.2"/>
<circle clip-path="url(#clip412)" cx="1617.86" cy="1382.02" r="7.2" fill="#0000ff" fill-rule="evenodd" fill-opacity="1" stroke="#000000" stroke-opacity="1" stroke-width="3.2"/>
<circle clip-path="url(#clip412)" cx="1492.82" cy="1384.94" r="7.2" fill="#0000ff" fill-rule="evenodd" fill-opacity="1" stroke="#000000" stroke-opacity="1" stroke-width="3.2"/>
<circle clip-path="url(#clip412)" cx="1367.76" cy="1386.4" r="7.2" fill="#0000ff" fill-rule="evenodd" fill-opacity="1" stroke="#000000" stroke-opacity="1" stroke-width="3.2"/>
<circle clip-path="url(#clip412)" cx="1242.69" cy="1386.4" r="7.2" fill="#0000ff" fill-rule="evenodd" fill-opacity="1" stroke="#000000" stroke-opacity="1" stroke-width="3.2"/>
<circle clip-path="url(#clip412)" cx="1117.63" cy="1384.94" r="7.2" fill="#0000ff" fill-rule="evenodd" fill-opacity="1" stroke="#000000" stroke-opacity="1" stroke-width="3.2"/>
<circle clip-path="url(#clip412)" cx="992.589" cy="1382.02" r="7.2" fill="#0000ff" fill-rule="evenodd" fill-opacity="1" stroke="#000000" stroke-opacity="1" stroke-width="3.2"/>
</svg>
