<?xml version="1.0" encoding="utf-8"?>
<svg xmlns="http://www.w3.org/2000/svg" xmlns:xlink="http://www.w3.org/1999/xlink" width="600" height="400" viewBox="0 0 2400 1600">
<defs>
  <clipPath id="clip960">
    <rect x="0" y="0" width="2400" height="1600"/>
  </clipPath>
</defs>
<path clip-path="url(#clip960)" d="M0 1600 L2400 1600 L2400 0 L0 0  Z" fill="#ffffff" fill-rule="evenodd" fill-opacity="1"/>
<defs>
  <clipPath id="clip961">
    <rect x="480" y="0" width="1681" height="1600"/>
  </clipPath>
</defs>
<path clip-path="url(#clip960)" d="M210.746 1423.18 L2352.76 1423.18 L2352.76 47.2441 L210.746 47.2441  Z" fill="#ffffff" fill-rule="evenodd" fill-opacity="1"/>
<defs>
  <clipPath id="clip962">
    <rect x="210" y="47" width="2143" height="1377"/>
  </clipPath>
</defs>
<polyline clip-path="url(#clip962)" style="stroke:#000000; stroke-linecap:round; stroke-linejoin:round; stroke-width:2; stroke-opacity:0.1; fill:none" points="271.369,1423.18 271.369,47.2441 "/>
<polyline clip-path="url(#clip962)" style="stroke:#000000; stroke-linecap:round; stroke-linejoin:round; stroke-width:2; stroke-opacity:0.1; fill:none" points="776.56,1423.18 776.56,47.2441 "/>
<polyline clip-path="url(#clip962)" style="stroke:#000000; stroke-linecap:round; stroke-linejoin:round; stroke-width:2; stroke-opacity:0.1; fill:none" points="1281.75,1423.18 1281.75,47.2441 "/>
<polyline clip-path="url(#clip962)" style="stroke:#000000; stroke-linecap:round; stroke-linejoin:round; stroke-width:2; stroke-opacity:0.1; fill:none" points="1786.94,1423.18 1786.94,47.2441 "/>
<polyline clip-path="url(#clip962)" style="stroke:#000000; stroke-linecap:round; stroke-linejoin:round; stroke-width:2; stroke-opacity:0.1; fill:none" points="2292.13,1423.18 2292.13,47.2441 "/>
<polyline clip-path="url(#clip962)" style="stroke:#000000; stroke-linecap:round; stroke-linejoin:round; stroke-width:2; stroke-opacity:0.1; fill:none" points="210.746,1264.47 2352.76,1264.47 "/>
<polyline clip-path="url(#clip962)" style="stroke:#000000; stroke-linecap:round; stroke-linejoin:round; stroke-width:2; stroke-opacity:0.1; fill:none" points="210.746,1011.88 2352.76,1011.88 "/>
<polyline clip-path="url(#clip962)" style="stroke:#000000; stroke-linecap:round; stroke-linejoin:round; stroke-width:2; stroke-opacity:0.1; fill:none" points="210.746,759.281 2352.76,759.281 "/>
<polyline clip-path="url(#clip962)" style="stroke:#000000; stroke-linecap:round; stroke-linejoin:round; stroke-width:2; stroke-opacity:0.1; fill:none" points="210.746,506.686 2352.76,506.686 "/>
<polyline clip-path="url(#clip962)" style="stroke:#000000; stroke-linecap:round; stroke-linejoin:round; stroke-width:2; stroke-opacity:0.1; fill:none" points="210.746,254.09 2352.76,254.09 "/>
<polyline clip-path="url(#clip960)" style="stroke:#000000; stroke-linecap:round; stroke-linejoin:round; stroke-width:4; stroke-opacity:1; fill:none" points="210.746,1423.18 2352.76,1423.18 "/>
<polyline clip-path="url(#clip960)" style="stroke:#000000; stroke-linecap:round; stroke-linejoin:round; stroke-width:4; stroke-opacity:1; fill:none" points="271.369,1423.18 271.369,1404.28 "/>
<polyline clip-path="url(#clip960)" style="stroke:#000000; stroke-linecap:round; stroke-linejoin:round; stroke-width:4; stroke-opacity:1; fill:none" points="776.56,1423.18 776.56,1404.28 "/>
<polyline clip-path="url(#clip960)" style="stroke:#000000; stroke-linecap:round; stroke-linejoin:round; stroke-width:4; stroke-opacity:1; fill:none" points="1281.75,1423.18 1281.75,1404.28 "/>
<polyline clip-path="url(#clip960)" style="stroke:#000000; stroke-linecap:round; stroke-linejoin:round; stroke-width:4; stroke-opacity:1; fill:none" points="1786.94,1423.18 1786.94,1404.28 "/>
<polyline clip-path="url(#clip960)" style="stroke:#000000; stroke-linecap:round; stroke-linejoin:round; stroke-width:4; stroke-opacity:1; fill:none" points="2292.13,1423.18 2292.13,1404.28 "/>
<path clip-path="url(#clip960)" d="M271.369 1454.1 Q267.758 1454.1 265.929 1457.66 Q264.124 1461.2 264.124 1468.33 Q264.124 1475.44 265.929 1479.01 Q267.758 1482.55 271.369 1482.55 Q275.003 1482.55 276.809 1479.01 Q278.637 1475.44 278.637 1468.33 Q278.637 1461.2 276.809 1457.66 Q275.003 1454.1 271.369 1454.1 M271.369 1450.39 Q277.179 1450.39 280.235 1455 Q283.313 1459.58 283.313 1468.33 Q283.313 1477.06 280.235 1481.67 Q277.179 1486.25 271.369 1486.25 Q265.559 1486.25 262.48 1481.67 Q259.424 1477.06 259.424 1468.33 Q259.424 1459.58 262.48 1455 Q265.559 1450.39 271.369 1450.39 Z" fill="#000000" fill-rule="nonzero" fill-opacity="1" /><path clip-path="url(#clip960)" d="M771.213 1481.64 L787.532 1481.64 L787.532 1485.58 L765.588 1485.58 L765.588 1481.64 Q768.25 1478.89 772.833 1474.26 Q777.44 1469.61 778.62 1468.27 Q780.865 1465.74 781.745 1464.01 Q782.648 1462.25 782.648 1460.56 Q782.648 1457.8 780.703 1456.07 Q778.782 1454.33 775.68 1454.33 Q773.481 1454.33 771.028 1455.09 Q768.597 1455.86 765.819 1457.41 L765.819 1452.69 Q768.643 1451.55 771.097 1450.97 Q773.551 1450.39 775.588 1450.39 Q780.958 1450.39 784.152 1453.08 Q787.347 1455.77 787.347 1460.26 Q787.347 1462.39 786.537 1464.31 Q785.75 1466.2 783.643 1468.8 Q783.064 1469.47 779.963 1472.69 Q776.861 1475.88 771.213 1481.64 Z" fill="#000000" fill-rule="nonzero" fill-opacity="1" /><path clip-path="url(#clip960)" d="M1284.76 1455.09 L1272.95 1473.54 L1284.76 1473.54 L1284.76 1455.09 M1283.53 1451.02 L1289.41 1451.02 L1289.41 1473.54 L1294.34 1473.54 L1294.34 1477.43 L1289.41 1477.43 L1289.41 1485.58 L1284.76 1485.58 L1284.76 1477.43 L1269.16 1477.43 L1269.16 1472.92 L1283.53 1451.02 Z" fill="#000000" fill-rule="nonzero" fill-opacity="1" /><path clip-path="url(#clip960)" d="M1787.35 1466.44 Q1784.2 1466.44 1782.35 1468.59 Q1780.52 1470.74 1780.52 1474.49 Q1780.52 1478.22 1782.35 1480.39 Q1784.2 1482.55 1787.35 1482.55 Q1790.5 1482.55 1792.32 1480.39 Q1794.18 1478.22 1794.18 1474.49 Q1794.18 1470.74 1792.32 1468.59 Q1790.5 1466.44 1787.35 1466.44 M1796.63 1451.78 L1796.63 1456.04 Q1794.87 1455.21 1793.06 1454.77 Q1791.28 1454.33 1789.52 1454.33 Q1784.89 1454.33 1782.44 1457.45 Q1780.01 1460.58 1779.66 1466.9 Q1781.03 1464.89 1783.09 1463.82 Q1785.15 1462.73 1787.62 1462.73 Q1792.83 1462.73 1795.84 1465.9 Q1798.87 1469.05 1798.87 1474.49 Q1798.87 1479.82 1795.73 1483.03 Q1792.58 1486.25 1787.35 1486.25 Q1781.35 1486.25 1778.18 1481.67 Q1775.01 1477.06 1775.01 1468.33 Q1775.01 1460.14 1778.9 1455.28 Q1782.79 1450.39 1789.34 1450.39 Q1791.1 1450.39 1792.88 1450.74 Q1794.68 1451.09 1796.63 1451.78 Z" fill="#000000" fill-rule="nonzero" fill-opacity="1" /><path clip-path="url(#clip960)" d="M2292.13 1469.17 Q2288.8 1469.17 2286.88 1470.95 Q2284.98 1472.73 2284.98 1475.86 Q2284.98 1478.98 2286.88 1480.77 Q2288.8 1482.55 2292.13 1482.55 Q2295.47 1482.55 2297.39 1480.77 Q2299.31 1478.96 2299.31 1475.86 Q2299.31 1472.73 2297.39 1470.95 Q2295.49 1469.17 2292.13 1469.17 M2287.46 1467.18 Q2284.45 1466.44 2282.76 1464.38 Q2281.09 1462.32 2281.09 1459.35 Q2281.09 1455.21 2284.03 1452.8 Q2286.99 1450.39 2292.13 1450.39 Q2297.29 1450.39 2300.23 1452.8 Q2303.17 1455.21 2303.17 1459.35 Q2303.17 1462.32 2301.48 1464.38 Q2299.82 1466.44 2296.83 1467.18 Q2300.21 1467.96 2302.09 1470.26 Q2303.98 1472.55 2303.98 1475.86 Q2303.98 1480.88 2300.91 1483.57 Q2297.85 1486.25 2292.13 1486.25 Q2286.42 1486.25 2283.34 1483.57 Q2280.28 1480.88 2280.28 1475.86 Q2280.28 1472.55 2282.18 1470.26 Q2284.08 1467.96 2287.46 1467.18 M2285.74 1459.79 Q2285.74 1462.48 2287.41 1463.98 Q2289.1 1465.49 2292.13 1465.49 Q2295.14 1465.49 2296.83 1463.98 Q2298.54 1462.48 2298.54 1459.79 Q2298.54 1457.11 2296.83 1455.6 Q2295.14 1454.1 2292.13 1454.1 Q2289.1 1454.1 2287.41 1455.6 Q2285.74 1457.11 2285.74 1459.79 Z" fill="#000000" fill-rule="nonzero" fill-opacity="1" /><path clip-path="url(#clip960)" d="M1268.24 1532.4 L1296.06 1532.4 L1296.06 1537.74 L1274.03 1563.37 L1296.06 1563.37 L1296.06 1568.04 L1267.44 1568.04 L1267.44 1562.7 L1289.47 1537.07 L1268.24 1537.07 L1268.24 1532.4 Z" fill="#000000" fill-rule="nonzero" fill-opacity="1" /><polyline clip-path="url(#clip960)" style="stroke:#000000; stroke-linecap:round; stroke-linejoin:round; stroke-width:4; stroke-opacity:1; fill:none" points="210.746,1423.18 210.746,47.2441 "/>
<polyline clip-path="url(#clip960)" style="stroke:#000000; stroke-linecap:round; stroke-linejoin:round; stroke-width:4; stroke-opacity:1; fill:none" points="210.746,1264.47 229.644,1264.47 "/>
<polyline clip-path="url(#clip960)" style="stroke:#000000; stroke-linecap:round; stroke-linejoin:round; stroke-width:4; stroke-opacity:1; fill:none" points="210.746,1011.88 229.644,1011.88 "/>
<polyline clip-path="url(#clip960)" style="stroke:#000000; stroke-linecap:round; stroke-linejoin:round; stroke-width:4; stroke-opacity:1; fill:none" points="210.746,759.281 229.644,759.281 "/>
<polyline clip-path="url(#clip960)" style="stroke:#000000; stroke-linecap:round; stroke-linejoin:round; stroke-width:4; stroke-opacity:1; fill:none" points="210.746,506.686 229.644,506.686 "/>
<polyline clip-path="url(#clip960)" style="stroke:#000000; stroke-linecap:round; stroke-linejoin:round; stroke-width:4; stroke-opacity:1; fill:none" points="210.746,254.09 229.644,254.09 "/>
<path clip-path="url(#clip960)" d="M114.631 1264.92 L144.306 1264.92 L144.306 1268.86 L114.631 1268.86 L114.631 1264.92 Z" fill="#000000" fill-rule="nonzero" fill-opacity="1" /><path clip-path="url(#clip960)" d="M158.427 1277.82 L174.746 1277.82 L174.746 1281.75 L152.802 1281.75 L152.802 1277.82 Q155.464 1275.06 160.047 1270.43 Q164.653 1265.78 165.834 1264.44 Q168.079 1261.91 168.959 1260.18 Q169.862 1258.42 169.862 1256.73 Q169.862 1253.97 167.917 1252.24 Q165.996 1250.5 162.894 1250.5 Q160.695 1250.5 158.241 1251.27 Q155.811 1252.03 153.033 1253.58 L153.033 1248.86 Q155.857 1247.72 158.311 1247.15 Q160.765 1246.57 162.802 1246.57 Q168.172 1246.57 171.366 1249.25 Q174.561 1251.94 174.561 1256.43 Q174.561 1258.56 173.751 1260.48 Q172.964 1262.38 170.857 1264.97 Q170.278 1265.64 167.177 1268.86 Q164.075 1272.05 158.427 1277.82 Z" fill="#000000" fill-rule="nonzero" fill-opacity="1" /><path clip-path="url(#clip960)" d="M114.26 1012.33 L143.936 1012.33 L143.936 1016.26 L114.26 1016.26 L114.26 1012.33 Z" fill="#000000" fill-rule="nonzero" fill-opacity="1" /><path clip-path="url(#clip960)" d="M154.839 1025.22 L162.477 1025.22 L162.477 998.856 L154.167 1000.52 L154.167 996.263 L162.431 994.597 L167.107 994.597 L167.107 1025.22 L174.746 1025.22 L174.746 1029.16 L154.839 1029.16 L154.839 1025.22 Z" fill="#000000" fill-rule="nonzero" fill-opacity="1" /><path clip-path="url(#clip960)" d="M162.802 745.08 Q159.19 745.08 157.362 748.645 Q155.556 752.186 155.556 759.316 Q155.556 766.422 157.362 769.987 Q159.19 773.529 162.802 773.529 Q166.436 773.529 168.241 769.987 Q170.07 766.422 170.07 759.316 Q170.07 752.186 168.241 748.645 Q166.436 745.08 162.802 745.08 M162.802 741.376 Q168.612 741.376 171.667 745.983 Q174.746 750.566 174.746 759.316 Q174.746 768.043 171.667 772.649 Q168.612 777.232 162.802 777.232 Q156.991 777.232 153.913 772.649 Q150.857 768.043 150.857 759.316 Q150.857 750.566 153.913 745.983 Q156.991 741.376 162.802 741.376 Z" fill="#000000" fill-rule="nonzero" fill-opacity="1" /><path clip-path="url(#clip960)" d="M154.839 520.03 L162.477 520.03 L162.477 493.665 L154.167 495.332 L154.167 491.072 L162.431 489.406 L167.107 489.406 L167.107 520.03 L174.746 520.03 L174.746 523.966 L154.839 523.966 L154.839 520.03 Z" fill="#000000" fill-rule="nonzero" fill-opacity="1" /><path clip-path="url(#clip960)" d="M158.427 267.435 L174.746 267.435 L174.746 271.37 L152.802 271.37 L152.802 267.435 Q155.464 264.68 160.047 260.051 Q164.653 255.398 165.834 254.055 Q168.079 251.532 168.959 249.796 Q169.862 248.037 169.862 246.347 Q169.862 243.592 167.917 241.856 Q165.996 240.12 162.894 240.12 Q160.695 240.12 158.241 240.884 Q155.811 241.648 153.033 243.199 L153.033 238.477 Q155.857 237.343 158.311 236.764 Q160.765 236.185 162.802 236.185 Q168.172 236.185 171.366 238.87 Q174.561 241.555 174.561 246.046 Q174.561 248.176 173.751 250.097 Q172.964 251.995 170.857 254.588 Q170.278 255.259 167.177 258.477 Q164.075 261.671 158.427 267.435 Z" fill="#000000" fill-rule="nonzero" fill-opacity="1" /><path clip-path="url(#clip960)" d="M67.3143 733.525 Q73.68 736.008 75.6216 738.363 Q77.5631 740.718 77.5631 744.665 L77.5631 749.344 L72.6615 749.344 L72.6615 745.906 Q72.6615 743.487 71.5157 742.151 Q70.3699 740.814 66.1048 739.191 L63.4312 738.14 L28.3562 752.559 L28.3562 746.352 L56.238 735.212 L28.3562 724.072 L28.3562 717.865 L67.3143 733.525 Z" fill="#000000" fill-rule="nonzero" fill-opacity="1" /><polyline clip-path="url(#clip962)" style="stroke:#000000; stroke-linecap:round; stroke-linejoin:round; stroke-width:4; stroke-opacity:1; fill:none" points="1486.98,1138.17 1488.88,1130.52 1490.73,1122.87 1492.55,1115.21 1494.33,1107.56 1496.07,1099.9 1497.77,1092.25 1499.43,1084.59 1501.06,1076.94 1502.64,1069.28 1504.19,1061.63 1505.7,1053.98 1507.16,1046.32 1508.59,1038.67 1509.99,1031.01 1511.34,1023.36 1512.65,1015.7 1513.93,1008.05 1515.17,1000.4 1516.37,992.741 1517.53,985.086 1518.65,977.432 1519.73,969.777 1520.77,962.123 1521.78,954.469 1522.74,946.814 1523.67,939.16 1524.56,931.505 1525.41,923.851 1526.22,916.197 1527,908.542 1527.73,900.888 1528.43,893.233 1529.08,885.579 1529.7,877.924 1530.28,870.27 1530.82,862.616 1531.33,854.961 1531.79,847.307 1532.22,839.652 1532.6,831.998 1532.95,824.344 1533.26,816.689 1533.53,809.035 1533.76,801.38 1533.96,793.726 1534.11,786.072 1534.23,778.417 1534.3,770.763 1534.34,763.108 1534.34,755.454 1534.3,747.8 1534.23,740.145 1534.11,732.491 1533.96,724.836 1533.76,717.182 1533.53,709.527 1533.26,701.873 1532.95,694.219 1532.6,686.564 1532.22,678.91 1531.79,671.255 1531.33,663.601 1530.82,655.947 1530.28,648.292 1529.7,640.638 1529.08,632.983 1528.43,625.329 1527.73,617.675 1527,610.02 1526.22,602.366 1525.41,594.711 1524.56,587.057 1523.67,579.403 1522.74,571.748 1521.78,564.094 1520.77,556.439 1519.73,548.785 1518.65,541.13 1517.53,533.476 1516.37,525.822 1515.17,518.167 1513.93,510.513 1512.65,502.858 1511.34,495.204 1509.99,487.55 1508.59,479.895 1507.16,472.241 1505.7,464.586 1504.19,456.932 1502.64,449.278 1501.06,441.623 1499.43,433.969 1497.77,426.314 1496.07,418.66 1494.33,411.006 1492.55,403.351 1490.73,395.697 1488.88,388.042 1486.98,380.388 "/>
<polyline clip-path="url(#clip962)" style="stroke:#000000; stroke-linecap:round; stroke-linejoin:round; stroke-width:4; stroke-opacity:1; fill:none" points="666.049,1138.17 660.367,1130.52 654.8,1122.87 649.349,1115.21 644.014,1107.56 638.795,1099.9 633.692,1092.25 628.705,1084.59 623.834,1076.94 619.079,1069.28 614.44,1061.63 609.917,1053.98 605.51,1046.32 601.219,1038.67 597.044,1031.01 592.985,1023.36 589.041,1015.7 585.214,1008.05 581.503,1000.4 577.908,992.741 574.428,985.086 571.065,977.432 567.818,969.777 564.686,962.123 561.671,954.469 558.772,946.814 555.988,939.16 553.321,931.505 550.769,923.851 548.334,916.197 546.014,908.542 543.811,900.888 541.723,893.233 539.752,885.579 537.896,877.924 536.156,870.27 534.533,862.616 533.025,854.961 531.633,847.307 530.358,839.652 529.198,831.998 528.154,824.344 527.226,816.689 526.414,809.035 525.719,801.38 525.139,793.726 524.675,786.072 524.327,778.417 524.095,770.763 523.979,763.108 523.979,755.454 524.095,747.8 524.327,740.145 524.675,732.491 525.139,724.836 525.719,717.182 526.414,709.527 527.226,701.873 528.154,694.219 529.198,686.564 530.358,678.91 531.633,671.255 533.025,663.601 534.533,655.947 536.156,648.292 537.896,640.638 539.752,632.983 541.723,625.329 543.811,617.675 546.014,610.02 548.334,602.366 550.769,594.711 553.321,587.057 555.988,579.403 558.772,571.748 561.671,564.094 564.686,556.439 567.818,548.785 571.065,541.13 574.428,533.476 577.908,525.822 581.503,518.167 585.214,510.513 589.041,502.858 592.985,495.204 597.044,487.55 601.219,479.895 605.51,472.241 609.917,464.586 614.44,456.932 619.079,449.278 623.834,441.623 628.705,433.969 633.692,426.314 638.795,418.66 644.014,411.006 649.349,403.351 654.8,395.697 660.367,388.042 666.049,380.388 "/>
<polyline clip-path="url(#clip962)" style="stroke:#000000; stroke-linecap:round; stroke-linejoin:round; stroke-width:4; stroke-opacity:1; fill:none" points="2292.13,1138.17 2292.13,1130.52 2292.13,1122.87 2292.13,1115.21 2292.13,1107.56 2292.13,1099.9 2292.13,1092.25 2292.13,1084.59 2292.13,1076.94 2292.13,1069.28 2292.13,1061.63 2292.13,1053.98 2292.13,1046.32 2292.13,1038.67 2292.13,1031.01 2292.13,1023.36 2292.13,1015.7 2292.13,1008.05 2292.13,1000.4 2292.13,992.741 2292.13,985.086 2292.13,977.432 2292.13,969.777 2292.13,962.123 2292.13,954.469 2292.13,946.814 2292.13,939.16 2292.13,931.505 2292.13,923.851 2292.13,916.197 2292.13,908.542 2292.13,900.888 2292.13,893.233 2292.13,885.579 2292.13,877.924 2292.13,870.27 2292.13,862.616 2292.13,854.961 2292.13,847.307 2292.13,839.652 2292.13,831.998 2292.13,824.344 2292.13,816.689 2292.13,809.035 2292.13,801.38 2292.13,793.726 2292.13,786.072 2292.13,778.417 2292.13,770.763 2292.13,763.108 2292.13,755.454 2292.13,747.8 2292.13,740.145 2292.13,732.491 2292.13,724.836 2292.13,717.182 2292.13,709.527 2292.13,701.873 2292.13,694.219 2292.13,686.564 2292.13,678.91 2292.13,671.255 2292.13,663.601 2292.13,655.947 2292.13,648.292 2292.13,640.638 2292.13,632.983 2292.13,625.329 2292.13,617.675 2292.13,610.02 2292.13,602.366 2292.13,594.711 2292.13,587.057 2292.13,579.403 2292.13,571.748 2292.13,564.094 2292.13,556.439 2292.13,548.785 2292.13,541.13 2292.13,533.476 2292.13,525.822 2292.13,518.167 2292.13,510.513 2292.13,502.858 2292.13,495.204 2292.13,487.55 2292.13,479.895 2292.13,472.241 2292.13,464.586 2292.13,456.932 2292.13,449.278 2292.13,441.623 2292.13,433.969 2292.13,426.314 2292.13,418.66 2292.13,411.006 2292.13,403.351 2292.13,395.697 2292.13,388.042 2292.13,380.388 "/>
<polyline clip-path="url(#clip962)" style="stroke:#ff0000; stroke-linecap:round; stroke-linejoin:round; stroke-width:4; stroke-opacity:1; fill:none" points="271.369,632.983 1529.08,632.983 525.719,801.38 2292.13,801.381 "/>
<polyline clip-path="url(#clip962)" style="stroke:#ff0000; stroke-linecap:round; stroke-linejoin:round; stroke-width:4; stroke-opacity:1; fill:none" points="271.369,506.686 1513.3,506.686 530.981,843.48 2292.13,843.48 "/>
<polyline clip-path="url(#clip962)" style="stroke:#ff0000; stroke-linecap:round; stroke-linejoin:round; stroke-width:4; stroke-opacity:1; fill:none" points="271.369,380.388 1486.98,380.388 539.752,885.579 2292.13,885.58 "/>
<polyline clip-path="url(#clip962)" style="stroke:#008000; stroke-linecap:round; stroke-linejoin:round; stroke-width:4; stroke-opacity:1; fill:none" points="271.369,632.983 1525.75,597.852 524.589,784.408 2292.13,934.717 "/>
<polyline clip-path="url(#clip962)" style="stroke:#008000; stroke-linecap:round; stroke-linejoin:round; stroke-width:4; stroke-opacity:1; fill:none" points="271.369,506.686 1507.13,472.075 528.313,825.567 2292.13,976.987 "/>
<polyline clip-path="url(#clip962)" style="stroke:#008000; stroke-linecap:round; stroke-linejoin:round; stroke-width:4; stroke-opacity:1; fill:none" points="271.369,380.388 1478.16,346.589 535.286,866.234 2292.13,1018.5 "/>
<polyline clip-path="url(#clip962)" style="stroke:#0000ff; stroke-linecap:round; stroke-linejoin:round; stroke-width:4; stroke-opacity:1; fill:none" points="271.369,632.983 1524.08,582.848 524.275,776.98 2292.13,993.278 "/>
<polyline clip-path="url(#clip962)" style="stroke:#0000ff; stroke-linecap:round; stroke-linejoin:round; stroke-width:4; stroke-opacity:1; fill:none" points="271.369,506.686 1504.27,457.343 527.332,817.609 2292.13,1036.5 "/>
<polyline clip-path="url(#clip962)" style="stroke:#0000ff; stroke-linecap:round; stroke-linejoin:round; stroke-width:4; stroke-opacity:1; fill:none" points="271.369,380.388 1474.19,332.25 533.519,857.536 2292.13,1078.69 "/>
</svg>
