<?xml version="1.0" encoding="utf-8"?>
<svg xmlns="http://www.w3.org/2000/svg" xmlns:xlink="http://www.w3.org/1999/xlink" width="600" height="400" viewBox="0 0 2400 1600">
<defs>
  <clipPath id="clip400">
    <rect x="0" y="0" width="2400" height="1600"/>
  </clipPath>
</defs>
<path clip-path="url(#clip400)" d="M0 1600 L2400 1600 L2400 0 L0 0  Z" fill="#ffffff" fill-rule="evenodd" fill-opacity="1"/>
<defs>
  <clipPath id="clip401">
    <rect x="480" y="0" width="1681" height="1600"/>
  </clipPath>
</defs>
<path clip-path="url(#clip400)" d="M437.478 1423.18 L2352.76 1423.18 L2352.76 47.2441 L437.478 47.2441  Z" fill="#ffffff" fill-rule="evenodd" fill-opacity="1"/>
<defs>
  <clipPath id="clip402">
    <rect x="437" y="47" width="1916" height="1377"/>
  </clipPath>
</defs>
<polyline clip-path="url(#clip402)" style="stroke:#000000; stroke-linecap:round; stroke-linejoin:round; stroke-width:2; stroke-opacity:0.1; fill:none" points="491.684,1423.18 491.684,47.2441 "/>
<polyline clip-path="url(#clip402)" style="stroke:#000000; stroke-linecap:round; stroke-linejoin:round; stroke-width:2; stroke-opacity:0.1; fill:none" points="943.4,1423.18 943.4,47.2441 "/>
<polyline clip-path="url(#clip402)" style="stroke:#000000; stroke-linecap:round; stroke-linejoin:round; stroke-width:2; stroke-opacity:0.1; fill:none" points="1395.12,1423.18 1395.12,47.2441 "/>
<polyline clip-path="url(#clip402)" style="stroke:#000000; stroke-linecap:round; stroke-linejoin:round; stroke-width:2; stroke-opacity:0.1; fill:none" points="1846.83,1423.18 1846.83,47.2441 "/>
<polyline clip-path="url(#clip402)" style="stroke:#000000; stroke-linecap:round; stroke-linejoin:round; stroke-width:2; stroke-opacity:0.1; fill:none" points="2298.55,1423.18 2298.55,47.2441 "/>
<polyline clip-path="url(#clip402)" style="stroke:#000000; stroke-linecap:round; stroke-linejoin:round; stroke-width:2; stroke-opacity:0.1; fill:none" points="437.478,1211.6 2352.76,1211.6 "/>
<polyline clip-path="url(#clip402)" style="stroke:#000000; stroke-linecap:round; stroke-linejoin:round; stroke-width:2; stroke-opacity:0.1; fill:none" points="437.478,973.406 2352.76,973.406 "/>
<polyline clip-path="url(#clip402)" style="stroke:#000000; stroke-linecap:round; stroke-linejoin:round; stroke-width:2; stroke-opacity:0.1; fill:none" points="437.478,735.212 2352.76,735.212 "/>
<polyline clip-path="url(#clip402)" style="stroke:#000000; stroke-linecap:round; stroke-linejoin:round; stroke-width:2; stroke-opacity:0.1; fill:none" points="437.478,497.018 2352.76,497.018 "/>
<polyline clip-path="url(#clip402)" style="stroke:#000000; stroke-linecap:round; stroke-linejoin:round; stroke-width:2; stroke-opacity:0.1; fill:none" points="437.478,258.824 2352.76,258.824 "/>
<polyline clip-path="url(#clip400)" style="stroke:#000000; stroke-linecap:round; stroke-linejoin:round; stroke-width:4; stroke-opacity:1; fill:none" points="437.478,1423.18 2352.76,1423.18 "/>
<polyline clip-path="url(#clip400)" style="stroke:#000000; stroke-linecap:round; stroke-linejoin:round; stroke-width:4; stroke-opacity:1; fill:none" points="491.684,1423.18 491.684,1404.28 "/>
<polyline clip-path="url(#clip400)" style="stroke:#000000; stroke-linecap:round; stroke-linejoin:round; stroke-width:4; stroke-opacity:1; fill:none" points="943.4,1423.18 943.4,1404.28 "/>
<polyline clip-path="url(#clip400)" style="stroke:#000000; stroke-linecap:round; stroke-linejoin:round; stroke-width:4; stroke-opacity:1; fill:none" points="1395.12,1423.18 1395.12,1404.28 "/>
<polyline clip-path="url(#clip400)" style="stroke:#000000; stroke-linecap:round; stroke-linejoin:round; stroke-width:4; stroke-opacity:1; fill:none" points="1846.83,1423.18 1846.83,1404.28 "/>
<polyline clip-path="url(#clip400)" style="stroke:#000000; stroke-linecap:round; stroke-linejoin:round; stroke-width:4; stroke-opacity:1; fill:none" points="2298.55,1423.18 2298.55,1404.28 "/>
<path clip-path="url(#clip400)" d="M460.585 1468.75 L490.26 1468.75 L490.26 1472.69 L460.585 1472.69 L460.585 1468.75 Z" fill="#000000" fill-rule="nonzero" fill-opacity="1" /><path clip-path="url(#clip400)" d="M513.2 1455.09 L501.395 1473.54 L513.2 1473.54 L513.2 1455.09 M511.973 1451.02 L517.853 1451.02 L517.853 1473.54 L522.783 1473.54 L522.783 1477.43 L517.853 1477.43 L517.853 1485.58 L513.2 1485.58 L513.2 1477.43 L497.598 1477.43 L497.598 1472.92 L511.973 1451.02 Z" fill="#000000" fill-rule="nonzero" fill-opacity="1" /><path clip-path="url(#clip400)" d="M913.343 1468.75 L943.018 1468.75 L943.018 1472.69 L913.343 1472.69 L913.343 1468.75 Z" fill="#000000" fill-rule="nonzero" fill-opacity="1" /><path clip-path="url(#clip400)" d="M957.139 1481.64 L973.458 1481.64 L973.458 1485.58 L951.514 1485.58 L951.514 1481.64 Q954.176 1478.89 958.759 1474.26 Q963.366 1469.61 964.546 1468.27 Q966.792 1465.74 967.671 1464.01 Q968.574 1462.25 968.574 1460.56 Q968.574 1457.8 966.629 1456.07 Q964.708 1454.33 961.606 1454.33 Q959.407 1454.33 956.954 1455.09 Q954.523 1455.86 951.745 1457.41 L951.745 1452.69 Q954.569 1451.55 957.023 1450.97 Q959.477 1450.39 961.514 1450.39 Q966.884 1450.39 970.079 1453.08 Q973.273 1455.77 973.273 1460.26 Q973.273 1462.39 972.463 1464.31 Q971.676 1466.2 969.569 1468.8 Q968.991 1469.47 965.889 1472.69 Q962.787 1475.88 957.139 1481.64 Z" fill="#000000" fill-rule="nonzero" fill-opacity="1" /><path clip-path="url(#clip400)" d="M1395.12 1454.1 Q1391.51 1454.1 1389.68 1457.66 Q1387.87 1461.2 1387.87 1468.33 Q1387.87 1475.44 1389.68 1479.01 Q1391.51 1482.55 1395.12 1482.55 Q1398.75 1482.55 1400.56 1479.01 Q1402.39 1475.44 1402.39 1468.33 Q1402.39 1461.2 1400.56 1457.66 Q1398.75 1454.1 1395.12 1454.1 M1395.12 1450.39 Q1400.93 1450.39 1403.98 1455 Q1407.06 1459.58 1407.06 1468.33 Q1407.06 1477.06 1403.98 1481.67 Q1400.93 1486.25 1395.12 1486.25 Q1389.31 1486.25 1386.23 1481.67 Q1383.17 1477.06 1383.17 1468.33 Q1383.17 1459.58 1386.23 1455 Q1389.31 1450.39 1395.12 1450.39 Z" fill="#000000" fill-rule="nonzero" fill-opacity="1" /><path clip-path="url(#clip400)" d="M1841.49 1481.64 L1857.81 1481.64 L1857.81 1485.58 L1835.86 1485.58 L1835.86 1481.64 Q1838.52 1478.89 1843.11 1474.26 Q1847.71 1469.61 1848.89 1468.27 Q1851.14 1465.74 1852.02 1464.01 Q1852.92 1462.25 1852.92 1460.56 Q1852.92 1457.8 1850.98 1456.07 Q1849.06 1454.33 1845.95 1454.33 Q1843.75 1454.33 1841.3 1455.09 Q1838.87 1455.86 1836.09 1457.41 L1836.09 1452.69 Q1838.92 1451.55 1841.37 1450.97 Q1843.82 1450.39 1845.86 1450.39 Q1851.23 1450.39 1854.43 1453.08 Q1857.62 1455.77 1857.62 1460.26 Q1857.62 1462.39 1856.81 1464.31 Q1856.02 1466.2 1853.92 1468.8 Q1853.34 1469.47 1850.24 1472.69 Q1847.13 1475.88 1841.49 1481.64 Z" fill="#000000" fill-rule="nonzero" fill-opacity="1" /><path clip-path="url(#clip400)" d="M2301.56 1455.09 L2289.75 1473.54 L2301.56 1473.54 L2301.56 1455.09 M2300.33 1451.02 L2306.21 1451.02 L2306.21 1473.54 L2311.14 1473.54 L2311.14 1477.43 L2306.21 1477.43 L2306.21 1485.58 L2301.56 1485.58 L2301.56 1477.43 L2285.96 1477.43 L2285.96 1472.92 L2300.33 1451.02 Z" fill="#000000" fill-rule="nonzero" fill-opacity="1" /><path clip-path="url(#clip400)" d="M1289.41 1571.35 Q1286.93 1577.72 1284.58 1579.66 Q1282.22 1581.6 1278.27 1581.6 L1273.6 1581.6 L1273.6 1576.7 L1277.03 1576.7 Q1279.45 1576.7 1280.79 1575.56 Q1282.13 1574.41 1283.75 1570.14 L1284.8 1567.47 L1270.38 1532.4 L1276.59 1532.4 L1287.73 1560.28 L1298.87 1532.4 L1305.07 1532.4 L1289.41 1571.35 Z" fill="#000000" fill-rule="nonzero" fill-opacity="1" /><path clip-path="url(#clip400)" d="M1339.54 1562.7 L1339.54 1581.6 L1333.66 1581.6 L1333.66 1532.4 L1339.54 1532.4 L1339.54 1537.81 Q1341.39 1534.62 1344.19 1533.1 Q1347.02 1531.54 1350.94 1531.54 Q1357.43 1531.54 1361.47 1536.69 Q1365.55 1541.85 1365.55 1550.25 Q1365.55 1558.65 1361.47 1563.81 Q1357.43 1568.97 1350.94 1568.97 Q1347.02 1568.97 1344.19 1567.44 Q1341.39 1565.88 1339.54 1562.7 M1359.47 1550.25 Q1359.47 1543.79 1356.8 1540.13 Q1354.15 1536.44 1349.51 1536.44 Q1344.86 1536.44 1342.19 1540.13 Q1339.54 1543.79 1339.54 1550.25 Q1339.54 1556.71 1342.19 1560.4 Q1344.86 1564.07 1349.51 1564.07 Q1354.15 1564.07 1356.8 1560.4 Q1359.47 1556.71 1359.47 1550.25 Z" fill="#000000" fill-rule="nonzero" fill-opacity="1" /><path clip-path="url(#clip400)" d="M1389.07 1536.5 Q1384.36 1536.5 1381.62 1540.19 Q1378.88 1543.85 1378.88 1550.25 Q1378.88 1556.65 1381.59 1560.34 Q1384.33 1564 1389.07 1564 Q1393.75 1564 1396.49 1560.31 Q1399.22 1556.62 1399.22 1550.25 Q1399.22 1543.92 1396.49 1540.23 Q1393.75 1536.5 1389.07 1536.5 M1389.07 1531.54 Q1396.71 1531.54 1401.07 1536.5 Q1405.43 1541.47 1405.43 1550.25 Q1405.43 1559 1401.07 1564 Q1396.71 1568.97 1389.07 1568.97 Q1381.4 1568.97 1377.04 1564 Q1372.71 1559 1372.71 1550.25 Q1372.71 1541.47 1377.04 1536.5 Q1381.4 1531.54 1389.07 1531.54 Z" fill="#000000" fill-rule="nonzero" fill-opacity="1" /><path clip-path="url(#clip400)" d="M1437.86 1533.45 L1437.86 1538.98 Q1435.38 1537.71 1432.71 1537.07 Q1430.03 1536.44 1427.17 1536.44 Q1422.81 1536.44 1420.61 1537.77 Q1418.45 1539.11 1418.45 1541.79 Q1418.45 1543.82 1420.01 1545 Q1421.57 1546.15 1426.28 1547.2 L1428.28 1547.64 Q1434.52 1548.98 1437.13 1551.43 Q1439.77 1553.85 1439.77 1558.21 Q1439.77 1563.17 1435.83 1566.07 Q1431.91 1568.97 1425.04 1568.97 Q1422.17 1568.97 1419.05 1568.39 Q1415.96 1567.85 1412.53 1566.74 L1412.53 1560.69 Q1415.77 1562.38 1418.92 1563.24 Q1422.08 1564.07 1425.16 1564.07 Q1429.3 1564.07 1431.53 1562.66 Q1433.76 1561.23 1433.76 1558.65 Q1433.76 1556.27 1432.13 1554.99 Q1430.54 1553.72 1425.1 1552.54 L1423.06 1552.07 Q1417.62 1550.92 1415.2 1548.56 Q1412.78 1546.18 1412.78 1542.04 Q1412.78 1537.01 1416.35 1534.27 Q1419.91 1531.54 1426.47 1531.54 Q1429.71 1531.54 1432.58 1532.01 Q1435.44 1532.49 1437.86 1533.45 Z" fill="#000000" fill-rule="nonzero" fill-opacity="1" /><path clip-path="url(#clip400)" d="M1449.93 1559.96 L1456.64 1559.96 L1456.64 1568.04 L1449.93 1568.04 L1449.93 1559.96 Z" fill="#000000" fill-rule="nonzero" fill-opacity="1" /><path clip-path="url(#clip400)" d="M1492.48 1562.63 L1502.98 1562.63 L1502.98 1526.38 L1491.56 1528.67 L1491.56 1522.82 L1502.92 1520.52 L1509.35 1520.52 L1509.35 1562.63 L1519.85 1562.63 L1519.85 1568.04 L1492.48 1568.04 L1492.48 1562.63 Z" fill="#000000" fill-rule="nonzero" fill-opacity="1" /><polyline clip-path="url(#clip400)" style="stroke:#000000; stroke-linecap:round; stroke-linejoin:round; stroke-width:4; stroke-opacity:1; fill:none" points="437.478,1423.18 437.478,47.2441 "/>
<polyline clip-path="url(#clip400)" style="stroke:#000000; stroke-linecap:round; stroke-linejoin:round; stroke-width:4; stroke-opacity:1; fill:none" points="437.478,1211.6 456.376,1211.6 "/>
<polyline clip-path="url(#clip400)" style="stroke:#000000; stroke-linecap:round; stroke-linejoin:round; stroke-width:4; stroke-opacity:1; fill:none" points="437.478,973.406 456.376,973.406 "/>
<polyline clip-path="url(#clip400)" style="stroke:#000000; stroke-linecap:round; stroke-linejoin:round; stroke-width:4; stroke-opacity:1; fill:none" points="437.478,735.212 456.376,735.212 "/>
<polyline clip-path="url(#clip400)" style="stroke:#000000; stroke-linecap:round; stroke-linejoin:round; stroke-width:4; stroke-opacity:1; fill:none" points="437.478,497.018 456.376,497.018 "/>
<polyline clip-path="url(#clip400)" style="stroke:#000000; stroke-linecap:round; stroke-linejoin:round; stroke-width:4; stroke-opacity:1; fill:none" points="437.478,258.824 456.376,258.824 "/>
<path clip-path="url(#clip400)" d="M114.26 1218.5 L143.936 1218.5 L143.936 1222.43 L114.26 1222.43 L114.26 1218.5 Z" fill="#000000" fill-rule="nonzero" fill-opacity="1" /><path clip-path="url(#clip400)" d="M154.075 1200.77 L172.431 1200.77 L172.431 1204.7 L158.357 1204.7 L158.357 1213.17 Q159.376 1212.83 160.394 1212.67 Q161.413 1212.48 162.431 1212.48 Q168.218 1212.48 171.598 1215.65 Q174.977 1218.82 174.977 1224.24 Q174.977 1229.82 171.505 1232.92 Q168.033 1236 161.714 1236 Q159.538 1236 157.269 1235.63 Q155.024 1235.26 152.616 1234.52 L152.616 1229.82 Q154.7 1230.95 156.922 1231.51 Q159.144 1232.06 161.621 1232.06 Q165.626 1232.06 167.964 1229.96 Q170.302 1227.85 170.302 1224.24 Q170.302 1220.63 167.964 1218.52 Q165.626 1216.42 161.621 1216.42 Q159.746 1216.42 157.871 1216.83 Q156.019 1217.25 154.075 1218.13 L154.075 1200.77 Z" fill="#000000" fill-rule="nonzero" fill-opacity="1" /><path clip-path="url(#clip400)" d="M184.19 1229.45 L189.075 1229.45 L189.075 1235.33 L184.19 1235.33 L184.19 1229.45 Z" fill="#000000" fill-rule="nonzero" fill-opacity="1" /><path clip-path="url(#clip400)" d="M209.26 1203.85 Q205.649 1203.85 203.82 1207.41 Q202.014 1210.95 202.014 1218.08 Q202.014 1225.19 203.82 1228.75 Q205.649 1232.3 209.26 1232.3 Q212.894 1232.3 214.699 1228.75 Q216.528 1225.19 216.528 1218.08 Q216.528 1210.95 214.699 1207.41 Q212.894 1203.85 209.26 1203.85 M209.26 1200.14 Q215.07 1200.14 218.125 1204.75 Q221.204 1209.33 221.204 1218.08 Q221.204 1226.81 218.125 1231.42 Q215.07 1236 209.26 1236 Q203.449 1236 200.371 1231.42 Q197.315 1226.81 197.315 1218.08 Q197.315 1209.33 200.371 1204.75 Q203.449 1200.14 209.26 1200.14 Z" fill="#000000" fill-rule="nonzero" fill-opacity="1" /><path clip-path="url(#clip400)" d="M239.422 1203.85 Q235.81 1203.85 233.982 1207.41 Q232.176 1210.95 232.176 1218.08 Q232.176 1225.19 233.982 1228.75 Q235.81 1232.3 239.422 1232.3 Q243.056 1232.3 244.861 1228.75 Q246.69 1225.19 246.69 1218.08 Q246.69 1210.95 244.861 1207.41 Q243.056 1203.85 239.422 1203.85 M239.422 1200.14 Q245.232 1200.14 248.287 1204.75 Q251.366 1209.33 251.366 1218.08 Q251.366 1226.81 248.287 1231.42 Q245.232 1236 239.422 1236 Q233.611 1236 230.533 1231.42 Q227.477 1226.81 227.477 1218.08 Q227.477 1209.33 230.533 1204.75 Q233.611 1200.14 239.422 1200.14 Z" fill="#000000" fill-rule="nonzero" fill-opacity="1" /><path clip-path="url(#clip400)" d="M287.755 1209.86 L277.176 1220.49 L287.755 1231.07 L285 1233.87 L274.375 1223.24 L263.75 1233.87 L261.019 1231.07 L271.574 1220.49 L261.019 1209.86 L263.75 1207.06 L274.375 1217.69 L285 1207.06 L287.755 1209.86 Z" fill="#000000" fill-rule="nonzero" fill-opacity="1" /><path clip-path="url(#clip400)" d="M300.116 1231.39 L307.754 1231.39 L307.754 1205.03 L299.444 1206.69 L299.444 1202.43 L307.708 1200.77 L312.384 1200.77 L312.384 1231.39 L320.023 1231.39 L320.023 1235.33 L300.116 1235.33 L300.116 1231.39 Z" fill="#000000" fill-rule="nonzero" fill-opacity="1" /><path clip-path="url(#clip400)" d="M339.467 1203.85 Q335.856 1203.85 334.027 1207.41 Q332.222 1210.95 332.222 1218.08 Q332.222 1225.19 334.027 1228.75 Q335.856 1232.3 339.467 1232.3 Q343.102 1232.3 344.907 1228.75 Q346.736 1225.19 346.736 1218.08 Q346.736 1210.95 344.907 1207.41 Q343.102 1203.85 339.467 1203.85 M339.467 1200.14 Q345.277 1200.14 348.333 1204.75 Q351.412 1209.33 351.412 1218.08 Q351.412 1226.81 348.333 1231.42 Q345.277 1236 339.467 1236 Q333.657 1236 330.578 1231.42 Q327.523 1226.81 327.523 1218.08 Q327.523 1209.33 330.578 1204.75 Q333.657 1200.14 339.467 1200.14 Z" fill="#000000" fill-rule="nonzero" fill-opacity="1" /><path clip-path="url(#clip400)" d="M351.412 1194.24 L375.523 1194.24 L375.523 1197.44 L351.412 1197.44 L351.412 1194.24 Z" fill="#000000" fill-rule="nonzero" fill-opacity="1" /><path clip-path="url(#clip400)" d="M391.848 1194.58 Q389.14 1194.58 387.579 1196.03 Q386.037 1197.48 386.037 1200.02 Q386.037 1202.56 387.579 1204 Q389.14 1205.45 391.848 1205.45 Q394.557 1205.45 396.118 1204 Q397.679 1202.54 397.679 1200.02 Q397.679 1197.48 396.118 1196.03 Q394.575 1194.58 391.848 1194.58 M388.049 1192.96 Q385.604 1192.36 384.231 1190.69 Q382.877 1189.02 382.877 1186.61 Q382.877 1183.24 385.266 1181.29 Q387.673 1179.33 391.848 1179.33 Q396.043 1179.33 398.431 1181.29 Q400.82 1183.24 400.82 1186.61 Q400.82 1189.02 399.447 1190.69 Q398.093 1192.36 395.666 1192.96 Q398.412 1193.6 399.936 1195.47 Q401.478 1197.33 401.478 1200.02 Q401.478 1204.1 398.977 1206.28 Q396.494 1208.46 391.848 1208.46 Q387.203 1208.46 384.701 1206.28 Q382.219 1204.1 382.219 1200.02 Q382.219 1197.33 383.761 1195.47 Q385.303 1193.6 388.049 1192.96 M386.657 1186.97 Q386.657 1189.15 388.012 1190.37 Q389.385 1191.59 391.848 1191.59 Q394.293 1191.59 395.666 1190.37 Q397.058 1189.15 397.058 1186.97 Q397.058 1184.78 395.666 1183.56 Q394.293 1182.34 391.848 1182.34 Q389.385 1182.34 388.012 1183.56 Q386.657 1184.78 386.657 1186.97 Z" fill="#000000" fill-rule="nonzero" fill-opacity="1" /><path clip-path="url(#clip400)" d="M114.26 980.305 L143.936 980.305 L143.936 984.24 L114.26 984.24 L114.26 980.305 Z" fill="#000000" fill-rule="nonzero" fill-opacity="1" /><path clip-path="url(#clip400)" d="M158.056 993.198 L174.376 993.198 L174.376 997.133 L152.431 997.133 L152.431 993.198 Q155.093 990.444 159.677 985.814 Q164.283 981.161 165.464 979.819 Q167.709 977.296 168.589 975.56 Q169.491 973.8 169.491 972.11 Q169.491 969.356 167.547 967.62 Q165.626 965.884 162.524 965.884 Q160.325 965.884 157.871 966.648 Q155.44 967.411 152.663 968.962 L152.663 964.24 Q155.487 963.106 157.94 962.527 Q160.394 961.948 162.431 961.948 Q167.802 961.948 170.996 964.634 Q174.19 967.319 174.19 971.81 Q174.19 973.939 173.38 975.86 Q172.593 977.759 170.487 980.351 Q169.908 981.022 166.806 984.24 Q163.704 987.434 158.056 993.198 Z" fill="#000000" fill-rule="nonzero" fill-opacity="1" /><path clip-path="url(#clip400)" d="M184.19 991.254 L189.075 991.254 L189.075 997.133 L184.19 997.133 L184.19 991.254 Z" fill="#000000" fill-rule="nonzero" fill-opacity="1" /><path clip-path="url(#clip400)" d="M199.306 962.573 L217.662 962.573 L217.662 966.509 L203.588 966.509 L203.588 974.981 Q204.607 974.634 205.625 974.472 Q206.644 974.286 207.662 974.286 Q213.449 974.286 216.829 977.458 Q220.209 980.629 220.209 986.046 Q220.209 991.624 216.736 994.726 Q213.264 997.805 206.945 997.805 Q204.769 997.805 202.5 997.434 Q200.255 997.064 197.848 996.323 L197.848 991.624 Q199.931 992.759 202.153 993.314 Q204.375 993.87 206.852 993.87 Q210.857 993.87 213.195 991.763 Q215.533 989.657 215.533 986.046 Q215.533 982.434 213.195 980.328 Q210.857 978.222 206.852 978.222 Q204.977 978.222 203.102 978.638 Q201.25 979.055 199.306 979.935 L199.306 962.573 Z" fill="#000000" fill-rule="nonzero" fill-opacity="1" /><path clip-path="url(#clip400)" d="M239.422 965.652 Q235.81 965.652 233.982 969.217 Q232.176 972.759 232.176 979.888 Q232.176 986.995 233.982 990.559 Q235.81 994.101 239.422 994.101 Q243.056 994.101 244.861 990.559 Q246.69 986.995 246.69 979.888 Q246.69 972.759 244.861 969.217 Q243.056 965.652 239.422 965.652 M239.422 961.948 Q245.232 961.948 248.287 966.555 Q251.366 971.138 251.366 979.888 Q251.366 988.615 248.287 993.221 Q245.232 997.805 239.422 997.805 Q233.611 997.805 230.533 993.221 Q227.477 988.615 227.477 979.888 Q227.477 971.138 230.533 966.555 Q233.611 961.948 239.422 961.948 Z" fill="#000000" fill-rule="nonzero" fill-opacity="1" /><path clip-path="url(#clip400)" d="M287.755 971.671 L277.176 982.296 L287.755 992.874 L285 995.675 L274.375 985.05 L263.75 995.675 L261.019 992.874 L271.574 982.296 L261.019 971.671 L263.75 968.87 L274.375 979.495 L285 968.87 L287.755 971.671 Z" fill="#000000" fill-rule="nonzero" fill-opacity="1" /><path clip-path="url(#clip400)" d="M300.116 993.198 L307.754 993.198 L307.754 966.833 L299.444 968.499 L299.444 964.24 L307.708 962.573 L312.384 962.573 L312.384 993.198 L320.023 993.198 L320.023 997.133 L300.116 997.133 L300.116 993.198 Z" fill="#000000" fill-rule="nonzero" fill-opacity="1" /><path clip-path="url(#clip400)" d="M339.467 965.652 Q335.856 965.652 334.027 969.217 Q332.222 972.759 332.222 979.888 Q332.222 986.995 334.027 990.559 Q335.856 994.101 339.467 994.101 Q343.102 994.101 344.907 990.559 Q346.736 986.995 346.736 979.888 Q346.736 972.759 344.907 969.217 Q343.102 965.652 339.467 965.652 M339.467 961.948 Q345.277 961.948 348.333 966.555 Q351.412 971.138 351.412 979.888 Q351.412 988.615 348.333 993.221 Q345.277 997.805 339.467 997.805 Q333.657 997.805 330.578 993.221 Q327.523 988.615 327.523 979.888 Q327.523 971.138 330.578 966.555 Q333.657 961.948 339.467 961.948 Z" fill="#000000" fill-rule="nonzero" fill-opacity="1" /><path clip-path="url(#clip400)" d="M351.412 956.05 L375.523 956.05 L375.523 959.247 L351.412 959.247 L351.412 956.05 Z" fill="#000000" fill-rule="nonzero" fill-opacity="1" /><path clip-path="url(#clip400)" d="M391.848 956.388 Q389.14 956.388 387.579 957.837 Q386.037 959.285 386.037 961.824 Q386.037 964.363 387.579 965.811 Q389.14 967.259 391.848 967.259 Q394.557 967.259 396.118 965.811 Q397.679 964.344 397.679 961.824 Q397.679 959.285 396.118 957.837 Q394.575 956.388 391.848 956.388 M388.049 954.771 Q385.604 954.169 384.231 952.495 Q382.877 950.821 382.877 948.414 Q382.877 945.047 385.266 943.091 Q387.673 941.135 391.848 941.135 Q396.043 941.135 398.431 943.091 Q400.82 945.047 400.82 948.414 Q400.82 950.821 399.447 952.495 Q398.093 954.169 395.666 954.771 Q398.412 955.41 399.936 957.272 Q401.478 959.134 401.478 961.824 Q401.478 965.905 398.977 968.087 Q396.494 970.269 391.848 970.269 Q387.203 970.269 384.701 968.087 Q382.219 965.905 382.219 961.824 Q382.219 959.134 383.761 957.272 Q385.303 955.41 388.049 954.771 M386.657 948.771 Q386.657 950.953 388.012 952.175 Q389.385 953.398 391.848 953.398 Q394.293 953.398 395.666 952.175 Q397.058 950.953 397.058 948.771 Q397.058 946.59 395.666 945.367 Q394.293 944.145 391.848 944.145 Q389.385 944.145 388.012 945.367 Q386.657 946.59 386.657 948.771 Z" fill="#000000" fill-rule="nonzero" fill-opacity="1" /><path clip-path="url(#clip400)" d="M389.534 721.011 Q385.922 721.011 384.094 724.575 Q382.288 728.117 382.288 735.247 Q382.288 742.353 384.094 745.918 Q385.922 749.46 389.534 749.46 Q393.168 749.46 394.973 745.918 Q396.802 742.353 396.802 735.247 Q396.802 728.117 394.973 724.575 Q393.168 721.011 389.534 721.011 M389.534 717.307 Q395.344 717.307 398.399 721.913 Q401.478 726.497 401.478 735.247 Q401.478 743.973 398.399 748.58 Q395.344 753.163 389.534 753.163 Q383.723 753.163 380.645 748.58 Q377.589 743.973 377.589 735.247 Q377.589 726.497 380.645 721.913 Q383.723 717.307 389.534 717.307 Z" fill="#000000" fill-rule="nonzero" fill-opacity="1" /><path clip-path="url(#clip400)" d="M158.056 516.81 L174.376 516.81 L174.376 520.746 L152.431 520.746 L152.431 516.81 Q155.093 514.056 159.677 509.426 Q164.283 504.774 165.464 503.431 Q167.709 500.908 168.589 499.172 Q169.491 497.412 169.491 495.723 Q169.491 492.968 167.547 491.232 Q165.626 489.496 162.524 489.496 Q160.325 489.496 157.871 490.26 Q155.44 491.024 152.663 492.575 L152.663 487.852 Q155.487 486.718 157.94 486.139 Q160.394 485.561 162.431 485.561 Q167.802 485.561 170.996 488.246 Q174.19 490.931 174.19 495.422 Q174.19 497.551 173.38 499.473 Q172.593 501.371 170.487 503.963 Q169.908 504.635 166.806 507.852 Q163.704 511.047 158.056 516.81 Z" fill="#000000" fill-rule="nonzero" fill-opacity="1" /><path clip-path="url(#clip400)" d="M184.19 514.866 L189.075 514.866 L189.075 520.746 L184.19 520.746 L184.19 514.866 Z" fill="#000000" fill-rule="nonzero" fill-opacity="1" /><path clip-path="url(#clip400)" d="M199.306 486.186 L217.662 486.186 L217.662 490.121 L203.588 490.121 L203.588 498.593 Q204.607 498.246 205.625 498.084 Q206.644 497.899 207.662 497.899 Q213.449 497.899 216.829 501.07 Q220.209 504.241 220.209 509.658 Q220.209 515.236 216.736 518.338 Q213.264 521.417 206.945 521.417 Q204.769 521.417 202.5 521.047 Q200.255 520.676 197.848 519.935 L197.848 515.236 Q199.931 516.371 202.153 516.926 Q204.375 517.482 206.852 517.482 Q210.857 517.482 213.195 515.375 Q215.533 513.269 215.533 509.658 Q215.533 506.047 213.195 503.94 Q210.857 501.834 206.852 501.834 Q204.977 501.834 203.102 502.25 Q201.25 502.667 199.306 503.547 L199.306 486.186 Z" fill="#000000" fill-rule="nonzero" fill-opacity="1" /><path clip-path="url(#clip400)" d="M239.422 489.264 Q235.81 489.264 233.982 492.829 Q232.176 496.371 232.176 503.5 Q232.176 510.607 233.982 514.172 Q235.81 517.713 239.422 517.713 Q243.056 517.713 244.861 514.172 Q246.69 510.607 246.69 503.5 Q246.69 496.371 244.861 492.829 Q243.056 489.264 239.422 489.264 M239.422 485.561 Q245.232 485.561 248.287 490.167 Q251.366 494.75 251.366 503.5 Q251.366 512.227 248.287 516.834 Q245.232 521.417 239.422 521.417 Q233.611 521.417 230.533 516.834 Q227.477 512.227 227.477 503.5 Q227.477 494.75 230.533 490.167 Q233.611 485.561 239.422 485.561 Z" fill="#000000" fill-rule="nonzero" fill-opacity="1" /><path clip-path="url(#clip400)" d="M287.755 495.283 L277.176 505.908 L287.755 516.486 L285 519.287 L274.375 508.662 L263.75 519.287 L261.019 516.486 L271.574 505.908 L261.019 495.283 L263.75 492.482 L274.375 503.107 L285 492.482 L287.755 495.283 Z" fill="#000000" fill-rule="nonzero" fill-opacity="1" /><path clip-path="url(#clip400)" d="M300.116 516.81 L307.754 516.81 L307.754 490.445 L299.444 492.112 L299.444 487.852 L307.708 486.186 L312.384 486.186 L312.384 516.81 L320.023 516.81 L320.023 520.746 L300.116 520.746 L300.116 516.81 Z" fill="#000000" fill-rule="nonzero" fill-opacity="1" /><path clip-path="url(#clip400)" d="M339.467 489.264 Q335.856 489.264 334.027 492.829 Q332.222 496.371 332.222 503.5 Q332.222 510.607 334.027 514.172 Q335.856 517.713 339.467 517.713 Q343.102 517.713 344.907 514.172 Q346.736 510.607 346.736 503.5 Q346.736 496.371 344.907 492.829 Q343.102 489.264 339.467 489.264 M339.467 485.561 Q345.277 485.561 348.333 490.167 Q351.412 494.75 351.412 503.5 Q351.412 512.227 348.333 516.834 Q345.277 521.417 339.467 521.417 Q333.657 521.417 330.578 516.834 Q327.523 512.227 327.523 503.5 Q327.523 494.75 330.578 490.167 Q333.657 485.561 339.467 485.561 Z" fill="#000000" fill-rule="nonzero" fill-opacity="1" /><path clip-path="url(#clip400)" d="M351.412 479.662 L375.523 479.662 L375.523 482.859 L351.412 482.859 L351.412 479.662 Z" fill="#000000" fill-rule="nonzero" fill-opacity="1" /><path clip-path="url(#clip400)" d="M391.848 480.001 Q389.14 480.001 387.579 481.449 Q386.037 482.897 386.037 485.436 Q386.037 487.975 387.579 489.423 Q389.14 490.871 391.848 490.871 Q394.557 490.871 396.118 489.423 Q397.679 487.956 397.679 485.436 Q397.679 482.897 396.118 481.449 Q394.575 480.001 391.848 480.001 M388.049 478.383 Q385.604 477.781 384.231 476.107 Q382.877 474.433 382.877 472.026 Q382.877 468.659 385.266 466.703 Q387.673 464.747 391.848 464.747 Q396.043 464.747 398.431 466.703 Q400.82 468.659 400.82 472.026 Q400.82 474.433 399.447 476.107 Q398.093 477.781 395.666 478.383 Q398.412 479.023 399.936 480.885 Q401.478 482.746 401.478 485.436 Q401.478 489.517 398.977 491.699 Q396.494 493.881 391.848 493.881 Q387.203 493.881 384.701 491.699 Q382.219 489.517 382.219 485.436 Q382.219 482.746 383.761 480.885 Q385.303 479.023 388.049 478.383 M386.657 472.383 Q386.657 474.565 388.012 475.788 Q389.385 477.01 391.848 477.01 Q394.293 477.01 395.666 475.788 Q397.058 474.565 397.058 472.383 Q397.058 470.202 395.666 468.979 Q394.293 467.757 391.848 467.757 Q389.385 467.757 388.012 468.979 Q386.657 470.202 386.657 472.383 Z" fill="#000000" fill-rule="nonzero" fill-opacity="1" /><path clip-path="url(#clip400)" d="M154.075 247.992 L172.431 247.992 L172.431 251.927 L158.357 251.927 L158.357 260.399 Q159.376 260.052 160.394 259.89 Q161.413 259.705 162.431 259.705 Q168.218 259.705 171.598 262.876 Q174.977 266.047 174.977 271.464 Q174.977 277.043 171.505 280.144 Q168.033 283.223 161.714 283.223 Q159.538 283.223 157.269 282.853 Q155.024 282.482 152.616 281.742 L152.616 277.043 Q154.7 278.177 156.922 278.732 Q159.144 279.288 161.621 279.288 Q165.626 279.288 167.964 277.181 Q170.302 275.075 170.302 271.464 Q170.302 267.853 167.964 265.746 Q165.626 263.64 161.621 263.64 Q159.746 263.64 157.871 264.056 Q156.019 264.473 154.075 265.353 L154.075 247.992 Z" fill="#000000" fill-rule="nonzero" fill-opacity="1" /><path clip-path="url(#clip400)" d="M184.19 276.672 L189.075 276.672 L189.075 282.552 L184.19 282.552 L184.19 276.672 Z" fill="#000000" fill-rule="nonzero" fill-opacity="1" /><path clip-path="url(#clip400)" d="M209.26 251.07 Q205.649 251.07 203.82 254.635 Q202.014 258.177 202.014 265.306 Q202.014 272.413 203.82 275.978 Q205.649 279.519 209.26 279.519 Q212.894 279.519 214.699 275.978 Q216.528 272.413 216.528 265.306 Q216.528 258.177 214.699 254.635 Q212.894 251.07 209.26 251.07 M209.26 247.367 Q215.07 247.367 218.125 251.973 Q221.204 256.557 221.204 265.306 Q221.204 274.033 218.125 278.64 Q215.07 283.223 209.26 283.223 Q203.449 283.223 200.371 278.64 Q197.315 274.033 197.315 265.306 Q197.315 256.557 200.371 251.973 Q203.449 247.367 209.26 247.367 Z" fill="#000000" fill-rule="nonzero" fill-opacity="1" /><path clip-path="url(#clip400)" d="M239.422 251.07 Q235.81 251.07 233.982 254.635 Q232.176 258.177 232.176 265.306 Q232.176 272.413 233.982 275.978 Q235.81 279.519 239.422 279.519 Q243.056 279.519 244.861 275.978 Q246.69 272.413 246.69 265.306 Q246.69 258.177 244.861 254.635 Q243.056 251.07 239.422 251.07 M239.422 247.367 Q245.232 247.367 248.287 251.973 Q251.366 256.557 251.366 265.306 Q251.366 274.033 248.287 278.64 Q245.232 283.223 239.422 283.223 Q233.611 283.223 230.533 278.64 Q227.477 274.033 227.477 265.306 Q227.477 256.557 230.533 251.973 Q233.611 247.367 239.422 247.367 Z" fill="#000000" fill-rule="nonzero" fill-opacity="1" /><path clip-path="url(#clip400)" d="M287.755 257.089 L277.176 267.714 L287.755 278.292 L285 281.093 L274.375 270.468 L263.75 281.093 L261.019 278.292 L271.574 267.714 L261.019 257.089 L263.75 254.288 L274.375 264.913 L285 254.288 L287.755 257.089 Z" fill="#000000" fill-rule="nonzero" fill-opacity="1" /><path clip-path="url(#clip400)" d="M300.116 278.617 L307.754 278.617 L307.754 252.251 L299.444 253.918 L299.444 249.658 L307.708 247.992 L312.384 247.992 L312.384 278.617 L320.023 278.617 L320.023 282.552 L300.116 282.552 L300.116 278.617 Z" fill="#000000" fill-rule="nonzero" fill-opacity="1" /><path clip-path="url(#clip400)" d="M339.467 251.07 Q335.856 251.07 334.027 254.635 Q332.222 258.177 332.222 265.306 Q332.222 272.413 334.027 275.978 Q335.856 279.519 339.467 279.519 Q343.102 279.519 344.907 275.978 Q346.736 272.413 346.736 265.306 Q346.736 258.177 344.907 254.635 Q343.102 251.07 339.467 251.07 M339.467 247.367 Q345.277 247.367 348.333 251.973 Q351.412 256.557 351.412 265.306 Q351.412 274.033 348.333 278.64 Q345.277 283.223 339.467 283.223 Q333.657 283.223 330.578 278.64 Q327.523 274.033 327.523 265.306 Q327.523 256.557 330.578 251.973 Q333.657 247.367 339.467 247.367 Z" fill="#000000" fill-rule="nonzero" fill-opacity="1" /><path clip-path="url(#clip400)" d="M351.412 241.468 L375.523 241.468 L375.523 244.665 L351.412 244.665 L351.412 241.468 Z" fill="#000000" fill-rule="nonzero" fill-opacity="1" /><path clip-path="url(#clip400)" d="M391.848 241.807 Q389.14 241.807 387.579 243.255 Q386.037 244.703 386.037 247.242 Q386.037 249.781 387.579 251.229 Q389.14 252.678 391.848 252.678 Q394.557 252.678 396.118 251.229 Q397.679 249.762 397.679 247.242 Q397.679 244.703 396.118 243.255 Q394.575 241.807 391.848 241.807 M388.049 240.189 Q385.604 239.587 384.231 237.913 Q382.877 236.24 382.877 233.832 Q382.877 230.466 385.266 228.51 Q387.673 226.554 391.848 226.554 Q396.043 226.554 398.431 228.51 Q400.82 230.466 400.82 233.832 Q400.82 236.24 399.447 237.913 Q398.093 239.587 395.666 240.189 Q398.412 240.829 399.936 242.691 Q401.478 244.553 401.478 247.242 Q401.478 251.323 398.977 253.505 Q396.494 255.687 391.848 255.687 Q387.203 255.687 384.701 253.505 Q382.219 251.323 382.219 247.242 Q382.219 244.553 383.761 242.691 Q385.303 240.829 388.049 240.189 M386.657 234.189 Q386.657 236.371 388.012 237.594 Q389.385 238.816 391.848 238.816 Q394.293 238.816 395.666 237.594 Q397.058 236.371 397.058 234.189 Q397.058 232.008 395.666 230.785 Q394.293 229.563 391.848 229.563 Q389.385 229.563 388.012 230.785 Q386.657 232.008 386.657 234.189 Z" fill="#000000" fill-rule="nonzero" fill-opacity="1" /><path clip-path="url(#clip400)" d="M67.3143 841.312 Q73.68 843.795 75.6216 846.15 Q77.5631 848.506 77.5631 852.452 L77.5631 857.131 L72.6615 857.131 L72.6615 853.694 Q72.6615 851.275 71.5157 849.938 Q70.3699 848.601 66.1048 846.978 L63.4312 845.928 L28.3562 860.346 L28.3562 854.139 L56.238 842.999 L28.3562 831.859 L28.3562 825.653 L67.3143 841.312 Z" fill="#000000" fill-rule="nonzero" fill-opacity="1" /><path clip-path="url(#clip400)" d="M58.657 791.182 L77.5631 791.182 L77.5631 797.071 L28.3562 797.071 L28.3562 791.182 L33.7671 791.182 Q30.5842 789.336 29.0564 786.535 Q27.4968 783.703 27.4968 779.788 Q27.4968 773.295 32.6531 769.253 Q37.8093 765.179 46.212 765.179 Q54.6147 765.179 59.771 769.253 Q64.9272 773.295 64.9272 779.788 Q64.9272 783.703 63.3994 786.535 Q61.8398 789.336 58.657 791.182 M46.212 771.258 Q39.7508 771.258 36.0905 773.931 Q32.3984 776.573 32.3984 781.22 Q32.3984 785.867 36.0905 788.541 Q39.7508 791.182 46.212 791.182 Q52.6732 791.182 56.3653 788.541 Q60.0256 785.867 60.0256 781.22 Q60.0256 776.573 56.3653 773.931 Q52.6732 771.258 46.212 771.258 Z" fill="#000000" fill-rule="nonzero" fill-opacity="1" /><path clip-path="url(#clip400)" d="M32.4621 741.657 Q32.4621 746.368 36.1542 749.105 Q39.8145 751.842 46.212 751.842 Q52.6095 751.842 56.3017 749.137 Q59.9619 746.4 59.9619 741.657 Q59.9619 736.978 56.2698 734.241 Q52.5777 731.504 46.212 731.504 Q39.8781 731.504 36.186 734.241 Q32.4621 736.978 32.4621 741.657 M27.4968 741.657 Q27.4968 734.018 32.4621 729.658 Q37.4273 725.297 46.212 725.297 Q54.9649 725.297 59.9619 729.658 Q64.9272 734.018 64.9272 741.657 Q64.9272 749.328 59.9619 753.688 Q54.9649 758.017 46.212 758.017 Q37.4273 758.017 32.4621 753.688 Q27.4968 749.328 27.4968 741.657 Z" fill="#000000" fill-rule="nonzero" fill-opacity="1" /><path clip-path="url(#clip400)" d="M29.4065 692.864 L34.9447 692.864 Q33.6716 695.347 33.035 698.02 Q32.3984 700.694 32.3984 703.558 Q32.3984 707.919 33.7352 710.115 Q35.072 712.28 37.7456 712.28 Q39.7826 712.28 40.9603 710.72 Q42.1061 709.16 43.1565 704.45 L43.6021 702.444 Q44.9389 696.206 47.3897 693.596 Q49.8086 690.954 54.1691 690.954 Q59.1344 690.954 62.0308 694.901 Q64.9272 698.816 64.9272 705.691 Q64.9272 708.556 64.3543 711.675 Q63.8132 714.762 62.6992 718.2 L56.6518 718.2 Q58.3387 714.953 59.198 711.802 Q60.0256 708.651 60.0256 705.564 Q60.0256 701.426 58.6251 699.198 Q57.1929 696.97 54.6147 696.97 Q52.2276 696.97 50.9545 698.593 Q49.6813 700.185 48.5037 705.627 L48.0262 707.664 Q46.8804 713.107 44.5251 715.526 Q42.138 717.945 38.0002 717.945 Q32.9713 717.945 30.2341 714.38 Q27.4968 710.815 27.4968 704.259 Q27.4968 701.012 27.9743 698.148 Q28.4517 695.283 29.4065 692.864 Z" fill="#000000" fill-rule="nonzero" fill-opacity="1" /><path clip-path="url(#clip400)" d="M55.9197 680.801 L55.9197 674.085 L64.0042 674.085 L64.0042 680.801 L55.9197 680.801 Z" fill="#000000" fill-rule="nonzero" fill-opacity="1" /><path clip-path="url(#clip400)" d="M38.3822 619.881 Q39.3689 615.266 42.4881 612.688 Q45.6073 610.078 50.1906 610.078 Q57.2247 610.078 61.0759 614.916 Q64.9272 619.754 64.9272 628.666 Q64.9272 631.658 64.3224 634.841 Q63.7495 637.992 62.5719 641.366 L56.3653 641.366 Q57.9249 638.692 58.7206 635.509 Q59.5163 632.326 59.5163 628.857 Q59.5163 622.81 57.1292 619.658 Q54.7421 616.476 50.1906 616.476 Q45.9892 616.476 43.6339 619.436 Q41.2468 622.364 41.2468 627.616 L41.2468 633.154 L35.9632 633.154 L35.9632 627.361 Q35.9632 622.619 34.0853 620.104 Q32.1756 617.59 28.6108 617.59 Q24.9505 617.59 23.009 620.2 Q21.0356 622.778 21.0356 627.616 Q21.0356 630.257 21.6086 633.281 Q22.1815 636.305 23.3909 639.933 L17.6618 639.933 Q16.6433 636.273 16.134 633.09 Q15.6248 629.875 15.6248 627.043 Q15.6248 619.722 18.9668 615.457 Q22.277 611.192 27.9424 611.192 Q31.8892 611.192 34.6264 613.452 Q37.3318 615.712 38.3822 619.881 Z" fill="#000000" fill-rule="nonzero" fill-opacity="1" /><polyline clip-path="url(#clip402)" style="stroke:#ff0000; stroke-linecap:round; stroke-linejoin:round; stroke-width:4; stroke-opacity:1; fill:none" points="491.684,86.1857 604.613,167.314 717.542,248.442 830.471,329.571 943.4,410.699 1056.33,491.827 1169.26,572.955 1282.19,654.084 1395.12,735.212 1508.05,816.34 1620.98,897.469 1733.9,978.597 1846.83,1059.73 1959.76,1140.85 2072.69,1221.98 2185.62,1303.11 2298.55,1384.24 "/>
</svg>
