<?xml version="1.0" encoding="utf-8"?>
<svg xmlns="http://www.w3.org/2000/svg" xmlns:xlink="http://www.w3.org/1999/xlink" width="600" height="400" viewBox="0 0 2400 1600">
<defs>
  <clipPath id="clip860">
    <rect x="0" y="0" width="2400" height="1600"/>
  </clipPath>
</defs>
<path clip-path="url(#clip860)" d="M0 1600 L2400 1600 L2400 0 L0 0  Z" fill="#ffffff" fill-rule="evenodd" fill-opacity="1"/>
<defs>
  <clipPath id="clip861">
    <rect x="480" y="0" width="1681" height="1600"/>
  </clipPath>
</defs>
<path clip-path="url(#clip860)" d="M210.746 1423.18 L2352.76 1423.18 L2352.76 47.2441 L210.746 47.2441  Z" fill="#ffffff" fill-rule="evenodd" fill-opacity="1"/>
<defs>
  <clipPath id="clip862">
    <rect x="210" y="47" width="2143" height="1377"/>
  </clipPath>
</defs>
<polyline clip-path="url(#clip862)" style="stroke:#000000; stroke-linecap:round; stroke-linejoin:round; stroke-width:2; stroke-opacity:0.1; fill:none" points="271.369,1423.18 271.369,47.2441 "/>
<polyline clip-path="url(#clip862)" style="stroke:#000000; stroke-linecap:round; stroke-linejoin:round; stroke-width:2; stroke-opacity:0.1; fill:none" points="776.56,1423.18 776.56,47.2441 "/>
<polyline clip-path="url(#clip862)" style="stroke:#000000; stroke-linecap:round; stroke-linejoin:round; stroke-width:2; stroke-opacity:0.1; fill:none" points="1281.75,1423.18 1281.75,47.2441 "/>
<polyline clip-path="url(#clip862)" style="stroke:#000000; stroke-linecap:round; stroke-linejoin:round; stroke-width:2; stroke-opacity:0.1; fill:none" points="1786.94,1423.18 1786.94,47.2441 "/>
<polyline clip-path="url(#clip862)" style="stroke:#000000; stroke-linecap:round; stroke-linejoin:round; stroke-width:2; stroke-opacity:0.1; fill:none" points="2292.13,1423.18 2292.13,47.2441 "/>
<polyline clip-path="url(#clip862)" style="stroke:#000000; stroke-linecap:round; stroke-linejoin:round; stroke-width:2; stroke-opacity:0.1; fill:none" points="210.746,1285.23 2352.76,1285.23 "/>
<polyline clip-path="url(#clip862)" style="stroke:#000000; stroke-linecap:round; stroke-linejoin:round; stroke-width:2; stroke-opacity:0.1; fill:none" points="210.746,1032.64 2352.76,1032.64 "/>
<polyline clip-path="url(#clip862)" style="stroke:#000000; stroke-linecap:round; stroke-linejoin:round; stroke-width:2; stroke-opacity:0.1; fill:none" points="210.746,780.042 2352.76,780.042 "/>
<polyline clip-path="url(#clip862)" style="stroke:#000000; stroke-linecap:round; stroke-linejoin:round; stroke-width:2; stroke-opacity:0.1; fill:none" points="210.746,527.446 2352.76,527.446 "/>
<polyline clip-path="url(#clip862)" style="stroke:#000000; stroke-linecap:round; stroke-linejoin:round; stroke-width:2; stroke-opacity:0.1; fill:none" points="210.746,274.851 2352.76,274.851 "/>
<polyline clip-path="url(#clip860)" style="stroke:#000000; stroke-linecap:round; stroke-linejoin:round; stroke-width:4; stroke-opacity:1; fill:none" points="210.746,1423.18 2352.76,1423.18 "/>
<polyline clip-path="url(#clip860)" style="stroke:#000000; stroke-linecap:round; stroke-linejoin:round; stroke-width:4; stroke-opacity:1; fill:none" points="271.369,1423.18 271.369,1404.28 "/>
<polyline clip-path="url(#clip860)" style="stroke:#000000; stroke-linecap:round; stroke-linejoin:round; stroke-width:4; stroke-opacity:1; fill:none" points="776.56,1423.18 776.56,1404.28 "/>
<polyline clip-path="url(#clip860)" style="stroke:#000000; stroke-linecap:round; stroke-linejoin:round; stroke-width:4; stroke-opacity:1; fill:none" points="1281.75,1423.18 1281.75,1404.28 "/>
<polyline clip-path="url(#clip860)" style="stroke:#000000; stroke-linecap:round; stroke-linejoin:round; stroke-width:4; stroke-opacity:1; fill:none" points="1786.94,1423.18 1786.94,1404.28 "/>
<polyline clip-path="url(#clip860)" style="stroke:#000000; stroke-linecap:round; stroke-linejoin:round; stroke-width:4; stroke-opacity:1; fill:none" points="2292.13,1423.18 2292.13,1404.28 "/>
<path clip-path="url(#clip860)" d="M271.369 1454.1 Q267.758 1454.1 265.929 1457.66 Q264.124 1461.2 264.124 1468.33 Q264.124 1475.44 265.929 1479.01 Q267.758 1482.55 271.369 1482.55 Q275.003 1482.55 276.809 1479.01 Q278.637 1475.44 278.637 1468.33 Q278.637 1461.2 276.809 1457.66 Q275.003 1454.1 271.369 1454.1 M271.369 1450.39 Q277.179 1450.39 280.235 1455 Q283.313 1459.58 283.313 1468.33 Q283.313 1477.06 280.235 1481.67 Q277.179 1486.25 271.369 1486.25 Q265.559 1486.25 262.48 1481.67 Q259.424 1477.06 259.424 1468.33 Q259.424 1459.58 262.48 1455 Q265.559 1450.39 271.369 1450.39 Z" fill="#000000" fill-rule="nonzero" fill-opacity="1" /><path clip-path="url(#clip860)" d="M771.213 1481.64 L787.532 1481.64 L787.532 1485.58 L765.588 1485.58 L765.588 1481.64 Q768.25 1478.89 772.833 1474.26 Q777.44 1469.61 778.62 1468.27 Q780.865 1465.74 781.745 1464.01 Q782.648 1462.25 782.648 1460.56 Q782.648 1457.8 780.703 1456.07 Q778.782 1454.33 775.68 1454.33 Q773.481 1454.33 771.028 1455.09 Q768.597 1455.86 765.819 1457.41 L765.819 1452.69 Q768.643 1451.55 771.097 1450.97 Q773.551 1450.39 775.588 1450.39 Q780.958 1450.39 784.152 1453.08 Q787.347 1455.77 787.347 1460.26 Q787.347 1462.39 786.537 1464.31 Q785.75 1466.2 783.643 1468.8 Q783.064 1469.47 779.963 1472.69 Q776.861 1475.88 771.213 1481.64 Z" fill="#000000" fill-rule="nonzero" fill-opacity="1" /><path clip-path="url(#clip860)" d="M1284.76 1455.09 L1272.95 1473.54 L1284.76 1473.54 L1284.76 1455.09 M1283.53 1451.02 L1289.41 1451.02 L1289.41 1473.54 L1294.34 1473.54 L1294.34 1477.43 L1289.41 1477.43 L1289.41 1485.58 L1284.76 1485.58 L1284.76 1477.43 L1269.16 1477.43 L1269.16 1472.92 L1283.53 1451.02 Z" fill="#000000" fill-rule="nonzero" fill-opacity="1" /><path clip-path="url(#clip860)" d="M1787.35 1466.44 Q1784.2 1466.44 1782.35 1468.59 Q1780.52 1470.74 1780.52 1474.49 Q1780.52 1478.22 1782.35 1480.39 Q1784.2 1482.55 1787.35 1482.55 Q1790.5 1482.55 1792.32 1480.39 Q1794.18 1478.22 1794.18 1474.49 Q1794.18 1470.74 1792.32 1468.59 Q1790.5 1466.44 1787.35 1466.44 M1796.63 1451.78 L1796.63 1456.04 Q1794.87 1455.21 1793.06 1454.77 Q1791.28 1454.33 1789.52 1454.33 Q1784.89 1454.33 1782.44 1457.45 Q1780.01 1460.58 1779.66 1466.9 Q1781.03 1464.89 1783.09 1463.82 Q1785.15 1462.73 1787.62 1462.73 Q1792.83 1462.73 1795.84 1465.9 Q1798.87 1469.05 1798.87 1474.49 Q1798.87 1479.82 1795.73 1483.03 Q1792.58 1486.25 1787.35 1486.25 Q1781.35 1486.25 1778.18 1481.67 Q1775.01 1477.06 1775.01 1468.33 Q1775.01 1460.14 1778.9 1455.28 Q1782.79 1450.39 1789.34 1450.39 Q1791.1 1450.39 1792.88 1450.74 Q1794.68 1451.09 1796.63 1451.78 Z" fill="#000000" fill-rule="nonzero" fill-opacity="1" /><path clip-path="url(#clip860)" d="M2292.13 1469.17 Q2288.8 1469.17 2286.88 1470.95 Q2284.98 1472.73 2284.98 1475.86 Q2284.98 1478.98 2286.88 1480.77 Q2288.8 1482.55 2292.13 1482.55 Q2295.47 1482.55 2297.39 1480.77 Q2299.31 1478.96 2299.31 1475.86 Q2299.31 1472.73 2297.39 1470.95 Q2295.49 1469.17 2292.13 1469.17 M2287.46 1467.18 Q2284.45 1466.44 2282.76 1464.38 Q2281.09 1462.32 2281.09 1459.35 Q2281.09 1455.21 2284.03 1452.8 Q2286.99 1450.39 2292.13 1450.39 Q2297.29 1450.39 2300.23 1452.8 Q2303.17 1455.21 2303.17 1459.35 Q2303.17 1462.32 2301.48 1464.38 Q2299.82 1466.44 2296.83 1467.18 Q2300.21 1467.96 2302.09 1470.26 Q2303.98 1472.55 2303.98 1475.86 Q2303.98 1480.88 2300.91 1483.57 Q2297.85 1486.25 2292.13 1486.25 Q2286.42 1486.25 2283.34 1483.57 Q2280.28 1480.88 2280.28 1475.86 Q2280.28 1472.55 2282.18 1470.26 Q2284.08 1467.96 2287.46 1467.18 M2285.74 1459.79 Q2285.74 1462.48 2287.41 1463.98 Q2289.1 1465.49 2292.13 1465.49 Q2295.14 1465.49 2296.83 1463.98 Q2298.54 1462.48 2298.54 1459.79 Q2298.54 1457.11 2296.83 1455.6 Q2295.14 1454.1 2292.13 1454.1 Q2289.1 1454.1 2287.41 1455.6 Q2285.74 1457.11 2285.74 1459.79 Z" fill="#000000" fill-rule="nonzero" fill-opacity="1" /><path clip-path="url(#clip860)" d="M1268.24 1532.4 L1296.06 1532.4 L1296.06 1537.74 L1274.03 1563.37 L1296.06 1563.37 L1296.06 1568.04 L1267.44 1568.04 L1267.44 1562.7 L1289.47 1537.07 L1268.24 1537.07 L1268.24 1532.4 Z" fill="#000000" fill-rule="nonzero" fill-opacity="1" /><polyline clip-path="url(#clip860)" style="stroke:#000000; stroke-linecap:round; stroke-linejoin:round; stroke-width:4; stroke-opacity:1; fill:none" points="210.746,1423.18 210.746,47.2441 "/>
<polyline clip-path="url(#clip860)" style="stroke:#000000; stroke-linecap:round; stroke-linejoin:round; stroke-width:4; stroke-opacity:1; fill:none" points="210.746,1285.23 229.644,1285.23 "/>
<polyline clip-path="url(#clip860)" style="stroke:#000000; stroke-linecap:round; stroke-linejoin:round; stroke-width:4; stroke-opacity:1; fill:none" points="210.746,1032.64 229.644,1032.64 "/>
<polyline clip-path="url(#clip860)" style="stroke:#000000; stroke-linecap:round; stroke-linejoin:round; stroke-width:4; stroke-opacity:1; fill:none" points="210.746,780.042 229.644,780.042 "/>
<polyline clip-path="url(#clip860)" style="stroke:#000000; stroke-linecap:round; stroke-linejoin:round; stroke-width:4; stroke-opacity:1; fill:none" points="210.746,527.446 229.644,527.446 "/>
<polyline clip-path="url(#clip860)" style="stroke:#000000; stroke-linecap:round; stroke-linejoin:round; stroke-width:4; stroke-opacity:1; fill:none" points="210.746,274.851 229.644,274.851 "/>
<path clip-path="url(#clip860)" d="M114.631 1285.68 L144.306 1285.68 L144.306 1289.62 L114.631 1289.62 L114.631 1285.68 Z" fill="#000000" fill-rule="nonzero" fill-opacity="1" /><path clip-path="url(#clip860)" d="M158.427 1298.58 L174.746 1298.58 L174.746 1302.51 L152.802 1302.51 L152.802 1298.58 Q155.464 1295.82 160.047 1291.19 Q164.653 1286.54 165.834 1285.2 Q168.079 1282.67 168.959 1280.94 Q169.862 1279.18 169.862 1277.49 Q169.862 1274.74 167.917 1273 Q165.996 1271.26 162.894 1271.26 Q160.695 1271.26 158.241 1272.03 Q155.811 1272.79 153.033 1274.34 L153.033 1269.62 Q155.857 1268.49 158.311 1267.91 Q160.765 1267.33 162.802 1267.33 Q168.172 1267.33 171.366 1270.01 Q174.561 1272.7 174.561 1277.19 Q174.561 1279.32 173.751 1281.24 Q172.964 1283.14 170.857 1285.73 Q170.278 1286.4 167.177 1289.62 Q164.075 1292.81 158.427 1298.58 Z" fill="#000000" fill-rule="nonzero" fill-opacity="1" /><path clip-path="url(#clip860)" d="M114.26 1033.09 L143.936 1033.09 L143.936 1037.02 L114.26 1037.02 L114.26 1033.09 Z" fill="#000000" fill-rule="nonzero" fill-opacity="1" /><path clip-path="url(#clip860)" d="M154.839 1045.98 L162.477 1045.98 L162.477 1019.62 L154.167 1021.28 L154.167 1017.02 L162.431 1015.36 L167.107 1015.36 L167.107 1045.98 L174.746 1045.98 L174.746 1049.92 L154.839 1049.92 L154.839 1045.98 Z" fill="#000000" fill-rule="nonzero" fill-opacity="1" /><path clip-path="url(#clip860)" d="M162.802 765.84 Q159.19 765.84 157.362 769.405 Q155.556 772.947 155.556 780.076 Q155.556 787.183 157.362 790.748 Q159.19 794.289 162.802 794.289 Q166.436 794.289 168.241 790.748 Q170.07 787.183 170.07 780.076 Q170.07 772.947 168.241 769.405 Q166.436 765.84 162.802 765.84 M162.802 762.137 Q168.612 762.137 171.667 766.743 Q174.746 771.326 174.746 780.076 Q174.746 788.803 171.667 793.41 Q168.612 797.993 162.802 797.993 Q156.991 797.993 153.913 793.41 Q150.857 788.803 150.857 780.076 Q150.857 771.326 153.913 766.743 Q156.991 762.137 162.802 762.137 Z" fill="#000000" fill-rule="nonzero" fill-opacity="1" /><path clip-path="url(#clip860)" d="M154.839 540.791 L162.477 540.791 L162.477 514.425 L154.167 516.092 L154.167 511.833 L162.431 510.166 L167.107 510.166 L167.107 540.791 L174.746 540.791 L174.746 544.726 L154.839 544.726 L154.839 540.791 Z" fill="#000000" fill-rule="nonzero" fill-opacity="1" /><path clip-path="url(#clip860)" d="M158.427 288.195 L174.746 288.195 L174.746 292.131 L152.802 292.131 L152.802 288.195 Q155.464 285.441 160.047 280.811 Q164.653 276.158 165.834 274.816 Q168.079 272.293 168.959 270.557 Q169.862 268.797 169.862 267.108 Q169.862 264.353 167.917 262.617 Q165.996 260.881 162.894 260.881 Q160.695 260.881 158.241 261.645 Q155.811 262.409 153.033 263.959 L153.033 259.237 Q155.857 258.103 158.311 257.524 Q160.765 256.946 162.802 256.946 Q168.172 256.946 171.366 259.631 Q174.561 262.316 174.561 266.807 Q174.561 268.936 173.751 270.858 Q172.964 272.756 170.857 275.348 Q170.278 276.02 167.177 279.237 Q164.075 282.432 158.427 288.195 Z" fill="#000000" fill-rule="nonzero" fill-opacity="1" /><path clip-path="url(#clip860)" d="M67.3143 733.525 Q73.68 736.008 75.6216 738.363 Q77.5631 740.718 77.5631 744.665 L77.5631 749.344 L72.6615 749.344 L72.6615 745.906 Q72.6615 743.487 71.5157 742.151 Q70.3699 740.814 66.1048 739.191 L63.4312 738.14 L28.3562 752.559 L28.3562 746.352 L56.238 735.212 L28.3562 724.072 L28.3562 717.865 L67.3143 733.525 Z" fill="#000000" fill-rule="nonzero" fill-opacity="1" /><polyline clip-path="url(#clip862)" style="stroke:#000000; stroke-linecap:round; stroke-linejoin:round; stroke-width:4; stroke-opacity:1; fill:none" points="548.218,1285.23 539.372,1232.05 524.582,1178.88 509.554,1125.7 500.085,1072.52 499.829,1019.34 508.885,966.165 523.758,912.987 538.711,859.809 547.975,806.631 547.975,753.453 538.711,700.275 523.758,647.097 508.885,593.919 499.829,540.741 500.085,487.563 509.554,434.385 524.582,381.207 539.372,328.029 548.218,274.851 "/>
<polyline clip-path="url(#clip862)" style="stroke:#000000; stroke-linecap:round; stroke-linejoin:round; stroke-width:4; stroke-opacity:1; fill:none" points="2292.13,1285.23 2292.13,1232.05 2292.13,1178.88 2292.13,1125.7 2292.13,1072.52 2292.13,1019.34 2292.13,966.165 2292.13,912.987 2292.13,859.809 2292.13,806.631 2292.13,753.453 2292.13,700.275 2292.13,647.097 2292.13,593.919 2292.13,540.741 2292.13,487.563 2292.13,434.385 2292.13,381.207 2292.13,328.029 2292.13,274.851 "/>
<polyline clip-path="url(#clip862)" style="stroke:#ff0000; stroke-linecap:round; stroke-linejoin:round; stroke-width:4; stroke-opacity:1; fill:none" points="271.369,1285.23 547.967,1285.23 2292.13,1325.65 "/>
<polyline clip-path="url(#clip862)" style="stroke:#ff0000; stroke-linecap:round; stroke-linejoin:round; stroke-width:4; stroke-opacity:1; fill:none" points="271.369,1285.23 548.245,1285.23 2292.13,1321 "/>
<polyline clip-path="url(#clip862)" style="stroke:#ff0000; stroke-linecap:round; stroke-linejoin:round; stroke-width:4; stroke-opacity:1; fill:none" points="271.369,1285.23 548.873,1285.23 2292.13,1306.77 "/>
<polyline clip-path="url(#clip862)" style="stroke:#ff0000; stroke-linecap:round; stroke-linejoin:round; stroke-width:4; stroke-opacity:1; fill:none" points="271.369,1285.23 549.218,1285.23 2292.13,1282.55 "/>
<polyline clip-path="url(#clip862)" style="stroke:#ff0000; stroke-linecap:round; stroke-linejoin:round; stroke-width:4; stroke-opacity:1; fill:none" points="271.369,1285.23 548.218,1285.23 2292.13,1248.99 "/>
<polyline clip-path="url(#clip862)" style="stroke:#ff0000; stroke-linecap:round; stroke-linejoin:round; stroke-width:4; stroke-opacity:1; fill:none" points="271.369,1285.23 544.512,1285.23 2292.13,1209.8 "/>
<polyline clip-path="url(#clip862)" style="stroke:#ff0000; stroke-linecap:round; stroke-linejoin:round; stroke-width:4; stroke-opacity:1; fill:none" points="271.369,1285.23 536.899,1285.23 2292.13,1173.76 "/>
<polyline clip-path="url(#clip862)" style="stroke:#ff0000; stroke-linecap:round; stroke-linejoin:round; stroke-width:4; stroke-opacity:1; fill:none" points="271.369,1285.23 525.229,1285.23 2292.13,1155.09 "/>
<polyline clip-path="url(#clip862)" style="stroke:#ff0000; stroke-linecap:round; stroke-linejoin:round; stroke-width:4; stroke-opacity:1; fill:none" points="271.369,1285.23 511.58,1285.23 2292.13,1170.56 "/>
<polyline clip-path="url(#clip862)" style="stroke:#ff0000; stroke-linecap:round; stroke-linejoin:round; stroke-width:4; stroke-opacity:1; fill:none" points="271.369,1158.93 533.512,1158.93 2292.13,1038.6 "/>
<polyline clip-path="url(#clip862)" style="stroke:#ff0000; stroke-linecap:round; stroke-linejoin:round; stroke-width:4; stroke-opacity:1; fill:none" points="271.369,1158.93 532.628,1158.93 2292.13,1036.81 "/>
<polyline clip-path="url(#clip862)" style="stroke:#ff0000; stroke-linecap:round; stroke-linejoin:round; stroke-width:4; stroke-opacity:1; fill:none" points="271.369,1158.93 529.91,1158.93 2292.13,1032.45 "/>
<polyline clip-path="url(#clip862)" style="stroke:#ff0000; stroke-linecap:round; stroke-linejoin:round; stroke-width:4; stroke-opacity:1; fill:none" points="271.369,1158.93 525.229,1158.93 2292.13,1028.68 "/>
<polyline clip-path="url(#clip862)" style="stroke:#ff0000; stroke-linecap:round; stroke-linejoin:round; stroke-width:4; stroke-opacity:1; fill:none" points="271.369,1158.93 518.64,1158.93 2292.13,1030.95 "/>
<polyline clip-path="url(#clip862)" style="stroke:#ff0000; stroke-linecap:round; stroke-linejoin:round; stroke-width:4; stroke-opacity:1; fill:none" points="271.369,1158.93 510.764,1158.93 2292.13,1046.61 "/>
<polyline clip-path="url(#clip862)" style="stroke:#ff0000; stroke-linecap:round; stroke-linejoin:round; stroke-width:4; stroke-opacity:1; fill:none" points="271.369,1158.93 503.237,1158.93 2292.13,1083.05 "/>
<polyline clip-path="url(#clip862)" style="stroke:#ff0000; stroke-linecap:round; stroke-linejoin:round; stroke-width:4; stroke-opacity:1; fill:none" points="271.369,1158.93 498.889,1158.93 2292.13,1142.84 "/>
<polyline clip-path="url(#clip862)" style="stroke:#ff0000; stroke-linecap:round; stroke-linejoin:round; stroke-width:4; stroke-opacity:1; fill:none" points="271.369,1158.93 501.128,1158.93 2292.13,1215.81 "/>
<polyline clip-path="url(#clip862)" style="stroke:#ff0000; stroke-linecap:round; stroke-linejoin:round; stroke-width:4; stroke-opacity:1; fill:none" points="271.369,1032.64 501.312,1032.64 2292.13,973.745 "/>
<polyline clip-path="url(#clip862)" style="stroke:#ff0000; stroke-linecap:round; stroke-linejoin:round; stroke-width:4; stroke-opacity:1; fill:none" points="271.369,1032.64 500.909,1032.64 2292.13,978.236 "/>
<polyline clip-path="url(#clip862)" style="stroke:#ff0000; stroke-linecap:round; stroke-linejoin:round; stroke-width:4; stroke-opacity:1; fill:none" points="271.369,1032.64 499.896,1032.64 2292.13,992.174 "/>
<polyline clip-path="url(#clip862)" style="stroke:#ff0000; stroke-linecap:round; stroke-linejoin:round; stroke-width:4; stroke-opacity:1; fill:none" points="271.369,1032.64 498.889,1032.64 2292.13,1016.54 "/>
<polyline clip-path="url(#clip862)" style="stroke:#ff0000; stroke-linecap:round; stroke-linejoin:round; stroke-width:4; stroke-opacity:1; fill:none" points="271.369,1032.64 498.957,1032.64 2292.13,1051.47 "/>
<polyline clip-path="url(#clip862)" style="stroke:#ff0000; stroke-linecap:round; stroke-linejoin:round; stroke-width:4; stroke-opacity:1; fill:none" points="271.369,1032.64 501.548,1032.64 2292.13,1093.96 "/>
<polyline clip-path="url(#clip862)" style="stroke:#ff0000; stroke-linecap:round; stroke-linejoin:round; stroke-width:4; stroke-opacity:1; fill:none" points="271.369,1032.64 508.097,1032.64 2292.13,1135.4 "/>
<polyline clip-path="url(#clip862)" style="stroke:#ff0000; stroke-linecap:round; stroke-linejoin:round; stroke-width:4; stroke-opacity:1; fill:none" points="271.369,1032.64 519.151,1032.64 2292.13,1161.04 "/>
<polyline clip-path="url(#clip862)" style="stroke:#ff0000; stroke-linecap:round; stroke-linejoin:round; stroke-width:4; stroke-opacity:1; fill:none" points="271.369,1032.64 533.117,1032.64 2292.13,1153.66 "/>
<polyline clip-path="url(#clip862)" style="stroke:#ff0000; stroke-linecap:round; stroke-linejoin:round; stroke-width:4; stroke-opacity:1; fill:none" points="271.369,906.339 511.212,906.339 2292.13,1020.06 "/>
<polyline clip-path="url(#clip862)" style="stroke:#ff0000; stroke-linecap:round; stroke-linejoin:round; stroke-width:4; stroke-opacity:1; fill:none" points="271.369,906.339 512.038,906.339 2292.13,1022.39 "/>
<polyline clip-path="url(#clip862)" style="stroke:#ff0000; stroke-linecap:round; stroke-linejoin:round; stroke-width:4; stroke-opacity:1; fill:none" points="271.369,906.339 514.614,906.339 2292.13,1028.37 "/>
<polyline clip-path="url(#clip862)" style="stroke:#ff0000; stroke-linecap:round; stroke-linejoin:round; stroke-width:4; stroke-opacity:1; fill:none" points="271.369,906.339 519.151,906.339 2292.13,1034.84 "/>
<polyline clip-path="url(#clip862)" style="stroke:#ff0000; stroke-linecap:round; stroke-linejoin:round; stroke-width:4; stroke-opacity:1; fill:none" points="271.369,906.339 525.751,906.339 2292.13,1036.37 "/>
<polyline clip-path="url(#clip862)" style="stroke:#ff0000; stroke-linecap:round; stroke-linejoin:round; stroke-width:4; stroke-opacity:1; fill:none" points="271.369,906.339 533.993,906.339 2292.13,1025.56 "/>
<polyline clip-path="url(#clip862)" style="stroke:#ff0000; stroke-linecap:round; stroke-linejoin:round; stroke-width:4; stroke-opacity:1; fill:none" points="271.369,906.339 542.446,906.339 2292.13,994.742 "/>
<polyline clip-path="url(#clip862)" style="stroke:#ff0000; stroke-linecap:round; stroke-linejoin:round; stroke-width:4; stroke-opacity:1; fill:none" points="271.369,906.339 548.359,906.339 2292.13,940.001 "/>
<polyline clip-path="url(#clip862)" style="stroke:#ff0000; stroke-linecap:round; stroke-linejoin:round; stroke-width:4; stroke-opacity:1; fill:none" points="271.369,906.339 548.096,906.339 2292.13,868.008 "/>
<polyline clip-path="url(#clip862)" style="stroke:#ff0000; stroke-linecap:round; stroke-linejoin:round; stroke-width:4; stroke-opacity:1; fill:none" points="271.369,780.042 544.812,780.042 2292.13,853.286 "/>
<polyline clip-path="url(#clip862)" style="stroke:#ff0000; stroke-linecap:round; stroke-linejoin:round; stroke-width:4; stroke-opacity:1; fill:none" points="271.369,780.042 545.332,780.042 2292.13,849.219 "/>
<polyline clip-path="url(#clip862)" style="stroke:#ff0000; stroke-linecap:round; stroke-linejoin:round; stroke-width:4; stroke-opacity:1; fill:none" points="271.369,780.042 546.709,780.042 2292.13,836.463 "/>
<polyline clip-path="url(#clip862)" style="stroke:#ff0000; stroke-linecap:round; stroke-linejoin:round; stroke-width:4; stroke-opacity:1; fill:none" points="271.369,780.042 548.359,780.042 2292.13,813.705 "/>
<polyline clip-path="url(#clip862)" style="stroke:#ff0000; stroke-linecap:round; stroke-linejoin:round; stroke-width:4; stroke-opacity:1; fill:none" points="271.369,780.042 549.224,780.042 2292.13,780.042 "/>
<polyline clip-path="url(#clip862)" style="stroke:#ff0000; stroke-linecap:round; stroke-linejoin:round; stroke-width:4; stroke-opacity:1; fill:none" points="271.369,780.042 547.799,780.042 2292.13,737.089 "/>
<polyline clip-path="url(#clip862)" style="stroke:#ff0000; stroke-linecap:round; stroke-linejoin:round; stroke-width:4; stroke-opacity:1; fill:none" points="271.369,780.042 542.446,780.042 2292.13,691.639 "/>
<polyline clip-path="url(#clip862)" style="stroke:#ff0000; stroke-linecap:round; stroke-linejoin:round; stroke-width:4; stroke-opacity:1; fill:none" points="271.369,780.042 532.228,780.042 2292.13,657.273 "/>
<polyline clip-path="url(#clip862)" style="stroke:#ff0000; stroke-linecap:round; stroke-linejoin:round; stroke-width:4; stroke-opacity:1; fill:none" points="271.369,780.042 518.225,780.042 2292.13,652.617 "/>
<polyline clip-path="url(#clip862)" style="stroke:#ff0000; stroke-linecap:round; stroke-linejoin:round; stroke-width:4; stroke-opacity:1; fill:none" points="271.369,653.744 539.666,653.744 2292.13,552.082 "/>
<polyline clip-path="url(#clip862)" style="stroke:#ff0000; stroke-linecap:round; stroke-linejoin:round; stroke-width:4; stroke-opacity:1; fill:none" points="271.369,653.744 538.913,653.744 2292.13,549.117 "/>
<polyline clip-path="url(#clip862)" style="stroke:#ff0000; stroke-linecap:round; stroke-linejoin:round; stroke-width:4; stroke-opacity:1; fill:none" points="271.369,653.744 536.533,653.744 2292.13,541.102 "/>
<polyline clip-path="url(#clip862)" style="stroke:#ff0000; stroke-linecap:round; stroke-linejoin:round; stroke-width:4; stroke-opacity:1; fill:none" points="271.369,653.744 532.228,653.744 2292.13,530.886 "/>
<polyline clip-path="url(#clip862)" style="stroke:#ff0000; stroke-linecap:round; stroke-linejoin:round; stroke-width:4; stroke-opacity:1; fill:none" points="271.369,653.744 525.751,653.744 2292.13,523.709 "/>
<polyline clip-path="url(#clip862)" style="stroke:#ff0000; stroke-linecap:round; stroke-linejoin:round; stroke-width:4; stroke-opacity:1; fill:none" points="271.369,653.744 517.307,653.744 2292.13,527.343 "/>
<polyline clip-path="url(#clip862)" style="stroke:#ff0000; stroke-linecap:round; stroke-linejoin:round; stroke-width:4; stroke-opacity:1; fill:none" points="271.369,653.744 508.097,653.744 2292.13,550.984 "/>
<polyline clip-path="url(#clip862)" style="stroke:#ff0000; stroke-linecap:round; stroke-linejoin:round; stroke-width:4; stroke-opacity:1; fill:none" points="271.369,653.744 500.739,653.744 2292.13,601.391 "/>
<polyline clip-path="url(#clip862)" style="stroke:#ff0000; stroke-linecap:round; stroke-linejoin:round; stroke-width:4; stroke-opacity:1; fill:none" points="271.369,653.744 499.021,653.744 2292.13,674.793 "/>
<polyline clip-path="url(#clip862)" style="stroke:#ff0000; stroke-linecap:round; stroke-linejoin:round; stroke-width:4; stroke-opacity:1; fill:none" points="271.369,527.446 505.338,527.446 2292.13,437.949 "/>
<polyline clip-path="url(#clip862)" style="stroke:#ff0000; stroke-linecap:round; stroke-linejoin:round; stroke-width:4; stroke-opacity:1; fill:none" points="271.369,527.446 504.711,527.446 2292.13,441.62 "/>
<polyline clip-path="url(#clip862)" style="stroke:#ff0000; stroke-linecap:round; stroke-linejoin:round; stroke-width:4; stroke-opacity:1; fill:none" points="271.369,527.446 502.997,527.446 2292.13,453.371 "/>
<polyline clip-path="url(#clip862)" style="stroke:#ff0000; stroke-linecap:round; stroke-linejoin:round; stroke-width:4; stroke-opacity:1; fill:none" points="271.369,527.446 500.739,527.446 2292.13,475.087 "/>
<polyline clip-path="url(#clip862)" style="stroke:#ff0000; stroke-linecap:round; stroke-linejoin:round; stroke-width:4; stroke-opacity:1; fill:none" points="271.369,527.446 498.957,527.446 2292.13,508.613 "/>
<polyline clip-path="url(#clip862)" style="stroke:#ff0000; stroke-linecap:round; stroke-linejoin:round; stroke-width:4; stroke-opacity:1; fill:none" points="271.369,527.446 499.188,527.446 2292.13,553.416 "/>
<polyline clip-path="url(#clip862)" style="stroke:#ff0000; stroke-linecap:round; stroke-linejoin:round; stroke-width:4; stroke-opacity:1; fill:none" points="271.369,527.446 503.237,527.446 2292.13,603.328 "/>
<polyline clip-path="url(#clip862)" style="stroke:#ff0000; stroke-linecap:round; stroke-linejoin:round; stroke-width:4; stroke-opacity:1; fill:none" points="271.369,527.446 512.414,527.446 2292.13,644.398 "/>
<polyline clip-path="url(#clip862)" style="stroke:#ff0000; stroke-linecap:round; stroke-linejoin:round; stroke-width:4; stroke-opacity:1; fill:none" points="271.369,527.446 526.174,527.446 2292.13,657.153 "/>
<polyline clip-path="url(#clip862)" style="stroke:#ff0000; stroke-linecap:round; stroke-linejoin:round; stroke-width:4; stroke-opacity:1; fill:none" points="271.369,401.148 505.627,401.148 2292.13,492.248 "/>
<polyline clip-path="url(#clip862)" style="stroke:#ff0000; stroke-linecap:round; stroke-linejoin:round; stroke-width:4; stroke-opacity:1; fill:none" points="271.369,401.148 506.292,401.148 2292.13,495.723 "/>
<polyline clip-path="url(#clip862)" style="stroke:#ff0000; stroke-linecap:round; stroke-linejoin:round; stroke-width:4; stroke-opacity:1; fill:none" points="271.369,401.148 508.429,401.148 2292.13,505.297 "/>
<polyline clip-path="url(#clip862)" style="stroke:#ff0000; stroke-linecap:round; stroke-linejoin:round; stroke-width:4; stroke-opacity:1; fill:none" points="271.369,401.148 512.414,401.148 2292.13,518.176 "/>
<polyline clip-path="url(#clip862)" style="stroke:#ff0000; stroke-linecap:round; stroke-linejoin:round; stroke-width:4; stroke-opacity:1; fill:none" points="271.369,401.148 518.64,401.148 2292.13,529.136 "/>
<polyline clip-path="url(#clip862)" style="stroke:#ff0000; stroke-linecap:round; stroke-linejoin:round; stroke-width:4; stroke-opacity:1; fill:none" points="271.369,401.148 527.116,401.148 2292.13,530.379 "/>
<polyline clip-path="url(#clip862)" style="stroke:#ff0000; stroke-linecap:round; stroke-linejoin:round; stroke-width:4; stroke-opacity:1; fill:none" points="271.369,401.148 536.899,401.148 2292.13,512.624 "/>
<polyline clip-path="url(#clip862)" style="stroke:#ff0000; stroke-linecap:round; stroke-linejoin:round; stroke-width:4; stroke-opacity:1; fill:none" points="271.369,401.148 545.555,401.148 2292.13,468.453 "/>
<polyline clip-path="url(#clip862)" style="stroke:#ff0000; stroke-linecap:round; stroke-linejoin:round; stroke-width:4; stroke-opacity:1; fill:none" points="271.369,401.148 549.22,401.148 2292.13,398.967 "/>
<polyline clip-path="url(#clip862)" style="stroke:#ff0000; stroke-linecap:round; stroke-linejoin:round; stroke-width:4; stroke-opacity:1; fill:none" points="271.369,274.851 539.996,274.851 2292.13,375.136 "/>
<polyline clip-path="url(#clip862)" style="stroke:#ff0000; stroke-linecap:round; stroke-linejoin:round; stroke-width:4; stroke-opacity:1; fill:none" points="271.369,274.851 540.717,274.851 2292.13,371.966 "/>
<polyline clip-path="url(#clip862)" style="stroke:#ff0000; stroke-linecap:round; stroke-linejoin:round; stroke-width:4; stroke-opacity:1; fill:none" points="271.369,274.851 542.733,274.851 2292.13,361.67 "/>
<polyline clip-path="url(#clip862)" style="stroke:#ff0000; stroke-linecap:round; stroke-linejoin:round; stroke-width:4; stroke-opacity:1; fill:none" points="271.369,274.851 545.555,274.851 2292.13,342.17 "/>
<polyline clip-path="url(#clip862)" style="stroke:#ff0000; stroke-linecap:round; stroke-linejoin:round; stroke-width:4; stroke-opacity:1; fill:none" points="271.369,274.851 548.218,274.851 2292.13,311.097 "/>
<polyline clip-path="url(#clip862)" style="stroke:#ff0000; stroke-linecap:round; stroke-linejoin:round; stroke-width:4; stroke-opacity:1; fill:none" points="271.369,274.851 549.187,274.851 2292.13,267.808 "/>
<polyline clip-path="url(#clip862)" style="stroke:#ff0000; stroke-linecap:round; stroke-linejoin:round; stroke-width:4; stroke-opacity:1; fill:none" points="271.369,274.851 546.521,274.851 2292.13,216.481 "/>
<polyline clip-path="url(#clip862)" style="stroke:#ff0000; stroke-linecap:round; stroke-linejoin:round; stroke-width:4; stroke-opacity:1; fill:none" points="271.369,274.851 538.569,274.851 2292.13,169.009 "/>
<polyline clip-path="url(#clip862)" style="stroke:#ff0000; stroke-linecap:round; stroke-linejoin:round; stroke-width:4; stroke-opacity:1; fill:none" points="271.369,274.851 525.327,274.851 2292.13,144.777 "/>
</svg>
